<svg xmlns="http://www.w3.org/2000/svg" width="1120" height="265" viewBox="0 0 1120 265">
  <g id="Grupo_13667" data-name="Grupo 13667" transform="translate(-3673 4787)">
    <rect id="Rectángulo_3250" data-name="Rectángulo 3250" width="265" height="265" transform="translate(3673 -4787)" fill="#00b6ba"/>
    <rect id="Rectángulo_3249" data-name="Rectángulo 3249" width="265" height="265" transform="translate(3958 -4787)" fill="#00b6ba"/>
    <rect id="Rectángulo_3248" data-name="Rectángulo 3248" width="265" height="265" transform="translate(4243 -4787)" fill="#00b6ba"/>
    <rect id="Rectángulo_3247" data-name="Rectángulo 3247" width="265" height="265" transform="translate(4528 -4787)" fill="#00b6ba"/>
    <path id="Trazado_20175" data-name="Trazado 20175" d="M8.492,5.6H1.826V21H5.39V16.754h3.1c4.114,0,6.688-2.134,6.688-5.566C15.18,7.734,12.606,5.6,8.492,5.6Zm-.2,8.25H5.39V8.5h2.9c2.178,0,3.278.99,3.278,2.684C11.572,12.86,10.472,13.85,8.294,13.85ZM29.04,15.126a5.859,5.859,0,0,0-6.16-6.138,6.026,6.026,0,0,0-6.314,6.094c0,3.52,2.662,6.094,6.754,6.094A6.2,6.2,0,0,0,28.2,19.262l-1.826-1.98a4.012,4.012,0,0,1-2.97,1.144A3.156,3.156,0,0,1,20.02,16.05h8.954C29,15.764,29.04,15.39,29.04,15.126ZM22.9,11.584a2.813,2.813,0,0,1,2.9,2.464h-5.83A2.8,2.8,0,0,1,22.9,11.584Zm11.7-.858V9.164H31.328V21H34.76V15.412c0-2.266,1.254-3.3,3.146-3.3.264,0,.484.022.77.044V8.988A4.777,4.777,0,0,0,34.606,10.726Zm7.832-3.212a1.973,1.973,0,0,0,2.134-1.98,1.927,1.927,0,0,0-2.134-1.848A1.962,1.962,0,0,0,40.3,5.6,1.962,1.962,0,0,0,42.438,7.514ZM40.722,21h3.432V9.164H40.722ZM50.93,7.646h2.684L57.6,4.478H53.9Zm2.046,13.53c3.762,0,6.49-2.53,6.49-6.094s-2.728-6.094-6.49-6.094-6.512,2.53-6.512,6.094S49.214,21.176,52.976,21.176Zm0-2.816a3,3,0,0,1-3.036-3.278,3.035,3.035,0,1,1,6.05,0A2.987,2.987,0,0,1,52.976,18.36Zm17.4-13.684v5.742a4.547,4.547,0,0,0-3.542-1.43,5.754,5.754,0,0,0-5.918,6.094,5.754,5.754,0,0,0,5.918,6.094,4.553,4.553,0,0,0,3.7-1.54V21H73.81V4.676ZM67.43,18.36a3,3,0,0,1-3.036-3.278,3.035,3.035,0,1,1,6.05,0A3,3,0,0,1,67.43,18.36ZM78.694,7.514a1.973,1.973,0,0,0,2.134-1.98,1.927,1.927,0,0,0-2.134-1.848A1.962,1.962,0,0,0,76.56,5.6,1.962,1.962,0,0,0,78.694,7.514ZM76.978,21H80.41V9.164H76.978Zm12.342.176a5.491,5.491,0,0,0,5.3-2.992L91.96,16.732A2.912,2.912,0,0,1,89.3,18.36a3.029,3.029,0,0,1-3.1-3.278A3.029,3.029,0,0,1,89.3,11.8a2.951,2.951,0,0,1,2.662,1.628L94.622,12c-.858-1.936-2.816-3.014-5.3-3.014-3.85,0-6.6,2.53-6.6,6.094S85.47,21.176,89.32,21.176ZM101.376,8.988a9.1,9.1,0,0,0-5.1,1.43l1.232,2.4a5.691,5.691,0,0,1,3.41-1.1c1.848,0,2.728.858,2.728,2.332h-2.728c-3.608,0-5.082,1.452-5.082,3.542,0,2.046,1.65,3.586,4.422,3.586a3.884,3.884,0,0,0,3.608-1.65V21h3.212V14.246C107.074,10.66,104.984,8.988,101.376,8.988Zm-.264,9.878c-1.21,0-1.936-.572-1.936-1.43,0-.792.506-1.386,2.112-1.386h2.354v1.21A2.529,2.529,0,0,1,101.112,18.866Zm10.362-5.588a2.1,2.1,0,0,0,2.134-2.156,2.134,2.134,0,0,0-4.268,0A2.1,2.1,0,0,0,111.474,13.278Zm0,7.9a2.1,2.1,0,0,0,2.134-2.156,2.134,2.134,0,0,0-4.268,0A2.1,2.1,0,0,0,111.474,21.176ZM6.974,75.11a5.1,5.1,0,0,0,4.532-2.288L10.34,72.03a3.914,3.914,0,0,1-3.366,1.694,4.512,4.512,0,0,1,0-9.02A3.934,3.934,0,0,1,10.34,66.42l1.166-.792A5.054,5.054,0,0,0,6.974,63.34a5.885,5.885,0,1,0,0,11.77ZM23.43,63.428V69.5c0,2.64-1.518,4.2-3.938,4.2-2.2,0-3.476-1.254-3.476-3.718V63.428H14.454v6.71c0,3.322,1.936,4.972,4.884,4.972A4.6,4.6,0,0,0,23.5,72.888V75h1.5V63.428Zm9.988-.088A7.348,7.348,0,0,0,28.71,64.9l.7,1.166a5.9,5.9,0,0,1,3.85-1.364c2.156,0,3.278,1.078,3.278,3.058v.7H32.868c-3.322,0-4.466,1.5-4.466,3.278,0,2,1.606,3.366,4.224,3.366A4.345,4.345,0,0,0,36.608,73.2V75h1.5V67.828C38.1,64.836,36.41,63.34,33.418,63.34Zm-.55,10.538c-1.848,0-2.926-.836-2.926-2.178,0-1.188.726-2.068,2.97-2.068h3.63v1.892A3.7,3.7,0,0,1,32.868,73.878ZM48.246,63.34a4.863,4.863,0,0,0-4.4,2.222V63.428h-1.5V75h1.562V68.928c0-2.64,1.562-4.18,4.048-4.18,2.2,0,3.476,1.254,3.476,3.7V75H53V68.29C53,64.968,51.062,63.34,48.246,63.34Zm18.04-4.664v6.952a5.054,5.054,0,0,0-4.4-2.288,5.886,5.886,0,0,0,0,11.77,5.013,5.013,0,0,0,4.466-2.4V75h1.5V58.676ZM62.018,73.724a4.516,4.516,0,1,1,4.29-4.51A4.237,4.237,0,0,1,62.018,73.724ZM76.934,75.11a5.885,5.885,0,1,0-5.9-5.9A5.692,5.692,0,0,0,76.934,75.11Zm0-1.386a4.516,4.516,0,1,1,4.29-4.51A4.237,4.237,0,0,1,76.934,73.724Zm17.93,1.386c3.014,0,4.774-1.3,4.774-3.3,0-4.444-7.5-2.09-7.5-5.214,0-1.1.924-1.914,3.014-1.914a5.931,5.931,0,0,1,3.41.99l.682-1.254A7.842,7.842,0,0,0,95.15,63.34c-2.948,0-4.576,1.408-4.576,3.3,0,4.576,7.5,2.2,7.5,5.214,0,1.144-.9,1.892-3.1,1.892a6.99,6.99,0,0,1-4.114-1.3l-.7,1.232A7.731,7.731,0,0,0,94.864,75.11Zm17.754-5.9a5.514,5.514,0,0,0-5.61-5.874,5.573,5.573,0,0,0-5.654,5.874,6.118,6.118,0,0,0,10.538,4l-.88-1.012a4.561,4.561,0,0,1-3.542,1.518,4.283,4.283,0,0,1-4.554-4.026h9.68C112.6,69.522,112.618,69.346,112.618,69.214Zm-5.61-4.532a4.025,4.025,0,0,1,4.114,3.85h-8.206A4.019,4.019,0,0,1,107.008,64.682Zm24.662,4.532a5.514,5.514,0,0,0-5.61-5.874,5.573,5.573,0,0,0-5.654,5.874,6.118,6.118,0,0,0,10.538,4l-.88-1.012a4.561,4.561,0,0,1-3.542,1.518,4.283,4.283,0,0,1-4.554-4.026h9.68C131.648,69.522,131.67,69.346,131.67,69.214Zm-5.61-4.532a4.025,4.025,0,0,1,4.114,3.85h-8.206A4.019,4.019,0,0,1,126.06,64.682Zm11.9,10.428c3.014,0,4.774-1.3,4.774-3.3,0-4.444-7.5-2.09-7.5-5.214,0-1.1.924-1.914,3.014-1.914a5.931,5.931,0,0,1,3.41.99l.682-1.254a7.842,7.842,0,0,0-4.092-1.078c-2.948,0-4.576,1.408-4.576,3.3,0,4.576,7.5,2.2,7.5,5.214,0,1.144-.9,1.892-3.1,1.892a6.99,6.99,0,0,1-4.114-1.3l-.7,1.232A7.731,7.731,0,0,0,137.962,75.11Zm13.2-1.936a2.585,2.585,0,0,1-1.716.594,1.853,1.853,0,0,1-2-2.112V64.748h3.52v-1.32h-3.52V60.9h-1.562v2.53h-2.068v1.32h2.068v7a3.065,3.065,0,0,0,3.388,3.366,3.72,3.72,0,0,0,2.442-.814ZM158.6,63.34A7.348,7.348,0,0,0,153.89,64.9l.7,1.166a5.9,5.9,0,0,1,3.85-1.364c2.156,0,3.278,1.078,3.278,3.058v.7h-3.674c-3.322,0-4.466,1.5-4.466,3.278,0,2,1.606,3.366,4.224,3.366a4.345,4.345,0,0,0,3.982-1.914V75h1.5V67.828C163.284,64.836,161.59,63.34,158.6,63.34Zm-.55,10.538c-1.848,0-2.926-.836-2.926-2.178,0-1.188.726-2.068,2.97-2.068h3.63v1.892A3.7,3.7,0,0,1,158.048,73.878ZM173.492,63.34a5.054,5.054,0,0,0-4.4,2.288V58.676H167.53V75h1.5V72.712a5.013,5.013,0,0,0,4.466,2.4,5.886,5.886,0,0,0,0-11.77Zm-.11,10.384a4.515,4.515,0,1,1,4.312-4.51A4.237,4.237,0,0,1,173.382,73.724ZM182.446,75h1.562V58.676h-1.562Zm16.016-5.786a5.514,5.514,0,0,0-5.61-5.874,5.573,5.573,0,0,0-5.654,5.874,6.118,6.118,0,0,0,10.538,4l-.88-1.012a4.561,4.561,0,0,1-3.542,1.518A4.283,4.283,0,0,1,188.76,69.7h9.68C198.44,69.522,198.462,69.346,198.462,69.214Zm-5.61-4.532a4.025,4.025,0,0,1,4.114,3.85H188.76A4.019,4.019,0,0,1,192.852,64.682Zm13.6,10.428a5.1,5.1,0,0,0,4.532-2.288l-1.166-.792a3.914,3.914,0,0,1-3.366,1.694,4.512,4.512,0,0,1,0-9.02,3.934,3.934,0,0,1,3.366,1.716l1.166-.792a5.054,5.054,0,0,0-4.532-2.288,5.885,5.885,0,1,0,0,11.77Zm17.49-5.9a5.514,5.514,0,0,0-5.61-5.874,5.573,5.573,0,0,0-5.654,5.874,6.118,6.118,0,0,0,10.538,4l-.88-1.012a4.561,4.561,0,0,1-3.542,1.518,4.283,4.283,0,0,1-4.554-4.026h9.68C223.916,69.522,223.938,69.346,223.938,69.214Zm-5.61-4.532a4.025,4.025,0,0,1,4.114,3.85h-8.206A4.019,4.019,0,0,1,218.328,64.682ZM12.276,96.214a5.514,5.514,0,0,0-5.61-5.874,5.573,5.573,0,0,0-5.654,5.874,5.731,5.731,0,0,0,6.072,5.9,5.7,5.7,0,0,0,4.466-1.892l-.88-1.012a4.561,4.561,0,0,1-3.542,1.518A4.283,4.283,0,0,1,2.574,96.7h9.68C12.254,96.522,12.276,96.346,12.276,96.214Zm-5.61-4.532a4.025,4.025,0,0,1,4.114,3.85H2.574A4.019,4.019,0,0,1,6.666,91.682Zm14.7-1.342a4.863,4.863,0,0,0-4.4,2.222V90.428h-1.5V102h1.562V95.928c0-2.64,1.562-4.18,4.048-4.18,2.2,0,3.476,1.254,3.476,3.7V102h1.562V95.29C26.114,91.968,24.178,90.34,21.362,90.34Zm20.724,0a5.04,5.04,0,0,0-4.466,2.376V90.428h-1.5v15.84h1.562V99.822a5.054,5.054,0,0,0,4.4,2.288,5.886,5.886,0,0,0,0-11.77Zm-.11,10.384a4.515,4.515,0,1,1,4.312-4.51A4.237,4.237,0,0,1,41.976,100.724Zm19.162-4.51a5.514,5.514,0,0,0-5.61-5.874,5.573,5.573,0,0,0-5.654,5.874,5.731,5.731,0,0,0,6.072,5.9,5.7,5.7,0,0,0,4.466-1.892l-.88-1.012a4.561,4.561,0,0,1-3.542,1.518A4.283,4.283,0,0,1,51.436,96.7h9.68C61.116,96.522,61.138,96.346,61.138,96.214Zm-5.61-4.532a4.025,4.025,0,0,1,4.114,3.85H51.436A4.019,4.019,0,0,1,55.528,91.682Zm10.3,1.012V90.428h-1.5V102H65.89V96.1c0-2.728,1.474-4.268,3.894-4.268.11,0,.242.022.374.022V90.34C68.024,90.34,66.55,91.154,65.824,92.694Zm7.942-4.8a1.123,1.123,0,0,0,1.144-1.144,1.109,1.109,0,0,0-1.144-1.078,1.111,1.111,0,1,0,0,2.222ZM72.974,102h1.562V90.428H72.974Zm10.648.11a5.885,5.885,0,1,0-5.9-5.9A5.692,5.692,0,0,0,83.622,102.11Zm0-1.386a4.516,4.516,0,1,1,4.29-4.51A4.237,4.237,0,0,1,83.622,100.724Zm18.062-15.048v6.952a5.054,5.054,0,0,0-4.4-2.288,5.886,5.886,0,0,0,0,11.77,5.013,5.013,0,0,0,4.466-2.4V102h1.5V85.676Zm-4.268,15.048a4.516,4.516,0,1,1,4.29-4.51A4.237,4.237,0,0,1,97.416,100.724Zm14.916,1.386a5.885,5.885,0,1,0-5.9-5.9A5.692,5.692,0,0,0,112.332,102.11Zm0-1.386a4.516,4.516,0,1,1,4.29-4.51A4.237,4.237,0,0,1,112.332,100.724ZM124.5,102.11c3.014,0,4.774-1.3,4.774-3.3,0-4.444-7.5-2.09-7.5-5.214,0-1.1.924-1.914,3.014-1.914a5.931,5.931,0,0,1,3.41.99l.682-1.254a7.842,7.842,0,0,0-4.092-1.078c-2.948,0-4.576,1.408-4.576,3.3,0,4.576,7.5,2.2,7.5,5.214,0,1.144-.9,1.892-3.1,1.892a6.99,6.99,0,0,1-4.114-1.3l-.7,1.232A7.731,7.731,0,0,0,124.5,102.11ZM138.182,89v1.43h-2.068v1.32h2.068V102h1.562V91.748h3.52v-1.32H139.7V89.064c0-1.43.7-2.178,2.046-2.178a2.646,2.646,0,0,1,1.716.572l.528-1.166a3.667,3.667,0,0,0-2.31-.726A3.187,3.187,0,0,0,138.182,89Zm9.746-3.322a1.111,1.111,0,1,0,1.144,1.078A1.109,1.109,0,0,0,147.928,85.676ZM147.136,102H148.7V90.428h-1.562Zm6.82-14.1a1.123,1.123,0,0,0,1.144-1.144,1.109,1.109,0,0,0-1.144-1.078,1.111,1.111,0,1,0,0,2.222Zm-2.618,18.48a3.171,3.171,0,0,0,3.388-3.52V90.428h-1.562v12.43c0,1.43-.682,2.178-1.914,2.178a2.7,2.7,0,0,1-1.8-.594l-.55,1.188A3.8,3.8,0,0,0,151.338,106.378Zm12.474-4.268a5.885,5.885,0,1,0-5.9-5.9A5.692,5.692,0,0,0,163.812,102.11Zm0-1.386a4.516,4.516,0,1,1,4.29-4.51A4.237,4.237,0,0,1,163.812,100.724Zm12.166,1.386c3.014,0,4.774-1.3,4.774-3.3,0-4.444-7.5-2.09-7.5-5.214,0-1.1.924-1.914,3.014-1.914a5.931,5.931,0,0,1,3.41.99l.682-1.254a7.842,7.842,0,0,0-4.092-1.078c-2.948,0-4.576,1.408-4.576,3.3,0,4.576,7.5,2.2,7.5,5.214,0,1.144-.9,1.892-3.1,1.892a6.99,6.99,0,0,1-4.114-1.3l-.7,1.232A7.731,7.731,0,0,0,175.978,102.11ZM198.4,85.676v6.952A5.054,5.054,0,0,0,194,90.34a5.886,5.886,0,0,0,0,11.77,5.013,5.013,0,0,0,4.466-2.4V102h1.5V85.676Zm-4.268,15.048a4.516,4.516,0,1,1,4.29-4.51A4.237,4.237,0,0,1,194.128,100.724Zm20.284-4.51a5.514,5.514,0,0,0-5.61-5.874,5.573,5.573,0,0,0-5.654,5.874,6.118,6.118,0,0,0,10.538,4l-.88-1.012a4.561,4.561,0,0,1-3.542,1.518A4.283,4.283,0,0,1,204.71,96.7h9.68C214.39,96.522,214.412,96.346,214.412,96.214Zm-5.61-4.532a4.025,4.025,0,0,1,4.114,3.85H204.71A4.019,4.019,0,0,1,208.8,91.682ZM7.722,127.174a2.585,2.585,0,0,1-1.716.594,1.853,1.853,0,0,1-2-2.112v-6.908h3.52v-1.32H4V114.9H2.442v2.53H.374v1.32H2.442v7A3.065,3.065,0,0,0,5.83,129.11a3.72,3.72,0,0,0,2.442-.814ZM11.9,114.9a1.123,1.123,0,0,0,1.144-1.144,1.109,1.109,0,0,0-1.144-1.078,1.111,1.111,0,1,0,0,2.222ZM11.11,129h1.562V117.428H11.11Zm16.016-5.786a5.514,5.514,0,0,0-5.61-5.874,5.573,5.573,0,0,0-5.654,5.874,5.731,5.731,0,0,0,6.072,5.9,5.7,5.7,0,0,0,4.466-1.892l-.88-1.012a4.561,4.561,0,0,1-3.542,1.518,4.283,4.283,0,0,1-4.554-4.026H27.1C27.1,123.522,27.126,123.346,27.126,123.214Zm-5.61-4.532a4.025,4.025,0,0,1,4.114,3.85H17.424A4.019,4.019,0,0,1,21.516,118.682Zm23.232-1.342a5.039,5.039,0,0,0-4.576,2.442,4.156,4.156,0,0,0-4.114-2.442,4.68,4.68,0,0,0-4.246,2.2v-2.112h-1.5V129h1.562v-6.072c0-2.64,1.518-4.18,3.872-4.18,2.112,0,3.344,1.254,3.344,3.7V129h1.562v-6.072c0-2.64,1.5-4.18,3.872-4.18,2.09,0,3.322,1.254,3.322,3.7V129h1.562v-6.71C49.412,118.968,47.564,117.34,44.748,117.34Zm14.872,0a5.04,5.04,0,0,0-4.466,2.376v-2.288h-1.5v15.84H55.22v-6.446a5.054,5.054,0,0,0,4.4,2.288,5.886,5.886,0,0,0,0-11.77Zm-.11,10.384a4.515,4.515,0,1,1,4.312-4.51A4.237,4.237,0,0,1,59.51,127.724ZM73.3,129.11a5.885,5.885,0,1,0-5.9-5.9A5.692,5.692,0,0,0,73.3,129.11Zm0-1.386a4.516,4.516,0,1,1,4.29-4.51A4.237,4.237,0,0,1,73.3,127.724Zm8.888,1.386a1.2,1.2,0,0,0,1.188-1.21,1.183,1.183,0,0,0-1.188-1.188,1.165,1.165,0,0,0-1.166,1.188A1.184,1.184,0,0,0,82.192,129.11Z" transform="translate(3693 -4722)" fill="#fff"/>
    <path id="Trazado_20176" data-name="Trazado 20176" d="M8.492,5.6H1.826V21H5.39V16.754h3.1c4.114,0,6.688-2.134,6.688-5.566C15.18,7.734,12.606,5.6,8.492,5.6Zm-.2,8.25H5.39V8.5h2.9c2.178,0,3.278.99,3.278,2.684C11.572,12.86,10.472,13.85,8.294,13.85ZM29.04,15.126a5.859,5.859,0,0,0-6.16-6.138,6.026,6.026,0,0,0-6.314,6.094c0,3.52,2.662,6.094,6.754,6.094A6.2,6.2,0,0,0,28.2,19.262l-1.826-1.98a4.012,4.012,0,0,1-2.97,1.144A3.156,3.156,0,0,1,20.02,16.05h8.954C29,15.764,29.04,15.39,29.04,15.126ZM22.9,11.584a2.813,2.813,0,0,1,2.9,2.464h-5.83A2.8,2.8,0,0,1,22.9,11.584Zm11.7-.858V9.164H31.328V21H34.76V15.412c0-2.266,1.254-3.3,3.146-3.3.264,0,.484.022.77.044V8.988A4.777,4.777,0,0,0,34.606,10.726ZM55.88,8.988a5.322,5.322,0,0,0-4.268,1.936,4.418,4.418,0,0,0-3.894-1.936A4.794,4.794,0,0,0,44,10.528V9.164H40.722V21h3.432V15.06c0-2.112,1.078-3.1,2.6-3.1,1.43,0,2.244.88,2.244,2.794V21h3.432V15.06c0-2.112,1.078-3.1,2.618-3.1,1.386,0,2.244.88,2.244,2.794V21H60.72V14.224C60.72,10.616,58.7,8.988,55.88,8.988Zm12.694,0a9.1,9.1,0,0,0-5.1,1.43l1.232,2.4a5.691,5.691,0,0,1,3.41-1.1c1.848,0,2.728.858,2.728,2.332H68.112c-3.608,0-5.082,1.452-5.082,3.542,0,2.046,1.65,3.586,4.422,3.586a3.884,3.884,0,0,0,3.608-1.65V21h3.212V14.246C74.272,10.66,72.182,8.988,68.574,8.988Zm-.264,9.878c-1.21,0-1.936-.572-1.936-1.43,0-.792.506-1.386,2.112-1.386H70.84v1.21A2.529,2.529,0,0,1,68.31,18.866ZM84.568,8.988a5.182,5.182,0,0,0-3.916,1.562V9.164H77.374V21h3.432V15.148c0-2.178,1.188-3.19,2.838-3.19,1.518,0,2.4.88,2.4,2.794V21h3.432V14.224C89.474,10.616,87.362,8.988,84.568,8.988ZM104.3,15.126a5.859,5.859,0,0,0-6.16-6.138,6.026,6.026,0,0,0-6.314,6.094c0,3.52,2.662,6.094,6.754,6.094a6.2,6.2,0,0,0,4.884-1.914l-1.826-1.98a4.012,4.012,0,0,1-2.97,1.144,3.156,3.156,0,0,1-3.388-2.376h8.954C104.258,15.764,104.3,15.39,104.3,15.126Zm-6.138-3.542a2.813,2.813,0,0,1,2.9,2.464h-5.83A2.8,2.8,0,0,1,98.164,11.584Zm15.62-2.6a5.182,5.182,0,0,0-3.916,1.562V9.164H106.59V21h3.432V15.148c0-2.178,1.188-3.19,2.838-3.19,1.518,0,2.4.88,2.4,2.794V21h3.432V14.224C118.69,10.616,116.578,8.988,113.784,8.988Zm14.718,9.02a2.313,2.313,0,0,1-1.386.44,1.38,1.38,0,0,1-1.474-1.562V12.068h2.948V9.428h-2.948V6.546H122.21V9.428h-1.826v2.64h1.826V16.93c0,2.816,1.628,4.246,4.422,4.246a4.9,4.9,0,0,0,2.794-.748Zm14.08-2.882a5.859,5.859,0,0,0-6.16-6.138,6.026,6.026,0,0,0-6.314,6.094c0,3.52,2.662,6.094,6.754,6.094a6.2,6.2,0,0,0,4.884-1.914l-1.826-1.98a4.012,4.012,0,0,1-2.97,1.144,3.156,3.156,0,0,1-3.388-2.376h8.954C142.538,15.764,142.582,15.39,142.582,15.126Zm-6.138-3.542a2.813,2.813,0,0,1,2.9,2.464h-5.83A2.8,2.8,0,0,1,136.444,11.584Zm9.724,1.694a2.1,2.1,0,0,0,2.134-2.156,2.134,2.134,0,0,0-4.268,0A2.1,2.1,0,0,0,146.168,13.278Zm0,7.9A2.1,2.1,0,0,0,148.3,19.02a2.134,2.134,0,0,0-4.268,0A2.1,2.1,0,0,0,146.168,21.176ZM8.14,63.34a5.04,5.04,0,0,0-4.466,2.376V63.428h-1.5v15.84H3.74V72.822a5.054,5.054,0,0,0,4.4,2.288,5.886,5.886,0,0,0,0-11.77ZM8.03,73.724a4.515,4.515,0,0,1,0-9.02,4.515,4.515,0,0,1,0,9.02Zm17.93-10.3V69.5c0,2.64-1.518,4.2-3.938,4.2-2.2,0-3.476-1.254-3.476-3.718V63.428H16.984v6.71c0,3.322,1.936,4.972,4.884,4.972a4.6,4.6,0,0,0,4.158-2.222V75h1.5V63.428ZM42,69.214a5.514,5.514,0,0,0-5.61-5.874,5.573,5.573,0,0,0-5.654,5.874,5.731,5.731,0,0,0,6.072,5.9,5.7,5.7,0,0,0,4.466-1.892l-.88-1.012a4.561,4.561,0,0,1-3.542,1.518A4.283,4.283,0,0,1,32.3,69.7h9.68C41.976,69.522,42,69.346,42,69.214Zm-5.61-4.532a4.025,4.025,0,0,1,4.114,3.85H32.3A4.019,4.019,0,0,1,36.388,64.682ZM48.29,75.11c3.014,0,4.774-1.3,4.774-3.3,0-4.444-7.5-2.09-7.5-5.214,0-1.1.924-1.914,3.014-1.914a5.931,5.931,0,0,1,3.41.99l.682-1.254a7.842,7.842,0,0,0-4.092-1.078c-2.948,0-4.576,1.408-4.576,3.3,0,4.576,7.5,2.2,7.5,5.214,0,1.144-.9,1.892-3.1,1.892a6.99,6.99,0,0,1-4.114-1.3l-.7,1.232A7.731,7.731,0,0,0,48.29,75.11Zm13.2-1.936a2.585,2.585,0,0,1-1.716.594,1.853,1.853,0,0,1-2-2.112V64.748h3.52v-1.32h-3.52V60.9H56.21v2.53H54.142v1.32H56.21v7A3.065,3.065,0,0,0,59.6,75.11,3.72,3.72,0,0,0,62.04,74.3Zm7.7,1.936a5.885,5.885,0,1,0-5.9-5.9A5.692,5.692,0,0,0,69.19,75.11Zm0-1.386a4.516,4.516,0,1,1,4.29-4.51A4.237,4.237,0,0,1,69.19,73.724ZM81.356,75.11c3.014,0,4.774-1.3,4.774-3.3,0-4.444-7.5-2.09-7.5-5.214,0-1.1.924-1.914,3.014-1.914a5.931,5.931,0,0,1,3.41.99l.682-1.254a7.842,7.842,0,0,0-4.092-1.078c-2.948,0-4.576,1.408-4.576,3.3,0,4.576,7.5,2.2,7.5,5.214,0,1.144-.9,1.892-3.1,1.892a6.99,6.99,0,0,1-4.114-1.3l-.7,1.232A7.731,7.731,0,0,0,81.356,75.11ZM95.04,62v1.43H92.972v1.32H95.04V75H96.6V64.748h3.52v-1.32H96.558V62.064c0-1.43.7-2.178,2.046-2.178a2.646,2.646,0,0,1,1.716.572l.528-1.166a3.667,3.667,0,0,0-2.31-.726A3.187,3.187,0,0,0,95.04,62Zm9.746-3.322a1.111,1.111,0,1,0,1.144,1.078A1.109,1.109,0,0,0,104.786,58.676ZM103.994,75h1.562V63.428h-1.562Zm6.82-14.1a1.123,1.123,0,0,0,1.144-1.144,1.109,1.109,0,0,0-1.144-1.078,1.111,1.111,0,1,0,0,2.222ZM108.2,79.378a3.171,3.171,0,0,0,3.388-3.52V63.428h-1.562v12.43c0,1.43-.682,2.178-1.914,2.178a2.7,2.7,0,0,1-1.8-.594l-.55,1.188A3.8,3.8,0,0,0,108.2,79.378ZM120.67,75.11a5.885,5.885,0,1,0-5.9-5.9A5.692,5.692,0,0,0,120.67,75.11Zm0-1.386a4.516,4.516,0,1,1,4.29-4.51A4.237,4.237,0,0,1,120.67,73.724Zm12.166,1.386c3.014,0,4.774-1.3,4.774-3.3,0-4.444-7.5-2.09-7.5-5.214,0-1.1.924-1.914,3.014-1.914a5.931,5.931,0,0,1,3.41.99l.682-1.254a7.842,7.842,0,0,0-4.092-1.078c-2.948,0-4.576,1.408-4.576,3.3,0,4.576,7.5,2.2,7.5,5.214,0,1.144-.9,1.892-3.1,1.892a6.99,6.99,0,0,1-4.114-1.3l-.7,1.232A7.731,7.731,0,0,0,132.836,75.11Zm23.518-5.9a5.514,5.514,0,0,0-5.61-5.874,5.573,5.573,0,0,0-5.654,5.874,6.118,6.118,0,0,0,10.538,4l-.88-1.012a4.561,4.561,0,0,1-3.542,1.518,4.283,4.283,0,0,1-4.554-4.026h9.68C156.332,69.522,156.354,69.346,156.354,69.214Zm-5.61-4.532a4.025,4.025,0,0,1,4.114,3.85h-8.206A4.019,4.019,0,0,1,150.744,64.682Zm14.7-1.342a4.863,4.863,0,0,0-4.4,2.222V63.428h-1.5V75h1.562V68.928c0-2.64,1.562-4.18,4.048-4.18,2.2,0,3.476,1.254,3.476,3.7V75h1.562V68.29C170.192,64.968,168.256,63.34,165.44,63.34Zm24.86,5.874a5.514,5.514,0,0,0-5.61-5.874,5.573,5.573,0,0,0-5.654,5.874,6.118,6.118,0,0,0,10.538,4l-.88-1.012a4.561,4.561,0,0,1-3.542,1.518A4.283,4.283,0,0,1,180.6,69.7h9.68C190.278,69.522,190.3,69.346,190.3,69.214Zm-5.61-4.532a4.025,4.025,0,0,1,4.114,3.85H180.6A4.019,4.019,0,0,1,184.69,64.682ZM193.49,75h1.562V58.676H193.49ZM8.14,90.34a5.04,5.04,0,0,0-4.466,2.376V90.428h-1.5v15.84H3.74V99.822a5.054,5.054,0,0,0,4.4,2.288,5.886,5.886,0,0,0,0-11.77Zm-.11,10.384a4.515,4.515,0,0,1,0-9.02,4.515,4.515,0,0,1,0,9.02Zm10.56-8.03V90.428h-1.5V102h1.562V96.1c0-2.728,1.474-4.268,3.894-4.268.11,0,.242.022.374.022V90.34C20.79,90.34,19.316,91.154,18.59,92.694Zm11.77,9.416a5.885,5.885,0,0,0,0-11.77,5.885,5.885,0,1,0,0,11.77Zm0-1.386a4.516,4.516,0,1,1,4.29-4.51A4.237,4.237,0,0,1,30.36,100.724Zm13.86,1.386a5.1,5.1,0,0,0,4.532-2.288l-1.166-.792a3.914,3.914,0,0,1-3.366,1.694,4.512,4.512,0,0,1,0-9.02,3.934,3.934,0,0,1,3.366,1.716l1.166-.792A5.054,5.054,0,0,0,44.22,90.34a5.885,5.885,0,1,0,0,11.77Zm17.49-5.9A5.514,5.514,0,0,0,56.1,90.34a5.573,5.573,0,0,0-5.654,5.874,5.731,5.731,0,0,0,6.072,5.9,5.7,5.7,0,0,0,4.466-1.892l-.88-1.012a4.561,4.561,0,0,1-3.542,1.518A4.283,4.283,0,0,1,52.008,96.7h9.68C61.688,96.522,61.71,96.346,61.71,96.214ZM56.1,91.682a4.025,4.025,0,0,1,4.114,3.85H52.008A4.019,4.019,0,0,1,56.1,91.682ZM68,102.11c3.014,0,4.774-1.3,4.774-3.3,0-4.444-7.5-2.09-7.5-5.214,0-1.1.924-1.914,3.014-1.914a5.931,5.931,0,0,1,3.41.99l.682-1.254a7.842,7.842,0,0,0-4.092-1.078c-2.948,0-4.576,1.408-4.576,3.3,0,4.576,7.5,2.2,7.5,5.214,0,1.144-.9,1.892-3.1,1.892A6.99,6.99,0,0,1,64,99.448l-.7,1.232A7.731,7.731,0,0,0,68,102.11Zm12.386,0a5.885,5.885,0,1,0-5.9-5.9A5.692,5.692,0,0,0,80.388,102.11Zm0-1.386a4.516,4.516,0,1,1,4.29-4.51A4.237,4.237,0,0,1,80.388,100.724Zm8.91-1.012a1.151,1.151,0,0,0-1.166,1.188,1.112,1.112,0,0,0,.792,1.122l-.748,3.19h1.056l.924-3.036a3.589,3.589,0,0,0,.308-1.276A1.151,1.151,0,0,0,89.3,99.712Zm20.35-3.5a5.514,5.514,0,0,0-5.61-5.874,5.573,5.573,0,0,0-5.654,5.874,6.118,6.118,0,0,0,10.538,4l-.88-1.012a4.561,4.561,0,0,1-3.542,1.518A4.283,4.283,0,0,1,99.946,96.7h9.68C109.626,96.522,109.648,96.346,109.648,96.214Zm-5.61-4.532a4.025,4.025,0,0,1,4.114,3.85H99.946A4.019,4.019,0,0,1,104.038,91.682Zm14.7-1.342a4.863,4.863,0,0,0-4.4,2.222V90.428h-1.5V102H114.4V95.928c0-2.64,1.562-4.18,4.048-4.18,2.2,0,3.476,1.254,3.476,3.7V102h1.562V95.29C123.486,91.968,121.55,90.34,118.734,90.34Zm24.86,5.874a5.514,5.514,0,0,0-5.61-5.874,5.573,5.573,0,0,0-5.654,5.874,6.118,6.118,0,0,0,10.538,4l-.88-1.012a4.561,4.561,0,0,1-3.542,1.518,4.283,4.283,0,0,1-4.554-4.026h9.68C143.572,96.522,143.594,96.346,143.594,96.214Zm-5.61-4.532a4.025,4.025,0,0,1,4.114,3.85h-8.206A4.019,4.019,0,0,1,137.984,91.682Zm8.8,10.318h1.562V85.676h-1.562Zm16.478.11a5.1,5.1,0,0,0,4.532-2.288l-1.166-.792a3.914,3.914,0,0,1-3.366,1.694,4.512,4.512,0,0,1,0-9.02,3.934,3.934,0,0,1,3.366,1.716l1.166-.792a5.054,5.054,0,0,0-4.532-2.288,5.885,5.885,0,1,0,0,11.77Zm16.456-11.682V96.5c0,2.64-1.518,4.2-3.938,4.2-2.2,0-3.476-1.254-3.476-3.718V90.428h-1.562v6.71c0,3.322,1.936,4.972,4.884,4.972a4.6,4.6,0,0,0,4.158-2.222V102h1.5V90.428Zm9.988-.088A7.348,7.348,0,0,0,185,91.9l.7,1.166a5.9,5.9,0,0,1,3.85-1.364c2.156,0,3.278,1.078,3.278,3.058v.7h-3.674c-3.322,0-4.466,1.5-4.466,3.278,0,2,1.606,3.366,4.224,3.366A4.345,4.345,0,0,0,192.9,100.2V102h1.5V94.828C194.392,91.836,192.7,90.34,189.706,90.34Zm-.55,10.538c-1.848,0-2.926-.836-2.926-2.178,0-1.188.726-2.068,2.97-2.068h3.63v1.892A3.7,3.7,0,0,1,189.156,100.878ZM198.638,102H200.2V85.676h-1.562ZM2.178,129H3.74V112.676H2.178Zm9.966-11.66A7.348,7.348,0,0,0,7.436,118.9l.7,1.166a5.9,5.9,0,0,1,3.85-1.364c2.156,0,3.278,1.078,3.278,3.058v.7H11.594c-3.322,0-4.466,1.5-4.466,3.278,0,2,1.606,3.366,4.224,3.366a4.345,4.345,0,0,0,3.982-1.914V129h1.5v-7.172C16.83,118.836,15.136,117.34,12.144,117.34Zm-.55,10.538c-1.848,0-2.926-.836-2.926-2.178,0-1.188.726-2.068,2.97-2.068h3.63v1.892A3.7,3.7,0,0,1,11.594,127.878ZM27.632,114.9a1.123,1.123,0,0,0,1.144-1.144,1.109,1.109,0,0,0-1.144-1.078,1.111,1.111,0,1,0,0,2.222ZM26.84,129H28.4V117.428H26.84Zm11.814-11.66a4.863,4.863,0,0,0-4.4,2.222v-2.134h-1.5V129H34.32v-6.072c0-2.64,1.562-4.18,4.048-4.18,2.2,0,3.476,1.254,3.476,3.7V129h1.562v-6.71C43.406,118.968,41.47,117.34,38.654,117.34Zm12.1,11.77c3.014,0,4.774-1.3,4.774-3.3,0-4.444-7.5-2.09-7.5-5.214,0-1.1.924-1.914,3.014-1.914a5.931,5.931,0,0,1,3.41.99l.682-1.254a7.842,7.842,0,0,0-4.092-1.078c-2.948,0-4.576,1.408-4.576,3.3,0,4.576,7.5,2.2,7.5,5.214,0,1.144-.9,1.892-3.1,1.892a6.99,6.99,0,0,1-4.114-1.3l-.7,1.232A7.731,7.731,0,0,0,50.754,129.11Zm13.618-11.77a5.04,5.04,0,0,0-4.466,2.376v-2.288h-1.5v15.84h1.562v-6.446a5.054,5.054,0,0,0,4.4,2.288,5.886,5.886,0,0,0,0-11.77Zm-.11,10.384a4.515,4.515,0,1,1,4.312-4.51A4.237,4.237,0,0,1,64.262,127.724Zm19.162-4.51a5.514,5.514,0,0,0-5.61-5.874,5.573,5.573,0,0,0-5.654,5.874,6.118,6.118,0,0,0,10.538,4l-.88-1.012a4.561,4.561,0,0,1-3.542,1.518,4.283,4.283,0,0,1-4.554-4.026H83.4C83.4,123.522,83.424,123.346,83.424,123.214Zm-5.61-4.532a4.025,4.025,0,0,1,4.114,3.85H73.722A4.019,4.019,0,0,1,77.814,118.682Zm13.6,10.428a5.1,5.1,0,0,0,4.532-2.288l-1.166-.792a3.914,3.914,0,0,1-3.366,1.694,4.512,4.512,0,0,1,0-9.02,3.934,3.934,0,0,1,3.366,1.716l1.166-.792a5.054,5.054,0,0,0-4.532-2.288,5.885,5.885,0,1,0,0,11.77Zm12.188,0a5.1,5.1,0,0,0,4.532-2.288l-1.166-.792a3.914,3.914,0,0,1-3.366,1.694,4.512,4.512,0,0,1,0-9.02,3.934,3.934,0,0,1,3.366,1.716l1.166-.792a5.054,5.054,0,0,0-4.532-2.288,5.885,5.885,0,1,0,0,11.77ZM111.98,114.9a1.123,1.123,0,0,0,1.144-1.144,1.109,1.109,0,0,0-1.144-1.078,1.111,1.111,0,1,0,0,2.222Zm-.792,14.1h1.562V117.428h-1.562Zm9.2-13.354h1.54l3.564-2.728H123.4Zm1.452,13.464a5.885,5.885,0,1,0-5.9-5.9A5.692,5.692,0,0,0,121.836,129.11Zm0-1.386a4.516,4.516,0,1,1,4.29-4.51A4.237,4.237,0,0,1,121.836,127.724ZM136.8,117.34a4.863,4.863,0,0,0-4.4,2.222v-2.134h-1.5V129h1.562v-6.072c0-2.64,1.562-4.18,4.048-4.18,2.2,0,3.476,1.254,3.476,3.7V129h1.562v-6.71C141.548,118.968,139.612,117.34,136.8,117.34Zm24.86,5.874a5.514,5.514,0,0,0-5.61-5.874,5.573,5.573,0,0,0-5.654,5.874,6.118,6.118,0,0,0,10.538,4l-.88-1.012a4.561,4.561,0,0,1-3.542,1.518,4.283,4.283,0,0,1-4.554-4.026h9.68C161.634,123.522,161.656,123.346,161.656,123.214Zm-5.61-4.532a4.025,4.025,0,0,1,4.114,3.85h-8.206A4.019,4.019,0,0,1,156.046,118.682Zm11.9,10.428c3.014,0,4.774-1.3,4.774-3.3,0-4.444-7.5-2.09-7.5-5.214,0-1.1.924-1.914,3.014-1.914a5.931,5.931,0,0,1,3.41.99l.682-1.254a7.842,7.842,0,0,0-4.092-1.078c-2.948,0-4.576,1.408-4.576,3.3,0,4.576,7.5,2.2,7.5,5.214,0,1.144-.9,1.892-3.1,1.892a6.99,6.99,0,0,1-4.114-1.3l-.7,1.232A7.731,7.731,0,0,0,167.948,129.11ZM8.14,144.34a5.04,5.04,0,0,0-4.466,2.376v-2.288h-1.5v15.84H3.74v-6.446a5.054,5.054,0,0,0,4.4,2.288,5.886,5.886,0,0,0,0-11.77Zm-.11,10.384a4.515,4.515,0,0,1,0-9.02,4.515,4.515,0,0,1,0,9.02Zm19.162-4.51a5.514,5.514,0,0,0-5.61-5.874,5.573,5.573,0,0,0-5.654,5.874A5.731,5.731,0,0,0,22,156.11a5.7,5.7,0,0,0,4.466-1.892l-.88-1.012a4.561,4.561,0,0,1-3.542,1.518A4.283,4.283,0,0,1,17.49,150.7h9.68C27.17,150.522,27.192,150.346,27.192,150.214Zm-5.61-4.532a4.025,4.025,0,0,1,4.114,3.85H17.49A4.019,4.019,0,0,1,21.582,145.682Zm10.3,1.012v-2.266h-1.5V156h1.562v-5.9c0-2.728,1.474-4.268,3.894-4.268.11,0,.242.022.374.022V144.34C34.078,144.34,32.6,145.154,31.878,146.694ZM53.46,144.34a5.039,5.039,0,0,0-4.576,2.442,4.156,4.156,0,0,0-4.114-2.442,4.68,4.68,0,0,0-4.246,2.2v-2.112h-1.5V156H40.59v-6.072c0-2.64,1.518-4.18,3.872-4.18,2.112,0,3.344,1.254,3.344,3.7V156h1.562v-6.072c0-2.64,1.5-4.18,3.872-4.18,2.09,0,3.322,1.254,3.322,3.7V156h1.562v-6.71C58.124,145.968,56.276,144.34,53.46,144.34Zm12.958,0A7.348,7.348,0,0,0,61.71,145.9l.7,1.166a5.9,5.9,0,0,1,3.85-1.364c2.156,0,3.278,1.078,3.278,3.058v.7H65.868c-3.322,0-4.466,1.5-4.466,3.278,0,2,1.606,3.366,4.224,3.366a4.345,4.345,0,0,0,3.982-1.914V156h1.5v-7.172C71.1,145.836,69.41,144.34,66.418,144.34Zm-.55,10.538c-1.848,0-2.926-.836-2.926-2.178,0-1.188.726-2.068,2.97-2.068h3.63v1.892A3.7,3.7,0,0,1,65.868,154.878ZM81.246,144.34a4.863,4.863,0,0,0-4.4,2.222v-2.134h-1.5V156h1.562v-6.072c0-2.64,1.562-4.18,4.048-4.18,2.2,0,3.476,1.254,3.476,3.7V156H86v-6.71C86,145.968,84.062,144.34,81.246,144.34Zm19.14,5.874a5.514,5.514,0,0,0-5.61-5.874,5.573,5.573,0,0,0-5.654,5.874,6.118,6.118,0,0,0,10.538,4l-.88-1.012a4.561,4.561,0,0,1-3.542,1.518,4.283,4.283,0,0,1-4.554-4.026h9.68C100.364,150.522,100.386,150.346,100.386,150.214Zm-5.61-4.532a4.025,4.025,0,0,1,4.114,3.85H90.684A4.019,4.019,0,0,1,94.776,145.682Zm14.7-1.342a4.863,4.863,0,0,0-4.4,2.222v-2.134h-1.5V156h1.562v-6.072c0-2.64,1.562-4.18,4.048-4.18,2.2,0,3.476,1.254,3.476,3.7V156h1.562v-6.71C114.224,145.968,112.288,144.34,109.472,144.34Zm14.542,9.834a2.585,2.585,0,0,1-1.716.594,1.853,1.853,0,0,1-2-2.112v-6.908h3.52v-1.32H120.3V141.9h-1.562v2.53h-2.068v1.32h2.068v7a3.065,3.065,0,0,0,3.388,3.366,3.72,3.72,0,0,0,2.442-.814Zm13.068-3.96a5.514,5.514,0,0,0-5.61-5.874,5.573,5.573,0,0,0-5.654,5.874,6.118,6.118,0,0,0,10.538,4l-.88-1.012a4.561,4.561,0,0,1-3.542,1.518,4.283,4.283,0,0,1-4.554-4.026h9.68C137.06,150.522,137.082,150.346,137.082,150.214Zm-5.61-4.532a4.025,4.025,0,0,1,4.114,3.85H127.38A4.019,4.019,0,0,1,131.472,145.682Zm22.748-1.254-4.356,9.834-4.356-9.834H143.88l5.17,11.55-.506,1.122c-.66,1.452-1.364,1.936-2.4,1.936a2.89,2.89,0,0,1-2.112-.88l-.726,1.166a3.96,3.96,0,0,0,2.816,1.056c1.65,0,2.882-.726,3.85-2.992l5.786-12.958Zm15.048,9.746a2.585,2.585,0,0,1-1.716.594,1.853,1.853,0,0,1-2-2.112v-6.908h3.52v-1.32h-3.52V141.9h-1.562v2.53H161.92v1.32h2.068v7a3.065,3.065,0,0,0,3.388,3.366,3.72,3.72,0,0,0,2.442-.814Zm7.7,1.936a5.885,5.885,0,1,0-5.9-5.9A5.692,5.692,0,0,0,176.968,156.11Zm0-1.386a4.516,4.516,0,1,1,4.29-4.51A4.237,4.237,0,0,1,176.968,154.724Zm14.608-.55a2.585,2.585,0,0,1-1.716.594,1.853,1.853,0,0,1-2-2.112v-6.908h3.52v-1.32h-3.52V141.9H186.3v2.53h-2.068v1.32H186.3v7a3.065,3.065,0,0,0,3.388,3.366,3.72,3.72,0,0,0,2.442-.814Zm7.436-9.834A7.348,7.348,0,0,0,194.3,145.9l.7,1.166a5.9,5.9,0,0,1,3.85-1.364c2.156,0,3.278,1.078,3.278,3.058v.7h-3.674c-3.322,0-4.466,1.5-4.466,3.278,0,2,1.606,3.366,4.224,3.366A4.345,4.345,0,0,0,202.2,154.2V156h1.5v-7.172C203.7,145.836,202,144.34,199.012,144.34Zm-.55,10.538c-1.848,0-2.926-.836-2.926-2.178,0-1.188.726-2.068,2.97-2.068h3.63v1.892A3.7,3.7,0,0,1,198.462,154.878ZM207.944,156h1.562V139.676h-1.562Zm6.072.11a1.2,1.2,0,0,0,1.188-1.21,1.183,1.183,0,0,0-1.188-1.188,1.165,1.165,0,0,0-1.166,1.188A1.184,1.184,0,0,0,214.016,156.11Z" transform="translate(3978 -4735)" fill="#fff"/>
    <path id="Trazado_20177" data-name="Trazado 20177" d="M8.492,5.6H1.826V21H5.39V16.754h3.1c4.114,0,6.688-2.134,6.688-5.566C15.18,7.734,12.606,5.6,8.492,5.6Zm-.2,8.25H5.39V8.5h2.9c2.178,0,3.278.99,3.278,2.684C11.572,12.86,10.472,13.85,8.294,13.85ZM29.04,15.126a5.859,5.859,0,0,0-6.16-6.138,6.026,6.026,0,0,0-6.314,6.094c0,3.52,2.662,6.094,6.754,6.094A6.2,6.2,0,0,0,28.2,19.262l-1.826-1.98a4.012,4.012,0,0,1-2.97,1.144A3.156,3.156,0,0,1,20.02,16.05h8.954C29,15.764,29.04,15.39,29.04,15.126ZM22.9,11.584a2.813,2.813,0,0,1,2.9,2.464h-5.83A2.8,2.8,0,0,1,22.9,11.584Zm11.7-.858V9.164H31.328V21H34.76V15.412c0-2.266,1.254-3.3,3.146-3.3.264,0,.484.022.77.044V8.988A4.777,4.777,0,0,0,34.606,10.726ZM55.88,8.988a5.322,5.322,0,0,0-4.268,1.936,4.418,4.418,0,0,0-3.894-1.936A4.794,4.794,0,0,0,44,10.528V9.164H40.722V21h3.432V15.06c0-2.112,1.078-3.1,2.6-3.1,1.43,0,2.244.88,2.244,2.794V21h3.432V15.06c0-2.112,1.078-3.1,2.618-3.1,1.386,0,2.244.88,2.244,2.794V21H60.72V14.224C60.72,10.616,58.7,8.988,55.88,8.988Zm12.694,0a9.1,9.1,0,0,0-5.1,1.43l1.232,2.4a5.691,5.691,0,0,1,3.41-1.1c1.848,0,2.728.858,2.728,2.332H68.112c-3.608,0-5.082,1.452-5.082,3.542,0,2.046,1.65,3.586,4.422,3.586a3.884,3.884,0,0,0,3.608-1.65V21h3.212V14.246C74.272,10.66,72.182,8.988,68.574,8.988Zm-.264,9.878c-1.21,0-1.936-.572-1.936-1.43,0-.792.506-1.386,2.112-1.386H70.84v1.21A2.529,2.529,0,0,1,68.31,18.866ZM84.568,8.988a5.182,5.182,0,0,0-3.916,1.562V9.164H77.374V21h3.432V15.148c0-2.178,1.188-3.19,2.838-3.19,1.518,0,2.4.88,2.4,2.794V21h3.432V14.224C89.474,10.616,87.362,8.988,84.568,8.988ZM104.3,15.126a5.859,5.859,0,0,0-6.16-6.138,6.026,6.026,0,0,0-6.314,6.094c0,3.52,2.662,6.094,6.754,6.094a6.2,6.2,0,0,0,4.884-1.914l-1.826-1.98a4.012,4.012,0,0,1-2.97,1.144,3.156,3.156,0,0,1-3.388-2.376h8.954C104.258,15.764,104.3,15.39,104.3,15.126Zm-6.138-3.542a2.813,2.813,0,0,1,2.9,2.464h-5.83A2.8,2.8,0,0,1,98.164,11.584Zm15.62-2.6a5.182,5.182,0,0,0-3.916,1.562V9.164H106.59V21h3.432V15.148c0-2.178,1.188-3.19,2.838-3.19,1.518,0,2.4.88,2.4,2.794V21h3.432V14.224C118.69,10.616,116.578,8.988,113.784,8.988Zm14.718,9.02a2.313,2.313,0,0,1-1.386.44,1.38,1.38,0,0,1-1.474-1.562V12.068h2.948V9.428h-2.948V6.546H122.21V9.428h-1.826v2.64h1.826V16.93c0,2.816,1.628,4.246,4.422,4.246a4.9,4.9,0,0,0,2.794-.748Zm14.08-2.882a5.859,5.859,0,0,0-6.16-6.138,6.026,6.026,0,0,0-6.314,6.094c0,3.52,2.662,6.094,6.754,6.094a6.2,6.2,0,0,0,4.884-1.914l-1.826-1.98a4.012,4.012,0,0,1-2.97,1.144,3.156,3.156,0,0,1-3.388-2.376h8.954C142.538,15.764,142.582,15.39,142.582,15.126Zm-6.138-3.542a2.813,2.813,0,0,1,2.9,2.464h-5.83A2.8,2.8,0,0,1,136.444,11.584ZM8.58,35.988a4.6,4.6,0,0,0-3.718,1.54V36.164H1.584v16.1H5.016V46.746a4.6,4.6,0,0,0,3.564,1.43,5.749,5.749,0,0,0,5.9-6.094A5.749,5.749,0,0,0,8.58,35.988ZM7.986,45.36a2.987,2.987,0,0,1-3.014-3.278A2.987,2.987,0,0,1,7.986,38.8,2.987,2.987,0,0,1,11,42.082,2.987,2.987,0,0,1,7.986,45.36ZM21.34,35.988a9.1,9.1,0,0,0-5.1,1.43l1.232,2.4a5.691,5.691,0,0,1,3.41-1.1c1.848,0,2.728.858,2.728,2.332H20.878c-3.608,0-5.082,1.452-5.082,3.542,0,2.046,1.65,3.586,4.422,3.586a3.884,3.884,0,0,0,3.608-1.65V48h3.212V41.246C27.038,37.66,24.948,35.988,21.34,35.988Zm-.264,9.878c-1.21,0-1.936-.572-1.936-1.43,0-.792.506-1.386,2.112-1.386h2.354v1.21A2.529,2.529,0,0,1,21.076,45.866Zm12.342-8.14V36.164H30.14V48h3.432V42.412c0-2.266,1.254-3.3,3.146-3.3.264,0,.484.022.77.044V35.988A4.777,4.777,0,0,0,33.418,37.726Zm11.726,10.45a5.491,5.491,0,0,0,5.3-2.992l-2.662-1.452a2.912,2.912,0,0,1-2.662,1.628,3.029,3.029,0,0,1-3.1-3.278,3.029,3.029,0,0,1,3.1-3.278,2.951,2.951,0,0,1,2.662,1.628L50.446,39c-.858-1.936-2.816-3.014-5.3-3.014-3.85,0-6.6,2.53-6.6,6.094S41.294,48.176,45.144,48.176Zm9-13.662a1.973,1.973,0,0,0,2.134-1.98,1.927,1.927,0,0,0-2.134-1.848,1.925,1.925,0,1,0,0,3.828ZM52.426,48h3.432V36.164H52.426Zm11.4-12.012a9.1,9.1,0,0,0-5.1,1.43l1.232,2.4a5.691,5.691,0,0,1,3.41-1.1c1.848,0,2.728.858,2.728,2.332H63.36c-3.608,0-5.082,1.452-5.082,3.542,0,2.046,1.65,3.586,4.422,3.586a3.884,3.884,0,0,0,3.608-1.65V48H69.52V41.246C69.52,37.66,67.43,35.988,63.822,35.988Zm-.264,9.878c-1.21,0-1.936-.572-1.936-1.43,0-.792.506-1.386,2.112-1.386h2.354v1.21A2.529,2.529,0,0,1,63.558,45.866ZM72.622,48h3.432V31.676H72.622ZM84.04,32.6v2.86h3.08V48h3.564V32.6ZM99.968,48.264c3.806,0,6.6-2.882,6.6-7.964s-2.794-7.964-6.6-7.964c-3.784,0-6.6,2.882-6.6,7.964S96.184,48.264,99.968,48.264Zm0-3.014c-1.76,0-2.992-1.452-2.992-4.95s1.232-4.95,2.992-4.95c1.782,0,3.014,1.452,3.014,4.95S101.75,45.25,99.968,45.25Zm14.938,3.014c3.806,0,6.6-2.882,6.6-7.964s-2.794-7.964-6.6-7.964c-3.784,0-6.6,2.882-6.6,7.964S111.122,48.264,114.906,48.264Zm0-3.014c-1.76,0-2.992-1.452-2.992-4.95s1.232-4.95,2.992-4.95c1.782,0,3.014,1.452,3.014,4.95S116.688,45.25,114.906,45.25Zm11.9-4.334c2.244,0,3.806-1.628,3.806-4.246s-1.562-4.246-3.806-4.246-3.828,1.65-3.828,4.246S124.564,40.916,126.808,40.916ZM125.466,48h2.618L138.6,32.6h-2.618Zm1.342-8.888c-.946,0-1.606-.814-1.606-2.442s.66-2.442,1.606-2.442c.968,0,1.606.792,1.606,2.442S127.776,39.112,126.808,39.112Zm10.45,9.064c2.244,0,3.828-1.65,3.828-4.246s-1.584-4.246-3.828-4.246c-2.222,0-3.806,1.65-3.806,4.246S135.036,48.176,137.258,48.176Zm0-1.8c-.946,0-1.606-.792-1.606-2.442s.66-2.442,1.606-2.442c.968,0,1.606.814,1.606,2.442S138.226,46.372,137.258,46.372Zm7.3-6.094a2.1,2.1,0,0,0,2.134-2.156,2.134,2.134,0,0,0-4.268,0A2.1,2.1,0,0,0,144.562,40.278Zm0,7.9A2.1,2.1,0,0,0,146.7,46.02a2.134,2.134,0,0,0-4.268,0A2.1,2.1,0,0,0,144.562,48.176ZM5.28,102.11c3.014,0,4.774-1.3,4.774-3.3,0-4.444-7.5-2.09-7.5-5.214,0-1.1.924-1.914,3.014-1.914a5.931,5.931,0,0,1,3.41.99l.682-1.254A7.842,7.842,0,0,0,5.566,90.34C2.618,90.34.99,91.748.99,93.64c0,4.576,7.5,2.2,7.5,5.214,0,1.144-.9,1.892-3.1,1.892a6.99,6.99,0,0,1-4.114-1.3l-.7,1.232A7.731,7.731,0,0,0,5.28,102.11Zm17.754-5.9a5.514,5.514,0,0,0-5.61-5.874,5.573,5.573,0,0,0-5.654,5.874,5.731,5.731,0,0,0,6.072,5.9,5.7,5.7,0,0,0,4.466-1.892l-.88-1.012a4.561,4.561,0,0,1-3.542,1.518A4.283,4.283,0,0,1,13.332,96.7h9.68C23.012,96.522,23.034,96.346,23.034,96.214Zm-5.61-4.532a4.025,4.025,0,0,1,4.114,3.85H13.332A4.019,4.019,0,0,1,17.424,91.682Zm24.662,4.532a5.514,5.514,0,0,0-5.61-5.874,5.573,5.573,0,0,0-5.654,5.874,5.731,5.731,0,0,0,6.072,5.9,5.7,5.7,0,0,0,4.466-1.892l-.88-1.012a4.561,4.561,0,0,1-3.542,1.518A4.283,4.283,0,0,1,32.384,96.7h9.68C42.064,96.522,42.086,96.346,42.086,96.214Zm-5.61-4.532a4.025,4.025,0,0,1,4.114,3.85H32.384A4.019,4.019,0,0,1,36.476,91.682ZM54.1,102l-4.62-5.94,4.356-5.632H52.118L48.642,94.96l-3.476-4.532h-1.76l4.356,5.632L43.186,102h1.76l3.7-4.84L52.316,102Zm6.424-11.66A7.348,7.348,0,0,0,55.814,91.9l.7,1.166a5.9,5.9,0,0,1,3.85-1.364c2.156,0,3.278,1.078,3.278,3.058v.7H59.972c-3.322,0-4.466,1.5-4.466,3.278,0,2,1.606,3.366,4.224,3.366a4.345,4.345,0,0,0,3.982-1.914V102h1.5V94.828C65.208,91.836,63.514,90.34,60.522,90.34Zm-.55,10.538c-1.848,0-2.926-.836-2.926-2.178,0-1.188.726-2.068,2.97-2.068h3.63v1.892A3.7,3.7,0,0,1,59.972,100.878ZM83.886,90.34a5.039,5.039,0,0,0-4.576,2.442A4.156,4.156,0,0,0,75.2,90.34a4.68,4.68,0,0,0-4.246,2.2V90.428h-1.5V102h1.562V95.928c0-2.64,1.518-4.18,3.872-4.18,2.112,0,3.344,1.254,3.344,3.7V102h1.562V95.928c0-2.64,1.5-4.18,3.872-4.18,2.09,0,3.322,1.254,3.322,3.7V102H88.55V95.29C88.55,91.968,86.7,90.34,83.886,90.34Zm9.7-2.442a1.123,1.123,0,0,0,1.144-1.144,1.109,1.109,0,0,0-1.144-1.078,1.111,1.111,0,1,0,0,2.222ZM92.8,102h1.562V90.428H92.8ZM104.61,90.34a4.863,4.863,0,0,0-4.4,2.222V90.428h-1.5V102h1.562V95.928c0-2.64,1.562-4.18,4.048-4.18,2.2,0,3.476,1.254,3.476,3.7V102h1.562V95.29C109.362,91.968,107.426,90.34,104.61,90.34Zm13.046,0a7.348,7.348,0,0,0-4.708,1.562l.7,1.166A5.9,5.9,0,0,1,117.5,91.7c2.156,0,3.278,1.078,3.278,3.058v.7h-3.674c-3.322,0-4.466,1.5-4.466,3.278,0,2,1.606,3.366,4.224,3.366a4.345,4.345,0,0,0,3.982-1.914V102h1.5V94.828C122.342,91.836,120.648,90.34,117.656,90.34Zm-.55,10.538c-1.848,0-2.926-.836-2.926-2.178,0-1.188.726-2.068,2.97-2.068h3.63v1.892A3.7,3.7,0,0,1,117.106,100.878ZM132.484,90.34a4.863,4.863,0,0,0-4.4,2.222V90.428h-1.5V102h1.562V95.928c0-2.64,1.562-4.18,4.048-4.18,2.2,0,3.476,1.254,3.476,3.7V102h1.562V95.29C137.236,91.968,135.3,90.34,132.484,90.34Zm20.306,9.834a2.585,2.585,0,0,1-1.716.594,1.853,1.853,0,0,1-2-2.112V91.748h3.52v-1.32h-3.52V87.9H147.51v2.53h-2.068v1.32h2.068v7a3.065,3.065,0,0,0,3.388,3.366,3.72,3.72,0,0,0,2.442-.814Zm7.7,1.936a5.885,5.885,0,1,0-5.9-5.9A5.692,5.692,0,0,0,160.49,102.11Zm0-1.386a4.516,4.516,0,1,1,4.29-4.51A4.237,4.237,0,0,1,160.49,100.724Zm18.062-15.048v6.952a5.054,5.054,0,0,0-4.4-2.288,5.886,5.886,0,0,0,0,11.77,5.013,5.013,0,0,0,4.466-2.4V102h1.5V85.676Zm-4.268,15.048a4.516,4.516,0,1,1,4.29-4.51A4.237,4.237,0,0,1,174.284,100.724ZM188.518,90.34A7.348,7.348,0,0,0,183.81,91.9l.7,1.166a5.9,5.9,0,0,1,3.85-1.364c2.156,0,3.278,1.078,3.278,3.058v.7h-3.674c-3.322,0-4.466,1.5-4.466,3.278,0,2,1.606,3.366,4.224,3.366a4.345,4.345,0,0,0,3.982-1.914V102h1.5V94.828C193.2,91.836,191.51,90.34,188.518,90.34Zm-.55,10.538c-1.848,0-2.926-.836-2.926-2.178,0-1.188.726-2.068,2.97-2.068h3.63v1.892A3.7,3.7,0,0,1,187.968,100.878Zm12.584,1.232c3.014,0,4.774-1.3,4.774-3.3,0-4.444-7.5-2.09-7.5-5.214,0-1.1.924-1.914,3.014-1.914a5.931,5.931,0,0,1,3.41.99l.682-1.254a7.842,7.842,0,0,0-4.092-1.078c-2.948,0-4.576,1.408-4.576,3.3,0,4.576,7.5,2.2,7.5,5.214,0,1.144-.9,1.892-3.1,1.892a6.99,6.99,0,0,1-4.114-1.3l-.7,1.232A7.731,7.731,0,0,0,200.552,102.11ZM2.178,129H3.74V112.676H2.178Zm9.966-11.66A7.348,7.348,0,0,0,7.436,118.9l.7,1.166a5.9,5.9,0,0,1,3.85-1.364c2.156,0,3.278,1.078,3.278,3.058v.7H11.594c-3.322,0-4.466,1.5-4.466,3.278,0,2,1.606,3.366,4.224,3.366a4.345,4.345,0,0,0,3.982-1.914V129h1.5v-7.172C16.83,118.836,15.136,117.34,12.144,117.34Zm-.55,10.538c-1.848,0-2.926-.836-2.926-2.178,0-1.188.726-2.068,2.97-2.068h3.63v1.892A3.7,3.7,0,0,1,11.594,127.878Zm12.584,1.232c3.014,0,4.774-1.3,4.774-3.3,0-4.444-7.5-2.09-7.5-5.214,0-1.1.924-1.914,3.014-1.914a5.931,5.931,0,0,1,3.41.99l.682-1.254a7.842,7.842,0,0,0-4.092-1.078c-2.948,0-4.576,1.408-4.576,3.3,0,4.576,7.5,2.2,7.5,5.214,0,1.144-.9,1.892-3.1,1.892a6.99,6.99,0,0,1-4.114-1.3l-.7,1.232A7.731,7.731,0,0,0,24.178,129.11ZM43.56,117.34a5.04,5.04,0,0,0-4.466,2.376v-2.288H37.6v15.84H39.16v-6.446a5.054,5.054,0,0,0,4.4,2.288,5.886,5.886,0,0,0,0-11.77Zm-.11,10.384a4.515,4.515,0,1,1,4.312-4.51A4.237,4.237,0,0,1,43.45,127.724Zm10.56-8.03v-2.266h-1.5V129h1.562v-5.9c0-2.728,1.474-4.268,3.894-4.268.11,0,.242.022.374.022V117.34C56.21,117.34,54.736,118.154,54.01,119.694Zm17.138,3.52a5.514,5.514,0,0,0-5.61-5.874,5.573,5.573,0,0,0-5.654,5.874,6.118,6.118,0,0,0,10.538,4l-.88-1.012A4.561,4.561,0,0,1,66,127.724a4.283,4.283,0,0,1-4.554-4.026h9.68C71.126,123.522,71.148,123.346,71.148,123.214Zm-5.61-4.532a4.025,4.025,0,0,1,4.114,3.85H61.446A4.019,4.019,0,0,1,65.538,118.682Zm14.7-1.342a4.863,4.863,0,0,0-4.4,2.222v-2.134h-1.5V129H75.9v-6.072c0-2.64,1.562-4.18,4.048-4.18,2.2,0,3.476,1.254,3.476,3.7V129h1.562v-6.71C84.986,118.968,83.05,117.34,80.234,117.34Zm18.04-4.664v6.952a5.054,5.054,0,0,0-4.4-2.288,5.886,5.886,0,0,0,0,11.77,5.013,5.013,0,0,0,4.466-2.4V129h1.5V112.676Zm-4.268,15.048a4.516,4.516,0,1,1,4.29-4.51A4.237,4.237,0,0,1,94.006,127.724ZM108.24,117.34a7.348,7.348,0,0,0-4.708,1.562l.7,1.166a5.9,5.9,0,0,1,3.85-1.364c2.156,0,3.278,1.078,3.278,3.058v.7H107.69c-3.322,0-4.466,1.5-4.466,3.278,0,2,1.606,3.366,4.224,3.366a4.345,4.345,0,0,0,3.982-1.914V129h1.5v-7.172C112.926,118.836,111.232,117.34,108.24,117.34Zm-.55,10.538c-1.848,0-2.926-.836-2.926-2.178,0-1.188.726-2.068,2.97-2.068h3.63v1.892A3.7,3.7,0,0,1,107.69,127.878Zm12.584,1.232c3.014,0,4.774-1.3,4.774-3.3,0-4.444-7.5-2.09-7.5-5.214,0-1.1.924-1.914,3.014-1.914a5.931,5.931,0,0,1,3.41.99l.682-1.254a7.842,7.842,0,0,0-4.092-1.078c-2.948,0-4.576,1.408-4.576,3.3,0,4.576,7.5,2.2,7.5,5.214,0,1.144-.9,1.892-3.1,1.892a6.99,6.99,0,0,1-4.114-1.3l-.7,1.232A7.731,7.731,0,0,0,120.274,129.11Zm23.518-5.9a5.514,5.514,0,0,0-5.61-5.874,5.573,5.573,0,0,0-5.654,5.874,6.118,6.118,0,0,0,10.538,4l-.88-1.012a4.561,4.561,0,0,1-3.542,1.518,4.283,4.283,0,0,1-4.554-4.026h9.68C143.77,123.522,143.792,123.346,143.792,123.214Zm-5.61-4.532a4.025,4.025,0,0,1,4.114,3.85H134.09A4.019,4.019,0,0,1,138.182,118.682Zm14.7-1.342a4.863,4.863,0,0,0-4.4,2.222v-2.134h-1.5V129h1.562v-6.072c0-2.64,1.562-4.18,4.048-4.18,2.2,0,3.476,1.254,3.476,3.7V129h1.562v-6.71C157.63,118.968,155.694,117.34,152.878,117.34Zm-146.652,27A7.348,7.348,0,0,0,1.518,145.9l.7,1.166a5.9,5.9,0,0,1,3.85-1.364c2.156,0,3.278,1.078,3.278,3.058v.7H5.676c-3.322,0-4.466,1.5-4.466,3.278,0,2,1.606,3.366,4.224,3.366A4.345,4.345,0,0,0,9.416,154.2V156h1.5v-7.172C10.912,145.836,9.218,144.34,6.226,144.34Zm-.55,10.538c-1.848,0-2.926-.836-2.926-2.178,0-1.188.726-2.068,2.97-2.068H9.35v1.892A3.7,3.7,0,0,1,5.676,154.878ZM15.158,156H16.72V139.676H15.158Zm15.136-11.572v2.222a5.222,5.222,0,0,0-4.576-2.31,5.613,5.613,0,1,0,0,11.22,5.208,5.208,0,0,0,4.51-2.244v1.474c0,2.86-1.342,4.2-4.268,4.2a6.888,6.888,0,0,1-4.554-1.584l-.792,1.188A8.07,8.07,0,0,0,26,160.378c3.828,0,5.786-1.8,5.786-5.786V144.428Zm-4.422,9.746a4.237,4.237,0,1,1,0-8.47,4.238,4.238,0,1,1,0,8.47Zm19.162-9.746V150.5c0,2.64-1.518,4.2-3.938,4.2-2.2,0-3.476-1.254-3.476-3.718v-6.556H36.058v6.71c0,3.322,1.936,4.972,4.884,4.972a4.6,4.6,0,0,0,4.158-2.222V156h1.5V144.428Zm11.836-.088a4.863,4.863,0,0,0-4.4,2.222v-2.134h-1.5V156h1.562v-6.072c0-2.64,1.562-4.18,4.048-4.18,2.2,0,3.476,1.254,3.476,3.7V156h1.562v-6.71C61.622,145.968,59.686,144.34,56.87,144.34Zm13.046,0a7.348,7.348,0,0,0-4.708,1.562l.7,1.166a5.9,5.9,0,0,1,3.85-1.364c2.156,0,3.278,1.078,3.278,3.058v.7H69.366c-3.322,0-4.466,1.5-4.466,3.278,0,2,1.606,3.366,4.224,3.366a4.345,4.345,0,0,0,3.982-1.914V156h1.5v-7.172C74.6,145.836,72.908,144.34,69.916,144.34Zm-.55,10.538c-1.848,0-2.926-.836-2.926-2.178,0-1.188.726-2.068,2.97-2.068h3.63v1.892A3.7,3.7,0,0,1,69.366,154.878ZM81.95,156.11c3.014,0,4.774-1.3,4.774-3.3,0-4.444-7.5-2.09-7.5-5.214,0-1.1.924-1.914,3.014-1.914a5.931,5.931,0,0,1,3.41.99l.682-1.254a7.842,7.842,0,0,0-4.092-1.078c-2.948,0-4.576,1.408-4.576,3.3,0,4.576,7.5,2.2,7.5,5.214,0,1.144-.9,1.892-3.1,1.892a6.99,6.99,0,0,1-4.114-1.3l-.7,1.232A7.731,7.731,0,0,0,81.95,156.11Zm22.418-16.434v6.952a5.054,5.054,0,0,0-4.4-2.288,5.886,5.886,0,0,0,0,11.77,5.013,5.013,0,0,0,4.466-2.4V156h1.5V139.676ZM100.1,154.724a4.516,4.516,0,1,1,4.29-4.51A4.237,4.237,0,0,1,100.1,154.724Zm20.284-4.51a5.514,5.514,0,0,0-5.61-5.874,5.573,5.573,0,0,0-5.654,5.874,6.118,6.118,0,0,0,10.538,4l-.88-1.012a4.561,4.561,0,0,1-3.542,1.518,4.283,4.283,0,0,1-4.554-4.026h9.68C120.362,150.522,120.384,150.346,120.384,150.214Zm-5.61-4.532a4.025,4.025,0,0,1,4.114,3.85h-8.206A4.019,4.019,0,0,1,114.774,145.682ZM132.44,156.11c3.014,0,4.774-1.3,4.774-3.3,0-4.444-7.5-2.09-7.5-5.214,0-1.1.924-1.914,3.014-1.914a5.931,5.931,0,0,1,3.41.99l.682-1.254a7.842,7.842,0,0,0-4.092-1.078c-2.948,0-4.576,1.408-4.576,3.3,0,4.576,7.5,2.2,7.5,5.214,0,1.144-.9,1.892-3.1,1.892a6.99,6.99,0,0,1-4.114-1.3l-.7,1.232A7.731,7.731,0,0,0,132.44,156.11Zm16.522-11.682V150.5c0,2.64-1.518,4.2-3.938,4.2-2.2,0-3.476-1.254-3.476-3.718v-6.556h-1.562v6.71c0,3.322,1.936,4.972,4.884,4.972a4.6,4.6,0,0,0,4.158-2.222V156h1.5V144.428ZM158,156.11c3.014,0,4.774-1.3,4.774-3.3,0-4.444-7.5-2.09-7.5-5.214,0-1.1.924-1.914,3.014-1.914a5.931,5.931,0,0,1,3.41.99l.682-1.254a7.842,7.842,0,0,0-4.092-1.078c-2.948,0-4.576,1.408-4.576,3.3,0,4.576,7.5,2.2,7.5,5.214,0,1.144-.9,1.892-3.1,1.892a6.99,6.99,0,0,1-4.114-1.3l-.7,1.232A7.731,7.731,0,0,0,158,156.11Zm-151.03,27a5.1,5.1,0,0,0,4.532-2.288l-1.166-.792a3.914,3.914,0,0,1-3.366,1.694,4.512,4.512,0,0,1,0-9.02,3.934,3.934,0,0,1,3.366,1.716l1.166-.792a5.054,5.054,0,0,0-4.532-2.288,5.885,5.885,0,1,0,0,11.77Zm11.638-11.77A7.348,7.348,0,0,0,13.9,172.9l.7,1.166a5.9,5.9,0,0,1,3.85-1.364c2.156,0,3.278,1.078,3.278,3.058v.7H18.062c-3.322,0-4.466,1.5-4.466,3.278,0,2,1.606,3.366,4.224,3.366A4.345,4.345,0,0,0,21.8,181.2V183h1.5v-7.172C23.3,172.836,21.6,171.34,18.612,171.34Zm-.55,10.538c-1.848,0-2.926-.836-2.926-2.178,0-1.188.726-2.068,2.97-2.068h3.63v1.892A3.7,3.7,0,0,1,18.062,181.878Zm10.978-8.184v-2.266h-1.5V183h1.562v-5.9c0-2.728,1.474-4.268,3.894-4.268.11,0,.242.022.374.022V171.34C31.24,171.34,29.766,172.154,29.04,173.694Zm11.176-2.354a7.348,7.348,0,0,0-4.708,1.562l.7,1.166a5.9,5.9,0,0,1,3.85-1.364c2.156,0,3.278,1.078,3.278,3.058v.7H39.666c-3.322,0-4.466,1.5-4.466,3.278,0,2,1.606,3.366,4.224,3.366a4.345,4.345,0,0,0,3.982-1.914V183h1.5v-7.172C44.9,172.836,43.208,171.34,40.216,171.34Zm-.55,10.538c-1.848,0-2.926-.836-2.926-2.178,0-1.188.726-2.068,2.97-2.068h3.63v1.892A3.7,3.7,0,0,1,39.666,181.878Zm14.322,1.232a5.1,5.1,0,0,0,4.532-2.288l-1.166-.792a3.914,3.914,0,0,1-3.366,1.694,4.512,4.512,0,0,1,0-9.02,3.934,3.934,0,0,1,3.366,1.716l1.166-.792a5.054,5.054,0,0,0-4.532-2.288,5.885,5.885,0,1,0,0,11.77Zm13.266-1.936a2.585,2.585,0,0,1-1.716.594,1.853,1.853,0,0,1-2-2.112v-6.908h3.52v-1.32h-3.52V168.9H61.974v2.53H59.906v1.32h2.068v7a3.065,3.065,0,0,0,3.388,3.366A3.72,3.72,0,0,0,67.8,182.3Zm13.068-3.96a5.514,5.514,0,0,0-5.61-5.874,5.573,5.573,0,0,0-5.654,5.874,6.118,6.118,0,0,0,10.538,4l-.88-1.012a4.561,4.561,0,0,1-3.542,1.518A4.283,4.283,0,0,1,70.62,177.7H80.3C80.3,177.522,80.322,177.346,80.322,177.214Zm-5.61-4.532a4.025,4.025,0,0,1,4.114,3.85H70.62A4.019,4.019,0,0,1,74.712,172.682Zm10.3,1.012v-2.266h-1.5V183h1.562v-5.9c0-2.728,1.474-4.268,3.894-4.268.11,0,.242.022.374.022V171.34C87.208,171.34,85.734,172.154,85.008,173.694Zm6.512-4.048h1.54l3.564-2.728h-2.09ZM92.158,183H93.72V171.428H92.158Zm9.02.11c3.014,0,4.774-1.3,4.774-3.3,0-4.444-7.5-2.09-7.5-5.214,0-1.1.924-1.914,3.014-1.914a5.931,5.931,0,0,1,3.41.99l.682-1.254a7.842,7.842,0,0,0-4.092-1.078c-2.948,0-4.576,1.408-4.576,3.3,0,4.576,7.5,2.2,7.5,5.214,0,1.144-.9,1.892-3.1,1.892a6.99,6.99,0,0,1-4.114-1.3l-.7,1.232A7.731,7.731,0,0,0,101.178,183.11Zm13.2-1.936a2.585,2.585,0,0,1-1.716.594,1.853,1.853,0,0,1-2-2.112v-6.908h3.52v-1.32h-3.52V168.9H109.1v2.53H107.03v1.32H109.1v7a3.065,3.065,0,0,0,3.388,3.366,3.72,3.72,0,0,0,2.442-.814Zm4.18-12.276a1.123,1.123,0,0,0,1.144-1.144,1.109,1.109,0,0,0-1.144-1.078,1.111,1.111,0,1,0,0,2.222Zm-.792,14.1h1.562V171.428h-1.562Zm10.714.11a5.1,5.1,0,0,0,4.532-2.288l-1.166-.792a3.914,3.914,0,0,1-3.366,1.694,4.512,4.512,0,0,1,0-9.02,3.934,3.934,0,0,1,3.366,1.716l1.166-.792a5.054,5.054,0,0,0-4.532-2.288,5.885,5.885,0,1,0,0,11.77Zm11.638-11.77a7.348,7.348,0,0,0-4.708,1.562l.7,1.166a5.9,5.9,0,0,1,3.85-1.364c2.156,0,3.278,1.078,3.278,3.058v.7h-3.674c-3.322,0-4.466,1.5-4.466,3.278,0,2,1.606,3.366,4.224,3.366a4.345,4.345,0,0,0,3.982-1.914V183h1.5v-7.172C144.8,172.836,143.11,171.34,140.118,171.34Zm-.55,10.538c-1.848,0-2.926-.836-2.926-2.178,0-1.188.726-2.068,2.97-2.068h3.63v1.892A3.7,3.7,0,0,1,139.568,181.878Zm12.584,1.232c3.014,0,4.774-1.3,4.774-3.3,0-4.444-7.5-2.09-7.5-5.214,0-1.1.924-1.914,3.014-1.914a5.931,5.931,0,0,1,3.41.99l.682-1.254a7.842,7.842,0,0,0-4.092-1.078c-2.948,0-4.576,1.408-4.576,3.3,0,4.576,7.5,2.2,7.5,5.214,0,1.144-.9,1.892-3.1,1.892a6.99,6.99,0,0,1-4.114-1.3l-.7,1.232A7.731,7.731,0,0,0,152.152,183.11Zm21.6-11.682-4.356,9.834-4.356-9.834h-1.628l5.17,11.55-.506,1.122c-.66,1.452-1.364,1.936-2.4,1.936a2.89,2.89,0,0,1-2.112-.88l-.726,1.166a3.96,3.96,0,0,0,2.816,1.056c1.65,0,2.882-.726,3.85-2.992l5.786-12.958Zm15.4-.088a4.863,4.863,0,0,0-4.4,2.222v-2.134h-1.5V183h1.562v-6.072c0-2.64,1.562-4.18,4.048-4.18,2.2,0,3.476,1.254,3.476,3.7V183h1.562v-6.71C193.908,172.968,191.972,171.34,189.156,171.34Zm13.772,11.77a5.885,5.885,0,1,0-5.9-5.9A5.692,5.692,0,0,0,202.928,183.11Zm0-1.386a4.516,4.516,0,1,1,4.29-4.51A4.237,4.237,0,0,1,202.928,181.724ZM12.276,204.214a5.514,5.514,0,0,0-5.61-5.874,5.573,5.573,0,0,0-5.654,5.874,5.731,5.731,0,0,0,6.072,5.9,5.7,5.7,0,0,0,4.466-1.892l-.88-1.012a4.561,4.561,0,0,1-3.542,1.518A4.283,4.283,0,0,1,2.574,204.7h9.68C12.254,204.522,12.276,204.346,12.276,204.214Zm-5.61-4.532a4.025,4.025,0,0,1,4.114,3.85H2.574A4.019,4.019,0,0,1,6.666,199.682Zm14.7-1.342a4.863,4.863,0,0,0-4.4,2.222v-2.134h-1.5V210h1.562v-6.072c0-2.64,1.562-4.18,4.048-4.18,2.2,0,3.476,1.254,3.476,3.7V210h1.562v-6.71C26.114,199.968,24.178,198.34,21.362,198.34Zm20.306,9.834a2.585,2.585,0,0,1-1.716.594,1.853,1.853,0,0,1-2-2.112v-6.908h3.52v-1.32H37.95V195.9H36.388v2.53H34.32v1.32h2.068v7a3.065,3.065,0,0,0,3.388,3.366,3.72,3.72,0,0,0,2.442-.814Zm7.7,1.936a5.885,5.885,0,1,0-5.9-5.9A5.692,5.692,0,0,0,49.368,210.11Zm0-1.386a4.516,4.516,0,1,1,4.29-4.51A4.237,4.237,0,0,1,49.368,208.724ZM67.43,193.676v6.952a5.054,5.054,0,0,0-4.4-2.288,5.886,5.886,0,0,0,0,11.77,5.013,5.013,0,0,0,4.466-2.4V210h1.5V193.676Zm-4.268,15.048a4.516,4.516,0,1,1,4.29-4.51A4.237,4.237,0,0,1,63.162,208.724ZM77.4,198.34a7.348,7.348,0,0,0-4.708,1.562l.7,1.166a5.9,5.9,0,0,1,3.85-1.364c2.156,0,3.278,1.078,3.278,3.058v.7H76.846c-3.322,0-4.466,1.5-4.466,3.278,0,2,1.606,3.366,4.224,3.366a4.345,4.345,0,0,0,3.982-1.914V210h1.5v-7.172C82.082,199.836,80.388,198.34,77.4,198.34Zm-.55,10.538c-1.848,0-2.926-.836-2.926-2.178,0-1.188.726-2.068,2.97-2.068h3.63v1.892A3.7,3.7,0,0,1,76.846,208.878ZM89.43,210.11c3.014,0,4.774-1.3,4.774-3.3,0-4.444-7.5-2.09-7.5-5.214,0-1.1.924-1.914,3.014-1.914a5.931,5.931,0,0,1,3.41.99l.682-1.254a7.842,7.842,0,0,0-4.092-1.078c-2.948,0-4.576,1.408-4.576,3.3,0,4.576,7.5,2.2,7.5,5.214,0,1.144-.9,1.892-3.1,1.892a6.99,6.99,0,0,1-4.114-1.3l-.7,1.232A7.731,7.731,0,0,0,89.43,210.11Zm7.81,0a1.2,1.2,0,0,0,1.188-1.21,1.183,1.183,0,0,0-1.188-1.188,1.165,1.165,0,0,0-1.166,1.188A1.184,1.184,0,0,0,97.24,210.11Z" transform="translate(4263 -4762)" fill="#fff"/>
    <path id="Trazado_20178" data-name="Trazado 20178" d="M5.368,18.14V14.576h7.15V11.8H5.368V8.46h8.1V5.6H1.826V21H13.75V18.14ZM24.684,9.164,21.3,17.216,18.018,9.164H14.476L19.448,21H22.99L27.984,9.164Zm15.972,5.962A5.859,5.859,0,0,0,34.5,8.988a6.026,6.026,0,0,0-6.314,6.094c0,3.52,2.662,6.094,6.754,6.094a6.2,6.2,0,0,0,4.884-1.914l-1.826-1.98a4.012,4.012,0,0,1-2.97,1.144,3.156,3.156,0,0,1-3.388-2.376H40.59C40.612,15.764,40.656,15.39,40.656,15.126Zm-6.138-3.542a2.813,2.813,0,0,1,2.9,2.464h-5.83A2.8,2.8,0,0,1,34.518,11.584Zm15.62-2.6a5.182,5.182,0,0,0-3.916,1.562V9.164H42.944V21h3.432V15.148c0-2.178,1.188-3.19,2.838-3.19,1.518,0,2.4.88,2.4,2.794V21h3.432V14.224C55.044,10.616,52.932,8.988,50.138,8.988Zm14.718,9.02a2.313,2.313,0,0,1-1.386.44A1.38,1.38,0,0,1,62,16.886V12.068h2.948V9.428H62V6.546H58.564V9.428H56.738v2.64h1.826V16.93c0,2.816,1.628,4.246,4.422,4.246a4.9,4.9,0,0,0,2.794-.748ZM76.208,9.164v5.852c0,2.178-1.144,3.19-2.728,3.19-1.518,0-2.4-.88-2.4-2.86V9.164H67.65v6.688c0,3.652,2.09,5.324,5.06,5.324a4.789,4.789,0,0,0,3.674-1.584V21H79.64V9.164Zm11.4-.176a9.1,9.1,0,0,0-5.1,1.43l1.232,2.4a5.691,5.691,0,0,1,3.41-1.1c1.848,0,2.728.858,2.728,2.332H87.142c-3.608,0-5.082,1.452-5.082,3.542,0,2.046,1.65,3.586,4.422,3.586a3.884,3.884,0,0,0,3.608-1.65V21H93.3V14.246C93.3,10.66,91.212,8.988,87.6,8.988Zm-.264,9.878c-1.21,0-1.936-.572-1.936-1.43,0-.792.506-1.386,2.112-1.386H89.87v1.21A2.529,2.529,0,0,1,87.34,18.866ZM96.4,21h3.432V4.676H96.4Zm7.92-7.722a2.1,2.1,0,0,0,2.134-2.156,2.134,2.134,0,0,0-4.268,0A2.1,2.1,0,0,0,104.324,13.278Zm0,7.9a2.1,2.1,0,0,0,2.134-2.156,2.134,2.134,0,0,0-4.268,0A2.1,2.1,0,0,0,104.324,21.176ZM11.4,63.428V65.65A5.222,5.222,0,0,0,6.82,63.34a5.613,5.613,0,1,0,0,11.22,5.208,5.208,0,0,0,4.51-2.244V73.79c0,2.86-1.342,4.2-4.268,4.2a6.888,6.888,0,0,1-4.554-1.584L1.716,77.6a8.07,8.07,0,0,0,5.39,1.782c3.828,0,5.786-1.8,5.786-5.786V63.428ZM6.974,73.174a4.237,4.237,0,1,1,0-8.47,4.238,4.238,0,1,1,0,8.47Zm20.394-3.96a5.514,5.514,0,0,0-5.61-5.874A5.573,5.573,0,0,0,16.1,69.214a5.731,5.731,0,0,0,6.072,5.9,5.7,5.7,0,0,0,4.466-1.892l-.88-1.012a4.561,4.561,0,0,1-3.542,1.518A4.283,4.283,0,0,1,17.666,69.7h9.68C27.346,69.522,27.368,69.346,27.368,69.214Zm-5.61-4.532a4.025,4.025,0,0,1,4.114,3.85H17.666A4.019,4.019,0,0,1,21.758,64.682Zm14.7-1.342a4.863,4.863,0,0,0-4.4,2.222V63.428h-1.5V75H32.12V68.928c0-2.64,1.562-4.18,4.048-4.18,2.2,0,3.476,1.254,3.476,3.7V75h1.562V68.29C41.206,64.968,39.27,63.34,36.454,63.34Zm19.14,5.874a5.514,5.514,0,0,0-5.61-5.874,5.573,5.573,0,0,0-5.654,5.874,5.731,5.731,0,0,0,6.072,5.9,5.7,5.7,0,0,0,4.466-1.892l-.88-1.012a4.561,4.561,0,0,1-3.542,1.518A4.283,4.283,0,0,1,45.892,69.7h9.68C55.572,69.522,55.594,69.346,55.594,69.214Zm-5.61-4.532a4.025,4.025,0,0,1,4.114,3.85H45.892A4.019,4.019,0,0,1,49.984,64.682Zm10.3,1.012V63.428h-1.5V75h1.562V69.1c0-2.728,1.474-4.268,3.894-4.268.11,0,.242.022.374.022V63.34C62.48,63.34,61.006,64.154,60.28,65.694ZM71.456,63.34A7.348,7.348,0,0,0,66.748,64.9l.7,1.166A5.9,5.9,0,0,1,71.3,64.7c2.156,0,3.278,1.078,3.278,3.058v.7H70.906c-3.322,0-4.466,1.5-4.466,3.278,0,2,1.606,3.366,4.224,3.366A4.345,4.345,0,0,0,74.646,73.2V75h1.5V67.828C76.142,64.836,74.448,63.34,71.456,63.34Zm-.55,10.538c-1.848,0-2.926-.836-2.926-2.178,0-1.188.726-2.068,2.97-2.068h3.63v1.892A3.7,3.7,0,0,1,70.906,73.878ZM80.388,75H81.95V58.676H80.388Zm20.35-11.66a5.039,5.039,0,0,0-4.576,2.442,4.156,4.156,0,0,0-4.114-2.442,4.68,4.68,0,0,0-4.246,2.2V63.428h-1.5V75h1.562V68.928c0-2.64,1.518-4.18,3.872-4.18,2.112,0,3.344,1.254,3.344,3.7V75h1.562V68.928c0-2.64,1.5-4.18,3.872-4.18,2.09,0,3.322,1.254,3.322,3.7V75H105.4V68.29C105.4,64.968,103.554,63.34,100.738,63.34Zm19.052,5.874a5.514,5.514,0,0,0-5.61-5.874,5.573,5.573,0,0,0-5.654,5.874,6.118,6.118,0,0,0,10.538,4l-.88-1.012a4.561,4.561,0,0,1-3.542,1.518,4.283,4.283,0,0,1-4.554-4.026h9.68C119.768,69.522,119.79,69.346,119.79,69.214Zm-5.61-4.532a4.025,4.025,0,0,1,4.114,3.85h-8.206A4.019,4.019,0,0,1,114.18,64.682Zm14.7-1.342a4.863,4.863,0,0,0-4.4,2.222V63.428h-1.5V75h1.562V68.928c0-2.64,1.562-4.18,4.048-4.18,2.2,0,3.476,1.254,3.476,3.7V75h1.562V68.29C133.628,64.968,131.692,63.34,128.876,63.34Zm14.542,9.834a2.585,2.585,0,0,1-1.716.594,1.853,1.853,0,0,1-2-2.112V64.748h3.52v-1.32H139.7V60.9h-1.562v2.53H136.07v1.32h2.068v7a3.065,3.065,0,0,0,3.388,3.366,3.72,3.72,0,0,0,2.442-.814Zm13.068-3.96a5.514,5.514,0,0,0-5.61-5.874,5.573,5.573,0,0,0-5.654,5.874,6.118,6.118,0,0,0,10.538,4l-.88-1.012a4.561,4.561,0,0,1-3.542,1.518,4.283,4.283,0,0,1-4.554-4.026h9.68C156.464,69.522,156.486,69.346,156.486,69.214Zm-5.61-4.532a4.025,4.025,0,0,1,4.114,3.85h-8.206A4.019,4.019,0,0,1,150.876,64.682Zm8.976,8.03a1.151,1.151,0,0,0-1.166,1.188,1.112,1.112,0,0,0,.792,1.122l-.748,3.19h1.056l.924-3.036a3.589,3.589,0,0,0,.308-1.276A1.151,1.151,0,0,0,159.852,72.712Zm13.354,2.4c3.014,0,4.774-1.3,4.774-3.3,0-4.444-7.5-2.09-7.5-5.214,0-1.1.924-1.914,3.014-1.914a5.931,5.931,0,0,1,3.41.99l.682-1.254a7.842,7.842,0,0,0-4.092-1.078c-2.948,0-4.576,1.408-4.576,3.3,0,4.576,7.5,2.2,7.5,5.214,0,1.144-.9,1.892-3.1,1.892a6.99,6.99,0,0,1-4.114-1.3l-.7,1.232A7.731,7.731,0,0,0,173.206,75.11Zm17.754-5.9a5.514,5.514,0,0,0-5.61-5.874,5.573,5.573,0,0,0-5.654,5.874,6.118,6.118,0,0,0,10.538,4l-.88-1.012a4.561,4.561,0,0,1-3.542,1.518,4.283,4.283,0,0,1-4.554-4.026h9.68C190.938,69.522,190.96,69.346,190.96,69.214Zm-5.61-4.532a4.025,4.025,0,0,1,4.114,3.85h-8.206A4.019,4.019,0,0,1,185.35,64.682ZM8.074,90.34A4.89,4.89,0,0,0,3.74,92.452V85.676H2.178V102H3.74V95.928c0-2.64,1.562-4.18,4.048-4.18,2.2,0,3.476,1.254,3.476,3.7V102h1.562V95.29C12.826,91.968,10.89,90.34,8.074,90.34Zm13.046,0A7.348,7.348,0,0,0,16.412,91.9l.7,1.166a5.9,5.9,0,0,1,3.85-1.364c2.156,0,3.278,1.078,3.278,3.058v.7H20.57c-3.322,0-4.466,1.5-4.466,3.278,0,2,1.606,3.366,4.224,3.366A4.345,4.345,0,0,0,24.31,100.2V102h1.5V94.828C25.806,91.836,24.112,90.34,21.12,90.34Zm-.55,10.538c-1.848,0-2.926-.836-2.926-2.178,0-1.188.726-2.068,2.97-2.068h3.63v1.892A3.7,3.7,0,0,1,20.57,100.878Zm14.322,1.232a5.1,5.1,0,0,0,4.532-2.288l-1.166-.792a3.914,3.914,0,0,1-3.366,1.694,4.512,4.512,0,0,1,0-9.02,3.934,3.934,0,0,1,3.366,1.716l1.166-.792a5.054,5.054,0,0,0-4.532-2.288,5.885,5.885,0,1,0,0,11.77Zm17.49-5.9a5.514,5.514,0,0,0-5.61-5.874,5.573,5.573,0,0,0-5.654,5.874,5.731,5.731,0,0,0,6.072,5.9,5.7,5.7,0,0,0,4.466-1.892l-.88-1.012a4.561,4.561,0,0,1-3.542,1.518A4.283,4.283,0,0,1,42.68,96.7h9.68C52.36,96.522,52.382,96.346,52.382,96.214Zm-5.61-4.532a4.025,4.025,0,0,1,4.114,3.85H42.68A4.019,4.019,0,0,1,46.772,91.682ZM65.384,90.34A7.348,7.348,0,0,0,60.676,91.9l.7,1.166A5.9,5.9,0,0,1,65.23,91.7c2.156,0,3.278,1.078,3.278,3.058v.7H64.834c-3.322,0-4.466,1.5-4.466,3.278,0,2,1.606,3.366,4.224,3.366a4.345,4.345,0,0,0,3.982-1.914V102h1.5V94.828C70.07,91.836,68.376,90.34,65.384,90.34Zm-.55,10.538c-1.848,0-2.926-.836-2.926-2.178,0-1.188.726-2.068,2.97-2.068h3.63v1.892A3.7,3.7,0,0,1,64.834,100.878ZM74.316,102h1.562V85.676H74.316Zm16.478.11a5.1,5.1,0,0,0,4.532-2.288L94.16,99.03a3.914,3.914,0,0,1-3.366,1.694,4.512,4.512,0,0,1,0-9.02A3.934,3.934,0,0,1,94.16,93.42l1.166-.792a5.054,5.054,0,0,0-4.532-2.288,5.885,5.885,0,1,0,0,11.77Zm11.638-11.77A7.348,7.348,0,0,0,97.724,91.9l.7,1.166a5.9,5.9,0,0,1,3.85-1.364c2.156,0,3.278,1.078,3.278,3.058v.7h-3.674c-3.322,0-4.466,1.5-4.466,3.278,0,2,1.606,3.366,4.224,3.366a4.345,4.345,0,0,0,3.982-1.914V102h1.5V94.828C107.118,91.836,105.424,90.34,102.432,90.34Zm-.55,10.538c-1.848,0-2.926-.836-2.926-2.178,0-1.188.726-2.068,2.97-2.068h3.63v1.892A3.7,3.7,0,0,1,101.882,100.878ZM125.8,90.34a5.039,5.039,0,0,0-4.576,2.442,4.156,4.156,0,0,0-4.114-2.442,4.68,4.68,0,0,0-4.246,2.2V90.428h-1.5V102h1.562V95.928c0-2.64,1.518-4.18,3.872-4.18,2.112,0,3.344,1.254,3.344,3.7V102H121.7V95.928c0-2.64,1.5-4.18,3.872-4.18,2.09,0,3.322,1.254,3.322,3.7V102h1.562V95.29C130.46,91.968,128.612,90.34,125.8,90.34Zm14.872,0a5.054,5.054,0,0,0-4.4,2.288V85.676h-1.562V102h1.5V99.712a5.013,5.013,0,0,0,4.466,2.4,5.886,5.886,0,0,0,0-11.77Zm-.11,10.384a4.515,4.515,0,1,1,4.312-4.51A4.237,4.237,0,0,1,140.558,100.724ZM150.414,87.9a1.123,1.123,0,0,0,1.144-1.144,1.109,1.109,0,0,0-1.144-1.078,1.111,1.111,0,1,0,0,2.222Zm-.792,14.1h1.562V90.428h-1.562Zm9.966-11.66A7.348,7.348,0,0,0,154.88,91.9l.7,1.166a5.9,5.9,0,0,1,3.85-1.364c2.156,0,3.278,1.078,3.278,3.058v.7h-3.674c-3.322,0-4.466,1.5-4.466,3.278,0,2,1.606,3.366,4.224,3.366a4.345,4.345,0,0,0,3.982-1.914V102h1.5V94.828C164.274,91.836,162.58,90.34,159.588,90.34Zm-.55,10.538c-1.848,0-2.926-.836-2.926-2.178,0-1.188.726-2.068,2.97-2.068h3.63v1.892A3.7,3.7,0,0,1,159.038,100.878Zm10.978-8.184V90.428h-1.5V102h1.562V96.1c0-2.728,1.474-4.268,3.894-4.268.11,0,.242.022.374.022V90.34C172.216,90.34,170.742,91.154,170.016,92.694ZM6.226,117.34A7.348,7.348,0,0,0,1.518,118.9l.7,1.166a5.9,5.9,0,0,1,3.85-1.364c2.156,0,3.278,1.078,3.278,3.058v.7H5.676c-3.322,0-4.466,1.5-4.466,3.278,0,2,1.606,3.366,4.224,3.366A4.345,4.345,0,0,0,9.416,127.2V129h1.5v-7.172C10.912,118.836,9.218,117.34,6.226,117.34Zm-.55,10.538c-1.848,0-2.926-.836-2.926-2.178,0-1.188.726-2.068,2.97-2.068H9.35v1.892A3.7,3.7,0,0,1,5.676,127.878ZM15.158,129H16.72V112.676H15.158Zm15.136-11.572v2.222a5.222,5.222,0,0,0-4.576-2.31,5.613,5.613,0,1,0,0,11.22,5.208,5.208,0,0,0,4.51-2.244v1.474c0,2.86-1.342,4.2-4.268,4.2a6.888,6.888,0,0,1-4.554-1.584l-.792,1.188A8.07,8.07,0,0,0,26,133.378c3.828,0,5.786-1.8,5.786-5.786V117.428Zm-4.422,9.746a4.237,4.237,0,1,1,0-8.47,4.238,4.238,0,1,1,0,8.47ZM40.9,129.11a5.885,5.885,0,1,0-5.9-5.9A5.692,5.692,0,0,0,40.9,129.11Zm0-1.386a4.516,4.516,0,1,1,4.29-4.51A4.237,4.237,0,0,1,40.9,127.724Zm24.926-4.51a5.514,5.514,0,0,0-5.61-5.874,5.573,5.573,0,0,0-5.654,5.874,6.118,6.118,0,0,0,10.538,4l-.88-1.012a4.561,4.561,0,0,1-3.542,1.518,4.283,4.283,0,0,1-4.554-4.026H65.8C65.8,123.522,65.824,123.346,65.824,123.214Zm-5.61-4.532a4.025,4.025,0,0,1,4.114,3.85H56.122A4.019,4.019,0,0,1,60.214,118.682Zm14.7-1.342a4.863,4.863,0,0,0-4.4,2.222v-2.134h-1.5V129h1.562v-6.072c0-2.64,1.562-4.18,4.048-4.18,2.2,0,3.476,1.254,3.476,3.7V129h1.562v-6.71C79.662,118.968,77.726,117.34,74.91,117.34Zm24.86,5.874a5.514,5.514,0,0,0-5.61-5.874,5.573,5.573,0,0,0-5.654,5.874,6.118,6.118,0,0,0,10.538,4l-.88-1.012a4.561,4.561,0,0,1-3.542,1.518,4.283,4.283,0,0,1-4.554-4.026h9.68C99.748,123.522,99.77,123.346,99.77,123.214Zm-5.61-4.532a4.025,4.025,0,0,1,4.114,3.85H90.068A4.019,4.019,0,0,1,94.16,118.682ZM102.96,129h1.562V112.676H102.96ZM120.6,117.34a5.04,5.04,0,0,0-4.466,2.376v-2.288h-1.5v15.84H116.2v-6.446a5.054,5.054,0,0,0,4.4,2.288,5.886,5.886,0,0,0,0-11.77Zm-.11,10.384a4.515,4.515,0,1,1,4.312-4.51A4.237,4.237,0,0,1,120.494,127.724Zm10.56-8.03v-2.266h-1.5V129h1.562v-5.9c0-2.728,1.474-4.268,3.894-4.268.11,0,.242.022.374.022V117.34C133.254,117.34,131.78,118.154,131.054,119.694Zm11.77,9.416a5.885,5.885,0,1,0-5.9-5.9A5.692,5.692,0,0,0,142.824,129.11Zm0-1.386a4.516,4.516,0,1,1,4.29-4.51A4.237,4.237,0,0,1,142.824,127.724Zm13.86,1.386a5.1,5.1,0,0,0,4.532-2.288l-1.166-.792a3.914,3.914,0,0,1-3.366,1.694,4.512,4.512,0,0,1,0-9.02,3.934,3.934,0,0,1,3.366,1.716l1.166-.792a5.054,5.054,0,0,0-4.532-2.288,5.885,5.885,0,1,0,0,11.77Zm17.49-5.9a5.514,5.514,0,0,0-5.61-5.874,5.573,5.573,0,0,0-5.654,5.874,6.118,6.118,0,0,0,10.538,4l-.88-1.012a4.561,4.561,0,0,1-3.542,1.518,4.283,4.283,0,0,1-4.554-4.026h9.68C174.152,123.522,174.174,123.346,174.174,123.214Zm-5.61-4.532a4.025,4.025,0,0,1,4.114,3.85h-8.206A4.019,4.019,0,0,1,168.564,118.682Zm11.9,10.428c3.014,0,4.774-1.3,4.774-3.3,0-4.444-7.5-2.09-7.5-5.214,0-1.1.924-1.914,3.014-1.914a5.931,5.931,0,0,1,3.41.99l.682-1.254a7.842,7.842,0,0,0-4.092-1.078c-2.948,0-4.576,1.408-4.576,3.3,0,4.576,7.5,2.2,7.5,5.214,0,1.144-.9,1.892-3.1,1.892a6.99,6.99,0,0,1-4.114-1.3l-.7,1.232A7.731,7.731,0,0,0,180.466,129.11Zm12.386,0a5.885,5.885,0,1,0-5.9-5.9A5.692,5.692,0,0,0,192.852,129.11Zm0-1.386a4.516,4.516,0,1,1,4.29-4.51A4.237,4.237,0,0,1,192.852,127.724Zm19.558,1.386a5.885,5.885,0,1,0-5.9-5.9A5.692,5.692,0,0,0,212.41,129.11Zm0-1.386a4.516,4.516,0,1,1,4.29-4.51A4.237,4.237,0,0,1,212.41,127.724ZM11.176,139.676v6.952a5.054,5.054,0,0,0-4.4-2.288,5.886,5.886,0,0,0,0,11.77,5.013,5.013,0,0,0,4.466-2.4V156h1.5V139.676ZM6.908,154.724a4.515,4.515,0,0,1,0-9.02,4.516,4.516,0,0,1,0,9.02Zm20.284-4.51a5.514,5.514,0,0,0-5.61-5.874,5.573,5.573,0,0,0-5.654,5.874A5.731,5.731,0,0,0,22,156.11a5.7,5.7,0,0,0,4.466-1.892l-.88-1.012a4.561,4.561,0,0,1-3.542,1.518A4.283,4.283,0,0,1,17.49,150.7h9.68C27.17,150.522,27.192,150.346,27.192,150.214Zm-5.61-4.532a4.025,4.025,0,0,1,4.114,3.85H17.49A4.019,4.019,0,0,1,21.582,145.682Zm18.612-1.342a7.348,7.348,0,0,0-4.708,1.562l.7,1.166a5.9,5.9,0,0,1,3.85-1.364c2.156,0,3.278,1.078,3.278,3.058v.7H39.644c-3.322,0-4.466,1.5-4.466,3.278,0,2,1.606,3.366,4.224,3.366a4.345,4.345,0,0,0,3.982-1.914V156h1.5v-7.172C44.88,145.836,43.186,144.34,40.194,144.34Zm-.55,10.538c-1.848,0-2.926-.836-2.926-2.178,0-1.188.726-2.068,2.97-2.068h3.63v1.892A3.7,3.7,0,0,1,39.644,154.878Zm14.322,1.232a5.1,5.1,0,0,0,4.532-2.288l-1.166-.792a3.914,3.914,0,0,1-3.366,1.694,4.512,4.512,0,0,1,0-9.02,3.934,3.934,0,0,1,3.366,1.716l1.166-.792a5.054,5.054,0,0,0-4.532-2.288,5.885,5.885,0,1,0,0,11.77Zm16.456-11.682V150.5c0,2.64-1.518,4.2-3.938,4.2-2.2,0-3.476-1.254-3.476-3.718v-6.556H61.446v6.71c0,3.322,1.936,4.972,4.884,4.972a4.6,4.6,0,0,0,4.158-2.222V156h1.5V144.428Zm16.038,5.786a5.514,5.514,0,0,0-5.61-5.874,5.573,5.573,0,0,0-5.654,5.874,6.118,6.118,0,0,0,10.538,4l-.88-1.012a4.561,4.561,0,0,1-3.542,1.518,4.283,4.283,0,0,1-4.554-4.026h9.68C86.438,150.522,86.46,150.346,86.46,150.214Zm-5.61-4.532a4.025,4.025,0,0,1,4.114,3.85H76.758A4.019,4.019,0,0,1,80.85,145.682Zm10.3,1.012v-2.266h-1.5V156h1.562v-5.9c0-2.728,1.474-4.268,3.894-4.268.11,0,.242.022.374.022V144.34C93.346,144.34,91.872,145.154,91.146,146.694Zm16.038-7.018v6.952a5.054,5.054,0,0,0-4.4-2.288,5.886,5.886,0,0,0,0,11.77,5.013,5.013,0,0,0,4.466-2.4V156h1.5V139.676Zm-4.268,15.048a4.516,4.516,0,1,1,4.29-4.51A4.237,4.237,0,0,1,102.916,154.724Zm14.916,1.386a5.885,5.885,0,1,0-5.9-5.9A5.692,5.692,0,0,0,117.832,156.11Zm0-1.386a4.516,4.516,0,1,1,4.29-4.51A4.237,4.237,0,0,1,117.832,154.724Zm19.624,1.386a5.1,5.1,0,0,0,4.532-2.288l-1.166-.792a3.914,3.914,0,0,1-3.366,1.694,4.512,4.512,0,0,1,0-9.02,3.934,3.934,0,0,1,3.366,1.716l1.166-.792a5.054,5.054,0,0,0-4.532-2.288,5.885,5.885,0,1,0,0,11.77Zm12.122,0a5.885,5.885,0,1,0-5.9-5.9A5.692,5.692,0,0,0,149.578,156.11Zm0-1.386a4.516,4.516,0,1,1,4.29-4.51A4.237,4.237,0,0,1,149.578,154.724Zm14.96-10.384a4.863,4.863,0,0,0-4.4,2.222v-2.134h-1.5V156H160.2v-6.072c0-2.64,1.562-4.18,4.048-4.18,2.2,0,3.476,1.254,3.476,3.7V156h1.562v-6.71C169.29,145.968,167.354,144.34,164.538,144.34ZM3.674,173.694v-2.266h-1.5V183H3.74v-5.9c0-2.728,1.474-4.268,3.894-4.268.11,0,.242.022.374.022V171.34C5.874,171.34,4.4,172.154,3.674,173.694Zm17.138,3.52a5.514,5.514,0,0,0-5.61-5.874,5.573,5.573,0,0,0-5.654,5.874,5.731,5.731,0,0,0,6.072,5.9,5.7,5.7,0,0,0,4.466-1.892l-.88-1.012a4.561,4.561,0,0,1-3.542,1.518A4.283,4.283,0,0,1,11.11,177.7h9.68C20.79,177.522,20.812,177.346,20.812,177.214Zm-5.61-4.532a4.025,4.025,0,0,1,4.114,3.85H11.11A4.019,4.019,0,0,1,15.2,172.682Zm17.864-1.254v2.288A5.04,5.04,0,0,0,28.6,171.34a5.886,5.886,0,0,0,0,11.77,5.054,5.054,0,0,0,4.4-2.288v6.446h1.562v-15.84Zm-4.334,10.3a4.516,4.516,0,1,1,4.29-4.51A4.237,4.237,0,0,1,28.732,181.724Zm19.052-10.3V177.5c0,2.64-1.518,4.2-3.938,4.2-2.2,0-3.476-1.254-3.476-3.718v-6.556H38.808v6.71c0,3.322,1.936,4.972,4.884,4.972a4.6,4.6,0,0,0,4.158-2.222V183h1.5V171.428Zm16.038,5.786a5.514,5.514,0,0,0-5.61-5.874,5.573,5.573,0,0,0-5.654,5.874,6.118,6.118,0,0,0,10.538,4l-.88-1.012a4.561,4.561,0,0,1-3.542,1.518A4.283,4.283,0,0,1,54.12,177.7H63.8C63.8,177.522,63.822,177.346,63.822,177.214Zm-5.61-4.532a4.025,4.025,0,0,1,4.114,3.85H54.12A4.019,4.019,0,0,1,58.212,172.682Zm10.3,1.012v-2.266h-1.5V183h1.562v-5.9c0-2.728,1.474-4.268,3.894-4.268.11,0,.242.022.374.022V171.34C70.708,171.34,69.234,172.154,68.508,173.694Zm7.942-4.8a1.123,1.123,0,0,0,1.144-1.144,1.109,1.109,0,0,0-1.144-1.078,1.111,1.111,0,1,0,0,2.222ZM75.658,183H77.22V171.428H75.658Zm20.35-11.66a5.039,5.039,0,0,0-4.576,2.442,4.156,4.156,0,0,0-4.114-2.442,4.68,4.68,0,0,0-4.246,2.2v-2.112h-1.5V183h1.562v-6.072c0-2.64,1.518-4.18,3.872-4.18,2.112,0,3.344,1.254,3.344,3.7V183h1.562v-6.072c0-2.64,1.5-4.18,3.872-4.18,2.09,0,3.322,1.254,3.322,3.7V183h1.562v-6.71C100.672,172.968,98.824,171.34,96.008,171.34Zm9.7-2.442a1.123,1.123,0,0,0,1.144-1.144,1.109,1.109,0,0,0-1.144-1.078,1.111,1.111,0,1,0,0,2.222Zm-.792,14.1h1.562V171.428h-1.562Zm16.016-5.786a5.514,5.514,0,0,0-5.61-5.874,5.573,5.573,0,0,0-5.654,5.874,6.118,6.118,0,0,0,10.538,4l-.88-1.012a4.561,4.561,0,0,1-3.542,1.518,4.283,4.283,0,0,1-4.554-4.026h9.68C120.912,177.522,120.934,177.346,120.934,177.214Zm-5.61-4.532a4.025,4.025,0,0,1,4.114,3.85h-8.206A4.019,4.019,0,0,1,115.324,172.682Zm14.7-1.342a4.863,4.863,0,0,0-4.4,2.222v-2.134h-1.5V183h1.562v-6.072c0-2.64,1.562-4.18,4.048-4.18,2.2,0,3.476,1.254,3.476,3.7V183h1.562v-6.71C134.772,172.968,132.836,171.34,130.02,171.34Zm14.542,9.834a2.585,2.585,0,0,1-1.716.594,1.853,1.853,0,0,1-2-2.112v-6.908h3.52v-1.32h-3.52V168.9h-1.562v2.53h-2.068v1.32h2.068v7a3.065,3.065,0,0,0,3.388,3.366,3.72,3.72,0,0,0,2.442-.814Zm7.7,1.936a5.885,5.885,0,1,0-5.9-5.9A5.692,5.692,0,0,0,152.262,183.11Zm0-1.386a4.516,4.516,0,1,1,4.29-4.51A4.237,4.237,0,0,1,152.262,181.724Zm12.166,1.386c3.014,0,4.774-1.3,4.774-3.3,0-4.444-7.5-2.09-7.5-5.214,0-1.1.924-1.914,3.014-1.914a5.931,5.931,0,0,1,3.41.99l.682-1.254a7.842,7.842,0,0,0-4.092-1.078c-2.948,0-4.576,1.408-4.576,3.3,0,4.576,7.5,2.2,7.5,5.214,0,1.144-.9,1.892-3.1,1.892a6.99,6.99,0,0,1-4.114-1.3l-.7,1.232A7.731,7.731,0,0,0,164.428,183.11Zm-152.152,21.1a5.514,5.514,0,0,0-5.61-5.874,5.573,5.573,0,0,0-5.654,5.874,5.731,5.731,0,0,0,6.072,5.9,5.7,5.7,0,0,0,4.466-1.892l-.88-1.012a4.561,4.561,0,0,1-3.542,1.518A4.283,4.283,0,0,1,2.574,204.7h9.68C12.254,204.522,12.276,204.346,12.276,204.214Zm-5.61-4.532a4.025,4.025,0,0,1,4.114,3.85H2.574A4.019,4.019,0,0,1,6.666,199.682Zm11.9,10.428c3.014,0,4.774-1.3,4.774-3.3,0-4.444-7.5-2.09-7.5-5.214,0-1.1.924-1.914,3.014-1.914a5.931,5.931,0,0,1,3.41.99l.682-1.254a7.842,7.842,0,0,0-4.092-1.078c-2.948,0-4.576,1.408-4.576,3.3,0,4.576,7.5,2.2,7.5,5.214,0,1.144-.9,1.892-3.1,1.892a6.99,6.99,0,0,1-4.114-1.3l-.7,1.232A7.731,7.731,0,0,0,18.568,210.11Zm13.618-11.77a5.04,5.04,0,0,0-4.466,2.376v-2.288h-1.5v15.84h1.562v-6.446a5.054,5.054,0,0,0,4.4,2.288,5.886,5.886,0,0,0,0-11.77Zm-.11,10.384a4.515,4.515,0,1,1,4.312-4.51A4.237,4.237,0,0,1,32.076,208.724Zm19.162-4.51a5.514,5.514,0,0,0-5.61-5.874,5.573,5.573,0,0,0-5.654,5.874,5.731,5.731,0,0,0,6.072,5.9,5.7,5.7,0,0,0,4.466-1.892l-.88-1.012a4.561,4.561,0,0,1-3.542,1.518,4.283,4.283,0,0,1-4.554-4.026h9.68C51.216,204.522,51.238,204.346,51.238,204.214Zm-5.61-4.532a4.025,4.025,0,0,1,4.114,3.85H41.536A4.019,4.019,0,0,1,45.628,199.682Zm13.6,10.428a5.1,5.1,0,0,0,4.532-2.288l-1.166-.792a3.914,3.914,0,0,1-3.366,1.694,4.512,4.512,0,0,1,0-9.02,3.934,3.934,0,0,1,3.366,1.716l1.166-.792a5.054,5.054,0,0,0-4.532-2.288,5.885,5.885,0,1,0,0,11.77Zm6.952-13.464h1.54l3.564-2.728H69.19ZM66.814,210h1.562V198.428H66.814ZM73,197v1.43H70.928v1.32H73V210h1.562V199.748h3.52v-1.32H74.514v-1.364c0-1.43.7-2.178,2.046-2.178a2.646,2.646,0,0,1,1.716.572l.528-1.166a3.667,3.667,0,0,0-2.31-.726A3.187,3.187,0,0,0,73,197Zm9.746-3.322a1.111,1.111,0,1,0,1.144,1.078A1.109,1.109,0,0,0,82.742,193.676ZM81.95,210h1.562V198.428H81.95Zm10.714.11a5.1,5.1,0,0,0,4.532-2.288l-1.166-.792a3.914,3.914,0,0,1-3.366,1.694,4.512,4.512,0,0,1,0-9.02,3.934,3.934,0,0,1,3.366,1.716l1.166-.792a5.054,5.054,0,0,0-4.532-2.288,5.885,5.885,0,1,0,0,11.77Zm12.122,0a5.885,5.885,0,1,0-5.9-5.9A5.692,5.692,0,0,0,104.786,210.11Zm0-1.386a4.516,4.516,0,1,1,4.29-4.51A4.237,4.237,0,0,1,104.786,208.724Zm12.166,1.386c3.014,0,4.774-1.3,4.774-3.3,0-4.444-7.5-2.09-7.5-5.214,0-1.1.924-1.914,3.014-1.914a5.931,5.931,0,0,1,3.41.99l.682-1.254a7.842,7.842,0,0,0-4.092-1.078c-2.948,0-4.576,1.408-4.576,3.3,0,4.576,7.5,2.2,7.5,5.214,0,1.144-.9,1.892-3.1,1.892a6.99,6.99,0,0,1-4.114-1.3l-.7,1.232A7.731,7.731,0,0,0,116.952,210.11Zm7.81,0a1.2,1.2,0,0,0,1.188-1.21,1.183,1.183,0,0,0-1.188-1.188A1.165,1.165,0,0,0,123.6,208.9,1.184,1.184,0,0,0,124.762,210.11Z" transform="translate(4548 -4762)" fill="#fff"/>
  </g>
</svg>
