<svg xmlns="http://www.w3.org/2000/svg" width="648.77" height="255.184" viewBox="0 0 648.77 255.184">
  <g id="Grupo_13670" data-name="Grupo 13670" transform="translate(-3943 3078.049)">
    <g id="Grupo_13669" data-name="Grupo 13669" transform="translate(4242.943 -3123.065)">
      <g id="Grupo_13184" data-name="Grupo 13184" transform="translate(-299.943 48.025)">
        <path id="Trazado_19553" data-name="Trazado 19553" d="M194.271,174.161a64.49,64.49,0,0,1,48.756-62.532,31.3,31.3,0,0,0-3.057-13A30.129,30.129,0,0,0,214.6,81.389l-482.683-15.55c-19.1-1.11-34.37,16.051-31.519,35.43l26.383,179.336c2.332,15.852,16.119,27.239,31.738,26.214,0,0,413.467-3.984,423.664-4.342,17.234-.606,34.434-.307,40.822-20.9L229,231.356A64.448,64.448,0,0,1,194.271,174.161Z" transform="translate(299.943 -54.709)" fill="#ecd048"/>
        <circle id="Elipse_501" data-name="Elipse 501" cx="48.822" cy="48.822" r="48.822" transform="translate(509.862 70.63)" fill="#ecd048"/>
        <path id="Trazado_19554" data-name="Trazado 19554" d="M157.784,60.657l89.275,2.827a30.582,30.582,0,0,1,28.806,32.433M145.933,60.282,136.911,60M-178.732,50l299.924,9.5M-190.06,49.646l-49.562-1.57a30.6,30.6,0,0,0-31.99,35.108l26.778,177.707a30.6,30.6,0,0,0,32.212,25.975s416.431-3.947,426.78-4.3c17.492-.6,34.949-.3,41.433-20.708,9.445-29.72-29.33-36.551-34.813-17.2-4.251,15,18.588,25.864,32.16,12.185,4.239-4.272,4.317-8.9,5.541-13.948s2.343-10.193,2.343-10.193a8.432,8.432,0,0,1,8.6-6.571,58.2,58.2,0,1,0-34.148-13.288,12.016,12.016,0,0,0,19.18-5.957l9.836-34.083c2.519-8.729-10.112-12.516-12.671-3.656-2.489,8.623,10.512,12.907,16.235,14.558s19.009,4.953,21.5-3.67c2.556-8.861-10.151-12.385-12.67-3.657s-12.454,42.39-12.454,42.39" transform="translate(289.413 -48.025)" fill="none" stroke="#2f2f2f" stroke-linecap="round" stroke-linejoin="round" stroke-width="6"/>
        <g id="Grupo_13183" data-name="Grupo 13183" transform="translate(606.916 45)">
          <line id="Línea_200" data-name="Línea 200" x1="7.486" y2="15.125" fill="none" stroke="#2f2f2f" stroke-linecap="round" stroke-linejoin="round" stroke-width="6"/>
          <line id="Línea_201" data-name="Línea 201" x1="12.771" y2="11.032" transform="translate(12.799 16.265)" fill="none" stroke="#2f2f2f" stroke-linecap="round" stroke-linejoin="round" stroke-width="6"/>
          <line id="Línea_202" data-name="Línea 202" x1="16.077" y2="5.13" transform="translate(22.006 37.864)" fill="none" stroke="#2f2f2f" stroke-linecap="round" stroke-linejoin="round" stroke-width="6"/>
        </g>
      </g>
    </g>
    <path id="Trazado_20183" data-name="Trazado 20183" d="M7.363,5.25a4.071,4.071,0,0,1,2.153.571A3.859,3.859,0,0,1,10.962,7.35a4.485,4.485,0,0,1,.5,2.119,4.172,4.172,0,0,1-1.138,2.993,3.9,3.9,0,0,1-2.964,1.2H3.906V19H2.158V5.25Zm-.254,6.885A2.5,2.5,0,0,0,9.023,11.4a2.728,2.728,0,0,0,.693-1.948,2.736,2.736,0,0,0-.693-1.938,2.483,2.483,0,0,0-1.914-.747h-3.2v5.371Zm8.34,7.051a3.267,3.267,0,0,1-2.1-.659,2.367,2.367,0,0,1-.825-1.968,2.8,2.8,0,0,1,.264-1.255,2.212,2.212,0,0,1,.781-.874,4.686,4.686,0,0,1,1.128-.542,10.427,10.427,0,0,1,1.46-.347l1.553-.254q.85-.156.85-.889a1.678,1.678,0,0,0-.6-1.431,2.447,2.447,0,0,0-1.519-.454,2.493,2.493,0,0,0-1.5.439,1.839,1.839,0,0,0-.713,1.348L12.7,11.979a2.932,2.932,0,0,1,1.2-2.056,4.488,4.488,0,0,1,2.617-.688,5.308,5.308,0,0,1,1.392.171,3.782,3.782,0,0,1,1.162.537,2.409,2.409,0,0,1,.83,1.035,3.852,3.852,0,0,1,.3,1.577V16.52a1.622,1.622,0,0,0,.22,1,.949.949,0,0,0,.757.259h.156V19h-.84a1.6,1.6,0,0,1-1.816-1.3h-.078A3.668,3.668,0,0,1,15.449,19.186Zm.391-1.367a2.561,2.561,0,0,0,2.061-.928,3.819,3.819,0,0,0,.781-2.539l-2.539.488a3.418,3.418,0,0,0-1.489.532,1.238,1.238,0,0,0-.483,1.05,1.224,1.224,0,0,0,.464,1.055A1.983,1.983,0,0,0,15.84,17.818Zm9.521-6.729A2.9,2.9,0,0,1,26.553,9.8,3.588,3.588,0,0,1,28.4,9.293v1.592a3.163,3.163,0,0,0-2.231.713,2.978,2.978,0,0,0-.767,2.275V19H23.711V9.4h1.65Zm7.119,8.1a3.267,3.267,0,0,1-2.1-.659,2.367,2.367,0,0,1-.825-1.968,2.8,2.8,0,0,1,.264-1.255,2.212,2.212,0,0,1,.781-.874,4.687,4.687,0,0,1,1.128-.542,10.427,10.427,0,0,1,1.46-.347l1.553-.254q.85-.156.85-.889a1.678,1.678,0,0,0-.6-1.431,2.447,2.447,0,0,0-1.519-.454,2.493,2.493,0,0,0-1.5.439A1.839,1.839,0,0,0,31.25,12.3l-1.523-.322a2.932,2.932,0,0,1,1.2-2.056,4.488,4.488,0,0,1,2.617-.688,5.308,5.308,0,0,1,1.392.171,3.782,3.782,0,0,1,1.162.537,2.409,2.409,0,0,1,.83,1.035,3.852,3.852,0,0,1,.3,1.577V16.52a1.622,1.622,0,0,0,.22,1,.949.949,0,0,0,.757.259h.156V19h-.84A1.6,1.6,0,0,1,35.7,17.7h-.078A3.668,3.668,0,0,1,32.48,19.186Zm.391-1.367a2.561,2.561,0,0,0,2.061-.928,3.819,3.819,0,0,0,.781-2.539l-2.539.488a3.418,3.418,0,0,0-1.489.532,1.238,1.238,0,0,0-.483,1.05,1.224,1.224,0,0,0,.464,1.055A1.983,1.983,0,0,0,32.871,17.818Zm18.135-8.6a4.366,4.366,0,0,1,1.738.352,4.276,4.276,0,0,1,1.426.986,4.61,4.61,0,0,1,.962,1.582,5.834,5.834,0,0,1,.356,2.07,5.076,5.076,0,0,1-1.294,3.623,4.2,4.2,0,0,1-3.188,1.377A3.8,3.8,0,0,1,49,18.658a3.584,3.584,0,0,1-1.372-1.475v6.65H45.938V9.4h1.631l.039,1.865a3.514,3.514,0,0,1,1.367-1.5A3.835,3.835,0,0,1,51.006,9.215Zm-.332,8.525a2.915,2.915,0,0,0,2.222-.972,3.614,3.614,0,0,0,.9-2.563,3.6,3.6,0,0,0-.9-2.559,3.029,3.029,0,0,0-4.478.044,3.6,3.6,0,0,0-.918,2.515,3.614,3.614,0,0,0,.918,2.524A2.929,2.929,0,0,0,50.674,17.74ZM59.8,11.09A2.9,2.9,0,0,1,61,9.8a3.588,3.588,0,0,1,1.846-.508v1.592a3.163,3.163,0,0,0-2.231.713,2.978,2.978,0,0,0-.767,2.275V19H58.154V9.4H59.8Zm8.945,8.1a5.06,5.06,0,0,1-2.461-.6,4.338,4.338,0,0,1-1.733-1.743,5.354,5.354,0,0,1-.64-2.651,4.89,4.89,0,0,1,1.362-3.618,5.111,5.111,0,0,1,6.948,0A4.9,4.9,0,0,1,73.584,14.2a4.9,4.9,0,0,1-1.362,3.628A4.7,4.7,0,0,1,68.75,19.186Zm-.01-1.406a2.948,2.948,0,0,0,2.271-.986,3.7,3.7,0,0,0,.9-2.6,3.682,3.682,0,0,0-.9-2.588,2.948,2.948,0,0,0-2.271-.986,2.908,2.908,0,0,0-2.251.986A3.706,3.706,0,0,0,65.6,14.2a3.72,3.72,0,0,0,.894,2.6A2.908,2.908,0,0,0,68.74,17.779ZM80.635,5.416h-.366q-.112,0-.352.02a2.253,2.253,0,0,0-.352.049q-.112.029-.3.1a.772.772,0,0,0-.288.166q-.1.1-.225.249a1.021,1.021,0,0,0-.19.352,3.36,3.36,0,0,0-.107.469,3.738,3.738,0,0,0-.044.6V9.4h2.227v1.348H78.408V19h-1.68V10.748H74.873V9.4h1.855V7.389a5.521,5.521,0,0,1,.1-1.118,3.627,3.627,0,0,1,.273-.845,2.007,2.007,0,0,1,.454-.61,2.672,2.672,0,0,1,.591-.415,2.933,2.933,0,0,1,.728-.244,6.829,6.829,0,0,1,.825-.122Q80.107,4,80.635,4ZM88.564,9.4h1.689V19H88.633l-.039-1.27A3,3,0,0,1,87.4,18.81a3.665,3.665,0,0,1-1.68.376,3.339,3.339,0,0,1-2.417-.869,3.242,3.242,0,0,1-.9-2.451V9.4h1.689v6.084a2.278,2.278,0,0,0,.591,1.719,2.091,2.091,0,0,0,1.509.566,2.3,2.3,0,0,0,1.7-.664,2.7,2.7,0,0,0,.669-1.963Zm9.658-.186a3.339,3.339,0,0,1,2.417.869,3.242,3.242,0,0,1,.9,2.451V19H99.854V12.916a2.27,2.27,0,0,0-.586-1.719,2.1,2.1,0,0,0-1.5-.557,2.322,2.322,0,0,0-1.709.659,2.675,2.675,0,0,0-.674,1.958V19H93.691V9.4h1.689v1.23A3.206,3.206,0,0,1,98.223,9.215ZM111.895,4h1.689V19h-1.631l-.039-1.865a3.532,3.532,0,0,1-1.367,1.514,3.81,3.81,0,0,1-2.031.557,4.363,4.363,0,0,1-3.169-1.353,4.623,4.623,0,0,1-.967-1.587,5.8,5.8,0,0,1-.356-2.061,5.048,5.048,0,0,1,1.3-3.6,4.209,4.209,0,0,1,3.188-1.387,3.826,3.826,0,0,1,2.007.542,3.552,3.552,0,0,1,1.372,1.47Zm-3.027,13.74a2.875,2.875,0,0,0,2.231-1.011,3.648,3.648,0,0,0,.9-2.524,3.641,3.641,0,0,0-.908-2.52,2.873,2.873,0,0,0-2.227-1.016,2.938,2.938,0,0,0-2.246.981,3.611,3.611,0,0,0-.908,2.554,3.611,3.611,0,0,0,.908,2.554A2.938,2.938,0,0,0,108.867,17.74Zm9.014-10.6A1.15,1.15,0,0,1,116.738,6a1.083,1.083,0,0,1,.337-.8,1.107,1.107,0,0,1,.806-.332,1.1,1.1,0,0,1,.8.332,1.083,1.083,0,0,1,.337.8,1.1,1.1,0,0,1-.337.806A1.088,1.088,0,0,1,117.881,7.145ZM117.021,19V9.4h1.7V19Zm6.465-1.367H128.6V19h-7.656l5.059-8.223H121.24V9.4h7.354Zm9.336,1.553a3.267,3.267,0,0,1-2.1-.659,2.367,2.367,0,0,1-.825-1.968,2.8,2.8,0,0,1,.264-1.255,2.212,2.212,0,0,1,.781-.874,4.686,4.686,0,0,1,1.128-.542,10.427,10.427,0,0,1,1.46-.347l1.553-.254q.85-.156.85-.889a1.678,1.678,0,0,0-.6-1.431,2.447,2.447,0,0,0-1.519-.454,2.493,2.493,0,0,0-1.5.439,1.839,1.839,0,0,0-.713,1.348l-1.523-.322a2.932,2.932,0,0,1,1.2-2.056,4.488,4.488,0,0,1,2.617-.688,5.308,5.308,0,0,1,1.392.171,3.782,3.782,0,0,1,1.162.537,2.409,2.409,0,0,1,.83,1.035,3.852,3.852,0,0,1,.3,1.577V16.52a1.622,1.622,0,0,0,.22,1,.949.949,0,0,0,.757.259h.156V19h-.84a1.6,1.6,0,0,1-1.816-1.3h-.078A3.668,3.668,0,0,1,132.822,19.186Zm.391-1.367a2.561,2.561,0,0,0,2.061-.928,3.819,3.819,0,0,0,.781-2.539l-2.539.488a3.418,3.418,0,0,0-1.489.532,1.238,1.238,0,0,0-.483,1.05,1.224,1.224,0,0,0,.464,1.055A1.983,1.983,0,0,0,133.213,17.818Zm9.521-6.729A2.9,2.9,0,0,1,143.926,9.8a3.588,3.588,0,0,1,1.846-.508v1.592a3.163,3.163,0,0,0-2.231.713,2.978,2.978,0,0,0-.767,2.275V19h-1.689V9.4h1.65Zm18.613,2.92-.02.459h-7.5a3.392,3.392,0,0,0,.918,2.456,3.014,3.014,0,0,0,2.188.854,2.878,2.878,0,0,0,1.592-.459,2.978,2.978,0,0,0,1.094-1.27l1.523.322a4.33,4.33,0,0,1-1.641,2.061,4.476,4.476,0,0,1-2.549.752,4.638,4.638,0,0,1-3.457-1.338,4.977,4.977,0,0,1-1.318-3.652,4.953,4.953,0,0,1,1.323-3.643,4.58,4.58,0,0,1,3.4-1.338,4.334,4.334,0,0,1,3.228,1.23A4.862,4.862,0,0,1,161.348,14.01Zm-4.443-3.5a2.994,2.994,0,0,0-2,.679A3.11,3.11,0,0,0,153.9,13.17h5.752a2.852,2.852,0,0,0-.84-1.978A2.712,2.712,0,0,0,156.9,10.514Zm11.621-1.3a3.339,3.339,0,0,1,2.417.869,3.242,3.242,0,0,1,.9,2.451V19h-1.689V12.916a2.27,2.27,0,0,0-.586-1.719,2.1,2.1,0,0,0-1.5-.557,2.322,2.322,0,0,0-1.709.659,2.675,2.675,0,0,0-.674,1.958V19h-1.689V9.4h1.689v1.23A3.206,3.206,0,0,1,168.525,9.215ZM188.7,14.01l-.02.459h-7.5a3.392,3.392,0,0,0,.918,2.456,3.014,3.014,0,0,0,2.188.854,2.878,2.878,0,0,0,1.592-.459,2.978,2.978,0,0,0,1.094-1.27l1.523.322a4.33,4.33,0,0,1-1.641,2.061,4.476,4.476,0,0,1-2.549.752,4.638,4.638,0,0,1-3.457-1.338,4.977,4.977,0,0,1-1.318-3.652,4.953,4.953,0,0,1,1.323-3.643,4.58,4.58,0,0,1,3.4-1.338,4.334,4.334,0,0,1,3.228,1.23A4.862,4.862,0,0,1,188.7,14.01Zm-4.443-3.5a2.994,2.994,0,0,0-2,.679,3.11,3.11,0,0,0-1.011,1.978H187a2.852,2.852,0,0,0-.84-1.978A2.712,2.712,0,0,0,184.258,10.514Zm10.127,8.672a4.551,4.551,0,0,1-2.588-.693,2.868,2.868,0,0,1-1.26-1.973l1.475-.42a2.057,2.057,0,0,0,.786,1.333,2.55,2.55,0,0,0,1.577.474,3.147,3.147,0,0,0,.923-.127,1.479,1.479,0,0,0,.708-.474,1.321,1.321,0,0,0,.205-1.27,1.7,1.7,0,0,0-.156-.317.967.967,0,0,0-.273-.264,3.606,3.606,0,0,0-.332-.205,3.408,3.408,0,0,0-.435-.181q-.288-.1-.464-.156t-.537-.156q-.361-.1-.557-.161a10.414,10.414,0,0,1-1-.352,4.369,4.369,0,0,1-.811-.464,1.866,1.866,0,0,1-.63-.757,2.561,2.561,0,0,1-.21-1.074,2.482,2.482,0,0,1,.469-1.533,2.637,2.637,0,0,1,1.216-.9,4.86,4.86,0,0,1,1.7-.278,4.171,4.171,0,0,1,2.339.625,2.668,2.668,0,0,1,1.167,1.875l-1.387.352a1.839,1.839,0,0,0-.732-1.216,2.332,2.332,0,0,0-1.377-.405,2.377,2.377,0,0,0-1.289.337,1.132,1.132,0,0,0-.537,1.03,1.025,1.025,0,0,0,.142.532,1.69,1.69,0,0,0,.288.376,1.771,1.771,0,0,0,.527.288q.381.151.566.205t.7.181q.1.029.146.039.566.146.923.259a5.672,5.672,0,0,1,.83.352,2.76,2.76,0,0,1,.747.522,2.42,2.42,0,0,1,.469.742,2.62,2.62,0,0,1,.2,1.035,2.8,2.8,0,0,1-.288,1.294,2.253,2.253,0,0,1-.786.884,3.8,3.8,0,0,1-1.118.483A5.327,5.327,0,0,1,194.385,19.186ZM203.643,19a2.523,2.523,0,0,1-1.875-.688,2.6,2.6,0,0,1-.684-1.919V10.748h-1.963V9.4h.723a1.387,1.387,0,0,0,1.06-.337,1.658,1.658,0,0,0,.308-1.128V6.2h1.572V9.4h2.207v1.348h-2.207v5.469a1.455,1.455,0,0,0,.366,1.06,1.282,1.282,0,0,0,.962.376h.879V19Zm12.07-4.99-.02.459h-7.5a3.392,3.392,0,0,0,.918,2.456,3.014,3.014,0,0,0,2.188.854,2.878,2.878,0,0,0,1.592-.459,2.978,2.978,0,0,0,1.094-1.27l1.523.322a4.33,4.33,0,0,1-1.641,2.061,4.476,4.476,0,0,1-2.549.752,4.638,4.638,0,0,1-3.457-1.338,4.977,4.977,0,0,1-1.318-3.652,4.953,4.953,0,0,1,1.323-3.643,4.58,4.58,0,0,1,3.4-1.338,4.334,4.334,0,0,1,3.228,1.23A4.862,4.862,0,0,1,215.713,14.01Zm-4.443-3.5a2.994,2.994,0,0,0-2,.679,3.11,3.11,0,0,0-1.011,1.978h5.752a2.852,2.852,0,0,0-.84-1.978A2.712,2.712,0,0,0,211.27,10.514ZM226.621,19a2.523,2.523,0,0,1-1.875-.688,2.6,2.6,0,0,1-.684-1.919V10.748H222.1V9.4h.723a1.387,1.387,0,0,0,1.06-.337,1.658,1.658,0,0,0,.308-1.128V6.2h1.572V9.4h2.207v1.348h-2.207v5.469a1.455,1.455,0,0,0,.366,1.06,1.282,1.282,0,0,0,.962.376h.879V19Zm12.07-4.99-.02.459h-7.5a3.392,3.392,0,0,0,.918,2.456,3.014,3.014,0,0,0,2.188.854,2.878,2.878,0,0,0,1.592-.459,2.978,2.978,0,0,0,1.094-1.27l1.523.322a4.33,4.33,0,0,1-1.641,2.061,4.476,4.476,0,0,1-2.549.752,4.638,4.638,0,0,1-3.457-1.338,4.977,4.977,0,0,1-1.318-3.652,4.953,4.953,0,0,1,1.323-3.643,4.58,4.58,0,0,1,3.4-1.338,4.334,4.334,0,0,1,3.228,1.23A4.862,4.862,0,0,1,238.691,14.01Zm-4.443-3.5a2.994,2.994,0,0,0-2,.679,3.11,3.11,0,0,0-1.011,1.978h5.752a2.852,2.852,0,0,0-.84-1.978A2.712,2.712,0,0,0,234.248,10.514Zm16.9-1.3a3.094,3.094,0,0,1,2.236.815,3.025,3.025,0,0,1,.85,2.29V19h-1.689V12.76a2.169,2.169,0,0,0-.527-1.582,1.8,1.8,0,0,0-1.338-.537,1.9,1.9,0,0,0-1.465.605,2.6,2.6,0,0,0-.557,1.816V19h-1.719V12.828a2.269,2.269,0,0,0-.532-1.636,1.81,1.81,0,0,0-1.362-.552,1.878,1.878,0,0,0-1.46.62,2.694,2.694,0,0,0-.562,1.86V19h-1.689V9.4h1.689v1.24a2.916,2.916,0,0,1,1.1-1.055,3.133,3.133,0,0,1,1.528-.371,3.261,3.261,0,0,1,1.641.405,2.523,2.523,0,0,1,1.064,1.167,2.987,2.987,0,0,1,1.152-1.167A3.3,3.3,0,0,1,251.152,9.215Zm8.574,9.971a3.267,3.267,0,0,1-2.1-.659,2.367,2.367,0,0,1-.825-1.968,2.8,2.8,0,0,1,.264-1.255,2.212,2.212,0,0,1,.781-.874,4.687,4.687,0,0,1,1.128-.542,10.426,10.426,0,0,1,1.46-.347l1.553-.254q.85-.156.85-.889a1.678,1.678,0,0,0-.6-1.431,2.447,2.447,0,0,0-1.519-.454,2.493,2.493,0,0,0-1.5.439A1.839,1.839,0,0,0,258.5,12.3l-1.523-.322a2.932,2.932,0,0,1,1.2-2.056,4.488,4.488,0,0,1,2.617-.688,5.308,5.308,0,0,1,1.392.171,3.782,3.782,0,0,1,1.162.537,2.409,2.409,0,0,1,.83,1.035,3.851,3.851,0,0,1,.3,1.577V16.52a1.622,1.622,0,0,0,.22,1,.949.949,0,0,0,.757.259h.156V19h-.84a1.6,1.6,0,0,1-1.816-1.3h-.078A3.668,3.668,0,0,1,259.727,19.186Zm.391-1.367a2.561,2.561,0,0,0,2.061-.928,3.819,3.819,0,0,0,.781-2.539l-2.539.488a3.418,3.418,0,0,0-1.489.532,1.238,1.238,0,0,0-.483,1.05,1.224,1.224,0,0,0,.464,1.055A1.983,1.983,0,0,0,260.117,17.818Zm9.189,4.707h-1.23l1.191-6.055h1.768ZM279.521,19V4h1.709V19Zm9.189.186a5.06,5.06,0,0,1-2.461-.6,4.338,4.338,0,0,1-1.733-1.743,5.354,5.354,0,0,1-.64-2.651,4.89,4.89,0,0,1,1.362-3.618,5.111,5.111,0,0,1,6.948,0,4.9,4.9,0,0,1,1.357,3.618,4.9,4.9,0,0,1-1.362,3.628A4.7,4.7,0,0,1,288.711,19.186Zm-.01-1.406a2.948,2.948,0,0,0,2.271-.986,3.7,3.7,0,0,0,.9-2.6,3.682,3.682,0,0,0-.9-2.588,2.948,2.948,0,0,0-2.271-.986,2.908,2.908,0,0,0-2.251.986,3.706,3.706,0,0,0-.894,2.588,3.72,3.72,0,0,0,.894,2.6A2.908,2.908,0,0,0,288.7,17.779ZM2.578,30.145a1.1,1.1,0,0,1-.806-.337A1.1,1.1,0,0,1,1.436,29a1.083,1.083,0,0,1,.337-.8,1.108,1.108,0,0,1,.806-.332,1.1,1.1,0,0,1,.8.332,1.083,1.083,0,0,1,.337.8,1.1,1.1,0,0,1-.337.806A1.088,1.088,0,0,1,2.578,30.145ZM1.719,42V32.4h1.7V42Zm9.668-9.785a3.339,3.339,0,0,1,2.417.869,3.242,3.242,0,0,1,.9,2.451V42H13.018V35.916a2.27,2.27,0,0,0-.586-1.719,2.1,2.1,0,0,0-1.5-.557,2.322,2.322,0,0,0-1.709.659,2.675,2.675,0,0,0-.674,1.958V42H6.855V32.4H8.545v1.23A3.206,3.206,0,0,1,11.387,32.215Zm12.246.186h1.807L21.533,42H20.1l-3.887-9.6h1.8l2.813,7.637ZM28.3,30.145A1.15,1.15,0,0,1,27.158,29a1.083,1.083,0,0,1,.337-.8,1.108,1.108,0,0,1,.806-.332,1.1,1.1,0,0,1,.8.332,1.083,1.083,0,0,1,.337.8,1.1,1.1,0,0,1-.337.806A1.088,1.088,0,0,1,28.3,30.145ZM27.441,42V32.4h1.7V42Zm8.2,0a2.523,2.523,0,0,1-1.875-.688,2.6,2.6,0,0,1-.684-1.919V33.748H31.123V32.4h.723a1.387,1.387,0,0,0,1.06-.337,1.658,1.658,0,0,0,.308-1.128V29.2h1.572v3.2h2.207v1.348H34.785v5.469a1.455,1.455,0,0,0,.366,1.06,1.282,1.282,0,0,0,.962.376h.879V42Zm5.889.186a3.267,3.267,0,0,1-2.1-.659,2.367,2.367,0,0,1-.825-1.968,2.8,2.8,0,0,1,.264-1.255,2.212,2.212,0,0,1,.781-.874,4.687,4.687,0,0,1,1.128-.542,10.427,10.427,0,0,1,1.46-.347l1.553-.254q.85-.156.85-.889a1.678,1.678,0,0,0-.6-1.431,2.447,2.447,0,0,0-1.519-.454,2.493,2.493,0,0,0-1.5.439A1.839,1.839,0,0,0,40.3,35.3l-1.523-.322a2.932,2.932,0,0,1,1.2-2.056,4.488,4.488,0,0,1,2.617-.688,5.308,5.308,0,0,1,1.392.171,3.782,3.782,0,0,1,1.162.537,2.409,2.409,0,0,1,.83,1.035,3.852,3.852,0,0,1,.3,1.577V39.52a1.622,1.622,0,0,0,.22,1,.948.948,0,0,0,.757.259h.156V42h-.84a1.6,1.6,0,0,1-1.816-1.3h-.078A3.668,3.668,0,0,1,41.533,42.186Zm.391-1.367a2.561,2.561,0,0,0,2.061-.928,3.819,3.819,0,0,0,.781-2.539l-2.539.488a3.418,3.418,0,0,0-1.489.532,1.238,1.238,0,0,0-.483,1.05,1.224,1.224,0,0,0,.464,1.055A1.983,1.983,0,0,0,41.924,40.818Zm17.686-8.6a3.094,3.094,0,0,1,2.236.815,3.025,3.025,0,0,1,.85,2.29V42H61.006V35.76a2.169,2.169,0,0,0-.527-1.582,1.8,1.8,0,0,0-1.338-.537,1.9,1.9,0,0,0-1.465.605,2.6,2.6,0,0,0-.557,1.816V42H55.4V35.828a2.269,2.269,0,0,0-.532-1.636,1.81,1.81,0,0,0-1.362-.552,1.878,1.878,0,0,0-1.46.62,2.694,2.694,0,0,0-.562,1.86V42H49.795V32.4h1.689v1.24a2.916,2.916,0,0,1,1.1-1.055,3.133,3.133,0,0,1,1.528-.371,3.261,3.261,0,0,1,1.641.405,2.523,2.523,0,0,1,1.064,1.167,2.987,2.987,0,0,1,1.152-1.167A3.3,3.3,0,0,1,59.609,32.215Zm10.4,9.971a5.06,5.06,0,0,1-2.461-.6,4.338,4.338,0,0,1-1.733-1.743,5.354,5.354,0,0,1-.64-2.651,4.89,4.89,0,0,1,1.362-3.618,5.111,5.111,0,0,1,6.948,0A4.9,4.9,0,0,1,74.844,37.2a4.9,4.9,0,0,1-1.362,3.628A4.7,4.7,0,0,1,70.01,42.186ZM70,40.779a2.948,2.948,0,0,0,2.271-.986,4.173,4.173,0,0,0,0-5.186A2.948,2.948,0,0,0,70,33.621a2.908,2.908,0,0,0-2.251.986,4.208,4.208,0,0,0,0,5.186A2.908,2.908,0,0,0,70,40.779Zm10.527,1.406a4.551,4.551,0,0,1-2.588-.693,2.868,2.868,0,0,1-1.26-1.973l1.475-.42a2.057,2.057,0,0,0,.786,1.333,2.55,2.55,0,0,0,1.577.474,3.147,3.147,0,0,0,.923-.127,1.479,1.479,0,0,0,.708-.474,1.321,1.321,0,0,0,.205-1.27,1.7,1.7,0,0,0-.156-.317.967.967,0,0,0-.273-.264,3.6,3.6,0,0,0-.332-.205,3.408,3.408,0,0,0-.435-.181q-.288-.1-.464-.156t-.537-.156q-.361-.1-.557-.161a10.413,10.413,0,0,1-1-.352,4.369,4.369,0,0,1-.811-.464,1.866,1.866,0,0,1-.63-.757,2.561,2.561,0,0,1-.21-1.074,2.482,2.482,0,0,1,.469-1.533,2.637,2.637,0,0,1,1.216-.9,4.86,4.86,0,0,1,1.7-.278,4.171,4.171,0,0,1,2.339.625,2.668,2.668,0,0,1,1.167,1.875l-1.387.352a1.839,1.839,0,0,0-.732-1.216,2.332,2.332,0,0,0-1.377-.405,2.377,2.377,0,0,0-1.289.337,1.132,1.132,0,0,0-.537,1.03,1.025,1.025,0,0,0,.142.532,1.69,1.69,0,0,0,.288.376,1.771,1.771,0,0,0,.527.288q.381.151.566.205t.7.181q.1.029.146.039.566.146.923.259a5.673,5.673,0,0,1,.83.352,2.76,2.76,0,0,1,.747.522,2.421,2.421,0,0,1,.469.742,2.62,2.62,0,0,1,.2,1.035,2.8,2.8,0,0,1-.288,1.294,2.253,2.253,0,0,1-.786.884,3.8,3.8,0,0,1-1.118.483A5.327,5.327,0,0,1,80.527,42.186Zm13.6,0a3.267,3.267,0,0,1-2.1-.659,2.367,2.367,0,0,1-.825-1.968,2.8,2.8,0,0,1,.264-1.255,2.212,2.212,0,0,1,.781-.874,4.687,4.687,0,0,1,1.128-.542,10.426,10.426,0,0,1,1.46-.347l1.553-.254q.85-.156.85-.889a1.678,1.678,0,0,0-.6-1.431,2.447,2.447,0,0,0-1.519-.454,2.493,2.493,0,0,0-1.5.439A1.839,1.839,0,0,0,92.9,35.3l-1.523-.322a2.932,2.932,0,0,1,1.2-2.056,4.488,4.488,0,0,1,2.617-.688,5.308,5.308,0,0,1,1.392.171,3.782,3.782,0,0,1,1.162.537,2.409,2.409,0,0,1,.83,1.035,3.852,3.852,0,0,1,.3,1.577V39.52a1.622,1.622,0,0,0,.22,1,.949.949,0,0,0,.757.259h.156V42h-.84a1.6,1.6,0,0,1-1.816-1.3h-.078A3.668,3.668,0,0,1,94.131,42.186Zm.391-1.367a2.561,2.561,0,0,0,2.061-.928,3.819,3.819,0,0,0,.781-2.539l-2.539.488a3.418,3.418,0,0,0-1.489.532,1.238,1.238,0,0,0-.483,1.05,1.224,1.224,0,0,0,.464,1.055A1.983,1.983,0,0,0,94.521,40.818Zm17.051,1.357a4.624,4.624,0,0,1-3.437-1.377,4.912,4.912,0,0,1-1.357-3.6,4.922,4.922,0,0,1,1.353-3.6,5,5,0,0,1,6.221-.537,4.238,4.238,0,0,1,1.616,2.334l-1.582.254a2.922,2.922,0,0,0-1.084-1.494,2.952,2.952,0,0,0-1.738-.527,2.838,2.838,0,0,0-2.222.986,4.261,4.261,0,0,0,0,5.171,2.844,2.844,0,0,0,2.222.981,2.952,2.952,0,0,0,1.738-.527,2.922,2.922,0,0,0,1.084-1.494l1.582.264a4.243,4.243,0,0,1-1.626,2.329A4.65,4.65,0,0,1,111.572,42.176Zm10.928.01a5.06,5.06,0,0,1-2.461-.6,4.338,4.338,0,0,1-1.733-1.743,5.354,5.354,0,0,1-.64-2.651,4.89,4.89,0,0,1,1.362-3.618,5.111,5.111,0,0,1,6.948,0,4.9,4.9,0,0,1,1.357,3.618,4.9,4.9,0,0,1-1.362,3.628A4.7,4.7,0,0,1,122.5,42.186Zm-.01-1.406a2.948,2.948,0,0,0,2.271-.986,4.173,4.173,0,0,0,0-5.186,2.948,2.948,0,0,0-2.271-.986,2.908,2.908,0,0,0-2.251.986,4.208,4.208,0,0,0,0,5.186A2.908,2.908,0,0,0,122.49,40.779Zm12.021-8.564a3.339,3.339,0,0,1,2.417.869,3.242,3.242,0,0,1,.9,2.451V42h-1.689V35.916a2.27,2.27,0,0,0-.586-1.719,2.1,2.1,0,0,0-1.5-.557,2.322,2.322,0,0,0-1.709.659,2.675,2.675,0,0,0-.674,1.958V42H129.98V32.4h1.689v1.23A3.206,3.206,0,0,1,134.512,32.215Zm9.619,9.971a4.551,4.551,0,0,1-2.588-.693,2.868,2.868,0,0,1-1.26-1.973l1.475-.42a2.057,2.057,0,0,0,.786,1.333,2.55,2.55,0,0,0,1.577.474,3.147,3.147,0,0,0,.923-.127,1.479,1.479,0,0,0,.708-.474,1.321,1.321,0,0,0,.205-1.27,1.7,1.7,0,0,0-.156-.317.967.967,0,0,0-.273-.264,3.606,3.606,0,0,0-.332-.205,3.408,3.408,0,0,0-.435-.181q-.288-.1-.464-.156t-.537-.156q-.361-.1-.557-.161a10.415,10.415,0,0,1-1-.352,4.369,4.369,0,0,1-.811-.464,1.866,1.866,0,0,1-.63-.757,2.561,2.561,0,0,1-.21-1.074,2.482,2.482,0,0,1,.469-1.533,2.637,2.637,0,0,1,1.216-.9,4.86,4.86,0,0,1,1.7-.278,4.171,4.171,0,0,1,2.339.625,2.668,2.668,0,0,1,1.167,1.875l-1.387.352a1.839,1.839,0,0,0-.732-1.216,2.332,2.332,0,0,0-1.377-.405,2.377,2.377,0,0,0-1.289.337,1.132,1.132,0,0,0-.537,1.03,1.025,1.025,0,0,0,.142.532,1.69,1.69,0,0,0,.288.376,1.771,1.771,0,0,0,.527.288q.381.151.566.205t.7.181q.1.029.146.039.566.146.923.259a5.673,5.673,0,0,1,.83.352,2.76,2.76,0,0,1,.747.522,2.42,2.42,0,0,1,.469.742,2.62,2.62,0,0,1,.2,1.035,2.8,2.8,0,0,1-.288,1.294,2.253,2.253,0,0,1-.786.884,3.8,3.8,0,0,1-1.118.483A5.327,5.327,0,0,1,144.131,42.186ZM156.3,32.4h1.689V42h-1.621l-.039-1.27a3,3,0,0,1-1.191,1.079,3.665,3.665,0,0,1-1.68.376,3.339,3.339,0,0,1-2.417-.869,3.242,3.242,0,0,1-.9-2.451V32.4h1.689v6.084a2.278,2.278,0,0,0,.591,1.719,2.091,2.091,0,0,0,1.509.566,2.3,2.3,0,0,0,1.7-.664,2.7,2.7,0,0,0,.669-1.963Zm5.127,9.6V27h1.709V42Zm8.213,0a2.523,2.523,0,0,1-1.875-.688,2.6,2.6,0,0,1-.684-1.919V33.748h-1.963V32.4h.723a1.387,1.387,0,0,0,1.06-.337,1.658,1.658,0,0,0,.308-1.128V29.2h1.572v3.2h2.207v1.348h-2.207v5.469a1.455,1.455,0,0,0,.366,1.06,1.282,1.282,0,0,0,.962.376h.879V42Zm5.889.186a3.267,3.267,0,0,1-2.1-.659,2.367,2.367,0,0,1-.825-1.968,2.8,2.8,0,0,1,.264-1.255,2.212,2.212,0,0,1,.781-.874,4.686,4.686,0,0,1,1.128-.542,10.427,10.427,0,0,1,1.46-.347l1.553-.254q.85-.156.85-.889a1.678,1.678,0,0,0-.6-1.431,2.447,2.447,0,0,0-1.519-.454,2.493,2.493,0,0,0-1.5.439A1.839,1.839,0,0,0,174.3,35.3l-1.523-.322a2.932,2.932,0,0,1,1.2-2.056,4.488,4.488,0,0,1,2.617-.688,5.308,5.308,0,0,1,1.392.171,3.782,3.782,0,0,1,1.162.537,2.409,2.409,0,0,1,.83,1.035,3.852,3.852,0,0,1,.3,1.577V39.52a1.622,1.622,0,0,0,.22,1,.948.948,0,0,0,.757.259h.156V42h-.84a1.6,1.6,0,0,1-1.816-1.3h-.078A3.668,3.668,0,0,1,175.527,42.186Zm.391-1.367a2.561,2.561,0,0,0,2.061-.928,3.819,3.819,0,0,0,.781-2.539l-2.539.488a3.418,3.418,0,0,0-1.489.532,1.238,1.238,0,0,0-.483,1.05,1.224,1.224,0,0,0,.464,1.055A1.983,1.983,0,0,0,175.918,40.818Zm9.521-6.729a2.9,2.9,0,0,1,1.191-1.289,3.588,3.588,0,0,1,1.846-.508v1.592a3.163,3.163,0,0,0-2.231.713,2.978,2.978,0,0,0-.767,2.275V42h-1.689V32.4h1.65Zm18.613,2.92-.02.459h-7.5a3.392,3.392,0,0,0,.918,2.456,3.014,3.014,0,0,0,2.188.854,2.878,2.878,0,0,0,1.592-.459,2.978,2.978,0,0,0,1.094-1.27l1.523.322a4.33,4.33,0,0,1-1.641,2.061,4.476,4.476,0,0,1-2.549.752,4.638,4.638,0,0,1-3.457-1.338,4.977,4.977,0,0,1-1.318-3.652,4.953,4.953,0,0,1,1.323-3.643,4.58,4.58,0,0,1,3.4-1.338,4.334,4.334,0,0,1,3.228,1.23A4.862,4.862,0,0,1,204.053,37.01Zm-4.443-3.5a2.994,2.994,0,0,0-2,.679A3.11,3.11,0,0,0,196.6,36.17h5.752a2.852,2.852,0,0,0-.84-1.978A2.712,2.712,0,0,0,199.609,33.514ZM206.7,42V27h1.709V42Zm17.432-15h1.689V42h-1.631l-.039-1.865a3.532,3.532,0,0,1-1.367,1.514,3.81,3.81,0,0,1-2.031.557,4.363,4.363,0,0,1-3.169-1.353,4.622,4.622,0,0,1-.967-1.587,5.805,5.805,0,0,1-.356-2.061,5.048,5.048,0,0,1,1.3-3.6,4.209,4.209,0,0,1,3.188-1.387,3.826,3.826,0,0,1,2.007.542,3.552,3.552,0,0,1,1.372,1.47ZM221.1,40.74a2.875,2.875,0,0,0,2.231-1.011,3.964,3.964,0,0,0,0-5.044A2.873,2.873,0,0,0,221.1,33.67a2.938,2.938,0,0,0-2.246.981,4.044,4.044,0,0,0,0,5.107A2.938,2.938,0,0,0,221.1,40.74Zm12.2,1.445a5.06,5.06,0,0,1-2.461-.6,4.338,4.338,0,0,1-1.733-1.743,5.354,5.354,0,0,1-.64-2.651,4.89,4.89,0,0,1,1.362-3.618,5.111,5.111,0,0,1,6.948,0,4.9,4.9,0,0,1,1.357,3.618,4.9,4.9,0,0,1-1.362,3.628A4.7,4.7,0,0,1,233.3,42.186Zm-.01-1.406a2.948,2.948,0,0,0,2.271-.986,4.173,4.173,0,0,0,0-5.186,2.948,2.948,0,0,0-2.271-.986,2.908,2.908,0,0,0-2.251.986,4.208,4.208,0,0,0,0,5.186A2.908,2.908,0,0,0,233.291,40.779Zm11.475,1.4a4.624,4.624,0,0,1-3.437-1.377,4.912,4.912,0,0,1-1.357-3.6,4.922,4.922,0,0,1,1.353-3.6,5,5,0,0,1,6.221-.537,4.238,4.238,0,0,1,1.616,2.334l-1.582.254a2.922,2.922,0,0,0-1.084-1.494,2.952,2.952,0,0,0-1.738-.527,2.838,2.838,0,0,0-2.222.986,4.261,4.261,0,0,0,0,5.171,2.844,2.844,0,0,0,2.222.981,2.952,2.952,0,0,0,1.738-.527,2.922,2.922,0,0,0,1.084-1.494L249.16,39a4.243,4.243,0,0,1-1.626,2.329A4.65,4.65,0,0,1,244.766,42.176ZM257.627,32.4h1.689V42H257.7l-.039-1.27a3,3,0,0,1-1.191,1.079,3.665,3.665,0,0,1-1.68.376,3.339,3.339,0,0,1-2.417-.869,3.242,3.242,0,0,1-.9-2.451V32.4h1.689v6.084a2.278,2.278,0,0,0,.591,1.719,2.091,2.091,0,0,0,1.509.566,2.3,2.3,0,0,0,1.7-.664,2.7,2.7,0,0,0,.669-1.963Zm14.941-.186a3.094,3.094,0,0,1,2.236.815,3.025,3.025,0,0,1,.85,2.29V42h-1.689V35.76a2.169,2.169,0,0,0-.527-1.582,1.8,1.8,0,0,0-1.338-.537,1.9,1.9,0,0,0-1.465.605,2.6,2.6,0,0,0-.557,1.816V42h-1.719V35.828a2.269,2.269,0,0,0-.532-1.636,1.81,1.81,0,0,0-1.362-.552,1.878,1.878,0,0,0-1.46.62,2.693,2.693,0,0,0-.562,1.86V42h-1.689V32.4h1.689v1.24a2.916,2.916,0,0,1,1.1-1.055,3.133,3.133,0,0,1,1.528-.371,3.261,3.261,0,0,1,1.641.405,2.523,2.523,0,0,1,1.064,1.167,2.987,2.987,0,0,1,1.152-1.167A3.3,3.3,0,0,1,272.568,32.215Zm14.756,4.795-.02.459h-7.5a3.392,3.392,0,0,0,.918,2.456,3.014,3.014,0,0,0,2.188.854,2.878,2.878,0,0,0,1.592-.459,2.978,2.978,0,0,0,1.094-1.27l1.523.322a4.33,4.33,0,0,1-1.641,2.061,4.476,4.476,0,0,1-2.549.752,4.638,4.638,0,0,1-3.457-1.338,4.977,4.977,0,0,1-1.318-3.652,4.953,4.953,0,0,1,1.323-3.643,4.58,4.58,0,0,1,3.4-1.338,4.334,4.334,0,0,1,3.228,1.23A4.862,4.862,0,0,1,287.324,37.01Zm-4.443-3.5a2.994,2.994,0,0,0-2,.679,3.11,3.11,0,0,0-1.011,1.978h5.752a2.852,2.852,0,0,0-.84-1.978A2.712,2.712,0,0,0,282.881,33.514Zm11.621-1.3a3.339,3.339,0,0,1,2.417.869,3.242,3.242,0,0,1,.9,2.451V42h-1.689V35.916a2.27,2.27,0,0,0-.586-1.719,2.1,2.1,0,0,0-1.5-.557,2.322,2.322,0,0,0-1.709.659,2.675,2.675,0,0,0-.674,1.958V42h-1.689V32.4h1.689v1.23A3.206,3.206,0,0,1,294.5,32.215ZM304.15,42a2.523,2.523,0,0,1-1.875-.688,2.6,2.6,0,0,1-.684-1.919V33.748h-1.963V32.4h.723a1.387,1.387,0,0,0,1.06-.337,1.658,1.658,0,0,0,.308-1.128V29.2h1.572v3.2H305.5v1.348h-2.207v5.469a1.455,1.455,0,0,0,.366,1.06,1.282,1.282,0,0,0,.962.376h.879V42Zm7.715.186a5.06,5.06,0,0,1-2.461-.6,4.338,4.338,0,0,1-1.733-1.743,5.354,5.354,0,0,1-.64-2.651,4.89,4.89,0,0,1,1.362-3.618,5.111,5.111,0,0,1,6.948,0A4.9,4.9,0,0,1,316.7,37.2a4.9,4.9,0,0,1-1.362,3.628A4.7,4.7,0,0,1,311.865,42.186Zm-.01-1.406a2.948,2.948,0,0,0,2.271-.986,4.173,4.173,0,0,0,0-5.186,2.948,2.948,0,0,0-2.271-.986,2.908,2.908,0,0,0-2.251.986,4.208,4.208,0,0,0,0,5.186A2.908,2.908,0,0,0,311.855,40.779ZM2.842,50.889H4.854L3.633,57.275H.742Zm4.512,0H9.365L8.145,57.275H5.254ZM18.4,65.2a7.877,7.877,0,0,1-2.876-.518,6.763,6.763,0,0,1-2.29-1.445,6.515,6.515,0,0,1-1.5-2.295,8,8,0,0,1-.547-3,7.644,7.644,0,0,1,.938-3.833,6.382,6.382,0,0,1,2.573-2.534,7.705,7.705,0,0,1,3.706-.879,7.488,7.488,0,0,1,4.141,1.143,6.255,6.255,0,0,1,2.529,3.145l-2.734,1a3.866,3.866,0,0,0-1.514-1.9,4.323,4.323,0,0,0-2.422-.684,4.145,4.145,0,0,0-3.086,1.23,5.156,5.156,0,0,0,0,6.646A4.14,4.14,0,0,0,18.4,62.5a4.307,4.307,0,0,0,2.417-.688A3.883,3.883,0,0,0,22.334,59.9l2.734,1a6.28,6.28,0,0,1-2.529,3.149A7.464,7.464,0,0,1,18.4,65.2Zm13.379,0a6.313,6.313,0,0,1-2.842-.615,4.6,4.6,0,0,1-1.948-1.807,5.384,5.384,0,0,1-.708-2.8A4.911,4.911,0,0,1,27.8,56.162a5.652,5.652,0,0,1,3.975-1.4,5.665,5.665,0,0,1,3.984,1.4,5.541,5.541,0,0,1,0,7.632A5.654,5.654,0,0,1,31.777,65.2Zm-.029-2.236a2.577,2.577,0,0,0,1.987-.82,3.484,3.484,0,0,0,0-4.336,2.577,2.577,0,0,0-1.987-.82,2.483,2.483,0,0,0-1.929.825,3.505,3.505,0,0,0,0,4.326A2.483,2.483,0,0,0,31.748,62.959ZM45.3,54.766a3.914,3.914,0,0,1,2.773.9,3.349,3.349,0,0,1,.967,2.573V65H46.221V58.848a1.749,1.749,0,0,0-.5-1.387,1.9,1.9,0,0,0-1.294-.439,2.643,2.643,0,0,0-.84.127,2.158,2.158,0,0,0-.7.4,1.748,1.748,0,0,0-.5.757,3.5,3.5,0,0,0-.19,1.162V65H39.375V54.961h2.813v1.113A3.868,3.868,0,0,1,45.3,54.766ZM55.508,65a3.032,3.032,0,0,1-2.266-.815,3.172,3.172,0,0,1-.8-2.319V57.119H50.469V54.961H51.1a1.656,1.656,0,0,0,1.25-.42,2.162,2.162,0,0,0,.4-1.494V51.719h2.539v3.242h2.07v2.158h-2.07v4.443q0,1.3,1.162,1.3h.908V65Zm6.729-8.447a3.259,3.259,0,0,1,1.318-1.206,4.023,4.023,0,0,1,1.963-.5v2.51a3.8,3.8,0,0,0-2.4.605,2.643,2.643,0,0,0-.742,2.148V65H59.541V54.961h2.7ZM71.787,65.2a6.313,6.313,0,0,1-2.842-.615A4.6,4.6,0,0,1,67,62.773a5.384,5.384,0,0,1-.708-2.8,4.911,4.911,0,0,1,1.523-3.809,6.368,6.368,0,0,1,7.959,0,5.541,5.541,0,0,1,0,7.632A5.654,5.654,0,0,1,71.787,65.2Zm-.029-2.236a2.577,2.577,0,0,0,1.987-.82,3.484,3.484,0,0,0,0-4.336,2.577,2.577,0,0,0-1.987-.82,2.483,2.483,0,0,0-1.929.825,3.505,3.505,0,0,0,0,4.326A2.483,2.483,0,0,0,71.758,62.959ZM79.385,65V50h2.842V65ZM97.451,50h2.813V65H97.6l-.068-1.309a2.867,2.867,0,0,1-1.274,1.138,4.29,4.29,0,0,1-1.88.405,4.883,4.883,0,0,1-1.875-.361A4.516,4.516,0,0,1,89.922,62.2a6.106,6.106,0,0,1-.381-2.2,5.707,5.707,0,0,1,.664-2.8,4.55,4.55,0,0,1,1.753-1.821,4.827,4.827,0,0,1,2.417-.615,4.4,4.4,0,0,1,1.821.366,2.843,2.843,0,0,1,1.255,1.04ZM95.02,62.9a2.5,2.5,0,0,0,1.9-.8,3.289,3.289,0,0,0,0-4.2,2.5,2.5,0,0,0-1.895-.806,2.53,2.53,0,0,0-1.909.791,3.332,3.332,0,0,0,0,4.229A2.53,2.53,0,0,0,95.02,62.9Zm17.6-3.066-.029.674h-7.441a2.6,2.6,0,0,0,.8,1.836,2.561,2.561,0,0,0,1.768.635,2.468,2.468,0,0,0,1.323-.347,2.131,2.131,0,0,0,.845-1.011l2.578.381a4.383,4.383,0,0,1-1.758,2.354,5.226,5.226,0,0,1-2.969.84,5.435,5.435,0,0,1-3.911-1.382,5.783,5.783,0,0,1,0-7.666,5.273,5.273,0,0,1,3.818-1.4,4.6,4.6,0,0,1,4.971,5.088Zm-4.951-3.1a2.222,2.222,0,0,0-2.441,1.934h4.609a2.114,2.114,0,0,0-.693-1.436A2.2,2.2,0,0,0,107.666,56.738Zm16.826,8.447a5.364,5.364,0,0,1-3.877-1.445,5.483,5.483,0,0,1,0-7.539,5.96,5.96,0,0,1,7.134-.469,4.316,4.316,0,0,1,1.68,2.725l-2.6.283a2.226,2.226,0,0,0-.84-1.318,2.554,2.554,0,0,0-1.523-.439,2.3,2.3,0,0,0-1.836.82,3.686,3.686,0,0,0,0,4.331,2.3,2.3,0,0,0,1.836.825,2.532,2.532,0,0,0,1.519-.439,2.277,2.277,0,0,0,.845-1.318l2.6.283a4.328,4.328,0,0,1-1.694,2.725A5.327,5.327,0,0,1,124.492,65.186Zm15.166-2.91a9.391,9.391,0,0,0,.244,2.451V65h-2.627l-.225-1.094a3.264,3.264,0,0,1-1.406.967,5.183,5.183,0,0,1-1.816.322,4.776,4.776,0,0,1-.937-.088,3.187,3.187,0,0,1-.845-.3,2.563,2.563,0,0,1-.7-.522,2.291,2.291,0,0,1-.469-.8A3.17,3.17,0,0,1,130.7,62.4a3.019,3.019,0,0,1,.186-1.089,2.552,2.552,0,0,1,.488-.815,2.962,2.962,0,0,1,.791-.6,6.052,6.052,0,0,1,1-.43,11.9,11.9,0,0,1,1.191-.312l1.65-.371a1.82,1.82,0,0,0,.747-.317.633.633,0,0,0,.22-.5,1.036,1.036,0,0,0-.493-.967,2.3,2.3,0,0,0-1.2-.293,1.721,1.721,0,0,0-1.963,1.533l-2.49-.449a3.371,3.371,0,0,1,1.455-2.29,5.783,5.783,0,0,1,3.154-.737q4.219,0,4.219,3.623Zm-4.951,1.016a2.262,2.262,0,0,0,1.738-.728,3.066,3.066,0,0,0,.674-2.153l-2.383.674a2.816,2.816,0,0,0-1,.41.842.842,0,0,0-.347.723.935.935,0,0,0,.371.8A1.536,1.536,0,0,0,134.707,63.291ZM142.393,65V50h2.842V65Zm7.188-11.543a1.579,1.579,0,0,1-1.152-.474,1.555,1.555,0,0,1-.479-1.147,1.536,1.536,0,0,1,.483-1.138,1.584,1.584,0,0,1,1.147-.474,1.616,1.616,0,0,1,0,3.232ZM148.145,65V54.961h2.832V65Zm12.861-15h2.813V65h-2.666l-.068-1.309a2.867,2.867,0,0,1-1.274,1.138,4.29,4.29,0,0,1-1.88.405,4.883,4.883,0,0,1-1.875-.361,4.516,4.516,0,0,1-2.578-2.676A6.106,6.106,0,0,1,153.1,60a5.708,5.708,0,0,1,.664-2.8,4.55,4.55,0,0,1,1.753-1.821,4.827,4.827,0,0,1,2.417-.615,4.4,4.4,0,0,1,1.821.366,2.843,2.843,0,0,1,1.255,1.04Zm-2.432,12.9a2.5,2.5,0,0,0,1.9-.8,3.289,3.289,0,0,0,0-4.2,2.5,2.5,0,0,0-1.895-.806,2.53,2.53,0,0,0-1.909.791,3.332,3.332,0,0,0,0,4.229A2.53,2.53,0,0,0,158.574,62.9Zm16.387-.625a9.391,9.391,0,0,0,.244,2.451V65h-2.627l-.225-1.094a3.264,3.264,0,0,1-1.406.967,5.183,5.183,0,0,1-1.816.322,4.776,4.776,0,0,1-.937-.088,3.187,3.187,0,0,1-.845-.3,2.563,2.563,0,0,1-.7-.522,2.291,2.291,0,0,1-.469-.8,3.17,3.17,0,0,1-.176-1.089,3.019,3.019,0,0,1,.186-1.089,2.552,2.552,0,0,1,.488-.815,2.962,2.962,0,0,1,.791-.6,6.052,6.052,0,0,1,1-.43,11.9,11.9,0,0,1,1.191-.312l1.65-.371a1.82,1.82,0,0,0,.747-.317.633.633,0,0,0,.22-.5,1.036,1.036,0,0,0-.493-.967,2.3,2.3,0,0,0-1.2-.293,1.721,1.721,0,0,0-1.963,1.533l-2.49-.449a3.371,3.371,0,0,1,1.455-2.29,5.783,5.783,0,0,1,3.154-.737q4.219,0,4.219,3.623Zm-4.951,1.016a2.262,2.262,0,0,0,1.738-.728,3.066,3.066,0,0,0,.674-2.153l-2.383.674a2.816,2.816,0,0,0-1,.41.842.842,0,0,0-.347.723.935.935,0,0,0,.371.8A1.536,1.536,0,0,0,170.01,63.291ZM184.59,50H187.4V65h-2.666l-.068-1.309a2.867,2.867,0,0,1-1.274,1.138,4.29,4.29,0,0,1-1.88.405,4.883,4.883,0,0,1-1.875-.361,4.516,4.516,0,0,1-2.578-2.676,6.106,6.106,0,0,1-.381-2.2,5.708,5.708,0,0,1,.664-2.8,4.55,4.55,0,0,1,1.753-1.821,4.827,4.827,0,0,1,2.417-.615,4.4,4.4,0,0,1,1.821.366,2.843,2.843,0,0,1,1.255,1.04Zm-2.432,12.9a2.5,2.5,0,0,0,1.9-.8,3.289,3.289,0,0,0,0-4.2,2.5,2.5,0,0,0-1.895-.806,2.53,2.53,0,0,0-1.909.791,3.332,3.332,0,0,0,0,4.229A2.53,2.53,0,0,0,182.158,62.9Zm9.795-4.1a1.532,1.532,0,0,1-1.128-.479,1.568,1.568,0,0,1-.474-1.143,1.617,1.617,0,0,1,1.6-1.6,1.568,1.568,0,0,1,1.143.474,1.532,1.532,0,0,1,.479,1.128,1.634,1.634,0,0,1-1.621,1.621Zm0,6.4a1.617,1.617,0,0,1-1.6-1.6,1.568,1.568,0,0,1,.474-1.143,1.532,1.532,0,0,1,1.128-.479,1.634,1.634,0,0,1,1.621,1.621,1.532,1.532,0,0,1-.479,1.128A1.568,1.568,0,0,1,191.953,65.2Zm16.7-10.234h2.676v9.287a7.51,7.51,0,0,1-.376,2.5,4.123,4.123,0,0,1-1.089,1.714,4.539,4.539,0,0,1-1.67.962,7.04,7.04,0,0,1-2.187.313q-3.975,0-5.176-3.115l2.334-1a3.406,3.406,0,0,0,1.084,1.455,2.763,2.763,0,0,0,1.65.469q2.607,0,2.607-3.1V63.281a3.162,3.162,0,0,1-1.265.991,4.2,4.2,0,0,1-1.782.376,4.5,4.5,0,0,1-3.223-1.353,4.638,4.638,0,0,1-.991-1.577,5.83,5.83,0,0,1,0-4.067,4.451,4.451,0,0,1,1-1.558,4.584,4.584,0,0,1,1.465-.977,4.521,4.521,0,0,1,1.772-.352,4.082,4.082,0,0,1,1.86.415,2.967,2.967,0,0,1,1.245,1.108ZM204.341,61.6a2.576,2.576,0,0,0,3.687-.01,2.806,2.806,0,0,0,0-3.818,2.6,2.6,0,0,0-3.7-.015,2.671,2.671,0,0,0-.737,1.929A2.644,2.644,0,0,0,204.341,61.6Zm19.351-1.768-.029.674h-7.441a2.6,2.6,0,0,0,.8,1.836,2.561,2.561,0,0,0,1.768.635,2.468,2.468,0,0,0,1.323-.347,2.131,2.131,0,0,0,.845-1.011l2.578.381a4.383,4.383,0,0,1-1.758,2.354,5.226,5.226,0,0,1-2.969.84,5.435,5.435,0,0,1-3.911-1.382,5.783,5.783,0,0,1,0-7.666,5.273,5.273,0,0,1,3.818-1.4,4.6,4.6,0,0,1,4.971,5.088Zm-4.951-3.1a2.222,2.222,0,0,0-2.441,1.934h4.609a2.114,2.114,0,0,0-.693-1.436A2.2,2.2,0,0,0,218.74,56.738Zm13.018-1.973a3.914,3.914,0,0,1,2.773.9,3.349,3.349,0,0,1,.967,2.573V65h-2.822V58.848a1.749,1.749,0,0,0-.5-1.387,1.9,1.9,0,0,0-1.294-.439,2.643,2.643,0,0,0-.84.127,2.158,2.158,0,0,0-.7.4,1.748,1.748,0,0,0-.5.757,3.5,3.5,0,0,0-.19,1.162V65H225.83V54.961h2.813v1.113A3.868,3.868,0,0,1,231.758,54.766Zm15.908,5.068-.029.674H240.2a2.6,2.6,0,0,0,.8,1.836,2.561,2.561,0,0,0,1.768.635,2.468,2.468,0,0,0,1.323-.347,2.131,2.131,0,0,0,.845-1.011L247.51,62a4.383,4.383,0,0,1-1.758,2.354,5.226,5.226,0,0,1-2.969.84,5.435,5.435,0,0,1-3.911-1.382,5.783,5.783,0,0,1,0-7.666,5.273,5.273,0,0,1,3.818-1.4,4.6,4.6,0,0,1,4.971,5.088Zm-4.951-3.1a2.222,2.222,0,0,0-2.441,1.934h4.609a2.114,2.114,0,0,0-.693-1.436A2.2,2.2,0,0,0,242.715,56.738Zm9.785-.186a3.259,3.259,0,0,1,1.318-1.206,4.023,4.023,0,0,1,1.963-.5v2.51a3.8,3.8,0,0,0-2.4.605,2.643,2.643,0,0,0-.742,2.148V65H249.8V54.961h2.7Zm13.105,5.723a9.392,9.392,0,0,0,.244,2.451V65h-2.627L263,63.906a3.264,3.264,0,0,1-1.406.967,5.183,5.183,0,0,1-1.816.322,4.776,4.776,0,0,1-.937-.088,3.187,3.187,0,0,1-.845-.3,2.564,2.564,0,0,1-.7-.522,2.291,2.291,0,0,1-.469-.8,3.17,3.17,0,0,1-.176-1.089,3.02,3.02,0,0,1,.186-1.089,2.552,2.552,0,0,1,.488-.815,2.961,2.961,0,0,1,.791-.6,6.053,6.053,0,0,1,1-.43,11.9,11.9,0,0,1,1.191-.312l1.65-.371a1.82,1.82,0,0,0,.747-.317.633.633,0,0,0,.22-.5,1.036,1.036,0,0,0-.493-.967,2.3,2.3,0,0,0-1.2-.293,1.721,1.721,0,0,0-1.963,1.533l-2.49-.449a3.371,3.371,0,0,1,1.455-2.29,5.783,5.783,0,0,1,3.154-.737q4.219,0,4.219,3.623Zm-4.951,1.016a2.262,2.262,0,0,0,1.738-.728,3.066,3.066,0,0,0,.674-2.153l-2.383.674a2.816,2.816,0,0,0-1,.41.842.842,0,0,0-.347.723.935.935,0,0,0,.371.8A1.536,1.536,0,0,0,260.654,63.291ZM268.34,65V50h2.842V65Zm7.188-11.543a1.579,1.579,0,0,1-1.152-.474,1.555,1.555,0,0,1-.479-1.147,1.536,1.536,0,0,1,.483-1.138,1.584,1.584,0,0,1,1.147-.474,1.616,1.616,0,0,1,0,3.232ZM274.092,65V54.961h2.832V65Zm12.861-15h2.813V65H287.1l-.068-1.309a2.867,2.867,0,0,1-1.274,1.138,4.29,4.29,0,0,1-1.88.405A4.883,4.883,0,0,1,282,64.873a4.516,4.516,0,0,1-2.578-2.676,6.106,6.106,0,0,1-.381-2.2,5.707,5.707,0,0,1,.664-2.8,4.55,4.55,0,0,1,1.753-1.821,4.827,4.827,0,0,1,2.417-.615,4.4,4.4,0,0,1,1.821.366,2.843,2.843,0,0,1,1.255,1.04Zm-2.432,12.9a2.5,2.5,0,0,0,1.9-.8,3.289,3.289,0,0,0,0-4.2,2.5,2.5,0,0,0-1.895-.806,2.53,2.53,0,0,0-1.909.791,3.332,3.332,0,0,0,0,4.229A2.53,2.53,0,0,0,284.521,62.9Zm16.387-.625a9.392,9.392,0,0,0,.244,2.451V65h-2.627l-.225-1.094a3.264,3.264,0,0,1-1.406.967,5.183,5.183,0,0,1-1.816.322,4.776,4.776,0,0,1-.937-.088,3.187,3.187,0,0,1-.845-.3,2.564,2.564,0,0,1-.7-.522,2.291,2.291,0,0,1-.469-.8,3.17,3.17,0,0,1-.176-1.089,3.02,3.02,0,0,1,.186-1.089,2.552,2.552,0,0,1,.488-.815,2.961,2.961,0,0,1,.791-.6,6.053,6.053,0,0,1,1-.43,11.9,11.9,0,0,1,1.191-.312l1.65-.371a1.82,1.82,0,0,0,.747-.317.633.633,0,0,0,.22-.5,1.036,1.036,0,0,0-.493-.967,2.3,2.3,0,0,0-1.2-.293,1.721,1.721,0,0,0-1.963,1.533l-2.49-.449a3.371,3.371,0,0,1,1.455-2.29,5.783,5.783,0,0,1,3.154-.737q4.219,0,4.219,3.623Zm-4.951,1.016a2.262,2.262,0,0,0,1.738-.728,3.066,3.066,0,0,0,.674-2.153l-2.383.674a2.816,2.816,0,0,0-1,.41.842.842,0,0,0-.347.723.935.935,0,0,0,.371.8A1.536,1.536,0,0,0,295.957,63.291ZM310.537,50h2.813V65h-2.666l-.068-1.309a2.867,2.867,0,0,1-1.274,1.138,4.29,4.29,0,0,1-1.88.405,4.883,4.883,0,0,1-1.875-.361,4.516,4.516,0,0,1-2.578-2.676,6.106,6.106,0,0,1-.381-2.2,5.707,5.707,0,0,1,.664-2.8,4.55,4.55,0,0,1,1.753-1.821,4.827,4.827,0,0,1,2.417-.615,4.4,4.4,0,0,1,1.821.366,2.843,2.843,0,0,1,1.255,1.04Zm-2.432,12.9a2.5,2.5,0,0,0,1.9-.8,3.289,3.289,0,0,0,0-4.2,2.5,2.5,0,0,0-1.895-.806,2.53,2.53,0,0,0-1.909.791,3.332,3.332,0,0,0,0,4.229A2.53,2.53,0,0,0,308.105,62.9Zm17.6-3.066-.029.674h-7.441a2.6,2.6,0,0,0,.8,1.836,2.561,2.561,0,0,0,1.768.635,2.468,2.468,0,0,0,1.323-.347,2.131,2.131,0,0,0,.845-1.011l2.578.381a4.383,4.383,0,0,1-1.758,2.354,5.226,5.226,0,0,1-2.969.84,5.435,5.435,0,0,1-3.911-1.382,5.783,5.783,0,0,1,0-7.666,5.273,5.273,0,0,1,3.818-1.4,4.6,4.6,0,0,1,4.971,5.088Zm-4.951-3.1a2.222,2.222,0,0,0-2.441,1.934h4.609a2.114,2.114,0,0,0-.693-1.436A2.2,2.2,0,0,0,320.752,56.738ZM331.377,65.2a5.61,5.61,0,0,1-2.93-.7,2.972,2.972,0,0,1-1.436-2.09l2.354-.664a1.891,1.891,0,0,0,2.012,1.494A2.078,2.078,0,0,0,332.4,63a.8.8,0,0,0,.4-.776.821.821,0,0,0-.166-.518,1.315,1.315,0,0,0-.513-.371,6.386,6.386,0,0,0-.684-.264q-.337-.107-.894-.259t-.928-.288a6.215,6.215,0,0,1-.884-.376,3.77,3.77,0,0,1-.732-.518,2.086,2.086,0,0,1-.547-.786,2.836,2.836,0,0,1-.19-1.074,2.565,2.565,0,0,1,1.089-2.246,4.865,4.865,0,0,1,2.847-.762,4.988,4.988,0,0,1,2.627.645,2.917,2.917,0,0,1,1.348,2.012L333,57.91a1.706,1.706,0,0,0-1.787-1.27,1.957,1.957,0,0,0-.986.225.722.722,0,0,0-.391.664.761.761,0,0,0,.059.3.6.6,0,0,0,.205.244,2.99,2.99,0,0,0,.283.186,2.137,2.137,0,0,0,.4.161q.264.083.439.127l.513.132.522.137q.537.146.942.293a5.52,5.52,0,0,1,.864.41,3.1,3.1,0,0,1,.757.591,2.635,2.635,0,0,1,.493.83,3.066,3.066,0,0,1,.2,1.118,3.02,3.02,0,0,1-.337,1.455,2.529,2.529,0,0,1-.923.981,4.492,4.492,0,0,1-1.3.527A6.763,6.763,0,0,1,331.377,65.2Zm7.832-7.93H337.2l1.221-6.387h2.891Zm4.512,0h-2.012l1.221-6.387h2.891Zm6.055,7.93a1.617,1.617,0,0,1-1.6-1.6,1.568,1.568,0,0,1,.474-1.143,1.532,1.532,0,0,1,1.128-.479,1.634,1.634,0,0,1,1.621,1.621,1.533,1.533,0,0,1-.479,1.128A1.568,1.568,0,0,1,349.775,65.2ZM2.158,88V74.25H6.592a6.575,6.575,0,0,1,3.5.889,5.421,5.421,0,0,1,2.148,2.417,8.491,8.491,0,0,1,.7,3.56,9.005,9.005,0,0,1-.405,2.778,6.294,6.294,0,0,1-1.187,2.173,5.205,5.205,0,0,1-2,1.426A7.1,7.1,0,0,1,6.592,88Zm1.748-1.592H6.533A4.187,4.187,0,0,0,9.966,85a7.06,7.06,0,0,0,0-7.754,4.19,4.19,0,0,0-3.428-1.406H3.906ZM16.758,76.145A1.15,1.15,0,0,1,15.615,75a1.083,1.083,0,0,1,.337-.8,1.108,1.108,0,0,1,.806-.332,1.1,1.1,0,0,1,.8.332,1.083,1.083,0,0,1,.337.8,1.1,1.1,0,0,1-.337.806A1.088,1.088,0,0,1,16.758,76.145ZM15.9,88V78.4h1.7V88Zm8.174.186a4.551,4.551,0,0,1-2.588-.693,2.868,2.868,0,0,1-1.26-1.973L21.7,85.1a2.057,2.057,0,0,0,.786,1.333,2.55,2.55,0,0,0,1.577.474,3.147,3.147,0,0,0,.923-.127,1.479,1.479,0,0,0,.708-.474,1.321,1.321,0,0,0,.205-1.27,1.7,1.7,0,0,0-.156-.317.967.967,0,0,0-.273-.264,3.607,3.607,0,0,0-.332-.205,3.408,3.408,0,0,0-.435-.181q-.288-.1-.464-.156t-.537-.156q-.361-.1-.557-.161a10.412,10.412,0,0,1-1-.352,4.369,4.369,0,0,1-.811-.464,1.866,1.866,0,0,1-.63-.757,2.561,2.561,0,0,1-.21-1.074,2.482,2.482,0,0,1,.469-1.533,2.637,2.637,0,0,1,1.216-.9,4.86,4.86,0,0,1,1.7-.278,4.171,4.171,0,0,1,2.339.625,2.668,2.668,0,0,1,1.167,1.875l-1.387.352a1.839,1.839,0,0,0-.732-1.216,2.332,2.332,0,0,0-1.377-.405,2.377,2.377,0,0,0-1.289.337,1.132,1.132,0,0,0-.537,1.03,1.025,1.025,0,0,0,.142.532,1.69,1.69,0,0,0,.288.376,1.771,1.771,0,0,0,.527.288q.381.151.566.205t.7.181q.1.029.146.039.566.146.923.259a5.672,5.672,0,0,1,.83.352,2.76,2.76,0,0,1,.747.522,2.42,2.42,0,0,1,.469.742,2.62,2.62,0,0,1,.2,1.035,2.8,2.8,0,0,1-.288,1.294,2.253,2.253,0,0,1-.786.884,3.8,3.8,0,0,1-1.118.483A5.327,5.327,0,0,1,24.072,88.186Zm11.26-9.971a4.366,4.366,0,0,1,1.738.352,4.276,4.276,0,0,1,1.426.986,4.61,4.61,0,0,1,.962,1.582,5.834,5.834,0,0,1,.356,2.07,5.076,5.076,0,0,1-1.294,3.623,4.2,4.2,0,0,1-3.188,1.377,3.8,3.8,0,0,1-2.007-.547,3.584,3.584,0,0,1-1.372-1.475v6.65H30.264V78.4h1.631l.039,1.865a3.514,3.514,0,0,1,1.367-1.5A3.835,3.835,0,0,1,35.332,78.215ZM35,86.74a2.915,2.915,0,0,0,2.222-.972,4.082,4.082,0,0,0,0-5.122,3.029,3.029,0,0,0-4.478.044,3.917,3.917,0,0,0,0,5.039A2.929,2.929,0,0,0,35,86.74Zm11.523,1.445a5.06,5.06,0,0,1-2.461-.6,4.338,4.338,0,0,1-1.733-1.743,5.354,5.354,0,0,1-.64-2.651,4.89,4.89,0,0,1,1.362-3.618,5.111,5.111,0,0,1,6.948,0,5.506,5.506,0,0,1,0,7.246A4.7,4.7,0,0,1,46.523,88.186Zm-.01-1.406a2.948,2.948,0,0,0,2.271-.986,4.173,4.173,0,0,0,0-5.186,2.948,2.948,0,0,0-2.271-.986,2.908,2.908,0,0,0-2.251.986,4.208,4.208,0,0,0,0,5.186A2.908,2.908,0,0,0,46.514,86.779Zm12.021-8.564a3.339,3.339,0,0,1,2.417.869,3.242,3.242,0,0,1,.9,2.451V88H60.166V81.916A2.27,2.27,0,0,0,59.58,80.2a2.1,2.1,0,0,0-1.5-.557,2.322,2.322,0,0,0-1.709.659,2.675,2.675,0,0,0-.674,1.958V88H54V78.4h1.689v1.23A3.206,3.206,0,0,1,58.535,78.215Zm7.441-2.07A1.15,1.15,0,0,1,64.834,75a1.083,1.083,0,0,1,.337-.8,1.108,1.108,0,0,1,.806-.332,1.1,1.1,0,0,1,.8.332,1.083,1.083,0,0,1,.337.8,1.1,1.1,0,0,1-.337.806A1.088,1.088,0,0,1,65.977,76.145ZM65.117,88V78.4h1.7V88Zm10.225-9.785A4.183,4.183,0,0,1,78.516,79.6a5.678,5.678,0,0,1,.01,7.217,4.174,4.174,0,0,1-3.184,1.387,3.853,3.853,0,0,1-2.046-.557,3.523,3.523,0,0,1-1.372-1.514L71.885,88H70.254V73h1.68l.01,7.236a3.538,3.538,0,0,1,1.372-1.479A3.862,3.862,0,0,1,75.342,78.215Zm-.371,8.525a2.938,2.938,0,0,0,2.246-.981,4.044,4.044,0,0,0,0-5.107,2.938,2.938,0,0,0-2.246-.981,2.873,2.873,0,0,0-2.227,1.016,3.964,3.964,0,0,0,0,5.044A2.875,2.875,0,0,0,74.971,86.74Zm7.5,1.26V73H84.18V88Zm13.545-4.99-.02.459H88.5a3.392,3.392,0,0,0,.918,2.456,3.014,3.014,0,0,0,2.188.854,2.878,2.878,0,0,0,1.592-.459,2.978,2.978,0,0,0,1.094-1.27l1.523.322a4.33,4.33,0,0,1-1.641,2.061,4.476,4.476,0,0,1-2.549.752,4.637,4.637,0,0,1-3.457-1.338,5.7,5.7,0,0,1,0-7.295,4.58,4.58,0,0,1,3.4-1.338,4.334,4.334,0,0,1,3.228,1.23A4.862,4.862,0,0,1,96.016,83.01Zm-4.443-3.5a2.994,2.994,0,0,0-2,.679,3.11,3.11,0,0,0-1.011,1.978h5.752a2.852,2.852,0,0,0-.84-1.978A2.712,2.712,0,0,0,91.572,79.514Zm20.684,3.5-.02.459h-7.5a3.392,3.392,0,0,0,.918,2.456,3.014,3.014,0,0,0,2.188.854,2.878,2.878,0,0,0,1.592-.459,2.978,2.978,0,0,0,1.094-1.27l1.523.322a4.33,4.33,0,0,1-1.641,2.061,4.476,4.476,0,0,1-2.549.752,4.637,4.637,0,0,1-3.457-1.338,5.7,5.7,0,0,1,0-7.295,4.58,4.58,0,0,1,3.4-1.338,4.334,4.334,0,0,1,3.228,1.23A4.862,4.862,0,0,1,112.256,83.01Zm-4.443-3.5a2.994,2.994,0,0,0-2,.679A3.11,3.11,0,0,0,104.8,82.17h5.752a2.852,2.852,0,0,0-.84-1.978A2.712,2.712,0,0,0,107.813,79.514Zm11.621-1.3a3.339,3.339,0,0,1,2.417.869,3.242,3.242,0,0,1,.9,2.451V88h-1.689V81.916a2.27,2.27,0,0,0-.586-1.719,2.1,2.1,0,0,0-1.5-.557,2.322,2.322,0,0,0-1.709.659,2.675,2.675,0,0,0-.674,1.958V88H114.9V78.4h1.689v1.23A3.206,3.206,0,0,1,119.434,78.215Zm13.428,1.875a2.9,2.9,0,0,1,1.191-1.289,3.588,3.588,0,0,1,1.846-.508v1.592a3.163,3.163,0,0,0-2.231.713,2.978,2.978,0,0,0-.767,2.275V88h-1.689V78.4h1.65Zm13.3,2.92-.02.459h-7.5a3.392,3.392,0,0,0,.918,2.456,3.014,3.014,0,0,0,2.188.854,2.878,2.878,0,0,0,1.592-.459,2.978,2.978,0,0,0,1.094-1.27l1.523.322a4.33,4.33,0,0,1-1.641,2.061,4.476,4.476,0,0,1-2.549.752,4.637,4.637,0,0,1-3.457-1.338,5.7,5.7,0,0,1,0-7.295,4.58,4.58,0,0,1,3.4-1.338,4.334,4.334,0,0,1,3.228,1.23A4.862,4.862,0,0,1,146.162,83.01Zm-4.443-3.5a2.994,2.994,0,0,0-2,.679,3.11,3.11,0,0,0-1.011,1.978h5.752a2.852,2.852,0,0,0-.84-1.978A2.712,2.712,0,0,0,141.719,79.514Zm12.158-1.3a4.366,4.366,0,0,1,1.738.352,4.276,4.276,0,0,1,1.426.986A4.61,4.61,0,0,1,158,81.135a5.834,5.834,0,0,1,.356,2.07,5.076,5.076,0,0,1-1.294,3.623,4.2,4.2,0,0,1-3.188,1.377,3.8,3.8,0,0,1-2.007-.547,3.584,3.584,0,0,1-1.372-1.475v6.65h-1.689V78.4h1.631l.039,1.865a3.514,3.514,0,0,1,1.367-1.5A3.835,3.835,0,0,1,153.877,78.215Zm-.332,8.525a2.915,2.915,0,0,0,2.222-.972,4.082,4.082,0,0,0,0-5.122,3.029,3.029,0,0,0-4.478.044,3.917,3.917,0,0,0,0,5.039A2.929,2.929,0,0,0,153.545,86.74Zm11.523,1.445a5.06,5.06,0,0,1-2.461-.6,4.338,4.338,0,0,1-1.733-1.743,5.354,5.354,0,0,1-.64-2.651,4.89,4.89,0,0,1,1.362-3.618,5.111,5.111,0,0,1,6.948,0,5.506,5.506,0,0,1,0,7.246A4.7,4.7,0,0,1,165.068,88.186Zm-.01-1.406a2.948,2.948,0,0,0,2.271-.986,4.173,4.173,0,0,0,0-5.186,2.948,2.948,0,0,0-2.271-.986,2.908,2.908,0,0,0-2.251.986,4.208,4.208,0,0,0,0,5.186A2.908,2.908,0,0,0,165.059,86.779Zm10.527,1.406A4.551,4.551,0,0,1,173,87.492a2.868,2.868,0,0,1-1.26-1.973l1.475-.42A2.057,2.057,0,0,0,174,86.433a2.55,2.55,0,0,0,1.577.474,3.147,3.147,0,0,0,.923-.127,1.479,1.479,0,0,0,.708-.474,1.321,1.321,0,0,0,.205-1.27,1.7,1.7,0,0,0-.156-.317.967.967,0,0,0-.273-.264,3.607,3.607,0,0,0-.332-.205,3.407,3.407,0,0,0-.435-.181q-.288-.1-.464-.156t-.537-.156q-.361-.1-.557-.161a10.413,10.413,0,0,1-1-.352,4.369,4.369,0,0,1-.811-.464,1.866,1.866,0,0,1-.63-.757,2.561,2.561,0,0,1-.21-1.074,2.482,2.482,0,0,1,.469-1.533,2.637,2.637,0,0,1,1.216-.9,4.86,4.86,0,0,1,1.7-.278,4.171,4.171,0,0,1,2.339.625,2.668,2.668,0,0,1,1.167,1.875l-1.387.352a1.839,1.839,0,0,0-.732-1.216,2.332,2.332,0,0,0-1.377-.405,2.377,2.377,0,0,0-1.289.337,1.132,1.132,0,0,0-.537,1.03,1.025,1.025,0,0,0,.142.532,1.69,1.69,0,0,0,.288.376,1.771,1.771,0,0,0,.527.288q.381.151.566.205t.7.181q.1.029.146.039.566.146.923.259a5.672,5.672,0,0,1,.83.352,2.76,2.76,0,0,1,.747.522,2.42,2.42,0,0,1,.469.742,2.62,2.62,0,0,1,.2,1.035,2.8,2.8,0,0,1-.288,1.294,2.253,2.253,0,0,1-.786.884,3.8,3.8,0,0,1-1.118.483A5.327,5.327,0,0,1,175.586,88.186Zm7.051-12.041A1.15,1.15,0,0,1,181.494,75a1.083,1.083,0,0,1,.337-.8,1.108,1.108,0,0,1,.806-.332,1.1,1.1,0,0,1,.8.332,1.083,1.083,0,0,1,.337.8,1.1,1.1,0,0,1-.337.806A1.088,1.088,0,0,1,182.637,76.145ZM181.777,88V78.4h1.7V88Zm8.2,0a2.523,2.523,0,0,1-1.875-.688,2.6,2.6,0,0,1-.684-1.919V79.748h-1.963V78.4h.723a1.387,1.387,0,0,0,1.06-.337,1.658,1.658,0,0,0,.308-1.128V75.2h1.572v3.2h2.207v1.348h-2.207v5.469a1.455,1.455,0,0,0,.366,1.06,1.282,1.282,0,0,0,.962.376h.879V88Zm7.715.186a5.06,5.06,0,0,1-2.461-.6,4.338,4.338,0,0,1-1.733-1.743,5.354,5.354,0,0,1-.64-2.651,4.89,4.89,0,0,1,1.362-3.618,5.111,5.111,0,0,1,6.948,0,5.506,5.506,0,0,1,0,7.246A4.7,4.7,0,0,1,197.7,88.186Zm-.01-1.406a2.948,2.948,0,0,0,2.271-.986,4.173,4.173,0,0,0,0-5.186,2.948,2.948,0,0,0-2.271-.986,2.908,2.908,0,0,0-2.251.986,4.208,4.208,0,0,0,0,5.186A2.908,2.908,0,0,0,197.686,86.779Zm9.141-6.689a2.9,2.9,0,0,1,1.191-1.289,3.588,3.588,0,0,1,1.846-.508v1.592a3.163,3.163,0,0,0-2.231.713,2.978,2.978,0,0,0-.767,2.275V88h-1.689V78.4h1.65Zm5.879-3.945A1.15,1.15,0,0,1,211.563,75a1.083,1.083,0,0,1,.337-.8,1.108,1.108,0,0,1,.806-.332,1.1,1.1,0,0,1,.8.332,1.083,1.083,0,0,1,.337.8,1.1,1.1,0,0,1-.337.806A1.088,1.088,0,0,1,212.705,76.145ZM211.846,88V78.4h1.7V88Zm9.18.186a5.06,5.06,0,0,1-2.461-.6,4.338,4.338,0,0,1-1.733-1.743,5.354,5.354,0,0,1-.64-2.651,4.89,4.89,0,0,1,1.362-3.618,5.111,5.111,0,0,1,6.948,0,5.506,5.506,0,0,1,0,7.246A4.7,4.7,0,0,1,221.025,88.186Zm-.01-1.406a2.948,2.948,0,0,0,2.271-.986,4.173,4.173,0,0,0,0-5.186,2.948,2.948,0,0,0-2.271-.986,2.908,2.908,0,0,0-2.251.986,4.208,4.208,0,0,0,0,5.186A2.908,2.908,0,0,0,221.016,86.779Zm13.545-10.635A1.15,1.15,0,0,1,233.418,75a1.083,1.083,0,0,1,.337-.8,1.108,1.108,0,0,1,.806-.332,1.1,1.1,0,0,1,.8.332,1.083,1.083,0,0,1,.337.8,1.1,1.1,0,0,1-.337.806A1.088,1.088,0,0,1,234.561,76.145ZM233.7,88V78.4h1.7V88Zm9.668-9.785a3.339,3.339,0,0,1,2.417.869,3.242,3.242,0,0,1,.9,2.451V88H245V81.916a2.27,2.27,0,0,0-.586-1.719,2.1,2.1,0,0,0-1.5-.557,2.322,2.322,0,0,0-1.709.659,2.675,2.675,0,0,0-.674,1.958V88h-1.689V78.4h1.689v1.23A3.206,3.206,0,0,1,243.369,78.215Zm9.619,9.971a4.551,4.551,0,0,1-2.588-.693,2.868,2.868,0,0,1-1.26-1.973l1.475-.42a2.057,2.057,0,0,0,.786,1.333,2.55,2.55,0,0,0,1.577.474,3.147,3.147,0,0,0,.923-.127,1.479,1.479,0,0,0,.708-.474,1.321,1.321,0,0,0,.205-1.27,1.7,1.7,0,0,0-.156-.317.967.967,0,0,0-.273-.264,3.607,3.607,0,0,0-.332-.205,3.407,3.407,0,0,0-.435-.181q-.288-.1-.464-.156t-.537-.156q-.361-.1-.557-.161a10.413,10.413,0,0,1-1-.352,4.369,4.369,0,0,1-.811-.464,1.866,1.866,0,0,1-.63-.757,2.561,2.561,0,0,1-.21-1.074,2.482,2.482,0,0,1,.469-1.533,2.637,2.637,0,0,1,1.216-.9,4.86,4.86,0,0,1,1.7-.278,4.171,4.171,0,0,1,2.339.625,2.668,2.668,0,0,1,1.167,1.875l-1.387.352a1.839,1.839,0,0,0-.732-1.216,2.332,2.332,0,0,0-1.377-.405,2.377,2.377,0,0,0-1.289.337,1.132,1.132,0,0,0-.537,1.03,1.025,1.025,0,0,0,.142.532,1.69,1.69,0,0,0,.288.376,1.771,1.771,0,0,0,.527.288q.381.151.566.205t.7.181q.1.029.146.039.566.146.923.259a5.672,5.672,0,0,1,.83.352,2.76,2.76,0,0,1,.747.522,2.421,2.421,0,0,1,.469.742,2.62,2.62,0,0,1,.2,1.035,2.8,2.8,0,0,1-.288,1.294,2.253,2.253,0,0,1-.786.884,3.8,3.8,0,0,1-1.118.483A5.327,5.327,0,0,1,252.988,88.186ZM262.246,88a2.523,2.523,0,0,1-1.875-.688,2.6,2.6,0,0,1-.684-1.919V79.748h-1.963V78.4h.723a1.387,1.387,0,0,0,1.06-.337,1.658,1.658,0,0,0,.308-1.128V75.2h1.572v3.2h2.207v1.348h-2.207v5.469a1.455,1.455,0,0,0,.366,1.06,1.282,1.282,0,0,0,.962.376h.879V88Zm4.648-11.855A1.15,1.15,0,0,1,265.752,75a1.083,1.083,0,0,1,.337-.8,1.108,1.108,0,0,1,.806-.332,1.1,1.1,0,0,1,.8.332,1.083,1.083,0,0,1,.337.8,1.1,1.1,0,0,1-.337.806A1.088,1.088,0,0,1,266.895,76.145ZM266.035,88V78.4h1.7V88Zm8.2,0a2.523,2.523,0,0,1-1.875-.688,2.6,2.6,0,0,1-.684-1.919V79.748h-1.963V78.4h.723a1.387,1.387,0,0,0,1.06-.337,1.658,1.658,0,0,0,.308-1.128V75.2h1.572v3.2h2.207v1.348h-2.207v5.469a1.455,1.455,0,0,0,.366,1.06,1.282,1.282,0,0,0,.962.376h.879V88ZM284,78.4h1.689V88h-1.621l-.039-1.27a3,3,0,0,1-1.191,1.079,3.665,3.665,0,0,1-1.68.376,3.339,3.339,0,0,1-2.417-.869,3.242,3.242,0,0,1-.9-2.451V78.4h1.689v6.084a2.278,2.278,0,0,0,.591,1.719,2.091,2.091,0,0,0,1.509.566,2.3,2.3,0,0,0,1.7-.664A2.7,2.7,0,0,0,284,84.143Zm9.111,9.775a4.624,4.624,0,0,1-3.437-1.377,5.469,5.469,0,0,1,0-7.207,5,5,0,0,1,6.221-.537,4.238,4.238,0,0,1,1.616,2.334l-1.582.254a2.922,2.922,0,0,0-1.084-1.494,2.952,2.952,0,0,0-1.738-.527,2.838,2.838,0,0,0-2.222.986,4.261,4.261,0,0,0,0,5.171,2.844,2.844,0,0,0,2.222.981,2.952,2.952,0,0,0,1.738-.527,2.922,2.922,0,0,0,1.084-1.494L297.51,85a4.243,4.243,0,0,1-1.626,2.329A4.65,4.65,0,0,1,293.115,88.176Zm7.744-12.031A1.15,1.15,0,0,1,299.717,75a1.083,1.083,0,0,1,.337-.8,1.108,1.108,0,0,1,.806-.332,1.1,1.1,0,0,1,.8.332,1.083,1.083,0,0,1,.337.8,1.1,1.1,0,0,1-.337.806A1.088,1.088,0,0,1,300.859,76.145ZM300,88V78.4h1.7V88Zm9.18.186a5.06,5.06,0,0,1-2.461-.6,4.338,4.338,0,0,1-1.733-1.743,5.354,5.354,0,0,1-.64-2.651,4.89,4.89,0,0,1,1.362-3.618,5.111,5.111,0,0,1,6.948,0,5.506,5.506,0,0,1,0,7.246A4.7,4.7,0,0,1,309.18,88.186Zm-.01-1.406a2.948,2.948,0,0,0,2.271-.986,4.173,4.173,0,0,0,0-5.186,2.948,2.948,0,0,0-2.271-.986,2.908,2.908,0,0,0-2.251.986,4.208,4.208,0,0,0,0,5.186A2.908,2.908,0,0,0,309.17,86.779Zm12.021-8.564a3.339,3.339,0,0,1,2.417.869,3.242,3.242,0,0,1,.9,2.451V88h-1.689V81.916a2.27,2.27,0,0,0-.586-1.719,2.1,2.1,0,0,0-1.5-.557,2.322,2.322,0,0,0-1.709.659,2.675,2.675,0,0,0-.674,1.958V88H316.66V78.4h1.689v1.23A3.206,3.206,0,0,1,321.191,78.215Zm8.8,9.971a3.267,3.267,0,0,1-2.1-.659,2.367,2.367,0,0,1-.825-1.968,2.8,2.8,0,0,1,.264-1.255,2.212,2.212,0,0,1,.781-.874,4.687,4.687,0,0,1,1.128-.542,10.427,10.427,0,0,1,1.46-.347l1.553-.254q.85-.156.85-.889a1.678,1.678,0,0,0-.6-1.431,2.447,2.447,0,0,0-1.519-.454,2.493,2.493,0,0,0-1.5.439,1.839,1.839,0,0,0-.713,1.348l-1.523-.322a2.932,2.932,0,0,1,1.2-2.056,4.488,4.488,0,0,1,2.617-.688,5.308,5.308,0,0,1,1.392.171,3.782,3.782,0,0,1,1.162.537,2.409,2.409,0,0,1,.83,1.035,3.851,3.851,0,0,1,.3,1.577V85.52a1.622,1.622,0,0,0,.22,1,.949.949,0,0,0,.757.259h.156V88h-.84a1.6,1.6,0,0,1-1.816-1.3h-.078A3.668,3.668,0,0,1,329.99,88.186Zm.391-1.367a2.561,2.561,0,0,0,2.061-.928,3.819,3.819,0,0,0,.781-2.539l-2.539.488a3.418,3.418,0,0,0-1.489.532,1.238,1.238,0,0,0-.483,1.05,1.224,1.224,0,0,0,.464,1.055A1.983,1.983,0,0,0,330.381,86.818ZM338.252,88V73h1.709V88Zm17.432-15h1.689V88h-1.631l-.039-1.865a3.532,3.532,0,0,1-1.367,1.514,3.81,3.81,0,0,1-2.031.557,4.363,4.363,0,0,1-3.169-1.353,4.623,4.623,0,0,1-.967-1.587,5.8,5.8,0,0,1-.356-2.061,5.048,5.048,0,0,1,1.3-3.6,4.209,4.209,0,0,1,3.188-1.387,3.826,3.826,0,0,1,2.007.542,3.552,3.552,0,0,1,1.372,1.47Zm-3.027,13.74a2.875,2.875,0,0,0,2.231-1.011,3.964,3.964,0,0,0,0-5.044,2.873,2.873,0,0,0-2.227-1.016,2.938,2.938,0,0,0-2.246.981,4.044,4.044,0,0,0,0,5.107A2.938,2.938,0,0,0,352.656,86.74Zm16.553-3.73-.02.459h-7.5a3.392,3.392,0,0,0,.918,2.456,3.014,3.014,0,0,0,2.188.854,2.878,2.878,0,0,0,1.592-.459,2.978,2.978,0,0,0,1.094-1.27l1.523.322a4.33,4.33,0,0,1-1.641,2.061,4.476,4.476,0,0,1-2.549.752,4.637,4.637,0,0,1-3.457-1.338,5.7,5.7,0,0,1,0-7.295,4.58,4.58,0,0,1,3.4-1.338,4.334,4.334,0,0,1,3.228,1.23A4.862,4.862,0,0,1,369.209,83.01Zm-4.443-3.5a2.994,2.994,0,0,0-2,.679,3.11,3.11,0,0,0-1.011,1.978h5.752a2.852,2.852,0,0,0-.84-1.978A2.712,2.712,0,0,0,364.766,79.514ZM6.807,101.215A4.183,4.183,0,0,1,9.98,102.6a5.678,5.678,0,0,1,.01,7.217,4.174,4.174,0,0,1-3.184,1.387,3.853,3.853,0,0,1-2.046-.557,3.523,3.523,0,0,1-1.372-1.514L3.35,111H1.719V96H3.4l.01,7.236a3.538,3.538,0,0,1,1.372-1.479A3.862,3.862,0,0,1,6.807,101.215Zm-.371,8.525a2.938,2.938,0,0,0,2.246-.981,4.044,4.044,0,0,0,0-5.107,2.938,2.938,0,0,0-2.246-.981,2.873,2.873,0,0,0-2.227,1.016,3.964,3.964,0,0,0,0,5.044A2.875,2.875,0,0,0,6.436,109.74Zm8.359-10.6A1.15,1.15,0,0,1,13.652,98a1.083,1.083,0,0,1,.337-.8,1.108,1.108,0,0,1,.806-.332,1.1,1.1,0,0,1,.8.332,1.083,1.083,0,0,1,.337.8,1.1,1.1,0,0,1-.337.806A1.088,1.088,0,0,1,14.795,99.145ZM13.936,111v-9.6h1.7V111Zm10.225-9.785a4.183,4.183,0,0,1,3.174,1.387,5.678,5.678,0,0,1,.01,7.217,4.174,4.174,0,0,1-3.184,1.387,3.853,3.853,0,0,1-2.046-.557,3.523,3.523,0,0,1-1.372-1.514L20.7,111H19.072V96h1.68l.01,7.236a3.538,3.538,0,0,1,1.372-1.479A3.862,3.862,0,0,1,24.16,101.215Zm-.371,8.525a2.938,2.938,0,0,0,2.246-.981,4.044,4.044,0,0,0,0-5.107,2.938,2.938,0,0,0-2.246-.981,2.873,2.873,0,0,0-2.227,1.016,3.964,3.964,0,0,0,0,5.044A2.875,2.875,0,0,0,23.789,109.74Zm7.5,1.26V96H33v15Zm6.006-11.855A1.15,1.15,0,0,1,36.152,98a1.083,1.083,0,0,1,.337-.8,1.108,1.108,0,0,1,.806-.332,1.1,1.1,0,0,1,.8.332,1.083,1.083,0,0,1,.337.8,1.1,1.1,0,0,1-.337.806A1.088,1.088,0,0,1,37.295,99.145ZM36.436,111v-9.6h1.7V111Zm9.18.186a5.06,5.06,0,0,1-2.461-.6,4.338,4.338,0,0,1-1.733-1.743,5.354,5.354,0,0,1-.64-2.651,4.89,4.89,0,0,1,1.362-3.618,5.111,5.111,0,0,1,6.948,0,5.506,5.506,0,0,1,0,7.246A4.7,4.7,0,0,1,45.615,111.186Zm-.01-1.406a2.948,2.948,0,0,0,2.271-.986,4.173,4.173,0,0,0,0-5.186,2.948,2.948,0,0,0-2.271-.986,2.908,2.908,0,0,0-2.251.986,4.208,4.208,0,0,0,0,5.186A2.908,2.908,0,0,0,45.605,109.779ZM56.162,111a2.523,2.523,0,0,1-1.875-.688,2.6,2.6,0,0,1-.684-1.919v-5.645H51.641V101.4h.723a1.387,1.387,0,0,0,1.06-.337,1.658,1.658,0,0,0,.308-1.128V98.2H55.3v3.2H57.51v1.348H55.3v5.469a1.455,1.455,0,0,0,.366,1.06,1.282,1.282,0,0,0,.962.376h.879V111Zm12.07-4.99-.02.459h-7.5a3.392,3.392,0,0,0,.918,2.456,3.014,3.014,0,0,0,2.188.854,2.878,2.878,0,0,0,1.592-.459,2.978,2.978,0,0,0,1.094-1.27l1.523.322a4.33,4.33,0,0,1-1.641,2.061,4.476,4.476,0,0,1-2.549.752,4.637,4.637,0,0,1-3.457-1.338,5.7,5.7,0,0,1,0-7.295,4.58,4.58,0,0,1,3.4-1.338,4.334,4.334,0,0,1,3.228,1.23A4.862,4.862,0,0,1,68.232,106.01Zm-4.443-3.5a2.994,2.994,0,0,0-2,.679,3.11,3.11,0,0,0-1.011,1.978h5.752a2.852,2.852,0,0,0-.84-1.978A2.712,2.712,0,0,0,63.789,102.514Zm11.074,8.662a4.624,4.624,0,0,1-3.437-1.377,5.469,5.469,0,0,1,0-7.207,5,5,0,0,1,6.221-.537,4.238,4.238,0,0,1,1.616,2.334l-1.582.254a2.922,2.922,0,0,0-1.084-1.494,2.952,2.952,0,0,0-1.738-.527,2.838,2.838,0,0,0-2.222.986,4.261,4.261,0,0,0,0,5.171,2.844,2.844,0,0,0,2.222.981,2.952,2.952,0,0,0,1.738-.527,2.922,2.922,0,0,0,1.084-1.494l1.582.264a4.243,4.243,0,0,1-1.626,2.329A4.65,4.65,0,0,1,74.863,111.176Zm9.1.01a3.267,3.267,0,0,1-2.1-.659,2.367,2.367,0,0,1-.825-1.968A2.8,2.8,0,0,1,81.3,107.3a2.212,2.212,0,0,1,.781-.874,4.686,4.686,0,0,1,1.128-.542,10.427,10.427,0,0,1,1.46-.347l1.553-.254q.85-.156.85-.889a1.678,1.678,0,0,0-.6-1.431,2.447,2.447,0,0,0-1.519-.454,2.493,2.493,0,0,0-1.5.439,1.839,1.839,0,0,0-.713,1.348l-1.523-.322a2.932,2.932,0,0,1,1.2-2.056,4.488,4.488,0,0,1,2.617-.688,5.308,5.308,0,0,1,1.392.171,3.782,3.782,0,0,1,1.162.537,2.409,2.409,0,0,1,.83,1.035,3.852,3.852,0,0,1,.3,1.577v3.965a1.622,1.622,0,0,0,.22,1,.949.949,0,0,0,.757.259h.156V111H89a1.6,1.6,0,0,1-1.816-1.3h-.078A3.668,3.668,0,0,1,83.965,111.186Zm.391-1.367a2.561,2.561,0,0,0,2.061-.928,3.819,3.819,0,0,0,.781-2.539l-2.539.488a3.418,3.418,0,0,0-1.489.532,1.238,1.238,0,0,0-.483,1.05,1.224,1.224,0,0,0,.464,1.055A1.983,1.983,0,0,0,84.355,109.818Zm10.908,1.367a4.551,4.551,0,0,1-2.588-.693,2.868,2.868,0,0,1-1.26-1.973l1.475-.42a2.057,2.057,0,0,0,.786,1.333,2.55,2.55,0,0,0,1.577.474,3.147,3.147,0,0,0,.923-.127,1.479,1.479,0,0,0,.708-.474,1.321,1.321,0,0,0,.205-1.27,1.7,1.7,0,0,0-.156-.317.967.967,0,0,0-.273-.264,3.606,3.606,0,0,0-.332-.205,3.408,3.408,0,0,0-.435-.181q-.288-.1-.464-.156t-.537-.156q-.361-.1-.557-.161a10.411,10.411,0,0,1-1-.352,4.369,4.369,0,0,1-.811-.464,1.866,1.866,0,0,1-.63-.757,2.561,2.561,0,0,1-.21-1.074,2.482,2.482,0,0,1,.469-1.533,2.637,2.637,0,0,1,1.216-.9,4.86,4.86,0,0,1,1.7-.278,4.171,4.171,0,0,1,2.339.625,2.668,2.668,0,0,1,1.167,1.875l-1.387.352a1.839,1.839,0,0,0-.732-1.216,2.332,2.332,0,0,0-1.377-.405,2.377,2.377,0,0,0-1.289.337,1.132,1.132,0,0,0-.537,1.03,1.025,1.025,0,0,0,.142.532,1.69,1.69,0,0,0,.288.376,1.771,1.771,0,0,0,.527.288q.381.151.566.205t.7.181q.1.029.146.039.566.146.923.259a5.672,5.672,0,0,1,.83.352,2.76,2.76,0,0,1,.747.522,2.421,2.421,0,0,1,.469.742,2.62,2.62,0,0,1,.2,1.035,2.8,2.8,0,0,1-.288,1.294,2.253,2.253,0,0,1-.786.884,3.8,3.8,0,0,1-1.118.483A5.327,5.327,0,0,1,95.264,111.186Zm16.074,0a6.276,6.276,0,0,1-3.589-.972,4.113,4.113,0,0,1-1.792-2.671l1.768-.42a2.9,2.9,0,0,0,1.24,1.875,4.194,4.194,0,0,0,2.432.684,5.073,5.073,0,0,0,.908-.078,3.474,3.474,0,0,0,.825-.259,2.527,2.527,0,0,0,.679-.444,1.855,1.855,0,0,0,.449-.674,2.307,2.307,0,0,0,.156-.918,1.985,1.985,0,0,0-.122-.649,2.061,2.061,0,0,0-.273-.513,1.842,1.842,0,0,0-.464-.415A6.216,6.216,0,0,0,113,105.4a5.032,5.032,0,0,0-.688-.278q-.435-.146-.728-.229t-.791-.22q-.1-.029-.146-.039-.566-.146-.923-.254t-.854-.3a5.622,5.622,0,0,1-.815-.376,5.519,5.519,0,0,1-.669-.469,2.4,2.4,0,0,1-.552-.61,3.222,3.222,0,0,1-.332-.776,3.762,3.762,0,0,1,.508-3.086,3.742,3.742,0,0,1,1.65-1.289,5.991,5.991,0,0,1,2.271-.41,6.217,6.217,0,0,1,3.306.845,3.764,3.764,0,0,1,1.753,2.5l-1.7.43a2.586,2.586,0,0,0-1.143-1.689A3.915,3.915,0,0,0,111,98.578a4.256,4.256,0,0,0-1.055.127,3.134,3.134,0,0,0-.913.391,1.9,1.9,0,0,0-.659.718,2.183,2.183,0,0,0-.244,1.05,1.688,1.688,0,0,0,.1.581,1.784,1.784,0,0,0,.244.464,1.738,1.738,0,0,0,.42.381,4.265,4.265,0,0,0,.513.3,5.2,5.2,0,0,0,.64.249q.4.132.684.215t.752.2a15.91,15.91,0,0,1,2.646.879,3.349,3.349,0,0,1,2.041,2.529,4.361,4.361,0,0,1,.039.6,3.843,3.843,0,0,1-.4,1.777,3.206,3.206,0,0,1-1.084,1.23,5.182,5.182,0,0,1-1.543.688A7.076,7.076,0,0,1,111.338,111.186Zm15.537-12.344h-5.586v4.5h4.922v1.572h-4.922v4.492h5.586V111H119.5V97.25h7.373Zm12.588-1.592H141.2V111h-1.846l-7.412-11.123V111h-1.719V97.25h1.826l7.412,11.074ZM154.346,111l-1.182-3.291h-6.221L145.771,111h-1.826l5.068-13.75h2.09L156.172,111Zm-6.846-4.834h5.117l-2.559-7.158Zm12.461,5.029a1.1,1.1,0,0,1-.8-.332,1.135,1.135,0,0,1,.8-1.934,1.1,1.1,0,0,1,.8.337,1.109,1.109,0,0,1,0,1.6A1.108,1.108,0,0,1,159.961,111.2Z" transform="translate(4026 -2992)" fill="#002b45"/>
    <path id="Trazado_20184" data-name="Trazado 20184" d="M9.691.234A9.452,9.452,0,0,1,6.24-.387,8.116,8.116,0,0,1,3.492-2.121a7.818,7.818,0,0,1-1.8-2.754,9.6,9.6,0,0,1-.656-3.6,9.172,9.172,0,0,1,1.125-4.6,7.659,7.659,0,0,1,3.088-3.041,9.246,9.246,0,0,1,4.447-1.055A8.986,8.986,0,0,1,14.66-15.8,7.506,7.506,0,0,1,17.7-12.023l-3.281,1.2A4.639,4.639,0,0,0,12.6-13.113a5.188,5.188,0,0,0-2.906-.82,4.974,4.974,0,0,0-3.7,1.477A5.433,5.433,0,0,0,4.535-8.473a5.441,5.441,0,0,0,1.459,3.99A4.968,4.968,0,0,0,9.691-3a5.169,5.169,0,0,0,2.9-.826,4.66,4.66,0,0,0,1.822-2.291l3.281,1.2A7.536,7.536,0,0,1,14.66-1.143,8.957,8.957,0,0,1,9.691.234Zm16.055,0A7.575,7.575,0,0,1,22.336-.5,5.518,5.518,0,0,1,20-2.672a6.461,6.461,0,0,1-.85-3.363,5.893,5.893,0,0,1,1.828-4.57,6.782,6.782,0,0,1,4.77-1.676,6.8,6.8,0,0,1,4.781,1.676,5.893,5.893,0,0,1,1.828,4.57,5.926,5.926,0,0,1-1.828,4.588A6.784,6.784,0,0,1,25.746.234Zm-.035-2.684A3.092,3.092,0,0,0,28.1-3.434,3.685,3.685,0,0,0,29-6.035a3.685,3.685,0,0,0-.908-2.6,3.092,3.092,0,0,0-2.385-.984,2.979,2.979,0,0,0-2.314.99,3.719,3.719,0,0,0-.9,2.6,3.719,3.719,0,0,0,.9,2.6A2.979,2.979,0,0,0,25.711-2.449Zm16.266-9.832A4.7,4.7,0,0,1,45.3-11.2a4.019,4.019,0,0,1,1.16,3.088V0H43.078V-7.383a2.1,2.1,0,0,0-.6-1.664,2.274,2.274,0,0,0-1.553-.527,3.172,3.172,0,0,0-1.008.152,2.589,2.589,0,0,0-.844.475,2.1,2.1,0,0,0-.6.908,4.2,4.2,0,0,0-.229,1.395V0H34.863V-12.047h3.375v1.336A4.642,4.642,0,0,1,41.977-12.281Zm12,12.516a6.732,6.732,0,0,1-3.516-.844,3.566,3.566,0,0,1-1.723-2.508l2.824-.8a2.269,2.269,0,0,0,2.414,1.793,2.493,2.493,0,0,0,1.23-.275.959.959,0,0,0,.48-.932.985.985,0,0,0-.2-.621,1.578,1.578,0,0,0-.615-.445,7.665,7.665,0,0,0-.82-.316q-.4-.129-1.072-.311t-1.113-.346a7.458,7.458,0,0,1-1.061-.451,4.524,4.524,0,0,1-.879-.621,2.5,2.5,0,0,1-.656-.943,3.4,3.4,0,0,1-.229-1.289,3.078,3.078,0,0,1,1.307-2.7,5.838,5.838,0,0,1,3.416-.914,5.986,5.986,0,0,1,3.152.773,3.5,3.5,0,0,1,1.617,2.414l-2.613.586a2.047,2.047,0,0,0-2.145-1.523,2.348,2.348,0,0,0-1.184.27.866.866,0,0,0-.469.8.913.913,0,0,0,.07.363.719.719,0,0,0,.246.293,3.589,3.589,0,0,0,.34.223,2.564,2.564,0,0,0,.48.193q.316.1.527.152t.615.158l.627.164q.645.176,1.131.352a6.623,6.623,0,0,1,1.037.492,3.722,3.722,0,0,1,.908.709,3.162,3.162,0,0,1,.592,1,3.679,3.679,0,0,1,.234,1.342,3.624,3.624,0,0,1-.4,1.746A3.035,3.035,0,0,1,57.422-.6a5.39,5.39,0,0,1-1.564.633A8.116,8.116,0,0,1,53.977.234ZM69.34-12.047h3.375V0h-3.2l-.082-1.453A4.6,4.6,0,0,1,65.6.234,4.7,4.7,0,0,1,62.273-.85a4.019,4.019,0,0,1-1.16-3.088v-8.109H64.5v7.383a2.082,2.082,0,0,0,.6,1.652,2.291,2.291,0,0,0,1.564.527,2.717,2.717,0,0,0,1.916-.686A2.945,2.945,0,0,0,69.34-5.4ZM76.207,0V-18h3.41V0ZM87.6,0a3.638,3.638,0,0,1-2.719-.979,3.806,3.806,0,0,1-.961-2.783v-5.7H81.551v-2.59h.762a1.988,1.988,0,0,0,1.5-.5,2.6,2.6,0,0,0,.48-1.793v-1.594H87.34v3.891h2.484v2.59H87.34v5.332q0,1.559,1.395,1.559h1.09V0ZM102.27-3.27a11.27,11.27,0,0,0,.293,2.941V0H99.41l-.27-1.312a3.917,3.917,0,0,1-1.687,1.16,6.219,6.219,0,0,1-2.18.387A5.732,5.732,0,0,1,94.148.129a3.824,3.824,0,0,1-1.014-.357A3.076,3.076,0,0,1,92.3-.855a2.749,2.749,0,0,1-.562-.955,3.8,3.8,0,0,1-.211-1.307,3.623,3.623,0,0,1,.223-1.307,3.063,3.063,0,0,1,.586-.979,3.554,3.554,0,0,1,.949-.715,7.263,7.263,0,0,1,1.2-.516,14.282,14.282,0,0,1,1.43-.375l1.98-.445a2.184,2.184,0,0,0,.9-.381.76.76,0,0,0,.264-.6,1.243,1.243,0,0,0-.592-1.16,2.763,2.763,0,0,0-1.436-.352,2.066,2.066,0,0,0-2.355,1.84l-2.988-.539A4.045,4.045,0,0,1,93.422-11.4a6.94,6.94,0,0,1,3.785-.885q5.063,0,5.063,4.348ZM96.328-2.051a2.714,2.714,0,0,0,2.086-.873,3.679,3.679,0,0,0,.809-2.584L96.363-4.7a3.379,3.379,0,0,0-1.2.492,1.011,1.011,0,0,0-.416.867,1.122,1.122,0,0,0,.445.955A1.843,1.843,0,0,0,96.328-2.051Zm22.535-10.23a5.829,5.829,0,0,1,2.238.434,5.585,5.585,0,0,1,1.846,1.225A5.582,5.582,0,0,1,124.2-8.637,7.327,7.327,0,0,1,124.652-6a7.327,7.327,0,0,1-.457,2.637,5.582,5.582,0,0,1-1.248,1.986A5.585,5.585,0,0,1,121.1-.152a5.829,5.829,0,0,1-2.238.434,5.2,5.2,0,0,1-2.279-.486,3.369,3.369,0,0,1-1.518-1.365L114.984,0h-3.2V-18h3.375v7.418a3.363,3.363,0,0,1,1.506-1.254A5.3,5.3,0,0,1,118.863-12.281Zm-.785,9.762a3.036,3.036,0,0,0,2.291-.949A3.509,3.509,0,0,0,121.277-6a3.525,3.525,0,0,0-.908-2.543,3.036,3.036,0,0,0-2.291-.949,3,3,0,0,0-2.273.967A3.526,3.526,0,0,0,114.891-6a3.518,3.518,0,0,0,.908,2.52A3,3,0,0,0,118.078-2.52Zm10.84-11.332a1.9,1.9,0,0,1-1.383-.568,1.866,1.866,0,0,1-.574-1.377,1.843,1.843,0,0,1,.58-1.365,1.9,1.9,0,0,1,1.377-.568,1.868,1.868,0,0,1,1.359.568,1.852,1.852,0,0,1,.574,1.365,1.866,1.866,0,0,1-.574,1.377A1.868,1.868,0,0,1,128.918-13.852ZM127.2,0V-12.047h3.4V0Zm13.969-12.281a5.829,5.829,0,0,1,2.238.434,5.585,5.585,0,0,1,1.846,1.225A5.582,5.582,0,0,1,146.5-8.637,7.327,7.327,0,0,1,146.953-6a7.327,7.327,0,0,1-.457,2.637,5.582,5.582,0,0,1-1.248,1.986A5.585,5.585,0,0,1,143.4-.152a5.829,5.829,0,0,1-2.238.434,5.2,5.2,0,0,1-2.279-.486,3.369,3.369,0,0,1-1.518-1.365L137.285,0h-3.2V-18h3.375v7.418a3.363,3.363,0,0,1,1.506-1.254A5.3,5.3,0,0,1,141.164-12.281Zm-.785,9.762a3.036,3.036,0,0,0,2.291-.949A3.509,3.509,0,0,0,143.578-6a3.525,3.525,0,0,0-.908-2.543,3.036,3.036,0,0,0-2.291-.949,3,3,0,0,0-2.273.967A3.526,3.526,0,0,0,137.191-6a3.518,3.518,0,0,0,.908,2.52A3,3,0,0,0,140.379-2.52ZM149.5,0V-18h3.41V0Zm8.625-13.852a1.9,1.9,0,0,1-1.383-.568,1.866,1.866,0,0,1-.574-1.377,1.843,1.843,0,0,1,.58-1.365,1.9,1.9,0,0,1,1.377-.568,1.868,1.868,0,0,1,1.359.568,1.852,1.852,0,0,1,.574,1.365,1.866,1.866,0,0,1-.574,1.377A1.868,1.868,0,0,1,158.121-13.852ZM156.4,0V-12.047h3.4V0Zm12.5.234a7.575,7.575,0,0,1-3.41-.738,5.518,5.518,0,0,1-2.338-2.168,6.461,6.461,0,0,1-.85-3.363,5.893,5.893,0,0,1,1.828-4.57,6.782,6.782,0,0,1,4.77-1.676,6.8,6.8,0,0,1,4.781,1.676,5.893,5.893,0,0,1,1.828,4.57,5.926,5.926,0,0,1-1.828,4.588A6.784,6.784,0,0,1,168.9.234Zm-.035-2.684a3.092,3.092,0,0,0,2.385-.984,3.685,3.685,0,0,0,.908-2.6,3.685,3.685,0,0,0-.908-2.6,3.092,3.092,0,0,0-2.385-.984,2.979,2.979,0,0,0-2.314.99,3.719,3.719,0,0,0-.9,2.6,3.719,3.719,0,0,0,.9,2.6A2.979,2.979,0,0,0,168.867-2.449Zm17.449-9.6h3.211V-.9a9.012,9.012,0,0,1-.451,3,4.948,4.948,0,0,1-1.307,2.057,5.446,5.446,0,0,1-2,1.154,8.448,8.448,0,0,1-2.625.375q-4.77,0-6.211-3.738l2.8-1.2a4.087,4.087,0,0,0,1.3,1.746,3.316,3.316,0,0,0,1.98.563q3.129,0,3.129-3.715V-2.062a3.8,3.8,0,0,1-1.518,1.189,5.045,5.045,0,0,1-2.139.451,5.331,5.331,0,0,1-2.115-.428,5.373,5.373,0,0,1-1.752-1.2,5.565,5.565,0,0,1-1.189-1.893,6.641,6.641,0,0,1-.439-2.437,6.628,6.628,0,0,1,.439-2.443,5.341,5.341,0,0,1,1.2-1.869,5.5,5.5,0,0,1,1.758-1.172,5.425,5.425,0,0,1,2.127-.422,4.9,4.9,0,0,1,2.232.5,3.56,3.56,0,0,1,1.494,1.33Zm-5.174,7.969a2.954,2.954,0,0,0,2.209.926,2.954,2.954,0,0,0,2.215-.937,3.172,3.172,0,0,0,.9-2.285,3.2,3.2,0,0,0-.9-2.3,2.949,2.949,0,0,0-2.221-.937,2.953,2.953,0,0,0-2.221.92,3.2,3.2,0,0,0-.885,2.314A3.172,3.172,0,0,0,181.143-4.078Zm15.123-6.059a3.911,3.911,0,0,1,1.582-1.447,4.827,4.827,0,0,1,2.355-.6v3.012a4.564,4.564,0,0,0-2.883.727,3.172,3.172,0,0,0-.891,2.578V0h-3.4V-12.047h3.234Zm14.414-6.7L208.02-13.7h-2.074l3.07-4.312Zm1.313,13.57a11.27,11.27,0,0,0,.293,2.941V0h-3.152l-.27-1.312a3.917,3.917,0,0,1-1.687,1.16A6.219,6.219,0,0,1,205,.234a5.732,5.732,0,0,1-1.125-.105,3.824,3.824,0,0,1-1.014-.357,3.076,3.076,0,0,1-.838-.627,2.749,2.749,0,0,1-.562-.955,3.8,3.8,0,0,1-.211-1.307,3.623,3.623,0,0,1,.223-1.307,3.063,3.063,0,0,1,.586-.979A3.554,3.554,0,0,1,203-6.117a7.263,7.263,0,0,1,1.2-.516,14.282,14.282,0,0,1,1.43-.375l1.98-.445a2.184,2.184,0,0,0,.9-.381.76.76,0,0,0,.264-.6,1.243,1.243,0,0,0-.592-1.16,2.763,2.763,0,0,0-1.436-.352,2.066,2.066,0,0,0-2.355,1.84L201.4-8.648a4.045,4.045,0,0,1,1.746-2.748,6.94,6.94,0,0,1,3.785-.885q5.063,0,5.063,4.348Zm-5.941,1.219a2.714,2.714,0,0,0,2.086-.873,3.679,3.679,0,0,0,.809-2.584l-2.859.809a3.379,3.379,0,0,0-1.2.492,1.011,1.011,0,0,0-.416.867,1.122,1.122,0,0,0,.445.955A1.843,1.843,0,0,0,206.051-2.051Zm10.066-11.3a7.045,7.045,0,0,1,.152-1.535,4.672,4.672,0,0,1,.41-1.166,2.729,2.729,0,0,1,.686-.838,4.045,4.045,0,0,1,.891-.562,5.089,5.089,0,0,1,1.107-.34,9.714,9.714,0,0,1,1.271-.17Q221.262-18,222.07-18v2.7H222q-.328,0-.5.006t-.48.041a1.945,1.945,0,0,0-.486.105,2.478,2.478,0,0,0-.4.217,1.079,1.079,0,0,0-.352.352,2.124,2.124,0,0,0-.211.521,2.722,2.722,0,0,0-.088.727v1.289h2.59v2.59h-2.59V0h-3.363V-9.457h-2.355v-2.59h2.355Zm9.586-.5a1.9,1.9,0,0,1-1.383-.568,1.866,1.866,0,0,1-.574-1.377,1.843,1.843,0,0,1,.58-1.365,1.9,1.9,0,0,1,1.377-.568,1.868,1.868,0,0,1,1.359.568,1.852,1.852,0,0,1,.574,1.365,1.866,1.866,0,0,1-.574,1.377A1.868,1.868,0,0,1,225.7-13.852ZM223.98,0V-12.047h3.4V0Zm12.34.223a6.436,6.436,0,0,1-4.652-1.734,5.99,5.99,0,0,1-1.8-4.523,5.977,5.977,0,0,1,1.8-4.523,6.456,6.456,0,0,1,4.658-1.723,6.419,6.419,0,0,1,3.9,1.16,5.18,5.18,0,0,1,2.016,3.27l-3.117.34a2.671,2.671,0,0,0-1.008-1.582,3.064,3.064,0,0,0-1.828-.527,2.763,2.763,0,0,0-2.2.984,3.859,3.859,0,0,0-.844,2.6,3.864,3.864,0,0,0,.844,2.6,2.756,2.756,0,0,0,2.2.99,3.038,3.038,0,0,0,1.822-.527,2.733,2.733,0,0,0,1.014-1.582l3.117.34a5.194,5.194,0,0,1-2.033,3.27A6.393,6.393,0,0,1,236.32.223Zm18.2-3.492a11.27,11.27,0,0,0,.293,2.941V0H251.66l-.27-1.312A3.917,3.917,0,0,1,249.7-.152a6.219,6.219,0,0,1-2.18.387A5.732,5.732,0,0,1,246.4.129a3.824,3.824,0,0,1-1.014-.357,3.076,3.076,0,0,1-.838-.627,2.749,2.749,0,0,1-.562-.955,3.8,3.8,0,0,1-.211-1.307A3.623,3.623,0,0,1,244-4.424a3.063,3.063,0,0,1,.586-.979,3.554,3.554,0,0,1,.949-.715,7.263,7.263,0,0,1,1.2-.516,14.282,14.282,0,0,1,1.43-.375l1.98-.445a2.184,2.184,0,0,0,.9-.381.76.76,0,0,0,.264-.6,1.243,1.243,0,0,0-.592-1.16,2.763,2.763,0,0,0-1.436-.352,2.066,2.066,0,0,0-2.355,1.84l-2.988-.539a4.045,4.045,0,0,1,1.746-2.748,6.94,6.94,0,0,1,3.785-.885q5.063,0,5.063,4.348Zm-5.941,1.219a2.714,2.714,0,0,0,2.086-.873,3.679,3.679,0,0,0,.809-2.584l-2.859.809a3.379,3.379,0,0,0-1.2.492A1.011,1.011,0,0,0,247-3.34a1.122,1.122,0,0,0,.445.955A1.843,1.843,0,0,0,248.578-2.051Z" transform="translate(4038 -3013)" fill="#002b45"/>
  </g>
</svg>
