<svg xmlns="http://www.w3.org/2000/svg" width="742.619" height="330" viewBox="0 0 742.619 330">
  <g id="Grupo_13666" data-name="Grupo 13666" transform="translate(-3610.432 5313)">
    <g id="Grupo_13665" data-name="Grupo 13665" transform="translate(1585 -5976.256)">
      <path id="Trazado_19920" data-name="Trazado 19920" d="M2860.673,990.258H2840.1a12.243,12.243,0,0,1,0-24.486h20.574a12.243,12.243,0,0,1,0,24.486Z" transform="translate(-397.99 -150.038)" fill="#00b6ba"/>
      <g id="Grupo_13562" data-name="Grupo 13562" transform="translate(2025.432 663.256)">
        <g id="Grupo_13561" data-name="Grupo 13561" transform="translate(340.811 0.119)">
          <path id="Trazado_19921" data-name="Trazado 19921" d="M3068.532,953.185A165.08,165.08,0,0,1,2803.8,879.806a3.358,3.358,0,0,0-3.194-2.31h-28.395a12.416,12.416,0,0,1-12.466-12.464,12.216,12.216,0,0,1,12.213-11.967h40.505a12.216,12.216,0,0,1,12.146,10.929h0a140.332,140.332,0,1,0,.031-71.25h0a12.206,12.206,0,0,1-12.177,11.459h-53.755a12.415,12.415,0,0,1-12.465-12.465,12.215,12.215,0,0,1,12.213-11.966h42.015a3.362,3.362,0,0,0,3.2-2.32,164.975,164.975,0,1,1,264.855,175.734Z" transform="translate(-2723.744 -663.492)" fill="#414042"/>
          <circle id="Elipse_535" data-name="Elipse 535" cx="12.216" cy="12.216" r="12.216" transform="translate(0 189.573)" fill="#414042"/>
        </g>
        <path id="Trazado_19922" data-name="Trazado 19922" d="M2407.1,815.9H2360.39a6.033,6.033,0,0,1-6.007-5.383c-.012-.111-.024-.222-.036-.334a5.857,5.857,0,0,1,5.817-6.5h0a12.407,12.407,0,0,0,12.5-11.77,12.216,12.216,0,0,0-12.208-12.662h-8.1a6.055,6.055,0,0,1-5.73-4.129,165.153,165.153,0,1,0,7.769,70.666,6.065,6.065,0,0,1,6.016-5.459h46.984a12.216,12.216,0,0,0,12.208-12.661A12.407,12.407,0,0,0,2407.1,815.9Zm-117.37,111.653a140.509,140.509,0,1,1,41.154-99.355A139.589,139.589,0,0,1,2289.728,927.551Z" transform="translate(-2025.432 -663.256)" fill="#00b6ba"/>
      </g>
      <g id="Grupo_13563" data-name="Grupo 13563" transform="translate(2461.607 687.073)">
        <path id="Trazado_19923" data-name="Trazado 19923" d="M3031.926,710.509a141.123,141.123,0,1,0,99.789,41.334A140.2,140.2,0,0,0,3031.926,710.509Z" transform="translate(-2890.803 -710.509)" fill="#f4f5f5"/>
      </g>
      <g id="Grupo_13564" data-name="Grupo 13564" transform="translate(2049.25 687.073)">
        <path id="Trazado_19924" data-name="Trazado 19924" d="M2213.809,710.509a141.122,141.122,0,1,1-99.79,41.334A140.2,140.2,0,0,1,2213.809,710.509Z" transform="translate(-2072.686 -710.509)" fill="#f4f5f5"/>
      </g>
    </g>
    <path id="Trazado_20174" data-name="Trazado 20174" d="M36.8,15h2.592V3.8H36.8ZM47.1,6.264A3.769,3.769,0,0,0,44.256,7.4V6.392H41.872V15h2.5V10.744c0-1.584.864-2.32,2.064-2.32,1.1,0,1.744.64,1.744,2.032V15h2.5V10.072C50.672,7.448,49.136,6.264,47.1,6.264Zm8.72,8.864c2.576,0,4.064-1.136,4.064-2.736,0-3.392-5.2-1.968-5.2-3.44,0-.448.48-.8,1.6-.8a4.943,4.943,0,0,1,2.48.64L59.6,7.016a7.078,7.078,0,0,0-3.312-.752c-2.512,0-3.984,1.152-3.984,2.784,0,3.44,5.2,2,5.2,3.408,0,.48-.432.784-1.584.784a5.889,5.889,0,0,1-2.992-.832L52.1,14.2A7.39,7.39,0,0,0,55.824,15.128ZM66.512,6.264a3.345,3.345,0,0,0-2.7,1.12V6.392H61.424V18.1h2.5V14.088a3.342,3.342,0,0,0,2.592,1.04A4.181,4.181,0,0,0,70.8,10.7,4.181,4.181,0,0,0,66.512,6.264ZM66.08,13.08A2.172,2.172,0,0,1,63.888,10.7a2.2,2.2,0,1,1,4.384,0A2.172,2.172,0,0,1,66.08,13.08ZM80.9,10.728a4.261,4.261,0,0,0-4.48-4.464A4.382,4.382,0,0,0,71.824,10.7c0,2.56,1.936,4.432,4.912,4.432a4.508,4.508,0,0,0,3.552-1.392L78.96,12.3a2.918,2.918,0,0,1-2.16.832A2.3,2.3,0,0,1,74.336,11.4h6.512C80.864,11.192,80.9,10.92,80.9,10.728ZM76.432,8.152a2.045,2.045,0,0,1,2.112,1.792H74.3A2.038,2.038,0,0,1,76.432,8.152ZM86.72,15.128a3.993,3.993,0,0,0,3.856-2.176L88.64,11.9A2.118,2.118,0,0,1,86.7,13.08,2.2,2.2,0,0,1,84.448,10.7,2.2,2.2,0,0,1,86.7,8.312,2.146,2.146,0,0,1,88.64,9.5l1.936-1.04A3.954,3.954,0,0,0,86.72,6.264c-2.8,0-4.8,1.84-4.8,4.432S83.92,15.128,86.72,15.128Zm9.344,0a3.993,3.993,0,0,0,3.856-2.176L97.984,11.9a2.118,2.118,0,0,1-1.936,1.184A2.2,2.2,0,0,1,93.792,10.7a2.2,2.2,0,0,1,2.256-2.384A2.146,2.146,0,0,1,97.984,9.5l1.936-1.04a3.954,3.954,0,0,0-3.856-2.192c-2.8,0-4.8,1.84-4.8,4.432S93.264,15.128,96.064,15.128Zm6.544-9.936a1.435,1.435,0,0,0,1.552-1.44,1.4,1.4,0,0,0-1.552-1.344A1.427,1.427,0,0,0,101.056,3.8,1.427,1.427,0,0,0,102.608,5.192ZM101.36,15h2.5V6.392h-2.5Zm7.424-9.712h1.952l2.9-2.3h-2.688Zm1.488,9.84a4.442,4.442,0,1,0-4.736-4.432A4.418,4.418,0,0,0,110.272,15.128Zm0-2.048a2.184,2.184,0,0,1-2.208-2.384,2.207,2.207,0,1,1,4.4,0A2.172,2.172,0,0,1,110.272,13.08Zm11.616-6.816A3.769,3.769,0,0,0,119.04,7.4V6.392h-2.384V15h2.5V10.744c0-1.584.864-2.32,2.064-2.32,1.1,0,1.744.64,1.744,2.032V15h2.5V10.072C125.456,7.448,123.92,6.264,121.888,6.264Zm13.824,0A6.617,6.617,0,0,0,132,7.3l.9,1.744a4.139,4.139,0,0,1,2.48-.8c1.344,0,1.984.624,1.984,1.7h-1.984c-2.624,0-3.7,1.056-3.7,2.576,0,1.488,1.2,2.608,3.216,2.608a2.825,2.825,0,0,0,2.624-1.2V15h2.336V10.088C139.856,7.48,138.336,6.264,135.712,6.264Zm-.192,7.184c-.88,0-1.408-.416-1.408-1.04,0-.576.368-1.008,1.536-1.008h1.712v.88A1.839,1.839,0,0,1,135.52,13.448ZM142.112,15h2.5V3.128h-2.5Zm8.3-11.2V5.88h2.24V15h2.592V3.8ZM162,15.192c2.768,0,4.8-2.1,4.8-5.792s-2.032-5.792-4.8-5.792c-2.752,0-4.8,2.1-4.8,5.792S159.248,15.192,162,15.192ZM162,13c-1.28,0-2.176-1.056-2.176-3.6s.9-3.6,2.176-3.6c1.3,0,2.192,1.056,2.192,3.6S163.3,13,162,13Zm10.864,2.192c2.768,0,4.8-2.1,4.8-5.792s-2.032-5.792-4.8-5.792c-2.752,0-4.8,2.1-4.8,5.792S170.112,15.192,172.864,15.192Zm0-2.192c-1.28,0-2.176-1.056-2.176-3.6s.9-3.6,2.176-3.6c1.3,0,2.192,1.056,2.192,3.6S174.16,13,172.864,13Zm8.656-3.152a2.767,2.767,0,0,0,2.768-3.088,2.792,2.792,0,1,0-5.552,0A2.786,2.786,0,0,0,181.52,9.848ZM180.544,15h1.9L190.1,3.8h-1.9Zm.976-6.464c-.688,0-1.168-.592-1.168-1.776s.48-1.776,1.168-1.776c.7,0,1.168.576,1.168,1.776S182.224,8.536,181.52,8.536Zm7.6,6.592A2.786,2.786,0,0,0,191.9,12.04a2.792,2.792,0,1,0-5.552,0A2.783,2.783,0,0,0,189.12,15.128Zm0-1.312c-.688,0-1.168-.576-1.168-1.776s.48-1.776,1.168-1.776c.7,0,1.168.592,1.168,1.776S189.824,13.816,189.12,13.816Zm5.312-4.432a1.527,1.527,0,0,0,1.552-1.568,1.552,1.552,0,0,0-3.1,0A1.527,1.527,0,0,0,194.432,9.384Zm0,5.744a1.527,1.527,0,0,0,1.552-1.568,1.552,1.552,0,0,0-3.1,0A1.527,1.527,0,0,0,194.432,15.128ZM7.808,53.08c2.192,0,3.472-.944,3.472-2.4,0-3.232-5.456-1.52-5.456-3.792,0-.8.672-1.392,2.192-1.392a4.314,4.314,0,0,1,2.48.72l.5-.912a5.7,5.7,0,0,0-2.976-.784c-2.144,0-3.328,1.024-3.328,2.4,0,3.328,5.456,1.6,5.456,3.792,0,.832-.656,1.376-2.256,1.376A5.083,5.083,0,0,1,4.9,51.144l-.512.9A5.622,5.622,0,0,0,7.808,53.08ZM20.72,48.792a4.01,4.01,0,0,0-4.08-4.272,4.053,4.053,0,0,0-4.112,4.272,4.168,4.168,0,0,0,4.416,4.288A4.143,4.143,0,0,0,20.192,51.7l-.64-.736a3.317,3.317,0,0,1-2.576,1.1,3.115,3.115,0,0,1-3.312-2.928H20.7C20.7,49.016,20.72,48.888,20.72,48.792Zm-4.08-3.3a2.927,2.927,0,0,1,2.992,2.8H13.664A2.923,2.923,0,0,1,16.64,45.5Zm17.136-4.368v5.056a3.676,3.676,0,0,0-3.2-1.664,4.281,4.281,0,0,0,0,8.56,3.646,3.646,0,0,0,3.248-1.744V53h1.088V41.128Zm-3.1,10.944a3.284,3.284,0,1,1,3.12-3.28A3.081,3.081,0,0,1,30.672,52.072Zm14.752-3.28a4.01,4.01,0,0,0-4.08-4.272,4.053,4.053,0,0,0-4.112,4.272A4.449,4.449,0,0,0,44.9,51.7l-.64-.736a3.317,3.317,0,0,1-2.576,1.1,3.115,3.115,0,0,1-3.312-2.928h7.04C45.408,49.016,45.424,48.888,45.424,48.792Zm-4.08-3.3a2.927,2.927,0,0,1,2.992,2.8H38.368A2.923,2.923,0,0,1,41.344,45.5ZM50,53.08c2.192,0,3.472-.944,3.472-2.4,0-3.232-5.456-1.52-5.456-3.792,0-.8.672-1.392,2.192-1.392a4.314,4.314,0,0,1,2.48.72l.5-.912a5.7,5.7,0,0,0-2.976-.784c-2.144,0-3.328,1.024-3.328,2.4,0,3.328,5.456,1.6,5.456,3.792,0,.832-.656,1.376-2.256,1.376a5.083,5.083,0,0,1-2.992-.944l-.512.9A5.622,5.622,0,0,0,50,53.08Zm9.056,0a3.71,3.71,0,0,0,3.3-1.664L61.5,50.84a2.847,2.847,0,0,1-2.448,1.232,3.281,3.281,0,0,1,0-6.56A2.861,2.861,0,0,1,61.5,46.76l.848-.576a3.676,3.676,0,0,0-3.3-1.664,4.28,4.28,0,1,0,0,8.56Zm6.608-6.848V44.584H64.576V53h1.136V48.712c0-1.984,1.072-3.1,2.832-3.1.08,0,.176.016.272.016v-1.1A3.174,3.174,0,0,0,65.664,46.232Zm5.776-3.488a.816.816,0,0,0,.832-.832.807.807,0,0,0-.832-.784.808.808,0,1,0,0,1.616ZM70.864,53H72V44.584H70.864Zm8.64-8.48a3.676,3.676,0,0,0-3.2,1.664V41.128H75.168V53h1.088V51.336A3.646,3.646,0,0,0,79.5,53.08a4.281,4.281,0,0,0,0-8.56Zm-.08,7.552a3.283,3.283,0,1,1,3.136-3.28A3.081,3.081,0,0,1,79.424,52.072Zm13.936-3.28a4.01,4.01,0,0,0-4.08-4.272,4.053,4.053,0,0,0-4.112,4.272A4.449,4.449,0,0,0,92.832,51.7l-.64-.736a3.317,3.317,0,0,1-2.576,1.1A3.115,3.115,0,0,1,86.3,49.144h7.04C93.344,49.016,93.36,48.888,93.36,48.792Zm-4.08-3.3a2.927,2.927,0,0,1,2.992,2.8H86.3A2.923,2.923,0,0,1,89.28,45.5Zm14.08,7.584a3.71,3.71,0,0,0,3.3-1.664l-.848-.576a2.847,2.847,0,0,1-2.448,1.232,3.281,3.281,0,0,1,0-6.56,2.861,2.861,0,0,1,2.448,1.248l.848-.576a3.676,3.676,0,0,0-3.3-1.664,4.28,4.28,0,1,0,0,8.56Zm8.816,0a4.28,4.28,0,1,0-4.288-4.288A4.14,4.14,0,0,0,112.176,53.08Zm0-1.008a3.284,3.284,0,1,1,3.12-3.28A3.081,3.081,0,0,1,112.176,52.072Zm17.088-7.552a3.665,3.665,0,0,0-3.328,1.776,3.023,3.023,0,0,0-2.992-1.776,3.4,3.4,0,0,0-3.088,1.6V44.584h-1.088V53H119.9V48.584a2.713,2.713,0,0,1,2.816-3.04c1.536,0,2.432.912,2.432,2.688V53h1.136V48.584c0-1.92,1.088-3.04,2.816-3.04,1.52,0,2.416.912,2.416,2.688V53h1.136V48.12C132.656,45.7,131.312,44.52,129.264,44.52Zm9.952,8.56a4.28,4.28,0,1,0-4.288-4.288A4.14,4.14,0,0,0,139.216,53.08Zm0-1.008a3.284,3.284,0,1,1,3.12-3.28A3.081,3.081,0,0,1,139.216,52.072ZM150,53h1.136V41.128H150Zm7.248-8.48a5.344,5.344,0,0,0-3.424,1.136l.512.848a4.287,4.287,0,0,1,2.8-.992c1.568,0,2.384.784,2.384,2.224v.512h-2.672c-2.416,0-3.248,1.088-3.248,2.384,0,1.456,1.168,2.448,3.072,2.448a3.16,3.16,0,0,0,2.9-1.392V53h1.088V47.784C160.656,45.608,159.424,44.52,157.248,44.52Zm-.4,7.664c-1.344,0-2.128-.608-2.128-1.584,0-.864.528-1.5,2.16-1.5h2.64v1.376A2.693,2.693,0,0,1,156.848,52.184Zm12.176-5.952V44.584h-1.088V53h1.136V48.712c0-1.984,1.072-3.1,2.832-3.1.08,0,.176.016.272.016v-1.1A3.174,3.174,0,0,0,169.024,46.232Zm12.464,2.56a4.01,4.01,0,0,0-4.08-4.272,4.053,4.053,0,0,0-4.112,4.272A4.449,4.449,0,0,0,180.96,51.7l-.64-.736a3.317,3.317,0,0,1-2.576,1.1,3.115,3.115,0,0,1-3.312-2.928h7.04C181.472,49.016,181.488,48.888,181.488,48.792Zm-4.08-3.3a2.927,2.927,0,0,1,2.992,2.8h-5.968A2.923,2.923,0,0,1,177.408,45.5Zm12.192-.912-3.184,7.168-3.152-7.168H182.08L185.808,53h1.168l3.744-8.416Zm3.3-1.84a.816.816,0,0,0,.832-.832.807.807,0,0,0-.832-.784.808.808,0,1,0,0,1.616ZM192.32,53h1.136V44.584H192.32Zm6.56.08c2.192,0,3.472-.944,3.472-2.4,0-3.232-5.456-1.52-5.456-3.792,0-.8.672-1.392,2.192-1.392a4.314,4.314,0,0,1,2.48.72l.5-.912a5.7,5.7,0,0,0-2.976-.784c-2.144,0-3.328,1.024-3.328,2.4,0,3.328,5.456,1.6,5.456,3.792,0,.832-.656,1.376-2.256,1.376a5.083,5.083,0,0,1-2.992-.944l-.512.9A5.622,5.622,0,0,0,198.88,53.08Zm6.144-10.336a.816.816,0,0,0,.832-.832.807.807,0,0,0-.832-.784.808.808,0,1,0,0,1.616ZM204.448,53h1.136V44.584h-1.136Zm6.688-9.712h1.12l2.592-1.984h-1.52Zm1.056,9.792a4.28,4.28,0,1,0-4.288-4.288A4.14,4.14,0,0,0,212.192,53.08Zm0-1.008a3.284,3.284,0,1,1,3.12-3.28A3.081,3.081,0,0,1,212.192,52.072Zm10.88-7.552a3.537,3.537,0,0,0-3.2,1.616V44.584h-1.088V53h1.136V48.584a2.759,2.759,0,0,1,2.944-3.04c1.6,0,2.528.912,2.528,2.688V53h1.136V48.12C226.528,45.7,225.12,44.52,223.072,44.52ZM48.936,60.128v5.056a3.676,3.676,0,0,0-3.2-1.664,4.281,4.281,0,0,0,0,8.56,3.646,3.646,0,0,0,3.248-1.744V72h1.088V60.128Zm-3.1,10.944a3.284,3.284,0,1,1,3.12-3.28A3.081,3.081,0,0,1,45.832,71.072Zm14.752-3.28A4.01,4.01,0,0,0,56.5,63.52a4.053,4.053,0,0,0-4.112,4.272A4.449,4.449,0,0,0,60.056,70.7l-.64-.736a3.317,3.317,0,0,1-2.576,1.1,3.115,3.115,0,0,1-3.312-2.928h7.04C60.568,68.016,60.584,67.888,60.584,67.792ZM56.5,64.5A2.927,2.927,0,0,1,59.5,67.3H53.528A2.923,2.923,0,0,1,56.5,64.5Zm14.08,7.584a3.71,3.71,0,0,0,3.3-1.664l-.848-.576a2.847,2.847,0,0,1-2.448,1.232,3.281,3.281,0,0,1,0-6.56,2.861,2.861,0,0,1,2.448,1.248l.848-.576a3.676,3.676,0,0,0-3.3-1.664,4.28,4.28,0,1,0,0,8.56Zm8.464-8.56a5.344,5.344,0,0,0-3.424,1.136l.512.848a4.287,4.287,0,0,1,2.8-.992c1.568,0,2.384.784,2.384,2.224v.512H78.648c-2.416,0-3.248,1.088-3.248,2.384,0,1.456,1.168,2.448,3.072,2.448a3.16,3.16,0,0,0,2.9-1.392V72h1.088V66.784C82.456,64.608,81.224,63.52,79.048,63.52Zm-.4,7.664c-1.344,0-2.128-.608-2.128-1.584,0-.864.528-1.5,2.16-1.5h2.64v1.376A2.693,2.693,0,0,1,78.648,71.184ZM92.12,60.128v5.056a3.676,3.676,0,0,0-3.2-1.664,4.281,4.281,0,0,0,0,8.56,3.646,3.646,0,0,0,3.248-1.744V72h1.088V60.128Zm-3.1,10.944a3.284,3.284,0,1,1,3.12-3.28A3.081,3.081,0,0,1,89.016,71.072ZM99.368,63.52a5.344,5.344,0,0,0-3.424,1.136l.512.848a4.287,4.287,0,0,1,2.8-.992c1.568,0,2.384.784,2.384,2.224v.512H98.968c-2.416,0-3.248,1.088-3.248,2.384,0,1.456,1.168,2.448,3.072,2.448a3.16,3.16,0,0,0,2.9-1.392V72h1.088V66.784C102.776,64.608,101.544,63.52,99.368,63.52Zm-.4,7.664c-1.344,0-2.128-.608-2.128-1.584,0-.864.528-1.5,2.16-1.5h2.64v1.376A2.693,2.693,0,0,1,98.968,71.184Zm17.536-7.6V68a2.737,2.737,0,0,1-2.864,3.056c-1.6,0-2.528-.912-2.528-2.7V63.584h-1.136v4.88a3.26,3.26,0,0,0,3.552,3.616,3.348,3.348,0,0,0,3.024-1.616V72h1.088V63.584Zm8.608-.064a3.537,3.537,0,0,0-3.2,1.616V63.584h-1.088V72h1.136V67.584a2.759,2.759,0,0,1,2.944-3.04c1.6,0,2.528.912,2.528,2.688V72h1.136V67.12C128.568,64.7,127.16,63.52,125.112,63.52Zm10.016,8.56a4.28,4.28,0,1,0-4.288-4.288A4.14,4.14,0,0,0,135.128,72.08Zm0-1.008a3.284,3.284,0,1,1,3.12-3.28A3.081,3.081,0,0,1,135.128,71.072Zm17.328-10.944v5.056a3.676,3.676,0,0,0-3.2-1.664,4.281,4.281,0,0,0,0,8.56,3.646,3.646,0,0,0,3.248-1.744V72h1.088V60.128Zm-3.1,10.944a3.284,3.284,0,1,1,3.12-3.28A3.081,3.081,0,0,1,149.352,71.072Zm14.752-3.28a4.01,4.01,0,0,0-4.08-4.272,4.053,4.053,0,0,0-4.112,4.272,4.449,4.449,0,0,0,7.664,2.912l-.64-.736a3.317,3.317,0,0,1-2.576,1.1,3.115,3.115,0,0,1-3.312-2.928h7.04C164.088,68.016,164.1,67.888,164.1,67.792Zm-4.08-3.3a2.927,2.927,0,0,1,2.992,2.8h-5.968A2.923,2.923,0,0,1,160.024,64.5ZM170.616,72h1.136V60.128h-1.136Zm7.744.08a4.28,4.28,0,1,0-4.288-4.288A4.14,4.14,0,0,0,178.36,72.08Zm0-1.008a3.284,3.284,0,1,1,3.12-3.28A3.081,3.081,0,0,1,178.36,71.072Zm8.848,1.008c2.192,0,3.472-.944,3.472-2.4,0-3.232-5.456-1.52-5.456-3.792,0-.8.672-1.392,2.192-1.392a4.314,4.314,0,0,1,2.48.72l.5-.912a5.7,5.7,0,0,0-2.976-.784c-2.144,0-3.328,1.024-3.328,2.4,0,3.328,5.456,1.6,5.456,3.792,0,.832-.656,1.376-2.256,1.376a5.083,5.083,0,0,1-2.992-.944l-.512.9A5.622,5.622,0,0,0,187.208,72.08ZM6.456,82.52a3.666,3.666,0,0,0-3.248,1.728V82.584H2.12V94.1H3.256V89.416a3.676,3.676,0,0,0,3.2,1.664,4.281,4.281,0,0,0,0-8.56Zm-.08,7.552a3.283,3.283,0,0,1,0-6.56,3.283,3.283,0,0,1,0,6.56Zm7.68-5.84V82.584H12.968V91H14.1V86.712c0-1.984,1.072-3.1,2.832-3.1.08,0,.176.016.272.016v-1.1A3.174,3.174,0,0,0,14.056,84.232Zm8.56,6.848a4.28,4.28,0,0,0,0-8.56,4.28,4.28,0,1,0,0,8.56Zm0-1.008a3.284,3.284,0,1,1,3.12-3.28A3.081,3.081,0,0,1,22.616,90.072ZM35.752,79.128v5.056a3.676,3.676,0,0,0-3.2-1.664,4.281,4.281,0,0,0,0,8.56A3.646,3.646,0,0,0,35.8,89.336V91h1.088V79.128Zm-3.1,10.944a3.284,3.284,0,1,1,3.12-3.28A3.081,3.081,0,0,1,32.648,90.072ZM46.5,82.584V87a2.737,2.737,0,0,1-2.864,3.056c-1.6,0-2.528-.912-2.528-2.7V82.584H39.976v4.88a3.26,3.26,0,0,0,3.552,3.616,3.348,3.348,0,0,0,3.024-1.616V91H47.64V82.584Zm7.808,8.5a3.71,3.71,0,0,0,3.3-1.664l-.848-.576a2.847,2.847,0,0,1-2.448,1.232,3.281,3.281,0,0,1,0-6.56A2.861,2.861,0,0,1,56.76,84.76l.848-.576a3.676,3.676,0,0,0-3.3-1.664,4.28,4.28,0,1,0,0,8.56Zm9.648-1.408a1.88,1.88,0,0,1-1.248.432,1.348,1.348,0,0,1-1.456-1.536V83.544h2.56v-.96h-2.56v-1.84H60.12v1.84h-1.5v.96h1.5v5.088a2.229,2.229,0,0,0,2.464,2.448,2.705,2.705,0,0,0,1.776-.592Zm5.6,1.408a4.28,4.28,0,1,0-4.288-4.288A4.14,4.14,0,0,0,69.56,91.08Zm0-1.008a3.284,3.284,0,1,1,3.12-3.28A3.081,3.081,0,0,1,69.56,90.072Zm8.848,1.008c2.192,0,3.472-.944,3.472-2.4,0-3.232-5.456-1.52-5.456-3.792,0-.8.672-1.392,2.192-1.392a4.314,4.314,0,0,1,2.48.72l.5-.912a5.7,5.7,0,0,0-2.976-.784c-2.144,0-3.328,1.024-3.328,2.4,0,3.328,5.456,1.6,5.456,3.792,0,.832-.656,1.376-2.256,1.376a5.083,5.083,0,0,1-2.992-.944l-.512.9A5.622,5.622,0,0,0,78.408,91.08Zm16.352-8.5v1.664a3.666,3.666,0,0,0-3.248-1.728,4.281,4.281,0,0,0,0,8.56,3.676,3.676,0,0,0,3.2-1.664V94.1h1.136V82.584Zm-3.152,7.488a3.284,3.284,0,1,1,3.12-3.28A3.081,3.081,0,0,1,91.608,90.072Zm13.856-7.488V87a2.737,2.737,0,0,1-2.864,3.056c-1.6,0-2.528-.912-2.528-2.7V82.584H98.936v4.88a3.26,3.26,0,0,0,3.552,3.616,3.348,3.348,0,0,0,3.024-1.616V91H106.6V82.584Zm11.664,4.208a4.01,4.01,0,0,0-4.08-4.272,4.053,4.053,0,0,0-4.112,4.272A4.449,4.449,0,0,0,116.6,89.7l-.64-.736a3.317,3.317,0,0,1-2.576,1.1,3.115,3.115,0,0,1-3.312-2.928h7.04C117.112,87.016,117.128,86.888,117.128,86.792Zm-4.08-3.3a2.927,2.927,0,0,1,2.992,2.8h-5.968A2.923,2.923,0,0,1,113.048,83.5Zm14.88-.976a3.557,3.557,0,0,0-3.152,1.536V79.128H123.64V91h1.136V86.584a2.759,2.759,0,0,1,2.944-3.04c1.6,0,2.528.912,2.528,2.688V91h1.136V86.12C131.384,83.7,129.976,82.52,127.928,82.52Zm9.488,0a5.344,5.344,0,0,0-3.424,1.136l.512.848a4.287,4.287,0,0,1,2.8-.992c1.568,0,2.384.784,2.384,2.224v.512h-2.672c-2.416,0-3.248,1.088-3.248,2.384,0,1.456,1.168,2.448,3.072,2.448a3.16,3.16,0,0,0,2.9-1.392V91h1.088V85.784C140.824,83.608,139.592,82.52,137.416,82.52Zm-.4,7.664c-1.344,0-2.128-.608-2.128-1.584,0-.864.528-1.5,2.16-1.5h2.64v1.376A2.693,2.693,0,0,1,137.016,90.184Zm12.688-7.6-3.168,7.152-3.168-7.152h-1.184l3.76,8.4-.368.816c-.48,1.056-.992,1.408-1.744,1.408a2.1,2.1,0,0,1-1.536-.64l-.528.848a2.88,2.88,0,0,0,2.048.768c1.2,0,2.1-.528,2.8-2.176l4.208-9.424Zm14.256,4.208a4.01,4.01,0,0,0-4.08-4.272,4.053,4.053,0,0,0-4.112,4.272,4.449,4.449,0,0,0,7.664,2.912l-.64-.736a3.317,3.317,0,0,1-2.576,1.1,3.115,3.115,0,0,1-3.312-2.928h7.04C163.944,87.016,163.96,86.888,163.96,86.792Zm-4.08-3.3a2.927,2.927,0,0,1,2.992,2.8H156.9A2.923,2.923,0,0,1,159.88,83.5Zm10.688-.976a3.537,3.537,0,0,0-3.2,1.616V82.584H166.28V91h1.136V86.584a2.759,2.759,0,0,1,2.944-3.04c1.6,0,2.528.912,2.528,2.688V91h1.136V86.12C174.024,83.7,172.616,82.52,170.568,82.52Zm18.08,4.272a4.01,4.01,0,0,0-4.08-4.272,4.053,4.053,0,0,0-4.112,4.272A4.449,4.449,0,0,0,188.12,89.7l-.64-.736a3.317,3.317,0,0,1-2.576,1.1,3.115,3.115,0,0,1-3.312-2.928h7.04C188.632,87.016,188.648,86.888,188.648,86.792Zm-4.08-3.3a2.927,2.927,0,0,1,2.992,2.8h-5.968A2.923,2.923,0,0,1,184.568,83.5Zm6.4,7.5H192.1V79.128h-1.136Zm8.5,0H200.6V79.128h-1.136Zm7.744.08a4.28,4.28,0,1,0-4.288-4.288A4.14,4.14,0,0,0,207.208,91.08Zm0-1.008a3.284,3.284,0,1,1,3.12-3.28A3.081,3.081,0,0,1,207.208,90.072Zm10.624-.4a1.88,1.88,0,0,1-1.248.432,1.348,1.348,0,0,1-1.456-1.536V83.544h2.56v-.96h-2.56v-1.84h-1.136v1.84h-1.5v.96h1.5v5.088a2.229,2.229,0,0,0,2.464,2.448,2.705,2.705,0,0,0,1.776-.592Zm9.5-2.88a4.01,4.01,0,0,0-4.08-4.272,4.053,4.053,0,0,0-4.112,4.272,4.449,4.449,0,0,0,7.664,2.912l-.64-.736a3.317,3.317,0,0,1-2.576,1.1,3.115,3.115,0,0,1-3.312-2.928h7.04C227.32,87.016,227.336,86.888,227.336,86.792Zm-4.08-3.3a2.927,2.927,0,0,1,2.992,2.8H220.28A2.923,2.923,0,0,1,223.256,83.5Zm6.512,7.584a.874.874,0,0,0,.864-.88.86.86,0,0,0-.864-.864.847.847,0,0,0-.848.864A.861.861,0,0,0,229.768,91.08Z" transform="translate(3664 -5195)" fill="#00223d"/>
    <path id="Trazado_20173" data-name="Trazado 20173" d="M55.312,15H57.9V3.8H55.312Zm10.3-8.736A3.769,3.769,0,0,0,62.768,7.4V6.392H60.384V15h2.5V10.744c0-1.584.864-2.32,2.064-2.32,1.1,0,1.744.64,1.744,2.032V15h2.5V10.072C69.184,7.448,67.648,6.264,65.616,6.264Zm8.72,8.864c2.576,0,4.064-1.136,4.064-2.736,0-3.392-5.2-1.968-5.2-3.44,0-.448.48-.8,1.6-.8a4.943,4.943,0,0,1,2.48.64l.832-1.776A7.078,7.078,0,0,0,74.8,6.264c-2.512,0-3.984,1.152-3.984,2.784,0,3.44,5.2,2,5.2,3.408,0,.48-.432.784-1.584.784a5.889,5.889,0,0,1-2.992-.832L70.608,14.2A7.39,7.39,0,0,0,74.336,15.128ZM85.024,6.264a3.344,3.344,0,0,0-2.7,1.12V6.392H79.936V18.1h2.5V14.088a3.342,3.342,0,0,0,2.592,1.04A4.181,4.181,0,0,0,89.312,10.7,4.181,4.181,0,0,0,85.024,6.264Zm-.432,6.816A2.172,2.172,0,0,1,82.4,10.7a2.2,2.2,0,1,1,4.384,0A2.172,2.172,0,0,1,84.592,13.08Zm14.816-2.352a4.261,4.261,0,0,0-4.48-4.464A4.382,4.382,0,0,0,90.336,10.7c0,2.56,1.936,4.432,4.912,4.432A4.508,4.508,0,0,0,98.8,13.736L97.472,12.3a2.918,2.918,0,0,1-2.16.832A2.3,2.3,0,0,1,92.848,11.4H99.36C99.376,11.192,99.408,10.92,99.408,10.728ZM94.944,8.152a2.045,2.045,0,0,1,2.112,1.792h-4.24A2.038,2.038,0,0,1,94.944,8.152Zm10.288,6.976a3.993,3.993,0,0,0,3.856-2.176L107.152,11.9a2.118,2.118,0,0,1-1.936,1.184A2.2,2.2,0,0,1,102.96,10.7a2.2,2.2,0,0,1,2.256-2.384A2.146,2.146,0,0,1,107.152,9.5l1.936-1.04a3.954,3.954,0,0,0-3.856-2.192c-2.8,0-4.8,1.84-4.8,4.432S102.432,15.128,105.232,15.128Zm9.344,0a3.993,3.993,0,0,0,3.856-2.176L116.5,11.9a2.118,2.118,0,0,1-1.936,1.184A2.2,2.2,0,0,1,112.3,10.7a2.2,2.2,0,0,1,2.256-2.384A2.146,2.146,0,0,1,116.5,9.5l1.936-1.04a3.954,3.954,0,0,0-3.856-2.192c-2.8,0-4.8,1.84-4.8,4.432S111.776,15.128,114.576,15.128Zm6.544-9.936a1.435,1.435,0,0,0,1.552-1.44,1.4,1.4,0,0,0-1.552-1.344A1.427,1.427,0,0,0,119.568,3.8,1.427,1.427,0,0,0,121.12,5.192ZM119.872,15h2.5V6.392h-2.5ZM127.3,5.288h1.952l2.9-2.3h-2.688Zm1.488,9.84a4.442,4.442,0,1,0-4.736-4.432A4.418,4.418,0,0,0,128.784,15.128Zm0-2.048a2.184,2.184,0,0,1-2.208-2.384,2.207,2.207,0,1,1,4.4,0A2.172,2.172,0,0,1,128.784,13.08ZM140.4,6.264A3.769,3.769,0,0,0,137.552,7.4V6.392h-2.384V15h2.5V10.744c0-1.584.864-2.32,2.064-2.32,1.1,0,1.744.64,1.744,2.032V15h2.5V10.072C143.968,7.448,142.432,6.264,140.4,6.264Zm15.44,0a3.345,3.345,0,0,0-2.7,1.12V6.392h-2.384V18.1h2.5V14.088a3.342,3.342,0,0,0,2.592,1.04,4.181,4.181,0,0,0,4.288-4.432A4.181,4.181,0,0,0,155.84,6.264Zm-.432,6.816a2.172,2.172,0,0,1-2.192-2.384,2.2,2.2,0,1,1,4.384,0A2.172,2.172,0,0,1,155.408,13.08Zm10.48,2.048a4.442,4.442,0,1,0-4.736-4.432A4.418,4.418,0,0,0,165.888,15.128Zm0-2.048A2.184,2.184,0,0,1,163.68,10.7a2.207,2.207,0,1,1,4.4,0A2.172,2.172,0,0,1,165.888,13.08Zm8.768-5.552V6.392h-2.384V15h2.5V10.936a2.115,2.115,0,0,1,2.288-2.4c.192,0,.352.016.56.032v-2.3A3.474,3.474,0,0,0,174.656,7.528Zm-88.9,17.736a3.871,3.871,0,0,0-3.1,1.408,3.213,3.213,0,0,0-2.832-1.408,3.486,3.486,0,0,0-2.7,1.12v-.992H74.728V34h2.5V29.68c0-1.536.784-2.256,1.888-2.256,1.04,0,1.632.64,1.632,2.032V34h2.5V29.68c0-1.536.784-2.256,1.9-2.256,1.008,0,1.632.64,1.632,2.032V34h2.5V29.072C89.272,26.448,87.8,25.264,85.752,25.264Zm11.936.128v4.256c0,1.584-.832,2.32-1.984,2.32-1.1,0-1.744-.64-1.744-2.08v-4.5h-2.5v4.864c0,2.656,1.52,3.872,3.68,3.872a3.483,3.483,0,0,0,2.672-1.152V34h2.368V25.392Zm13.248,4.336a4.261,4.261,0,0,0-4.48-4.464,4.382,4.382,0,0,0-4.592,4.432c0,2.56,1.936,4.432,4.912,4.432a4.508,4.508,0,0,0,3.552-1.392L109,31.3a2.918,2.918,0,0,1-2.16.832,2.3,2.3,0,0,1-2.464-1.728h6.512C110.9,30.192,110.936,29.92,110.936,29.728Zm-4.464-2.576a2.045,2.045,0,0,1,2.112,1.792h-4.24A2.038,2.038,0,0,1,106.472,27.152Zm9.024,6.976c2.576,0,4.064-1.136,4.064-2.736,0-3.392-5.2-1.968-5.2-3.44,0-.448.48-.8,1.6-.8a4.943,4.943,0,0,1,2.48.64l.832-1.776a7.078,7.078,0,0,0-3.312-.752c-2.512,0-3.984,1.152-3.984,2.784,0,3.44,5.2,2,5.2,3.408,0,.48-.432.784-1.584.784a5.889,5.889,0,0,1-2.992-.832l-.832,1.792A7.39,7.39,0,0,0,115.5,34.128Zm10.48-2.3a1.682,1.682,0,0,1-1.008.32,1,1,0,0,1-1.072-1.136V27.5h2.144v-1.92H123.9v-2.1h-2.5v2.1h-1.328V27.5H121.4V31.04c0,2.048,1.184,3.088,3.216,3.088a3.567,3.567,0,0,0,2.032-.544Zm4.464-5.3V25.392h-2.384V34h2.5V29.936a2.115,2.115,0,0,1,2.288-2.4c.192,0,.352.016.56.032v-2.3A3.474,3.474,0,0,0,130.44,26.528Zm12.8,3.2a4.261,4.261,0,0,0-4.48-4.464,4.382,4.382,0,0,0-4.592,4.432c0,2.56,1.936,4.432,4.912,4.432a4.508,4.508,0,0,0,3.552-1.392L141.3,31.3a2.918,2.918,0,0,1-2.16.832A2.3,2.3,0,0,1,136.68,30.4h6.512C143.208,30.192,143.24,29.92,143.24,29.728Zm-4.464-2.576a2.045,2.045,0,0,1,2.112,1.792h-4.24A2.038,2.038,0,0,1,138.776,27.152ZM149,34.128a4.442,4.442,0,1,0-4.736-4.432A4.418,4.418,0,0,0,149,34.128Zm0-2.048a2.184,2.184,0,0,1-2.208-2.384,2.207,2.207,0,1,1,4.4,0A2.172,2.172,0,0,1,149,32.08Zm7.328-3.7a1.527,1.527,0,0,0,1.552-1.568,1.552,1.552,0,0,0-3.1,0A1.527,1.527,0,0,0,156.328,28.384Zm0,5.744a1.527,1.527,0,0,0,1.552-1.568,1.552,1.552,0,0,0-3.1,0A1.527,1.527,0,0,0,156.328,34.128ZM7.808,72.08c2.192,0,3.472-.944,3.472-2.4,0-3.232-5.456-1.52-5.456-3.792,0-.8.672-1.392,2.192-1.392a4.314,4.314,0,0,1,2.48.72l.5-.912a5.7,5.7,0,0,0-2.976-.784c-2.144,0-3.328,1.024-3.328,2.4,0,3.328,5.456,1.6,5.456,3.792,0,.832-.656,1.376-2.256,1.376A5.083,5.083,0,0,1,4.9,70.144l-.512.9A5.622,5.622,0,0,0,7.808,72.08ZM20.72,67.792a4.01,4.01,0,0,0-4.08-4.272,4.053,4.053,0,0,0-4.112,4.272,4.168,4.168,0,0,0,4.416,4.288A4.143,4.143,0,0,0,20.192,70.7l-.64-.736a3.317,3.317,0,0,1-2.576,1.1,3.115,3.115,0,0,1-3.312-2.928H20.7C20.7,68.016,20.72,67.888,20.72,67.792Zm-4.08-3.3a2.927,2.927,0,0,1,2.992,2.8H13.664A2.923,2.923,0,0,1,16.64,64.5Zm17.136-4.368v5.056a3.676,3.676,0,0,0-3.2-1.664,4.281,4.281,0,0,0,0,8.56,3.646,3.646,0,0,0,3.248-1.744V72h1.088V60.128Zm-3.1,10.944a3.284,3.284,0,1,1,3.12-3.28A3.081,3.081,0,0,1,30.672,71.072Zm14.752-3.28a4.01,4.01,0,0,0-4.08-4.272,4.053,4.053,0,0,0-4.112,4.272A4.449,4.449,0,0,0,44.9,70.7l-.64-.736a3.317,3.317,0,0,1-2.576,1.1,3.115,3.115,0,0,1-3.312-2.928h7.04C45.408,68.016,45.424,67.888,45.424,67.792Zm-4.08-3.3a2.927,2.927,0,0,1,2.992,2.8H38.368A2.923,2.923,0,0,1,41.344,64.5ZM50,72.08c2.192,0,3.472-.944,3.472-2.4,0-3.232-5.456-1.52-5.456-3.792,0-.8.672-1.392,2.192-1.392a4.314,4.314,0,0,1,2.48.72l.5-.912a5.7,5.7,0,0,0-2.976-.784c-2.144,0-3.328,1.024-3.328,2.4,0,3.328,5.456,1.6,5.456,3.792,0,.832-.656,1.376-2.256,1.376a5.083,5.083,0,0,1-2.992-.944l-.512.9A5.622,5.622,0,0,0,50,72.08Zm9.056,0a3.71,3.71,0,0,0,3.3-1.664L61.5,69.84a2.847,2.847,0,0,1-2.448,1.232,3.281,3.281,0,0,1,0-6.56A2.861,2.861,0,0,1,61.5,65.76l.848-.576a3.676,3.676,0,0,0-3.3-1.664,4.28,4.28,0,1,0,0,8.56Zm6.608-6.848V63.584H64.576V72h1.136V67.712c0-1.984,1.072-3.1,2.832-3.1.08,0,.176.016.272.016v-1.1A3.174,3.174,0,0,0,65.664,65.232Zm5.776-3.488a.816.816,0,0,0,.832-.832.807.807,0,0,0-.832-.784.808.808,0,1,0,0,1.616ZM70.864,72H72V63.584H70.864Zm8.64-8.48a3.676,3.676,0,0,0-3.2,1.664V60.128H75.168V72h1.088V70.336A3.646,3.646,0,0,0,79.5,72.08a4.281,4.281,0,0,0,0-8.56Zm-.08,7.552a3.283,3.283,0,1,1,3.136-3.28A3.081,3.081,0,0,1,79.424,71.072Zm13.936-3.28a4.01,4.01,0,0,0-4.08-4.272,4.053,4.053,0,0,0-4.112,4.272A4.449,4.449,0,0,0,92.832,70.7l-.64-.736a3.317,3.317,0,0,1-2.576,1.1A3.115,3.115,0,0,1,86.3,68.144h7.04C93.344,68.016,93.36,67.888,93.36,67.792Zm-4.08-3.3a2.927,2.927,0,0,1,2.992,2.8H86.3A2.923,2.923,0,0,1,89.28,64.5Zm14.08,7.584a3.71,3.71,0,0,0,3.3-1.664l-.848-.576a2.847,2.847,0,0,1-2.448,1.232,3.281,3.281,0,0,1,0-6.56,2.861,2.861,0,0,1,2.448,1.248l.848-.576a3.676,3.676,0,0,0-3.3-1.664,4.28,4.28,0,1,0,0,8.56Zm8.816,0a4.28,4.28,0,1,0-4.288-4.288A4.14,4.14,0,0,0,112.176,72.08Zm0-1.008a3.284,3.284,0,1,1,3.12-3.28A3.081,3.081,0,0,1,112.176,71.072Zm17.088-7.552a3.665,3.665,0,0,0-3.328,1.776,3.023,3.023,0,0,0-2.992-1.776,3.4,3.4,0,0,0-3.088,1.6V63.584h-1.088V72H119.9V67.584a2.713,2.713,0,0,1,2.816-3.04c1.536,0,2.432.912,2.432,2.688V72h1.136V67.584c0-1.92,1.088-3.04,2.816-3.04,1.52,0,2.416.912,2.416,2.688V72h1.136V67.12C132.656,64.7,131.312,63.52,129.264,63.52Zm9.952,8.56a4.28,4.28,0,1,0-4.288-4.288A4.14,4.14,0,0,0,139.216,72.08Zm0-1.008a3.284,3.284,0,1,1,3.12-3.28A3.081,3.081,0,0,1,139.216,71.072ZM150,72h1.136V60.128H150Zm7.248-8.48a5.344,5.344,0,0,0-3.424,1.136l.512.848a4.287,4.287,0,0,1,2.8-.992c1.568,0,2.384.784,2.384,2.224v.512h-2.672c-2.416,0-3.248,1.088-3.248,2.384,0,1.456,1.168,2.448,3.072,2.448a3.16,3.16,0,0,0,2.9-1.392V72h1.088V66.784C160.656,64.608,159.424,63.52,157.248,63.52Zm-.4,7.664c-1.344,0-2.128-.608-2.128-1.584,0-.864.528-1.5,2.16-1.5h2.64v1.376A2.693,2.693,0,0,1,156.848,71.184Zm12.176-5.952V63.584h-1.088V72h1.136V67.712c0-1.984,1.072-3.1,2.832-3.1.08,0,.176.016.272.016v-1.1A3.174,3.174,0,0,0,169.024,65.232Zm12.464,2.56a4.01,4.01,0,0,0-4.08-4.272,4.053,4.053,0,0,0-4.112,4.272A4.449,4.449,0,0,0,180.96,70.7l-.64-.736a3.317,3.317,0,0,1-2.576,1.1,3.115,3.115,0,0,1-3.312-2.928h7.04C181.472,68.016,181.488,67.888,181.488,67.792Zm-4.08-3.3a2.927,2.927,0,0,1,2.992,2.8h-5.968A2.923,2.923,0,0,1,177.408,64.5Zm12.192-.912-3.184,7.168-3.152-7.168H182.08L185.808,72h1.168l3.744-8.416Zm3.3-1.84a.816.816,0,0,0,.832-.832.807.807,0,0,0-.832-.784.808.808,0,1,0,0,1.616ZM192.32,72h1.136V63.584H192.32Zm6.56.08c2.192,0,3.472-.944,3.472-2.4,0-3.232-5.456-1.52-5.456-3.792,0-.8.672-1.392,2.192-1.392a4.314,4.314,0,0,1,2.48.72l.5-.912a5.7,5.7,0,0,0-2.976-.784c-2.144,0-3.328,1.024-3.328,2.4,0,3.328,5.456,1.6,5.456,3.792,0,.832-.656,1.376-2.256,1.376a5.083,5.083,0,0,1-2.992-.944l-.512.9A5.622,5.622,0,0,0,198.88,72.08Zm6.144-10.336a.816.816,0,0,0,.832-.832.807.807,0,0,0-.832-.784.808.808,0,1,0,0,1.616ZM204.448,72h1.136V63.584h-1.136Zm6.688-9.712h1.12l2.592-1.984h-1.52Zm1.056,9.792a4.28,4.28,0,1,0-4.288-4.288A4.14,4.14,0,0,0,212.192,72.08Zm0-1.008a3.284,3.284,0,1,1,3.12-3.28A3.081,3.081,0,0,1,212.192,71.072Zm10.88-7.552a3.537,3.537,0,0,0-3.2,1.616V63.584h-1.088V72h1.136V67.584a2.759,2.759,0,0,1,2.944-3.04c1.6,0,2.528.912,2.528,2.688V72h1.136V67.12C226.528,64.7,225.12,63.52,223.072,63.52ZM9.128,79.128v5.056a3.676,3.676,0,0,0-3.2-1.664,4.281,4.281,0,0,0,0,8.56,3.646,3.646,0,0,0,3.248-1.744V91h1.088V79.128Zm-3.1,10.944a3.283,3.283,0,0,1,0-6.56,3.284,3.284,0,0,1,0,6.56Zm14.752-3.28A4.01,4.01,0,0,0,16.7,82.52a4.053,4.053,0,0,0-4.112,4.272A4.168,4.168,0,0,0,17,91.08,4.143,4.143,0,0,0,20.248,89.7l-.64-.736a3.317,3.317,0,0,1-2.576,1.1,3.115,3.115,0,0,1-3.312-2.928h7.04C20.76,87.016,20.776,86.888,20.776,86.792ZM16.7,83.5a2.927,2.927,0,0,1,2.992,2.8H13.72A2.923,2.923,0,0,1,16.7,83.5Zm17.04-.912V87a2.737,2.737,0,0,1-2.864,3.056c-1.6,0-2.528-.912-2.528-2.7V82.584H27.208v4.88A3.26,3.26,0,0,0,30.76,91.08a3.348,3.348,0,0,0,3.024-1.616V91h1.088V82.584Zm8.608-.064a3.537,3.537,0,0,0-3.2,1.616V82.584H38.056V91h1.136V86.584a2.759,2.759,0,0,1,2.944-3.04c1.6,0,2.528.912,2.528,2.688V91H45.8V86.12C45.8,83.7,44.392,82.52,42.344,82.52Zm9.488,0a5.344,5.344,0,0,0-3.424,1.136l.512.848a4.287,4.287,0,0,1,2.8-.992c1.568,0,2.384.784,2.384,2.224v.512H51.432c-2.416,0-3.248,1.088-3.248,2.384,0,1.456,1.168,2.448,3.072,2.448a3.16,3.16,0,0,0,2.9-1.392V91H55.24V85.784C55.24,83.608,54.008,82.52,51.832,82.52Zm-.4,7.664c-1.344,0-2.128-.608-2.128-1.584,0-.864.528-1.5,2.16-1.5H54.1v1.376A2.693,2.693,0,0,1,51.432,90.184ZM66.856,82.52a3.666,3.666,0,0,0-3.248,1.728V82.584H62.52V94.1h1.136V89.416a3.676,3.676,0,0,0,3.2,1.664,4.281,4.281,0,0,0,0-8.56Zm-.08,7.552a3.283,3.283,0,1,1,3.136-3.28A3.081,3.081,0,0,1,66.776,90.072Zm13.936-3.28a4.01,4.01,0,0,0-4.08-4.272,4.053,4.053,0,0,0-4.112,4.272A4.449,4.449,0,0,0,80.184,89.7l-.64-.736a3.317,3.317,0,0,1-2.576,1.1,3.115,3.115,0,0,1-3.312-2.928H80.7C80.7,87.016,80.712,86.888,80.712,86.792Zm-4.08-3.3a2.927,2.927,0,0,1,2.992,2.8H73.656A2.923,2.923,0,0,1,76.632,83.5Zm12.992-.912v1.664a3.666,3.666,0,0,0-3.248-1.728,4.281,4.281,0,0,0,0,8.56,3.676,3.676,0,0,0,3.2-1.664V94.1h1.136V82.584Zm-3.152,7.488a3.284,3.284,0,1,1,3.12-3.28A3.081,3.081,0,0,1,86.472,90.072Zm13.856-7.488V87a2.737,2.737,0,0,1-2.864,3.056c-1.6,0-2.528-.912-2.528-2.7V82.584H93.8v4.88a3.26,3.26,0,0,0,3.552,3.616,3.348,3.348,0,0,0,3.024-1.616V91h1.088V82.584Zm11.664,4.208a4.01,4.01,0,0,0-4.08-4.272,4.053,4.053,0,0,0-4.112,4.272,4.449,4.449,0,0,0,7.664,2.912l-.64-.736a3.317,3.317,0,0,1-2.576,1.1,3.115,3.115,0,0,1-3.312-2.928h7.04C111.976,87.016,111.992,86.888,111.992,86.792Zm-4.08-3.3a2.927,2.927,0,0,1,2.992,2.8h-5.968A2.923,2.923,0,0,1,107.912,83.5ZM117.16,80.1c.64,0,1.1,1.088,2.1,1.088.848,0,1.408-.688,1.44-1.728h-.688c-.032.608-.352.992-.832.992-.624,0-1.1-1.088-2.1-1.088-.848,0-1.408.688-1.44,1.76h.688C116.36,80.488,116.68,80.1,117.16,80.1Zm1.44,2.416a3.537,3.537,0,0,0-3.2,1.616V82.584h-1.088V91h1.136V86.584a2.759,2.759,0,0,1,2.944-3.04c1.6,0,2.528.912,2.528,2.688V91h1.136V86.12C122.056,83.7,120.648,82.52,118.6,82.52Zm9.488,0a5.344,5.344,0,0,0-3.424,1.136l.512.848a4.287,4.287,0,0,1,2.8-.992c1.568,0,2.384.784,2.384,2.224v.512h-2.672c-2.416,0-3.248,1.088-3.248,2.384,0,1.456,1.168,2.448,3.072,2.448a3.16,3.16,0,0,0,2.9-1.392V91H131.5V85.784C131.5,83.608,130.264,82.52,128.088,82.52Zm-.4,7.664c-1.344,0-2.128-.608-2.128-1.584,0-.864.528-1.5,2.16-1.5h2.64v1.376A2.693,2.693,0,0,1,127.688,90.184Zm15.424-7.664a3.666,3.666,0,0,0-3.248,1.728V82.584h-1.088V94.1h1.136V89.416a3.676,3.676,0,0,0,3.2,1.664,4.281,4.281,0,0,0,0-8.56Zm-.08,7.552a3.283,3.283,0,1,1,3.136-3.28A3.081,3.081,0,0,1,143.032,90.072Zm9.488-7.552a5.344,5.344,0,0,0-3.424,1.136l.512.848a4.287,4.287,0,0,1,2.8-.992c1.568,0,2.384.784,2.384,2.224v.512H152.12c-2.416,0-3.248,1.088-3.248,2.384,0,1.456,1.168,2.448,3.072,2.448a3.16,3.16,0,0,0,2.9-1.392V91h1.088V85.784C155.928,83.608,154.7,82.52,152.52,82.52Zm-.4,7.664c-1.344,0-2.128-.608-2.128-1.584,0-.864.528-1.5,2.16-1.5h2.64v1.376A2.693,2.693,0,0,1,152.12,90.184Zm7.984-5.952V82.584h-1.088V91h1.136V86.712c0-1.984,1.072-3.1,2.832-3.1.08,0,.176.016.272.016v-1.1A3.174,3.174,0,0,0,160.1,84.232Zm9.6,5.44a1.88,1.88,0,0,1-1.248.432A1.348,1.348,0,0,1,167,88.568V83.544h2.56v-.96H167v-1.84h-1.136v1.84h-1.5v.96h1.5v5.088a2.229,2.229,0,0,0,2.464,2.448,2.705,2.705,0,0,0,1.776-.592Zm9.5-2.88a4.01,4.01,0,0,0-4.08-4.272,4.053,4.053,0,0,0-4.112,4.272A4.449,4.449,0,0,0,178.68,89.7l-.64-.736a3.317,3.317,0,0,1-2.576,1.1,3.115,3.115,0,0,1-3.312-2.928h7.04C179.192,87.016,179.208,86.888,179.208,86.792Zm-4.08-3.3a2.927,2.927,0,0,1,2.992,2.8h-5.968A2.923,2.923,0,0,1,175.128,83.5Zm17.136-4.368v5.056a3.676,3.676,0,0,0-3.2-1.664,4.281,4.281,0,0,0,0,8.56,3.646,3.646,0,0,0,3.248-1.744V91H193.4V79.128Zm-3.1,10.944a3.284,3.284,0,1,1,3.12-3.28A3.081,3.081,0,0,1,189.16,90.072Zm14.752-3.28a4.01,4.01,0,0,0-4.08-4.272,4.053,4.053,0,0,0-4.112,4.272,4.449,4.449,0,0,0,7.664,2.912l-.64-.736a3.317,3.317,0,0,1-2.576,1.1,3.115,3.115,0,0,1-3.312-2.928h7.04C203.9,87.016,203.912,86.888,203.912,86.792Zm-4.08-3.3a2.927,2.927,0,0,1,2.992,2.8h-5.968A2.923,2.923,0,0,1,199.832,83.5ZM210.424,91h1.136V79.128h-1.136Zm7.744.08a4.28,4.28,0,1,0-4.288-4.288A4.14,4.14,0,0,0,218.168,91.08Zm0-1.008a3.284,3.284,0,1,1,3.12-3.28A3.081,3.081,0,0,1,218.168,90.072Zm8.848,1.008c2.192,0,3.472-.944,3.472-2.4,0-3.232-5.456-1.52-5.456-3.792,0-.8.672-1.392,2.192-1.392a4.314,4.314,0,0,1,2.48.72l.5-.912a5.7,5.7,0,0,0-2.976-.784c-2.144,0-3.328,1.024-3.328,2.4,0,3.328,5.456,1.6,5.456,3.792,0,.832-.656,1.376-2.256,1.376a5.083,5.083,0,0,1-2.992-.944l-.512.9A5.622,5.622,0,0,0,227.016,91.08ZM6.456,101.52a3.666,3.666,0,0,0-3.248,1.728v-1.664H2.12V113.1H3.256v-4.688a3.676,3.676,0,0,0,3.2,1.664,4.281,4.281,0,0,0,0-8.56Zm-.08,7.552a3.283,3.283,0,0,1,0-6.56,3.283,3.283,0,0,1,0,6.56Zm7.68-5.84v-1.648H12.968V110H14.1v-4.288c0-1.984,1.072-3.1,2.832-3.1.08,0,.176.016.272.016v-1.1A3.174,3.174,0,0,0,14.056,103.232Zm8.56,6.848a4.28,4.28,0,0,0,0-8.56,4.28,4.28,0,1,0,0,8.56Zm0-1.008a3.284,3.284,0,1,1,3.12-3.28A3.081,3.081,0,0,1,22.616,109.072ZM35.752,98.128v5.056a3.676,3.676,0,0,0-3.2-1.664,4.281,4.281,0,0,0,0,8.56,3.646,3.646,0,0,0,3.248-1.744V110h1.088V98.128Zm-3.1,10.944a3.284,3.284,0,1,1,3.12-3.28A3.081,3.081,0,0,1,32.648,109.072ZM46.5,101.584V106a2.737,2.737,0,0,1-2.864,3.056c-1.6,0-2.528-.912-2.528-2.7v-4.768H39.976v4.88a3.26,3.26,0,0,0,3.552,3.616,3.348,3.348,0,0,0,3.024-1.616V110H47.64v-8.416Zm7.808,8.5a3.71,3.71,0,0,0,3.3-1.664l-.848-.576a2.847,2.847,0,0,1-2.448,1.232,3.281,3.281,0,0,1,0-6.56,2.861,2.861,0,0,1,2.448,1.248l.848-.576a3.676,3.676,0,0,0-3.3-1.664,4.28,4.28,0,1,0,0,8.56Zm9.648-1.408a1.88,1.88,0,0,1-1.248.432,1.348,1.348,0,0,1-1.456-1.536v-5.024h2.56v-.96h-2.56v-1.84H60.12v1.84h-1.5v.96h1.5v5.088a2.229,2.229,0,0,0,2.464,2.448,2.705,2.705,0,0,0,1.776-.592Zm5.6,1.408a4.28,4.28,0,1,0-4.288-4.288A4.14,4.14,0,0,0,69.56,110.08Zm0-1.008a3.284,3.284,0,1,1,3.12-3.28A3.081,3.081,0,0,1,69.56,109.072Zm8.848,1.008c2.192,0,3.472-.944,3.472-2.4,0-3.232-5.456-1.52-5.456-3.792,0-.8.672-1.392,2.192-1.392a4.314,4.314,0,0,1,2.48.72l.5-.912a5.7,5.7,0,0,0-2.976-.784c-2.144,0-3.328,1.024-3.328,2.4,0,3.328,5.456,1.6,5.456,3.792,0,.832-.656,1.376-2.256,1.376a5.083,5.083,0,0,1-2.992-.944l-.512.9A5.622,5.622,0,0,0,78.408,110.08Zm16.352-8.5v1.664a3.666,3.666,0,0,0-3.248-1.728,4.281,4.281,0,0,0,0,8.56,3.676,3.676,0,0,0,3.2-1.664V113.1h1.136v-11.52Zm-3.152,7.488a3.284,3.284,0,1,1,3.12-3.28A3.081,3.081,0,0,1,91.608,109.072Zm13.856-7.488V106a2.737,2.737,0,0,1-2.864,3.056c-1.6,0-2.528-.912-2.528-2.7v-4.768H98.936v4.88a3.26,3.26,0,0,0,3.552,3.616,3.348,3.348,0,0,0,3.024-1.616V110H106.6v-8.416Zm11.664,4.208a4.01,4.01,0,0,0-4.08-4.272,4.053,4.053,0,0,0-4.112,4.272A4.449,4.449,0,0,0,116.6,108.7l-.64-.736a3.317,3.317,0,0,1-2.576,1.1,3.115,3.115,0,0,1-3.312-2.928h7.04C117.112,106.016,117.128,105.888,117.128,105.792Zm-4.08-3.3a2.927,2.927,0,0,1,2.992,2.8h-5.968A2.923,2.923,0,0,1,113.048,102.5Zm14.88-.976a3.557,3.557,0,0,0-3.152,1.536V98.128H123.64V110h1.136v-4.416a2.759,2.759,0,0,1,2.944-3.04c1.6,0,2.528.912,2.528,2.688V110h1.136v-4.88C131.384,102.7,129.976,101.52,127.928,101.52Zm9.488,0a5.344,5.344,0,0,0-3.424,1.136l.512.848a4.287,4.287,0,0,1,2.8-.992c1.568,0,2.384.784,2.384,2.224v.512h-2.672c-2.416,0-3.248,1.088-3.248,2.384,0,1.456,1.168,2.448,3.072,2.448a3.16,3.16,0,0,0,2.9-1.392V110h1.088v-5.216C140.824,102.608,139.592,101.52,137.416,101.52Zm-.4,7.664c-1.344,0-2.128-.608-2.128-1.584,0-.864.528-1.5,2.16-1.5h2.64v1.376A2.693,2.693,0,0,1,137.016,109.184Zm12.688-7.6-3.168,7.152-3.168-7.152h-1.184l3.76,8.4-.368.816c-.48,1.056-.992,1.408-1.744,1.408a2.1,2.1,0,0,1-1.536-.64l-.528.848a2.88,2.88,0,0,0,2.048.768c1.2,0,2.1-.528,2.8-2.176l4.208-9.424Zm14.256,4.208a4.01,4.01,0,0,0-4.08-4.272,4.053,4.053,0,0,0-4.112,4.272,4.449,4.449,0,0,0,7.664,2.912l-.64-.736a3.317,3.317,0,0,1-2.576,1.1,3.115,3.115,0,0,1-3.312-2.928h7.04C163.944,106.016,163.96,105.888,163.96,105.792Zm-4.08-3.3a2.927,2.927,0,0,1,2.992,2.8H156.9A2.923,2.923,0,0,1,159.88,102.5Zm10.688-.976a3.537,3.537,0,0,0-3.2,1.616v-1.552H166.28V110h1.136v-4.416a2.759,2.759,0,0,1,2.944-3.04c1.6,0,2.528.912,2.528,2.688V110h1.136v-4.88C174.024,102.7,172.616,101.52,170.568,101.52Zm18.08,4.272a4.01,4.01,0,0,0-4.08-4.272,4.053,4.053,0,0,0-4.112,4.272,4.449,4.449,0,0,0,7.664,2.912l-.64-.736a3.317,3.317,0,0,1-2.576,1.1,3.115,3.115,0,0,1-3.312-2.928h7.04C188.632,106.016,188.648,105.888,188.648,105.792Zm-4.08-3.3a2.927,2.927,0,0,1,2.992,2.8h-5.968A2.923,2.923,0,0,1,184.568,102.5Zm6.4,7.5H192.1V98.128h-1.136Zm8.5,0H200.6V98.128h-1.136Zm7.744.08a4.28,4.28,0,1,0-4.288-4.288A4.14,4.14,0,0,0,207.208,110.08Zm0-1.008a3.284,3.284,0,1,1,3.12-3.28A3.081,3.081,0,0,1,207.208,109.072Zm10.624-.4a1.88,1.88,0,0,1-1.248.432,1.348,1.348,0,0,1-1.456-1.536v-5.024h2.56v-.96h-2.56v-1.84h-1.136v1.84h-1.5v.96h1.5v5.088a2.229,2.229,0,0,0,2.464,2.448,2.705,2.705,0,0,0,1.776-.592Zm9.5-2.88a4.01,4.01,0,0,0-4.08-4.272,4.053,4.053,0,0,0-4.112,4.272,4.449,4.449,0,0,0,7.664,2.912l-.64-.736a3.317,3.317,0,0,1-2.576,1.1,3.115,3.115,0,0,1-3.312-2.928h7.04C227.32,106.016,227.336,105.888,227.336,105.792Zm-4.08-3.3a2.927,2.927,0,0,1,2.992,2.8H220.28A2.923,2.923,0,0,1,223.256,102.5Zm6.512,7.584a.874.874,0,0,0,.864-.88.86.86,0,0,0-.864-.864.847.847,0,0,0-.848.864A.861.861,0,0,0,229.768,110.08ZM27.512,129.1a5.446,5.446,0,0,0,4.112-1.648l-.752-.752a4.393,4.393,0,0,1-3.312,1.344,4.641,4.641,0,1,1,0-9.28,4.439,4.439,0,0,1,3.312,1.328l.752-.752a5.423,5.423,0,0,0-4.1-1.632,5.7,5.7,0,1,0-.016,11.392Zm9.216-8.576a5.344,5.344,0,0,0-3.424,1.136l.512.848a4.287,4.287,0,0,1,2.8-.992c1.568,0,2.384.784,2.384,2.224v.512H36.328c-2.416,0-3.248,1.088-3.248,2.384,0,1.456,1.168,2.448,3.072,2.448a3.16,3.16,0,0,0,2.9-1.392V129h1.088v-5.216C40.136,121.608,38.9,120.52,36.728,120.52Zm-.4,7.664c-1.344,0-2.128-.608-2.128-1.584,0-.864.528-1.5,2.16-1.5H39v1.376A2.693,2.693,0,0,1,36.328,128.184ZM49.8,117.128v5.056a3.676,3.676,0,0,0-3.2-1.664,4.281,4.281,0,0,0,0,8.56,3.646,3.646,0,0,0,3.248-1.744V129h1.088V117.128Zm-3.1,10.944a3.284,3.284,0,1,1,3.12-3.28A3.081,3.081,0,0,1,46.7,128.072Zm10.352-7.552a5.344,5.344,0,0,0-3.424,1.136l.512.848a4.287,4.287,0,0,1,2.8-.992c1.568,0,2.384.784,2.384,2.224v.512H56.648c-2.416,0-3.248,1.088-3.248,2.384,0,1.456,1.168,2.448,3.072,2.448a3.16,3.16,0,0,0,2.9-1.392V129h1.088v-5.216C60.456,121.608,59.224,120.52,57.048,120.52Zm-.4,7.664c-1.344,0-2.128-.608-2.128-1.584,0-.864.528-1.5,2.16-1.5h2.64v1.376A2.693,2.693,0,0,1,56.648,128.184Zm18.432-3.392A4.01,4.01,0,0,0,71,120.52a4.053,4.053,0,0,0-4.112,4.272,4.449,4.449,0,0,0,7.664,2.912l-.64-.736a3.317,3.317,0,0,1-2.576,1.1,3.115,3.115,0,0,1-3.312-2.928h7.04C75.064,125.016,75.08,124.888,75.08,124.792ZM71,121.5a2.927,2.927,0,0,1,2.992,2.8H68.024A2.923,2.923,0,0,1,71,121.5Zm16.9-.976a3.665,3.665,0,0,0-3.328,1.776,3.023,3.023,0,0,0-2.992-1.776,3.4,3.4,0,0,0-3.088,1.6v-1.536H77.4V129h1.136v-4.416a2.713,2.713,0,0,1,2.816-3.04c1.536,0,2.432.912,2.432,2.688V129H84.92v-4.416c0-1.92,1.088-3.04,2.816-3.04,1.52,0,2.416.912,2.416,2.688V129h1.136v-4.88C91.288,121.7,89.944,120.52,87.9,120.52Zm10.816,0a3.666,3.666,0,0,0-3.248,1.728v-1.664H94.376V132.1h1.136v-4.688a3.676,3.676,0,0,0,3.2,1.664,4.281,4.281,0,0,0,0-8.56Zm-.08,7.552a3.283,3.283,0,1,1,3.136-3.28A3.081,3.081,0,0,1,98.632,128.072Zm7.68-5.84v-1.648h-1.088V129h1.136v-4.288c0-1.984,1.072-3.1,2.832-3.1.08,0,.176.016.272.016v-1.1A3.174,3.174,0,0,0,106.312,122.232Zm12.464,2.56a4.01,4.01,0,0,0-4.08-4.272,4.053,4.053,0,0,0-4.112,4.272,4.449,4.449,0,0,0,7.664,2.912l-.64-.736a3.317,3.317,0,0,1-2.576,1.1,3.115,3.115,0,0,1-3.312-2.928h7.04C118.76,125.016,118.776,124.888,118.776,124.792Zm-4.08-3.3a2.927,2.927,0,0,1,2.992,2.8H111.72A2.923,2.923,0,0,1,114.7,121.5Zm8.656,7.584c2.192,0,3.472-.944,3.472-2.4,0-3.232-5.456-1.52-5.456-3.792,0-.8.672-1.392,2.192-1.392a4.314,4.314,0,0,1,2.48.72l.5-.912a5.7,5.7,0,0,0-2.976-.784c-2.144,0-3.328,1.024-3.328,2.4,0,3.328,5.456,1.6,5.456,3.792,0,.832-.656,1.376-2.256,1.376a5.083,5.083,0,0,1-2.992-.944l-.512.9A5.622,5.622,0,0,0,123.352,129.08Zm8.512-8.56a5.344,5.344,0,0,0-3.424,1.136l.512.848a4.287,4.287,0,0,1,2.8-.992c1.568,0,2.384.784,2.384,2.224v.512h-2.672c-2.416,0-3.248,1.088-3.248,2.384,0,1.456,1.168,2.448,3.072,2.448a3.16,3.16,0,0,0,2.9-1.392V129h1.088v-5.216C135.272,121.608,134.04,120.52,131.864,120.52Zm-.4,7.664c-1.344,0-2.128-.608-2.128-1.584,0-.864.528-1.5,2.16-1.5h2.64v1.376A2.693,2.693,0,0,1,131.464,128.184ZM149.1,117.128v5.056a3.676,3.676,0,0,0-3.2-1.664,4.281,4.281,0,0,0,0,8.56,3.646,3.646,0,0,0,3.248-1.744V129h1.088V117.128Zm-3.1,10.944a3.284,3.284,0,1,1,3.12-3.28A3.081,3.081,0,0,1,145.992,128.072Zm14.752-3.28a4.01,4.01,0,0,0-4.08-4.272,4.053,4.053,0,0,0-4.112,4.272,4.449,4.449,0,0,0,7.664,2.912l-.64-.736a3.317,3.317,0,0,1-2.576,1.1,3.115,3.115,0,0,1-3.312-2.928h7.04C160.728,125.016,160.744,124.888,160.744,124.792Zm-4.08-3.3a2.927,2.927,0,0,1,2.992,2.8h-5.968A2.923,2.923,0,0,1,156.664,121.5Zm6.592-1.952v1.04h-1.5v.96h1.5V129h1.136v-7.456h2.56v-.96H164.36v-.992c0-1.04.512-1.584,1.488-1.584a1.924,1.924,0,0,1,1.248.416l.384-.848a2.667,2.667,0,0,0-1.68-.528A2.317,2.317,0,0,0,163.256,119.544Zm7.088-2.416a.808.808,0,1,0,.832.784A.807.807,0,0,0,170.344,117.128ZM169.768,129H170.9v-8.416h-1.136Zm8.592-8.48a3.537,3.537,0,0,0-3.2,1.616v-1.552h-1.088V129h1.136v-4.416a2.759,2.759,0,0,1,2.944-3.04c1.6,0,2.528.912,2.528,2.688V129h1.136v-4.88C181.816,121.7,180.408,120.52,178.36,120.52Zm13.92,4.272a4.01,4.01,0,0,0-4.08-4.272,4.053,4.053,0,0,0-4.112,4.272,4.449,4.449,0,0,0,7.664,2.912l-.64-.736a3.317,3.317,0,0,1-2.576,1.1,3.115,3.115,0,0,1-3.312-2.928h7.04C192.264,125.016,192.28,124.888,192.28,124.792Zm-4.08-3.3a2.927,2.927,0,0,1,2.992,2.8h-5.968A2.923,2.923,0,0,1,188.2,121.5Zm17.936,3.3a4.01,4.01,0,0,0-4.08-4.272,4.053,4.053,0,0,0-4.112,4.272,4.449,4.449,0,0,0,7.664,2.912l-.64-.736a3.317,3.317,0,0,1-2.576,1.1,3.115,3.115,0,0,1-3.312-2.928h7.04C206.12,125.016,206.136,124.888,206.136,124.792Zm-4.08-3.3a2.927,2.927,0,0,1,2.992,2.8H199.08A2.923,2.923,0,0,1,202.056,121.5Zm6.4,7.5h1.136V117.128h-1.136ZM15.12,146.672a1.88,1.88,0,0,1-1.248.432,1.348,1.348,0,0,1-1.456-1.536v-5.024h2.56v-.96h-2.56v-1.84H11.28v1.84h-1.5v.96h1.5v5.088a2.229,2.229,0,0,0,2.464,2.448,2.705,2.705,0,0,0,1.776-.592Zm5.408-7.152a5.344,5.344,0,0,0-3.424,1.136l.512.848a4.287,4.287,0,0,1,2.8-.992c1.568,0,2.384.784,2.384,2.224v.512H20.128c-2.416,0-3.248,1.088-3.248,2.384,0,1.456,1.168,2.448,3.072,2.448a3.16,3.16,0,0,0,2.9-1.392V148h1.088v-5.216C23.936,140.608,22.7,139.52,20.528,139.52Zm-.4,7.664c-1.344,0-2.128-.608-2.128-1.584,0-.864.528-1.5,2.16-1.5H22.8v1.376A2.693,2.693,0,0,1,20.128,147.184ZM37.52,139.52a3.665,3.665,0,0,0-3.328,1.776A3.023,3.023,0,0,0,31.2,139.52a3.4,3.4,0,0,0-3.088,1.6v-1.536H27.024V148H28.16v-4.416a2.713,2.713,0,0,1,2.816-3.04c1.536,0,2.432.912,2.432,2.688V148h1.136v-4.416c0-1.92,1.088-3.04,2.816-3.04,1.52,0,2.416.912,2.416,2.688V148h1.136v-4.88C40.912,140.7,39.568,139.52,37.52,139.52Zm9.424,0a5.344,5.344,0,0,0-3.424,1.136l.512.848a4.287,4.287,0,0,1,2.8-.992c1.568,0,2.384.784,2.384,2.224v.512H46.544c-2.416,0-3.248,1.088-3.248,2.384,0,1.456,1.168,2.448,3.072,2.448a3.16,3.16,0,0,0,2.9-1.392V148h1.088v-5.216C50.352,140.608,49.12,139.52,46.944,139.52Zm-.4,7.664c-1.344,0-2.128-.608-2.128-1.584,0-.864.528-1.5,2.16-1.5h2.64v1.376A2.693,2.693,0,0,1,46.544,147.184Zm9.744-10.08c.64,0,1.1,1.088,2.1,1.088.848,0,1.408-.688,1.44-1.728h-.688c-.032.608-.352.992-.832.992-.624,0-1.1-1.088-2.1-1.088-.848,0-1.408.688-1.44,1.76h.688C55.488,137.488,55.808,137.1,56.288,137.1Zm1.44,2.416a3.537,3.537,0,0,0-3.2,1.616v-1.552H53.44V148h1.136v-4.416a2.759,2.759,0,0,1,2.944-3.04c1.6,0,2.528.912,2.528,2.688V148h1.136v-4.88C61.184,140.7,59.776,139.52,57.728,139.52Zm10.016,8.56a4.28,4.28,0,1,0-4.288-4.288A4.14,4.14,0,0,0,67.744,148.08Zm0-1.008a3.284,3.284,0,1,1,3.12-3.28A3.081,3.081,0,0,1,67.744,147.072Zm17.328-10.944v5.056a3.676,3.676,0,0,0-3.2-1.664,4.281,4.281,0,0,0,0,8.56,3.646,3.646,0,0,0,3.248-1.744V148h1.088V136.128Zm-3.1,10.944a3.284,3.284,0,1,1,3.12-3.28A3.081,3.081,0,0,1,81.968,147.072Zm14.752-3.28a4.01,4.01,0,0,0-4.08-4.272,4.053,4.053,0,0,0-4.112,4.272,4.449,4.449,0,0,0,7.664,2.912l-.64-.736a3.317,3.317,0,0,1-2.576,1.1,3.115,3.115,0,0,1-3.312-2.928H96.7C96.7,144.016,96.72,143.888,96.72,143.792Zm-4.08-3.3a2.927,2.927,0,0,1,2.992,2.8H89.664A2.923,2.923,0,0,1,92.64,140.5Zm10.592,7.5h1.136V136.128h-1.136Zm7.248-8.48a5.344,5.344,0,0,0-3.424,1.136l.512.848a4.287,4.287,0,0,1,2.8-.992c1.568,0,2.384.784,2.384,2.224v.512H110.08c-2.416,0-3.248,1.088-3.248,2.384,0,1.456,1.168,2.448,3.072,2.448a3.16,3.16,0,0,0,2.9-1.392V148h1.088v-5.216C113.888,140.608,112.656,139.52,110.48,139.52Zm-.4,7.664c-1.344,0-2.128-.608-2.128-1.584,0-.864.528-1.5,2.16-1.5h2.64v1.376A2.693,2.693,0,0,1,110.08,147.184Zm21.584-7.664a3.665,3.665,0,0,0-3.328,1.776,3.023,3.023,0,0,0-2.992-1.776,3.4,3.4,0,0,0-3.088,1.6v-1.536h-1.088V148H122.3v-4.416a2.713,2.713,0,0,1,2.816-3.04c1.536,0,2.432.912,2.432,2.688V148h1.136v-4.416c0-1.92,1.088-3.04,2.816-3.04,1.52,0,2.416.912,2.416,2.688V148h1.136v-4.88C135.056,140.7,133.712,139.52,131.664,139.52Zm12.928.064V144a2.737,2.737,0,0,1-2.864,3.056c-1.6,0-2.528-.912-2.528-2.7v-4.768h-1.136v4.88a3.26,3.26,0,0,0,3.552,3.616,3.348,3.348,0,0,0,3.024-1.616V148h1.088v-8.416Zm11.664,4.208a4.01,4.01,0,0,0-4.08-4.272,4.053,4.053,0,0,0-4.112,4.272,4.449,4.449,0,0,0,7.664,2.912l-.64-.736a3.317,3.317,0,0,1-2.576,1.1,3.115,3.115,0,0,1-3.312-2.928h7.04C156.24,144.016,156.256,143.888,156.256,143.792Zm-4.08-3.3a2.927,2.927,0,0,1,2.992,2.8H149.2A2.923,2.923,0,0,1,152.176,140.5Zm8.656,7.584c2.192,0,3.472-.944,3.472-2.4,0-3.232-5.456-1.52-5.456-3.792,0-.8.672-1.392,2.192-1.392a4.314,4.314,0,0,1,2.48.72l.5-.912a5.7,5.7,0,0,0-2.976-.784c-2.144,0-3.328,1.024-3.328,2.4,0,3.328,5.456,1.6,5.456,3.792,0,.832-.656,1.376-2.256,1.376a5.083,5.083,0,0,1-2.992-.944l-.512.9A5.622,5.622,0,0,0,160.832,148.08Zm9.6-1.408a1.88,1.88,0,0,1-1.248.432,1.348,1.348,0,0,1-1.456-1.536v-5.024h2.56v-.96h-2.56v-1.84h-1.136v1.84h-1.5v.96h1.5v5.088a2.229,2.229,0,0,0,2.464,2.448,2.705,2.705,0,0,0,1.776-.592Zm3.552-5.44v-1.648H172.9V148h1.136v-4.288c0-1.984,1.072-3.1,2.832-3.1.08,0,.176.016.272.016v-1.1A3.174,3.174,0,0,0,173.984,141.232Zm8.128-1.712a5.344,5.344,0,0,0-3.424,1.136l.512.848a4.287,4.287,0,0,1,2.8-.992c1.568,0,2.384.784,2.384,2.224v.512h-2.672c-2.416,0-3.248,1.088-3.248,2.384,0,1.456,1.168,2.448,3.072,2.448a3.16,3.16,0,0,0,2.9-1.392V148h1.088v-5.216C185.52,140.608,184.288,139.52,182.112,139.52Zm-.4,7.664c-1.344,0-2.128-.608-2.128-1.584,0-.864.528-1.5,2.16-1.5h2.64v1.376A2.693,2.693,0,0,1,181.712,147.184Zm17.68-7.6v1.664a3.666,3.666,0,0,0-3.248-1.728,4.281,4.281,0,0,0,0,8.56,3.676,3.676,0,0,0,3.2-1.664V151.1h1.136v-11.52Zm-3.152,7.488a3.284,3.284,0,1,1,3.12-3.28A3.081,3.081,0,0,1,196.24,147.072Zm13.856-7.488V144a2.737,2.737,0,0,1-2.864,3.056c-1.6,0-2.528-.912-2.528-2.7v-4.768h-1.136v4.88a3.26,3.26,0,0,0,3.552,3.616,3.348,3.348,0,0,0,3.024-1.616V148h1.088v-8.416Zm11.664,4.208a4.01,4.01,0,0,0-4.08-4.272,4.053,4.053,0,0,0-4.112,4.272,4.449,4.449,0,0,0,7.664,2.912l-.64-.736a3.317,3.317,0,0,1-2.576,1.1,3.115,3.115,0,0,1-3.312-2.928h7.04C221.744,144.016,221.76,143.888,221.76,143.792Zm-4.08-3.3a2.927,2.927,0,0,1,2.992,2.8H214.7A2.923,2.923,0,0,1,217.68,140.5ZM10.032,167.08c2.192,0,3.472-.944,3.472-2.4,0-3.232-5.456-1.52-5.456-3.792,0-.8.672-1.392,2.192-1.392a4.314,4.314,0,0,1,2.48.72l.5-.912a5.7,5.7,0,0,0-2.976-.784c-2.144,0-3.328,1.024-3.328,2.4,0,3.328,5.456,1.6,5.456,3.792,0,.832-.656,1.376-2.256,1.376a5.083,5.083,0,0,1-2.992-.944l-.512.9A5.622,5.622,0,0,0,10.032,167.08Zm12.912-4.288a4.01,4.01,0,0,0-4.08-4.272,4.053,4.053,0,0,0-4.112,4.272,4.168,4.168,0,0,0,4.416,4.288,4.143,4.143,0,0,0,3.248-1.376l-.64-.736a3.317,3.317,0,0,1-2.576,1.1,3.115,3.115,0,0,1-3.312-2.928h7.04C22.928,163.016,22.944,162.888,22.944,162.792Zm-4.08-3.3a2.927,2.927,0,0,1,2.992,2.8H15.888A2.923,2.923,0,0,1,18.864,159.5Zm14.08,7.584a3.71,3.71,0,0,0,3.3-1.664l-.848-.576a2.847,2.847,0,0,1-2.448,1.232,3.281,3.281,0,0,1,0-6.56,2.861,2.861,0,0,1,2.448,1.248l.848-.576a3.676,3.676,0,0,0-3.3-1.664,4.28,4.28,0,1,0,0,8.56Zm8.816,0a4.28,4.28,0,1,0-4.288-4.288A4.14,4.14,0,0,0,41.76,167.08Zm0-1.008a3.284,3.284,0,1,1,3.12-3.28A3.081,3.081,0,0,1,41.76,166.072Zm10.88-7.552a3.537,3.537,0,0,0-3.2,1.616v-1.552H48.352V167h1.136v-4.416a2.759,2.759,0,0,1,2.944-3.04c1.6,0,2.528.912,2.528,2.688V167H56.1v-4.88C56.1,159.7,54.688,158.52,52.64,158.52Zm8.8,8.56c2.192,0,3.472-.944,3.472-2.4,0-3.232-5.456-1.52-5.456-3.792,0-.8.672-1.392,2.192-1.392a4.314,4.314,0,0,1,2.48.72l.5-.912a5.7,5.7,0,0,0-2.976-.784c-2.144,0-3.328,1.024-3.328,2.4,0,3.328,5.456,1.6,5.456,3.792,0,.832-.656,1.376-2.256,1.376a5.083,5.083,0,0,1-2.992-.944l-.512.9A5.622,5.622,0,0,0,61.44,167.08Zm6.144-10.336a.816.816,0,0,0,.832-.832.807.807,0,0,0-.832-.784.808.808,0,1,0,0,1.616ZM67.008,167h1.136v-8.416H67.008Zm10.848-11.872v5.056a3.676,3.676,0,0,0-3.2-1.664,4.281,4.281,0,0,0,0,8.56,3.646,3.646,0,0,0,3.248-1.744V167h1.088V155.128Zm-3.1,10.944a3.284,3.284,0,1,1,3.12-3.28A3.081,3.081,0,0,1,74.752,166.072Zm14.752-3.28a4.01,4.01,0,0,0-4.08-4.272,4.053,4.053,0,0,0-4.112,4.272,4.449,4.449,0,0,0,7.664,2.912l-.64-.736a3.317,3.317,0,0,1-2.576,1.1,3.115,3.115,0,0,1-3.312-2.928h7.04C89.488,163.016,89.5,162.888,89.5,162.792Zm-4.08-3.3a2.927,2.927,0,0,1,2.992,2.8H82.448A2.923,2.923,0,0,1,85.424,159.5Zm7.488.736v-1.648H91.824V167H92.96v-4.288c0-1.984,1.072-3.1,2.832-3.1.08,0,.176.016.272.016v-1.1A3.174,3.174,0,0,0,92.912,160.232Zm12.464,2.56a4.01,4.01,0,0,0-4.08-4.272,4.053,4.053,0,0,0-4.112,4.272,4.449,4.449,0,0,0,7.664,2.912l-.64-.736a3.317,3.317,0,0,1-2.576,1.1,3.115,3.115,0,0,1-3.312-2.928h7.04C105.36,163.016,105.376,162.888,105.376,162.792Zm-4.08-3.3a2.927,2.927,0,0,1,2.992,2.8H98.32A2.923,2.923,0,0,1,101.3,159.5Zm11.68.736v-1.648h-1.088V167h1.136v-4.288c0-1.984,1.072-3.1,2.832-3.1.08,0,.176.016.272.016v-1.1A3.174,3.174,0,0,0,112.976,160.232Zm12.464,2.56a4.01,4.01,0,0,0-4.08-4.272,4.053,4.053,0,0,0-4.112,4.272,4.449,4.449,0,0,0,7.664,2.912l-.64-.736a3.317,3.317,0,0,1-2.576,1.1,3.115,3.115,0,0,1-3.312-2.928h7.04C125.424,163.016,125.44,162.888,125.44,162.792Zm-4.08-3.3a2.927,2.927,0,0,1,2.992,2.8h-5.968A2.923,2.923,0,0,1,121.36,159.5Zm10.736-.976a3.666,3.666,0,0,0-3.248,1.728v-1.664H127.76V170.1H128.9v-4.688a3.676,3.676,0,0,0,3.2,1.664,4.281,4.281,0,0,0,0-8.56Zm-.08,7.552a3.283,3.283,0,1,1,3.136-3.28A3.081,3.081,0,0,1,132.016,166.072Zm7.68-5.84v-1.648h-1.088V167h1.136v-4.288c0-1.984,1.072-3.1,2.832-3.1.08,0,.176.016.272.016v-1.1A3.174,3.174,0,0,0,139.7,160.232Zm12.464,2.56a4.01,4.01,0,0,0-4.08-4.272,4.053,4.053,0,0,0-4.112,4.272,4.449,4.449,0,0,0,7.664,2.912l-.64-.736a3.317,3.317,0,0,1-2.576,1.1,3.115,3.115,0,0,1-3.312-2.928h7.04C152.144,163.016,152.16,162.888,152.16,162.792Zm-4.08-3.3a2.927,2.927,0,0,1,2.992,2.8H145.1A2.923,2.923,0,0,1,148.08,159.5Zm8.656,7.584c2.192,0,3.472-.944,3.472-2.4,0-3.232-5.456-1.52-5.456-3.792,0-.8.672-1.392,2.192-1.392a4.314,4.314,0,0,1,2.48.72l.5-.912a5.7,5.7,0,0,0-2.976-.784c-2.144,0-3.328,1.024-3.328,2.4,0,3.328,5.456,1.6,5.456,3.792,0,.832-.656,1.376-2.256,1.376a5.083,5.083,0,0,1-2.992-.944l-.512.9A5.622,5.622,0,0,0,156.736,167.08Zm12.912-4.288a4.01,4.01,0,0,0-4.08-4.272,4.053,4.053,0,0,0-4.112,4.272,4.449,4.449,0,0,0,7.664,2.912l-.64-.736a3.317,3.317,0,0,1-2.576,1.1,3.115,3.115,0,0,1-3.312-2.928h7.04C169.632,163.016,169.648,162.888,169.648,162.792Zm-4.08-3.3a2.927,2.927,0,0,1,2.992,2.8h-5.968A2.923,2.923,0,0,1,165.568,159.5Zm10.688-.976a3.537,3.537,0,0,0-3.2,1.616v-1.552h-1.088V167H173.1v-4.416a2.759,2.759,0,0,1,2.944-3.04c1.6,0,2.528.912,2.528,2.688V167h1.136v-4.88C179.712,159.7,178.3,158.52,176.256,158.52Zm10.576,7.152a1.88,1.88,0,0,1-1.248.432,1.348,1.348,0,0,1-1.456-1.536v-5.024h2.56v-.96h-2.56v-1.84h-1.136v1.84h-1.5v.96h1.5v5.088a2.229,2.229,0,0,0,2.464,2.448,2.705,2.705,0,0,0,1.776-.592Zm5.408-7.152a5.344,5.344,0,0,0-3.424,1.136l.512.848a4.287,4.287,0,0,1,2.8-.992c1.568,0,2.384.784,2.384,2.224v.512H191.84c-2.416,0-3.248,1.088-3.248,2.384,0,1.456,1.168,2.448,3.072,2.448a3.16,3.16,0,0,0,2.9-1.392V167h1.088v-5.216C195.648,159.608,194.416,158.52,192.24,158.52Zm-.4,7.664c-1.344,0-2.128-.608-2.128-1.584,0-.864.528-1.5,2.16-1.5h2.64v1.376A2.693,2.693,0,0,1,191.84,166.184Zm10.928-.512a1.88,1.88,0,0,1-1.248.432,1.348,1.348,0,0,1-1.456-1.536v-5.024h2.56v-.96h-2.56v-1.84h-1.136v1.84h-1.5v.96h1.5v5.088a2.229,2.229,0,0,0,2.464,2.448,2.705,2.705,0,0,0,1.776-.592Zm3.04-8.928a.816.816,0,0,0,.832-.832.807.807,0,0,0-.832-.784.808.808,0,1,0,0,1.616ZM205.232,167h1.136v-8.416h-1.136Zm10.256-8.416-3.184,7.168-3.152-7.168h-1.184L211.7,167h1.168l3.744-8.416Zm5.408-.064a5.344,5.344,0,0,0-3.424,1.136l.512.848a4.287,4.287,0,0,1,2.8-.992c1.568,0,2.384.784,2.384,2.224v.512H220.5c-2.416,0-3.248,1.088-3.248,2.384,0,1.456,1.168,2.448,3.072,2.448a3.16,3.16,0,0,0,2.9-1.392V167H224.3v-5.216C224.3,159.608,223.072,158.52,220.9,158.52Zm-.4,7.664c-1.344,0-2.128-.608-2.128-1.584,0-.864.528-1.5,2.16-1.5h2.64v1.376A2.693,2.693,0,0,1,220.5,166.184ZM24.7,174.128v5.056a3.676,3.676,0,0,0-3.2-1.664,4.281,4.281,0,0,0,0,8.56,3.646,3.646,0,0,0,3.248-1.744V186H25.84V174.128Zm-3.1,10.944a3.284,3.284,0,1,1,3.12-3.28A3.081,3.081,0,0,1,21.6,185.072Zm14.752-3.28a4.01,4.01,0,0,0-4.08-4.272,4.053,4.053,0,0,0-4.112,4.272,4.168,4.168,0,0,0,4.416,4.288,4.143,4.143,0,0,0,3.248-1.376l-.64-.736a3.317,3.317,0,0,1-2.576,1.1,3.115,3.115,0,0,1-3.312-2.928h7.04C36.336,182.016,36.352,181.888,36.352,181.792Zm-4.08-3.3a2.927,2.927,0,0,1,2.992,2.8H29.3A2.923,2.923,0,0,1,32.272,178.5Zm6.4,7.5h1.136V174.128H38.672ZM51.2,184.672a1.88,1.88,0,0,1-1.248.432,1.348,1.348,0,0,1-1.456-1.536v-5.024h2.56v-.96H48.5v-1.84H47.36v1.84h-1.5v.96h1.5v5.088a2.229,2.229,0,0,0,2.464,2.448,2.705,2.705,0,0,0,1.776-.592Zm5.6,1.408a4.28,4.28,0,1,0-4.288-4.288A4.14,4.14,0,0,0,56.8,186.08Zm0-1.008a3.284,3.284,0,1,1,3.12-3.28A3.081,3.081,0,0,1,56.8,185.072Zm10.624-.4a1.88,1.88,0,0,1-1.248.432,1.348,1.348,0,0,1-1.456-1.536v-5.024h2.56v-.96H64.72v-1.84H63.584v1.84h-1.5v.96h1.5v5.088a2.229,2.229,0,0,0,2.464,2.448,2.705,2.705,0,0,0,1.776-.592Zm5.408-7.152a5.344,5.344,0,0,0-3.424,1.136l.512.848a4.287,4.287,0,0,1,2.8-.992c1.568,0,2.384.784,2.384,2.224v.512H72.432c-2.416,0-3.248,1.088-3.248,2.384,0,1.456,1.168,2.448,3.072,2.448a3.16,3.16,0,0,0,2.9-1.392V186H76.24v-5.216C76.24,178.608,75.008,177.52,72.832,177.52Zm-.4,7.664c-1.344,0-2.128-.608-2.128-1.584,0-.864.528-1.5,2.16-1.5H75.1v1.376A2.693,2.693,0,0,1,72.432,185.184Zm6.9.816h1.136V174.128H79.328Zm14.448-8.416-3.168,7.152-3.168-7.152H86.256l3.76,8.4-.368.816c-.48,1.056-.992,1.408-1.744,1.408a2.1,2.1,0,0,1-1.536-.64l-.528.848a2.88,2.88,0,0,0,2.048.768c1.2,0,2.1-.528,2.8-2.176l4.208-9.424Zm10.4,8.5a3.71,3.71,0,0,0,3.3-1.664l-.848-.576a2.847,2.847,0,0,1-2.448,1.232,3.281,3.281,0,0,1,0-6.56,2.861,2.861,0,0,1,2.448,1.248l.848-.576a3.676,3.676,0,0,0-3.3-1.664,4.28,4.28,0,1,0,0,8.56Zm11.968-8.5V182a2.737,2.737,0,0,1-2.864,3.056c-1.6,0-2.528-.912-2.528-2.7v-4.768h-1.136v4.88a3.26,3.26,0,0,0,3.552,3.616,3.348,3.348,0,0,0,3.024-1.616V186h1.088v-8.416Zm10.272,0-3.168,7.152-3.168-7.152H118.9l3.76,8.4-.368.816c-.48,1.056-.992,1.408-1.744,1.408a2.1,2.1,0,0,1-1.536-.64l-.528.848a2.88,2.88,0,0,0,2.048.768c1.2,0,2.1-.528,2.8-2.176l4.208-9.424Zm5.408-.064a5.344,5.344,0,0,0-3.424,1.136l.512.848a4.287,4.287,0,0,1,2.8-.992c1.568,0,2.384.784,2.384,2.224v.512h-2.672c-2.416,0-3.248,1.088-3.248,2.384,0,1.456,1.168,2.448,3.072,2.448a3.16,3.16,0,0,0,2.9-1.392V186h1.088v-5.216C135.232,178.608,134,177.52,131.824,177.52Zm-.4,7.664c-1.344,0-2.128-.608-2.128-1.584,0-.864.528-1.5,2.16-1.5h2.64v1.376A2.693,2.693,0,0,1,131.424,185.184Zm13.344.9c2.192,0,3.472-.944,3.472-2.4,0-3.232-5.456-1.52-5.456-3.792,0-.8.672-1.392,2.192-1.392a4.314,4.314,0,0,1,2.48.72l.5-.912a5.7,5.7,0,0,0-2.976-.784c-2.144,0-3.328,1.024-3.328,2.4,0,3.328,5.456,1.6,5.456,3.792,0,.832-.656,1.376-2.256,1.376a5.083,5.083,0,0,1-2.992-.944l-.512.9A5.622,5.622,0,0,0,144.768,186.08Zm12.912-4.288a4.01,4.01,0,0,0-4.08-4.272,4.053,4.053,0,0,0-4.112,4.272,4.449,4.449,0,0,0,7.664,2.912l-.64-.736a3.317,3.317,0,0,1-2.576,1.1,3.115,3.115,0,0,1-3.312-2.928h7.04C157.664,182.016,157.68,181.888,157.68,181.792Zm-4.08-3.3a2.927,2.927,0,0,1,2.992,2.8h-5.968A2.923,2.923,0,0,1,153.6,178.5ZM160,186h1.136V174.128H160Zm11.648-4.208a4.01,4.01,0,0,0-4.08-4.272,4.053,4.053,0,0,0-4.112,4.272,4.449,4.449,0,0,0,7.664,2.912l-.64-.736a3.317,3.317,0,0,1-2.576,1.1,3.115,3.115,0,0,1-3.312-2.928h7.04C171.632,182.016,171.648,181.888,171.648,181.792Zm-4.08-3.3a2.927,2.927,0,0,1,2.992,2.8h-5.968A2.923,2.923,0,0,1,167.568,178.5Zm9.888,7.584a3.71,3.71,0,0,0,3.3-1.664l-.848-.576a2.847,2.847,0,0,1-2.448,1.232,3.281,3.281,0,0,1,0-6.56,2.861,2.861,0,0,1,2.448,1.248l.848-.576a3.676,3.676,0,0,0-3.3-1.664,4.28,4.28,0,1,0,0,8.56Zm8.864,0a3.71,3.71,0,0,0,3.3-1.664l-.848-.576a2.847,2.847,0,0,1-2.448,1.232,3.281,3.281,0,0,1,0-6.56,2.861,2.861,0,0,1,2.448,1.248l.848-.576a3.676,3.676,0,0,0-3.3-1.664,4.28,4.28,0,1,0,0,8.56Zm6.1-10.336a.816.816,0,0,0,.832-.832.807.807,0,0,0-.832-.784.808.808,0,1,0,0,1.616ZM191.84,186h1.136v-8.416H191.84Zm6.688-9.712h1.12l2.592-1.984h-1.52Zm1.056,9.792a4.28,4.28,0,1,0-4.288-4.288A4.14,4.14,0,0,0,199.584,186.08Zm0-1.008a3.284,3.284,0,1,1,3.12-3.28A3.081,3.081,0,0,1,199.584,185.072Zm10.88-7.552a3.537,3.537,0,0,0-3.2,1.616v-1.552h-1.088V186h1.136v-4.416a2.759,2.759,0,0,1,2.944-3.04c1.6,0,2.528.912,2.528,2.688V186h1.136v-4.88C213.92,178.7,212.512,177.52,210.464,177.52ZM65.016,205.08c2.192,0,3.472-.944,3.472-2.4,0-3.232-5.456-1.52-5.456-3.792,0-.8.672-1.392,2.192-1.392a4.314,4.314,0,0,1,2.48.72l.5-.912a5.7,5.7,0,0,0-2.976-.784c-2.144,0-3.328,1.024-3.328,2.4,0,3.328,5.456,1.6,5.456,3.792,0,.832-.656,1.376-2.256,1.376a5.083,5.083,0,0,1-2.992-.944l-.512.9A5.622,5.622,0,0,0,65.016,205.08Zm12.912-4.288a4.01,4.01,0,0,0-4.08-4.272,4.053,4.053,0,0,0-4.112,4.272A4.449,4.449,0,0,0,77.4,203.7l-.64-.736a3.317,3.317,0,0,1-2.576,1.1,3.115,3.115,0,0,1-3.312-2.928h7.04C77.912,201.016,77.928,200.888,77.928,200.792Zm-4.08-3.3a2.927,2.927,0,0,1,2.992,2.8H70.872A2.923,2.923,0,0,1,73.848,197.5Zm7.488.736v-1.648H80.248V205h1.136v-4.288c0-1.984,1.072-3.1,2.832-3.1.08,0,.176.016.272.016v-1.1A3.174,3.174,0,0,0,81.336,198.232ZM92.168,193.3h-1.52l-2.192,1.984h1.12Zm-2.7,3.216a5.344,5.344,0,0,0-3.424,1.136l.512.848a4.287,4.287,0,0,1,2.8-.992c1.568,0,2.384.784,2.384,2.224v.512H89.064c-2.416,0-3.248,1.088-3.248,2.384,0,1.456,1.168,2.448,3.072,2.448a3.16,3.16,0,0,0,2.9-1.392V205h1.088v-5.216C92.872,197.608,91.64,196.52,89.464,196.52Zm-.4,7.664c-1.344,0-2.128-.608-2.128-1.584,0-.864.528-1.5,2.16-1.5h2.64v1.376A2.693,2.693,0,0,1,89.064,204.184ZM103.1,196.52a5.344,5.344,0,0,0-3.424,1.136l.512.848a4.287,4.287,0,0,1,2.8-.992c1.568,0,2.384.784,2.384,2.224v.512H102.7c-2.416,0-3.248,1.088-3.248,2.384,0,1.456,1.168,2.448,3.072,2.448a3.16,3.16,0,0,0,2.9-1.392V205H106.5v-5.216C106.5,197.608,105.272,196.52,103.1,196.52Zm-.4,7.664c-1.344,0-2.128-.608-2.128-1.584,0-.864.528-1.5,2.16-1.5h2.64v1.376A2.693,2.693,0,0,1,102.7,204.184Zm6.9.816h1.136V193.128h-1.136Zm11.648-4.208a4.01,4.01,0,0,0-4.08-4.272,4.053,4.053,0,0,0-4.112,4.272,4.449,4.449,0,0,0,7.664,2.912l-.64-.736a3.317,3.317,0,0,1-2.576,1.1,3.115,3.115,0,0,1-3.312-2.928h7.04C121.224,201.016,121.24,200.888,121.24,200.792Zm-4.08-3.3a2.927,2.927,0,0,1,2.992,2.8h-5.968A2.923,2.923,0,0,1,117.16,197.5Zm9.1-.976a5.344,5.344,0,0,0-3.424,1.136l.512.848a4.287,4.287,0,0,1,2.8-.992c1.568,0,2.384.784,2.384,2.224v.512h-2.672c-2.416,0-3.248,1.088-3.248,2.384,0,1.456,1.168,2.448,3.072,2.448a3.16,3.16,0,0,0,2.9-1.392V205h1.088v-5.216C129.672,197.608,128.44,196.52,126.264,196.52Zm-.4,7.664c-1.344,0-2.128-.608-2.128-1.584,0-.864.528-1.5,2.16-1.5h2.64v1.376A2.693,2.693,0,0,1,125.864,204.184Zm10.928-.512a1.88,1.88,0,0,1-1.248.432,1.348,1.348,0,0,1-1.456-1.536v-5.024h2.56v-.96h-2.56v-1.84h-1.136v1.84h-1.5v.96h1.5v5.088a2.229,2.229,0,0,0,2.464,2.448,2.705,2.705,0,0,0,1.776-.592Zm5.6,1.408a4.28,4.28,0,1,0-4.288-4.288A4.14,4.14,0,0,0,142.392,205.08Zm0-1.008a3.284,3.284,0,1,1,3.12-3.28A3.081,3.081,0,0,1,142.392,204.072Zm7.68-5.84v-1.648h-1.088V205h1.136v-4.288c0-1.984,1.072-3.1,2.832-3.1.08,0,.176.016.272.016v-1.1A3.174,3.174,0,0,0,150.072,198.232Zm5.776-3.488a.816.816,0,0,0,.832-.832.807.807,0,0,0-.832-.784.808.808,0,1,0,0,1.616ZM155.272,205h1.136v-8.416h-1.136Zm7.248-8.48a5.344,5.344,0,0,0-3.424,1.136l.512.848a4.287,4.287,0,0,1,2.8-.992c1.568,0,2.384.784,2.384,2.224v.512H162.12c-2.416,0-3.248,1.088-3.248,2.384,0,1.456,1.168,2.448,3.072,2.448a3.16,3.16,0,0,0,2.9-1.392V205h1.088v-5.216C165.928,197.608,164.7,196.52,162.52,196.52Zm-.4,7.664c-1.344,0-2.128-.608-2.128-1.584,0-.864.528-1.5,2.16-1.5h2.64v1.376A2.693,2.693,0,0,1,162.12,204.184Zm7.008.9a.874.874,0,0,0,.864-.88.86.86,0,0,0-.864-.864.847.847,0,0,0-.848.864A.861.861,0,0,0,169.128,205.08Z" transform="translate(4074 -5252)" fill="#00223d"/>
  </g>
</svg>
