<svg xmlns="http://www.w3.org/2000/svg" width="210.386" height="161.22" viewBox="0 0 210.386 161.22">
  <g id="Grupo_13664" data-name="Grupo 13664" transform="translate(-275.483 -68.676)">
    <path id="Trazado_20073" data-name="Trazado 20073" d="M299.789,97.95c-2.417-2.675,3.529-20.787,7.566-22.882,2.821-1.464,23.485,5.39,23.722,10.078C331.431,92.161,302.812,101.295,299.789,97.95Z" fill="#f4f3e4"/>
    <path id="Trazado_20074" data-name="Trazado 20074" d="M297.911,155.233c-3.476-23.948,73.263-85.146,93.026-84.449,36.818,1.3,108.728,89.116,92.615,119.479C471.41,213.143,303.469,193.537,297.911,155.233Z" fill="#f4f3e4"/>
    <g id="Grupo_13663" data-name="Grupo 13663">
      <g id="Grupo_13639" data-name="Grupo 13639">
        <g id="Grupo_13619" data-name="Grupo 13619">
          <path id="Trazado_20075" data-name="Trazado 20075" d="M391.179,163.381c-9.918,13.925-31.431,15.788-42.933,2.7-6.046-6.874-6.875-16.223-5.746-24.96,1.377-10.716,4.048-21.245,5.425-31.991,1.19-9.3.725-19.774,4.721-28.439,2.526-5.477,7.692-10.073,13.686-10.446a16.12,16.12,0,0,1,19.65,4.69c6.553,8.272,6.3,20.2,7.909,30.127,1.667,10.342,3.676,20.716,3.8,31.224C397.8,145.523,396.687,155.658,391.179,163.381Z" fill="#1a2c6d"/>
          <path id="Trazado_20076" data-name="Trazado 20076" d="M353.82,166.693c-16.591-2.6-14.4-24.912-11.262-36.692,1.916-7.18,4.832-14,6.306-21.314a181.593,181.593,0,0,0,2.629-21.321c0-.066-.094-.064-.1,0-1.071,8.6-2.079,17.262-4.281,25.657-2.08,7.928-5.476,15.387-6.712,23.542-1.032,6.8-1.655,14.332,1.083,20.83,2.133,5.062,6.622,9.349,12.267,9.827C354.047,167.248,354.121,166.74,353.82,166.693Z" fill="#1a2c6d"/>
          <path id="Trazado_20077" data-name="Trazado 20077" d="M398.438,132.77c-.85-9.745-2.785-19.431-4.48-29.057-1.624-9.219-2.914-18.743-7.207-27.181-.027-.053-.107-.006-.08.048,3.874,7.855,4.856,16.866,6.316,25.4,1.582,9.254,3.376,18.521,4.5,27.844,1.042,8.635,1.427,18.013-2.522,26.027a28.71,28.71,0,0,1-16.887,14.488c-.29.1-.166.555.127.46a29.249,29.249,0,0,0,16.485-13.389C398.876,149.949,399.164,141.1,398.438,132.77Z" fill="#1a2c6d"/>
          <path id="Trazado_20078" data-name="Trazado 20078" d="M357.288,77.516c-6.655,4.337-8.185,12.31-9.494,19.6-1.649,9.174-3.64,18.264-5.633,27.368-1.765,8.06-3.487,16.691-1.666,24.895,1.677,7.56,6.138,13.976,11.627,19.285.08.077.2-.043.122-.121-5.308-5.3-9.66-11.892-11.247-19.3-1.8-8.413.12-17.269,1.97-25.5,1.831-8.155,3.611-16.311,5.112-24.535,1.395-7.648,2.466-16.481,9.533-21.127C357.955,77.844,357.635,77.29,357.288,77.516Z" fill="#1a2c6d"/>
          <path id="Trazado_20079" data-name="Trazado 20079" d="M401.16,139.92c-.481-7.718-2.473-15.293-3.971-22.854-1.552-7.835-2.029-15.815-3.459-23.665-1.348-7.394-3.9-14-8.887-19.746-.054-.062-.139.027-.089.088,5.608,6.874,7.8,14.891,9.012,23.5,1.257,8.906,2.27,17.7,4.169,26.51,1.87,8.672,4.469,18.407,1.715,27.157A25.722,25.722,0,0,1,383.5,167.3c-.17.058-.1.328.074.271C395.548,163.634,401.921,152.121,401.16,139.92Z" fill="#1a2c6d"/>
        </g>
        <path id="Trazado_20080" data-name="Trazado 20080" d="M409.993,223.138l-39.009-.013v.013H331.989c3.97-17.636,18.981-32.4,18.981-32.4h40.042S406.023,205.5,409.993,223.138Z" fill="#1a2c6d"/>
        <g id="Grupo_13620" data-name="Grupo 13620">
          <path id="Trazado_20081" data-name="Trazado 20081" d="M354.115,122.611c-19.038,9.518-48.411,42.939-47.041,49.05,1.784,7.957,22.5-1.719,26.488-5.983,6-6.422,21.232-25.278,25.266-31.487,4.071-6.265,8.146-14.511,2.492-14.058A26.513,26.513,0,0,0,354.115,122.611Z" fill="#d97b58"/>
        </g>
        <g id="Grupo_13621" data-name="Grupo 13621">
          <path id="Trazado_20082" data-name="Trazado 20082" d="M386.212,122.349c11.355,6.671,36.979,23.9,39.571,32.734,2.3,7.824-10.443,12.035-15.58,10.291-8.324-2.826-29.907-23.8-33.644-30.19C371.855,127.141,373.946,115.142,386.212,122.349Z" fill="#d97b58"/>
        </g>
        <g id="Grupo_13623" data-name="Grupo 13623">
          <path id="Trazado_20083" data-name="Trazado 20083" d="M401.194,204.039c-1.968,1.671-14.931,13.417-30.117,13.417s-28.149-11.746-30.118-13.417c-1.735-1.495,2.768-7.487,3.879-13.293a163.683,163.683,0,0,0,2.333-22.316,23.3,23.3,0,0,1-3.915-12.932c.137-9.643,12.9-32.671,19.09-35.6a17.386,17.386,0,0,1,17.461,0c6.191,2.929,18.953,25.957,19.091,35.6a23.3,23.3,0,0,1-3.915,12.932,163.68,163.68,0,0,0,2.333,22.316C398.427,196.552,402.93,202.544,401.194,204.039Z" fill="#d97b58"/>
          <g id="Grupo_13622" data-name="Grupo 13622">
            <path id="Trazado_20084" data-name="Trazado 20084" d="M372.277,165.64c-6.534,1.176-13.187,3.913-19.886,2.563a.048.048,0,0,0-.024.093c6.686,2.35,13.541-.228,20-2.346A.162.162,0,0,0,372.277,165.64Z" fill="#cc4d35"/>
            <path id="Trazado_20085" data-name="Trazado 20085" d="M388.867,166.815c-6.815,2.389-13.934-.926-20.69,1.424a.081.081,0,0,0,.045.155c6.915-1.21,14.42,1.721,21-1.352C389.523,166.9,389.176,166.706,388.867,166.815Z" fill="#cc4d35"/>
          </g>
          <path id="Trazado_20086" data-name="Trazado 20086" d="M350.073,136.276a.133.133,0,0,0-.243-.1c-.859,1.8-1.718,3.676-2.528,5.6.213-1.109.414-2.22.61-3.326.031-.175-.226-.253-.272-.075-.525,2.063-1.051,4.146-1.472,6.241a46.379,46.379,0,0,0-2.813,10.667c-.588,4.877.331,10.131,3.8,13.787.361.381.879-.173.564-.564C340.005,158.924,346.547,146.193,350.073,136.276Z" fill="#cc4d35"/>
          <path id="Trazado_20087" data-name="Trazado 20087" d="M392.463,136.276c-.05-.14.178-.238.243-.1.86,1.8,1.719,3.676,2.528,5.6-.213-1.109-.413-2.22-.61-3.326-.031-.175.227-.253.272-.075.526,2.063,1.052,4.146,1.473,6.241a46.381,46.381,0,0,1,2.813,10.667c.588,4.877-.332,10.131-3.8,13.787-.361.381-.879-.173-.564-.564C402.531,158.924,395.99,146.193,392.463,136.276Z" fill="#cc4d35"/>
        </g>
        <g id="Grupo_13632" data-name="Grupo 13632">
          <g id="Grupo_13624" data-name="Grupo 13624">
            <path id="Trazado_20088" data-name="Trazado 20088" d="M379.05,102.3s-.65,9.4-1.151,16.061c-.273,3.542-.51,6.312-.571,6.489-.465,1.19-1.76,5.232-6.907,5.033-2.987-.121-4.952-2.89-5.459-4.6-.048-.164-.218-2.494-.441-5.616-.459-6.705-1.12-17.027-1.12-17.027Z" fill="#f5c1b8"/>
            <path id="Trazado_20089" data-name="Trazado 20089" d="M379.05,102.3s-.65,9.4-1.151,16.061a14.744,14.744,0,0,1-13.378,1.3c-.459-6.705-1.12-17.027-1.12-17.027Z" fill="#d691a1"/>
          </g>
          <g id="Grupo_13631" data-name="Grupo 13631">
            <g id="Grupo_13625" data-name="Grupo 13625">
              <path id="Trazado_20090" data-name="Trazado 20090" d="M383.792,97.356s3.341-6.405,6.2-5.288.876,10.028-2.1,11.6a3.207,3.207,0,0,1-4.484-1.155Z" fill="#f5c1b8"/>
              <path id="Trazado_20091" data-name="Trazado 20091" d="M389.356,94.608a.044.044,0,0,1,.028.082c-2.077,1.173-2.967,3.357-3.5,5.571a1.771,1.771,0,0,1,2.565-.823c.062.034.019.131-.045.126a1.972,1.972,0,0,0-2.064.962,9.538,9.538,0,0,0-.8,1.877c-.077.209-.445.15-.4-.085l.012-.053C384.727,99.476,386.391,95.28,389.356,94.608Z" fill="#d691a1"/>
            </g>
            <g id="Grupo_13626" data-name="Grupo 13626">
              <path id="Trazado_20092" data-name="Trazado 20092" d="M356.443,98.058s-3.665-6.226-6.458-4.964-.36,10.061,2.692,11.477a3.207,3.207,0,0,0,4.419-1.383Z" fill="#f5c1b8"/>
              <path id="Trazado_20093" data-name="Trazado 20093" d="M350.745,95.6c-.05-.009-.066.061-.023.083,2.134,1.065,3.135,3.2,3.782,5.384a1.772,1.772,0,0,0-2.6-.69c-.06.037-.012.131.051.123a1.973,1.973,0,0,1,2.111.856,9.493,9.493,0,0,1,.9,1.832c.088.205.452.128.395-.1l-.014-.053C355.617,100.223,353.741,96.118,350.745,95.6Z" fill="#d691a1"/>
            </g>
            <path id="Trazado_20094" data-name="Trazado 20094" d="M353.451,96.37c1.873,18.874,12.544,18.868,15.808,19.087,3.7.248,17.877-1.714,17.964-20.681s-9.281-24.062-17.774-23.661S351.578,77.5,353.451,96.37Z" fill="#f5c1b8"/>
            <g id="Grupo_13630" data-name="Grupo 13630">
              <g id="Grupo_13627" data-name="Grupo 13627">
                <path id="Trazado_20095" data-name="Trazado 20095" d="M374.381,96.2c.011-.049.1.063.1.116-.069,1.29.068,2.779,1.227,3.234.036.014.03.079-.012.072C374.272,99.393,374.108,97.414,374.381,96.2Z" fill="#1a2c6d"/>
                <path id="Trazado_20096" data-name="Trazado 20096" d="M375.564,94.88c2.08-.112,2.151,4.056.224,4.16C373.891,99.142,373.82,94.974,375.564,94.88Z" fill="#1a2c6d"/>
                <path id="Trazado_20097" data-name="Trazado 20097" d="M376.2,95c.372.142.772.448,1.175.4.466-.053.727-.518.945-.959.022-.046.062-.02.073.03a1.4,1.4,0,0,1-.7,1.781c-.681.248-1.321-.281-1.654-.964C375.978,95.165,376.052,94.943,376.2,95Z" fill="#1a2c6d"/>
              </g>
              <g id="Grupo_13628" data-name="Grupo 13628">
                <path id="Trazado_20098" data-name="Trazado 20098" d="M365.125,96.2c-.015-.047-.093.073-.085.125.19,1.278.193,2.774-.918,3.335-.034.017-.023.081.02.07C365.534,99.367,365.51,97.381,365.125,96.2Z" fill="#1a2c6d"/>
                <path id="Trazado_20099" data-name="Trazado 20099" d="M363.824,95c-2.082.084-1.76,4.241.168,4.163C365.889,99.081,365.568,94.925,363.824,95Z" fill="#1a2c6d"/>
                <path id="Trazado_20100" data-name="Trazado 20100" d="M363.16,95.209c-.338.211-.671.588-1.075.622-.468.039-.814-.368-1.112-.758-.031-.041-.065-.008-.067.043-.022.734.248,1.49,1.033,1.613.716.111,1.242-.531,1.436-1.266C363.412,95.327,363.3,95.124,363.16,95.209Z" fill="#1a2c6d"/>
              </g>
              <path id="Trazado_20101" data-name="Trazado 20101" d="M372.147,107.734c-.331.279-.669.671-1.139.676a3.414,3.414,0,0,1-1.361-.425.045.045,0,0,0-.061.062,1.739,1.739,0,0,0,1.584.819,1.373,1.373,0,0,0,1.1-1.065C372.292,107.728,372.2,107.693,372.147,107.734Z" fill="#d691a1"/>
              <path id="Trazado_20102" data-name="Trazado 20102" d="M362.421,91.687a12.655,12.655,0,0,0,1.251-.388,2.124,2.124,0,0,0,1.2-.639.676.676,0,0,0-.078-.82,1.672,1.672,0,0,0-1.678-.237,2.454,2.454,0,0,0-1.456,1.009A.72.72,0,0,0,362.421,91.687Z" fill="#1a2c6d"/>
              <path id="Trazado_20103" data-name="Trazado 20103" d="M376.9,91.414a12.16,12.16,0,0,1-1.282-.269,2.112,2.112,0,0,1-1.255-.523.674.674,0,0,1,0-.824,1.674,1.674,0,0,1,1.649-.393,2.461,2.461,0,0,1,1.544.867A.721.721,0,0,1,376.9,91.414Z" fill="#1a2c6d"/>
              <g id="Grupo_13629" data-name="Grupo 13629">
                <path id="Trazado_20104" data-name="Trazado 20104" d="M369.479,101.887s-.079,1.946.008,2.851a4.465,4.465,0,0,0,4.6-1.924c.063-.088-.07-.177-.147-.112a5.856,5.856,0,0,1-3.751,1.506c-.088-.245.176-3.326.031-3.323a7.916,7.916,0,0,0-2.011.666c.047-4.058.744-8.075.731-12.115,0-.145-.218-.169-.242-.036a95.541,95.541,0,0,0-1.342,13.015C367.333,102.937,369.131,102.076,369.479,101.887Z" fill="#d691a1"/>
              </g>
            </g>
            <path id="Trazado_20105" data-name="Trazado 20105" d="M387.655,91.132a18.334,18.334,0,0,1-2.92-.893,34.709,34.709,0,0,0-3.03-9.281c-.02-.051-.11-.021-.09.041a33.542,33.542,0,0,1,1.69,8.778c-.44-.144-.92-.288-1.42-.431a41.585,41.585,0,0,0-1.29-5.452.057.057,0,0,0-.11.031,29.534,29.534,0,0,1,.48,5.154c-.97-.257-2.01-.514-3.12-.75-.13-1.2-.32-2.392-.5-3.583a.046.046,0,0,0-.09.011,28.915,28.915,0,0,1,.12,3.48,41.085,41.085,0,0,0-7.8-.8,24.4,24.4,0,0,0-3.28.226c.01-.606.03-1.212.08-1.817a.122.122,0,0,0-.24-.031c-.09.616-.18,1.263-.25,1.91-.26.03-.52.071-.77.112a30.892,30.892,0,0,1,.51-4.928.062.062,0,1,0-.12-.03,44.482,44.482,0,0,0-1.04,5.092,38.663,38.663,0,0,0-6.92,2.135,28.241,28.241,0,0,1,.24-4.579c.01-.061-.09-.092-.1-.02a35.244,35.244,0,0,0-.76,4.856c-.34.144-.67.287-.97.411a34.336,34.336,0,0,1,.62-7.269.135.135,0,1,0-.26-.072,35.9,35.9,0,0,0-1.54,7.854c-1.37.595-2.16.872-2.15.441.29-18.931,12.1-21.354,17.59-21.354C388.6,70.373,388.465,91.029,387.655,91.132Z" fill="#1a2c6d"/>
            <path id="Trazado_20106" data-name="Trazado 20106" d="M354.9,84.5s.057,11.137-1.276,13.41S352,84.5,354.422,81.155Z" fill="#1a2c6d"/>
            <path id="Trazado_20107" data-name="Trazado 20107" d="M385.868,84.5s-.056,11.137,1.277,13.41,1.627-13.409-.794-16.753Z" fill="#1a2c6d"/>
          </g>
          <path id="Trazado_20108" data-name="Trazado 20108" d="M362.691,117.326c1.073-.537,4.53,1.234,8.859,1.117s6.828-2.492,7.641-1.742.125,5.562,0,6.625-3.282,7.631-7.641,7.631-7.672-5.444-8.109-6.194S361.566,117.888,362.691,117.326Z" fill="#d97b58"/>
        </g>
        <g id="Grupo_13634" data-name="Grupo 13634">
          <g id="Grupo_13633" data-name="Grupo 13633">
            <path id="Trazado_20109" data-name="Trazado 20109" d="M370.211,154.257q-1.309-3.8-2.8-7.531c-.812-2.043-2.009-5.584-2.828-5.443-.725.125-.754,4.242-.34,6.684.024.137.114.128.093-.012-.251-1.627-.278-6.4.258-6.449s1.41,2.042,1.663,2.626c1.188,2.751,2.183,5.571,3.173,8.4,2.033,5.8,3.775,11.716,6.082,17.414a.082.082,0,0,0,.154-.057C373.771,164.7,372.01,159.477,370.211,154.257Z" fill="#fff"/>
            <line id="Línea_225" data-name="Línea 225" x1="2.261" y1="6.583" transform="translate(362.478 135.29)" fill="none" stroke="#1a2c6d" stroke-miterlimit="10" stroke-width="0.25"/>
          </g>
          <path id="Trazado_20110" data-name="Trazado 20110" d="M331.225,174.167c6.946-4.932,14.118-11.771,20.133-17.443,3.06-2.885-2.161-11.612-7.664-9.808-13.564,4.444-27.206,7.784-32.95,17.674-3.383,5.822-4.891,7.745-2.666,11.327C311.882,182.04,320.1,182.064,331.225,174.167Z" fill="#f5c1b8"/>
          <path id="Trazado_20111" data-name="Trazado 20111" d="M310.87,174.039a1.892,1.892,0,0,1,2.5-1.066,1.443,1.443,0,0,1,.309,2.394c-.632.551-1.794.026-1.475-.9.049-.143.263-.048.247.111-.053.566.685.577.913.207a.823.823,0,0,0-.065-.935.96.96,0,0,0-1.271-.128,1.412,1.412,0,0,0-.656,1.225,1.914,1.914,0,0,0,.79,1.3c.089.079,0,.252-.1.222A1.912,1.912,0,0,1,310.87,174.039Z" fill="#d691a1"/>
          <path id="Trazado_20112" data-name="Trazado 20112" d="M336.7,149.387l10.6-4.413a27.231,27.231,0,0,1,8.311-5.527c4.524-1.715,11.745-.9,13.087,2.59s-.71,2.807-2.638,3.59-5.24,5.278-8.4,6.188c0,0-.889.725-3.408,2.622s-10.5,8.592-10.5,8.592S335.024,158.981,336.7,149.387Z" fill="#f5c1b8"/>
          <path id="Trazado_20113" data-name="Trazado 20113" d="M339.467,147.065c4.1,1.251,9.938,10.308,7.522,15.142-.75,1.5-2.75,2.916-4.417,4.166s-15.167,13.476-22.75,13.947-10.588-.947-12.794-4.53,3.093-13.218,6.819-16.692,20.321-9.558,21.773-10.225S338,146.617,339.467,147.065Z" fill="#d97b58"/>
          <path id="Trazado_20114" data-name="Trazado 20114" d="M340.371,147.33a2.182,2.182,0,0,0-2.8.111,15.624,15.624,0,0,1-3.564,2.07c-1.324.455-2.667.845-3.986,1.317a79.872,79.872,0,0,0-7.944,3.361.11.11,0,0,0-.082-.029,11.56,11.56,0,0,0-3.889,1.085c-.1.042-.028.2.073.171,1.006-.337,2.028-.557,3.051-.8-1.75.872-3.482,1.785-5.183,2.772-.065.038-.007.135.06.1a116.506,116.506,0,0,1,12.77-5.554c1.984-.727,4.057-1.247,6.025-2,1.52-.584,3.768-3.012,5.358-2.348C340.421,147.645,340.482,147.414,340.371,147.33Z" fill="#cc4d35"/>
          <path id="Trazado_20115" data-name="Trazado 20115" d="M347.574,159.629a.059.059,0,0,0-.113.031c.352,2.532-1.766,3.859-3.373,5.327-.126.115.034.3.175.227C346.28,164.164,348.411,162.083,347.574,159.629Z" fill="#cc4d35"/>
        </g>
        <g id="Grupo_13638" data-name="Grupo 13638">
          <path id="Trazado_20116" data-name="Trazado 20116" d="M408.884,171.265c-8.366,1.6-16.9,1.242-25.154,1.66-4.2.213-8.4-7.481-3.29-10.207,12.594-6.718,27.31-14.07,35.7-12.868,6.665.955,8.975,1.829,10.022,5.914C427.952,162.746,422.281,168.7,408.884,171.265Z" fill="#f5c1b8"/>
          <path id="Trazado_20117" data-name="Trazado 20117" d="M423.934,157.611a1.893,1.893,0,0,0-2.5,1.068,1.444,1.444,0,0,0,1.515,1.88.9.9,0,0,0,.368-1.691c-.138-.063-.217.157-.091.256.445.352-.058.893-.483.8a.825.825,0,0,1-.63-.694.96.96,0,0,1,.787-1.006,1.414,1.414,0,0,1,1.339.374,1.91,1.91,0,0,1,.389,1.467c0,.118.18.176.228.083A1.912,1.912,0,0,0,423.934,157.611Z" fill="#d691a1"/>
          <g id="Grupo_13637" data-name="Grupo 13637">
            <path id="Trazado_20118" data-name="Trazado 20118" d="M377.183,157.181c-2.629,1.377-4.858,4.372-6.512,6.857a28.49,28.49,0,0,0-4.006,9.362.052.052,0,1,0,.1.029,33.777,33.777,0,0,1,8.1-13.431c.532-.523,4.82-4.25,3.57-1.093a35.9,35.9,0,0,1-2.118,3.1,10.916,10.916,0,0,0-2.035,5.88c0,.274.413.35.464.067a15.1,15.1,0,0,1,2.389-5.925c.692-1.028,2.058-2.284,2.285-3.638C379.737,156.514,378.384,156.553,377.183,157.181Z" fill="#fff"/>
            <path id="Trazado_20119" data-name="Trazado 20119" d="M382.822,187.612a.137.137,0,0,0-.236.138,44.99,44.99,0,0,0,3.736,5.474c.535.7,2.875,4.274,1.5,5.191-3.726,2.485-12.5-6.511-15.161-10.24a.27.27,0,0,0-.465.272,28.073,28.073,0,0,0,6.882,8.218c1.911,1.562,5.106,3.545,7.718,3.093C393.681,198.565,384.189,189.495,382.822,187.612Z" fill="#fff"/>
            <g id="Grupo_13635" data-name="Grupo 13635">
              <path id="Trazado_20120" data-name="Trazado 20120" d="M384.3,189.493c.789.122-3.074-4.075-4.052-10.3-.2-1.275-.192-5.023-.832-6.888s-2.929-4.111-4.051-6.606c-.384-.853-6.524,3.687-8.611,6.92a9.071,9.071,0,0,0-.933,5.837c1.154,4.666,6.585,11.474,8.284,12.21C375.47,191.253,376.813,188.329,384.3,189.493Z" fill="#fff"/>
            </g>
            <g id="Grupo_13636" data-name="Grupo 13636">
              <path id="Trazado_20121" data-name="Trazado 20121" d="M374.212,166.787a32.826,32.826,0,0,1,3.184,4.737,10.237,10.237,0,0,1,.861,4.643,23.847,23.847,0,0,0,3.975,11.893.04.04,0,0,1-.066.044,19.634,19.634,0,0,1-4.093-9.689c-.27-1.925-.075-4.008-.814-5.842-.806-2-2.3-3.707-3.284-5.624A.144.144,0,0,1,374.212,166.787Z" fill="#f4f3e4"/>
              <path id="Trazado_20122" data-name="Trazado 20122" d="M367.81,172.762a36.784,36.784,0,0,0-.331,4.242c.1,1.662,1.141,3.31,1.957,4.706,1.545,2.643,3.478,5.024,5.251,7.515.015.021-.017.04-.033.022a43.41,43.41,0,0,1-6.174-8.6,9.3,9.3,0,0,1-1.3-3.393,17.533,17.533,0,0,1,.556-4.491C367.741,172.716,367.813,172.718,367.81,172.762Z" fill="#f4f3e4"/>
              <path id="Trazado_20123" data-name="Trazado 20123" d="M372.521,169.03a24.178,24.178,0,0,1,3.131,8.433,41.853,41.853,0,0,0,3.584,9.931c.016.031-.027.062-.044.031a35.654,35.654,0,0,1-3.452-8.77c-.367-1.486-.625-3-1.035-4.472a20.616,20.616,0,0,0-2.327-5.056C372.321,169.033,372.46,168.936,372.521,169.03Z" fill="#f4f3e4"/>
              <path id="Trazado_20124" data-name="Trazado 20124" d="M370.25,170.569a17.163,17.163,0,0,0,1.31,8.993,45.871,45.871,0,0,0,5.053,8.045c.024.034-.028.068-.053.037-4.051-5.034-7.453-10.377-6.486-17.1A.089.089,0,1,1,370.25,170.569Z" fill="#f4f3e4"/>
            </g>
          </g>
          <path id="Trazado_20125" data-name="Trazado 20125" d="M390.134,158.008s-11.512,4.212-15.88,6.292-9.473,6.234-10.735,9.586c-1.511,4.014,3.51,3.082,5.588,3.2a22.794,22.794,0,0,0,12.534-2.918c2.711-1.612,13.468-1.635,13.468-1.635S398.217,163.44,390.134,158.008Z" fill="#f5c1b8"/>
          <path id="Trazado_20126" data-name="Trazado 20126" d="M385.718,158.811c-.72,1.3.621,10.747,7.187,15.125.75.5,2.137-.5,4-1.007s19.553-.288,26.3-6.681c2.7-2.562,4.487-6.812,3.282-10.312s-4.391-7.75-13.516-6.75-23.308,8.187-24.644,8.437S386.075,158.166,385.718,158.811Z" fill="#d97b58"/>
          <path id="Trazado_20127" data-name="Trazado 20127" d="M421.093,150.013c-6.459-2.781-14.27.03-20.487,2.3-3.477,1.272-6.792,3.1-10.276,4.323-1.6.561-5.028.6-4.913,3.026.009.185.14.207.159.03.166-1.543,3.451-2.028,4.52-2.342a28.451,28.451,0,0,0,3.2-1.211c2.88-1.241,5.81-2.454,8.8-3.448,5.946-1.977,12.654-4.337,18.88-2.412C421.136,150.333,421.25,150.081,421.093,150.013Z" fill="#cc4d35"/>
        </g>
      </g>
      <g id="Grupo_13647" data-name="Grupo 13647">
        <g id="Grupo_13640" data-name="Grupo 13640">
          <rect id="Rectángulo_3233" data-name="Rectángulo 3233" width="0.431" height="9" transform="translate(436.549 181.544) rotate(-15.898)" fill="#deb74a"/>
          <path id="Trazado_20128" data-name="Trazado 20128" d="M437.635,181.234a.913.913,0,1,1-1.128-.627A.914.914,0,0,1,437.635,181.234Z" fill="#d67e5a"/>
        </g>
        <g id="Grupo_13641" data-name="Grupo 13641">
          <rect id="Rectángulo_3234" data-name="Rectángulo 3234" width="9" height="0.432" transform="translate(449.848 192.54) rotate(-28.804)" fill="#deb74a"/>
          <path id="Trazado_20129" data-name="Trazado 20129" d="M458.278,189.193a.913.913,0,1,1,.36-1.24A.913.913,0,0,1,458.278,189.193Z" fill="#d67e5a"/>
        </g>
        <g id="Grupo_13642" data-name="Grupo 13642">
          <rect id="Rectángulo_3235" data-name="Rectángulo 3235" width="0.432" height="9" transform="translate(426.206 188.772) rotate(-57.827)" fill="#deb74a"/>
          <path id="Trazado_20130" data-name="Trazado 20130" d="M426.808,187.817a.913.913,0,1,1-1.259.286A.913.913,0,0,1,426.808,187.817Z" fill="#d67e5a"/>
        </g>
        <path id="Trazado_20131" data-name="Trazado 20131" d="M455.212,195.476H429.277a13.352,13.352,0,0,1,25.935,0Z" fill="#4c60ad"/>
        <rect id="Rectángulo_3236" data-name="Rectángulo 3236" width="27.188" height="4.107" transform="translate(428.651 195.476)" fill="#f5c1b8"/>
        <g id="Grupo_13643" data-name="Grupo 13643">
          <rect id="Rectángulo_3237" data-name="Rectángulo 3237" width="0.432" height="9" transform="translate(431.576 182.064) rotate(-30.618)" fill="#deb74a"/>
          <path id="Trazado_20132" data-name="Trazado 20132" d="M432.546,181.489a.912.912,0,1,1-1.25-.32A.914.914,0,0,1,432.546,181.489Z" fill="#d67e5a"/>
        </g>
        <g id="Grupo_13644" data-name="Grupo 13644">
          <rect id="Rectángulo_3238" data-name="Rectángulo 3238" width="9" height="0.432" transform="translate(444.617 186.722) rotate(-81.418)" fill="#deb74a"/>
          <path id="Trazado_20133" data-name="Trazado 20133" d="M447.075,177.991a.913.913,0,1,1-.766-1.038A.912.912,0,0,1,447.075,177.991Z" fill="#d67e5a"/>
        </g>
        <g id="Grupo_13645" data-name="Grupo 13645">
          <rect id="Rectángulo_3239" data-name="Rectángulo 3239" width="0.432" height="9" transform="matrix(0.99, -0.139, 0.139, 0.99, 440.542, 183.692)" fill="#deb74a"/>
          <path id="Trazado_20134" data-name="Trazado 20134" d="M441.659,183.534a.912.912,0,1,1-1.031-.776A.913.913,0,0,1,441.659,183.534Z" fill="#d67e5a"/>
        </g>
        <g id="Grupo_13646" data-name="Grupo 13646">
          <rect id="Rectángulo_3240" data-name="Rectángulo 3240" width="9" height="0.432" transform="matrix(0.74, -0.673, 0.673, 0.74, 447.498, 191.633)" fill="#deb74a"/>
          <circle id="Elipse_538" data-name="Elipse 538" cx="0.913" cy="0.913" r="0.913" transform="translate(453.387 184.824)" fill="#d67e5a"/>
        </g>
      </g>
      <g id="Grupo_13649" data-name="Grupo 13649">
        <rect id="Rectángulo_3241" data-name="Rectángulo 3241" width="20.892" height="2.791" transform="translate(402.155 194.802)" fill="#fff"/>
        <g id="Grupo_13648" data-name="Grupo 13648">
          <path id="Trazado_20135" data-name="Trazado 20135" d="M421,193.9v4.59a1.082,1.082,0,0,1-1.08,1.08h-14.63a1.076,1.076,0,0,1-.53-.14,1.088,1.088,0,0,1-.26-.21,1.063,1.063,0,0,1-.29-.73V193.9a1.082,1.082,0,0,1,1.08-1.08h14.63a1.094,1.094,0,0,1,.84.4,1.35,1.35,0,0,1,.15.26A.99.99,0,0,1,421,193.9Z" fill="#deb74a"/>
          <path id="Trazado_20136" data-name="Trazado 20136" d="M406.866,192.822a25.738,25.738,0,0,1-2.66,3.68v-.56a27.465,27.465,0,0,0,2.36-3.12Z" fill="#c18c2f"/>
          <path id="Trazado_20137" data-name="Trazado 20137" d="M410.476,192.822a24.308,24.308,0,0,1-5.72,6.61,1.088,1.088,0,0,1-.26-.21,30.113,30.113,0,0,0,5.68-6.4Z" fill="#c18c2f"/>
          <path id="Trazado_20138" data-name="Trazado 20138" d="M414.086,192.822a24.389,24.389,0,0,1-5.89,6.75h-.49a30.262,30.262,0,0,0,6.08-6.75Z" fill="#c18c2f"/>
          <path id="Trazado_20139" data-name="Trazado 20139" d="M417.7,192.822a24.518,24.518,0,0,1-5.88,6.75h-.5a30.552,30.552,0,0,0,6.09-6.75Z" fill="#c18c2f"/>
          <path id="Trazado_20140" data-name="Trazado 20140" d="M420.906,193.482a24.273,24.273,0,0,1-5.48,6.09h-.5a30.84,30.84,0,0,0,5.83-6.35A1.35,1.35,0,0,1,420.906,193.482Z" fill="#c18c2f"/>
          <path id="Trazado_20141" data-name="Trazado 20141" d="M421,197.3v.55a22.964,22.964,0,0,1-1.96,1.72h-.5A31.047,31.047,0,0,0,421,197.3Z" fill="#c18c2f"/>
        </g>
      </g>
      <g id="Grupo_13651" data-name="Grupo 13651">
        <path id="Trazado_20142" data-name="Trazado 20142" d="M334.492,190.463a62.175,62.175,0,0,1-6.3.5c-1.571.165-4.193.375-5.194,1.708a3.6,3.6,0,0,0-.447,2.515,5.552,5.552,0,0,0,1.223,2.9c1.508,1.835,4,2.306,6.674,2.44,2.362.118,4.75-.135,7.116-.1.467.007.494-.6.031-.6-1.694-.022-3.424.158-5.125.153-2.463-.006-5.363-.039-7.173-1.4a5.129,5.129,0,0,1-1.844-2.648,3.859,3.859,0,0,1,.058-2.83c.757-1.335,3.82-1.454,5.2-1.58a51.586,51.586,0,0,0,5.946-.478c.467-.1.3-.667-.163-.57Z" fill="#fff"/>
        <path id="Trazado_20143" data-name="Trazado 20143" d="M344.118,186.121a5.769,5.769,0,0,1-2.692-1.515,1.389,1.389,0,0,1-.124-1.9,3.593,3.593,0,0,1,1.773-.746,21.62,21.62,0,0,1,5.429-.262,46.257,46.257,0,0,1,5.408.557c.449.074.667-.521.218-.6a46.407,46.407,0,0,0-6.585-.6,14.728,14.728,0,0,0-5.787.675c-1.449.605-1.862,1.881-1.185,2.943a5.682,5.682,0,0,0,3.157,1.992c.42.123.813-.423.388-.548Z" fill="#fff"/>
        <path id="Trazado_20144" data-name="Trazado 20144" d="M333.718,190.816c-.133.337,2.209,2.433,2.347,4.584s.459,4.812.96,5.038,3.422,0,4.909-.014a38.517,38.517,0,0,0,11.523-1.093,7.329,7.329,0,0,0,5.557-5.911,8.65,8.65,0,0,0,.84-2.09c.111-.689-.828-.912-1-1.765s.742-.761.256-2.333-3.8-4.221-3.993-4.345-.378-1.014-.524-1.164a16.77,16.77,0,0,0-7.395.948c-2.736,1.224-7.873,4.837-9.415,5.8S333.877,190.414,333.718,190.816Z" fill="#fff"/>
        <g id="Grupo_13650" data-name="Grupo 13650">
          <path id="Trazado_20145" data-name="Trazado 20145" d="M335.587,191.145c-.011-.01-.036.006-.026.018a9.054,9.054,0,0,1,2.083,3.773,10.667,10.667,0,0,1,.09,4.319c-.005.035.06.037.073,0A7.7,7.7,0,0,0,335.587,191.145Z" fill="#f4f3e4"/>
          <path id="Trazado_20146" data-name="Trazado 20146" d="M358.2,194.934a21.354,21.354,0,0,1-9.71,3.629c-1.675.2-3.342.227-5.012.3a32.859,32.859,0,0,0-4.924.556c-.018,0-.016.03,0,.027,3.512-.588,7.02-.23,10.536-.738a20.785,20.785,0,0,0,9.149-3.746C358.272,194.943,358.23,194.912,358.2,194.934Z" fill="#f4f3e4"/>
          <path id="Trazado_20147" data-name="Trazado 20147" d="M354.885,182.915a15.051,15.051,0,0,0-4.591.518,19.116,19.116,0,0,0-4.544,1.963c-3.16,1.766-6.276,3.592-9.422,5.375-.02.012,0,.037.017.025,3.034-1.668,6.093-3.3,9.122-4.981a23.68,23.68,0,0,1,4.543-2.077,18.773,18.773,0,0,1,4.862-.76C354.915,182.977,354.929,182.917,354.885,182.915Z" fill="#f4f3e4"/>
          <path id="Trazado_20148" data-name="Trazado 20148" d="M359.464,191.571a27.772,27.772,0,0,1-9.015,4.317,36.31,36.31,0,0,1-4.981,1.041,45.784,45.784,0,0,0-5,.7c-.017.005-.011.024.006.021,1.817-.376,3.665-.374,5.493-.631a33.324,33.324,0,0,0,4.86-1.057,26.487,26.487,0,0,0,8.682-4.355C359.539,191.58,359.495,191.547,359.464,191.571Z" fill="#f4f3e4"/>
          <path id="Trazado_20149" data-name="Trazado 20149" d="M358.46,190.156a36.832,36.832,0,0,1-8.424,4.058c-3.049,1.1-6.26,1.3-9.369,2.144-.013,0-.009.019.005.015,1.678-.441,3.413-.607,5.111-.882a24.363,24.363,0,0,0,4.69-1.211,30.933,30.933,0,0,0,8.054-4.076C358.576,190.166,358.51,190.121,358.46,190.156Z" fill="#f4f3e4"/>
          <path id="Trazado_20150" data-name="Trazado 20150" d="M358.817,188.95c-1.562.358-3.135.482-4.7.777a28.217,28.217,0,0,0-4.748,1.476,89.623,89.623,0,0,0-8.966,4.015c-.024.012,0,.041.021.029,2.98-1.447,6.062-2.731,9.192-3.881a33.107,33.107,0,0,1,4.564-1.418,44.646,44.646,0,0,0,4.667-.906C358.918,189.018,358.892,188.932,358.817,188.95Z" fill="#f4f3e4"/>
          <path id="Trazado_20151" data-name="Trazado 20151" d="M357.752,186.828a39.76,39.76,0,0,0-9.818,2.229,30.1,30.1,0,0,0-8.1,4.5c-.005,0,0,.009.007.005,5.038-3.866,11.574-5.773,17.906-6.654C357.809,186.9,357.815,186.821,357.752,186.828Z" fill="#f4f3e4"/>
          <path id="Trazado_20152" data-name="Trazado 20152" d="M356.115,185.16a35.274,35.274,0,0,1-4.617.73,19.9,19.9,0,0,0-4.232,1.236,34.729,34.729,0,0,0-7.787,4.6c-.009.007,0,.02.013.013a51,51,0,0,1,7.777-4.447,20.232,20.232,0,0,1,4.584-1.317,29.334,29.334,0,0,0,4.28-.748C356.183,185.208,356.165,185.145,356.115,185.16Z" fill="#f4f3e4"/>
        </g>
      </g>
      <g id="Grupo_13656" data-name="Grupo 13656">
        <g id="Grupo_13652" data-name="Grupo 13652">
          <rect id="Rectángulo_3242" data-name="Rectángulo 3242" width="199.035" height="6.445" transform="translate(275.483 199.583)" fill="#976572"/>
        </g>
        <g id="Grupo_13655" data-name="Grupo 13655">
          <g id="Grupo_13653" data-name="Grupo 13653">
            <rect id="Rectángulo_3243" data-name="Rectángulo 3243" width="185.541" height="23.867" transform="translate(282.23 206.028)" fill="#976572"/>
          </g>
          <g id="Grupo_13654" data-name="Grupo 13654" opacity="0.5" style="mix-blend-mode: multiply;isolation: isolate">
            <rect id="Rectángulo_3244" data-name="Rectángulo 3244" width="185.541" height="9.319" transform="translate(282.23 206.028)" fill="#976572"/>
          </g>
        </g>
      </g>
      <g id="Grupo_13659" data-name="Grupo 13659">
        <rect id="Rectángulo_3245" data-name="Rectángulo 3245" width="3.583" height="28.656" transform="translate(300.156 170.927)" fill="#fff"/>
        <g id="Grupo_13658" data-name="Grupo 13658">
          <path id="Trazado_20153" data-name="Trazado 20153" d="M309.5,199.583H294.4a1.417,1.417,0,0,1-1.4-1.67l.11-.61.02-.15.53-2.96.03-.19.52-2.93.04-.21.52-2.94.04-.23.51-2.91.05-.26.52-2.92.04-.26.52-2.91.05-.29.51-2.91.06-.3.05-.3a1.417,1.417,0,0,1,1.4-1.17h6.86a1.417,1.417,0,0,1,1.4,1.17l.14.8.08.42.58,3.29.07.41.58,3.29.07.4.58,3.28.07.39.59,3.29.06.38.58,3.28.07.36.58,3.3.06.34.01.05A1.417,1.417,0,0,1,309.5,199.583Z" fill="#d97b58"/>
          <g id="Grupo_13657" data-name="Grupo 13657">
            <path id="Trazado_20154" data-name="Trazado 20154" d="M307,175.853a33.843,33.843,0,0,1-6.7-2.39h.91a39.286,39.286,0,0,0,5.71,1.97Z" fill="#cc4d35"/>
            <path id="Trazado_20155" data-name="Trazado 20155" d="M307.646,179.553a35.355,35.355,0,0,1-10.64-4.32l.06-.3a39.536,39.536,0,0,0,10.51,4.21Z" fill="#cc4d35"/>
            <path id="Trazado_20156" data-name="Trazado 20156" d="M308.3,183.243a35.326,35.326,0,0,1-11.85-4.81l.05-.29a39.789,39.789,0,0,0,11.73,4.7Z" fill="#cc4d35"/>
            <path id="Trazado_20157" data-name="Trazado 20157" d="M308.946,186.913a35.2,35.2,0,0,1-13.06-5.31l.04-.26a39.9,39.9,0,0,0,12.95,5.18Z" fill="#cc4d35"/>
            <path id="Trazado_20158" data-name="Trazado 20158" d="M309.6,190.583a35.748,35.748,0,0,1-14.28-5.8l.05-.26a39.615,39.615,0,0,0,14.17,5.68Z" fill="#cc4d35"/>
            <path id="Trazado_20159" data-name="Trazado 20159" d="M310.246,194.223a35.391,35.391,0,0,1-15.48-6.3l.04-.23a39.827,39.827,0,0,0,15.37,6.17Z" fill="#cc4d35"/>
            <path id="Trazado_20160" data-name="Trazado 20160" d="M310.886,197.863a35.524,35.524,0,0,1-16.68-6.79l.04-.21a39.893,39.893,0,0,0,16.58,6.66Z" fill="#cc4d35"/>
            <path id="Trazado_20161" data-name="Trazado 20161" d="M304.676,199.583h-1.26a35.856,35.856,0,0,1-9.76-5.39l.03-.19A39.433,39.433,0,0,0,304.676,199.583Z" fill="#cc4d35"/>
            <path id="Trazado_20162" data-name="Trazado 20162" d="M296.766,199.583h-.51a35,35,0,0,1-3.15-2.28l.02-.15A41.136,41.136,0,0,0,296.766,199.583Z" fill="#cc4d35"/>
          </g>
        </g>
      </g>
      <g id="Grupo_13662" data-name="Grupo 13662">
        <rect id="Rectángulo_3246" data-name="Rectángulo 3246" width="3.583" height="28.656" transform="matrix(-0.171, 0.985, -0.985, -0.171, 334.604, 193.639)" fill="#fff"/>
        <g id="Grupo_13661" data-name="Grupo 13661">
          <path id="Trazado_20163" data-name="Trazado 20163" d="M304.772,197.931l2.587-14.877a1.416,1.416,0,0,1,1.885-1.093l.583.213.144.045,2.825,1.03.182.062,2.8,1.014.2.076,2.807,1.016.22.079,2.78,1,.247.093,2.788,1.013.249.084,2.778,1.011.277.1,2.78,1,.285.11.287.1a1.417,1.417,0,0,1,.913,1.58l-1.176,6.758a1.416,1.416,0,0,1-1.392,1.179h-.812l-.428.007-3.341.008-.415,0-3.341.008h-.406l-3.331.01-.4,0-3.343.018-.384-.006-3.331.009-.367.007-3.351.006h-.4A1.416,1.416,0,0,1,304.772,197.931Z" fill="#4c60ad"/>
          <g id="Grupo_13660" data-name="Grupo 13660">
            <path id="Trazado_20164" data-name="Trazado 20164" d="M328.579,199.534a33.837,33.837,0,0,1,3.5-6.191l-.156.9a39.34,39.34,0,0,0-2.919,5.288Z" fill="#1a2c6d"/>
            <path id="Trazado_20165" data-name="Trazado 20165" d="M324.823,199.54A35.348,35.348,0,0,1,330.9,189.8l.285.11a39.561,39.561,0,0,0-5.949,9.634Z" fill="#1a2c6d"/>
            <path id="Trazado_20166" data-name="Trazado 20166" d="M321.076,199.548a35.315,35.315,0,0,1,6.769-10.85l.277.1a39.78,39.78,0,0,0-6.64,10.751Z" fill="#1a2c6d"/>
            <path id="Trazado_20167" data-name="Trazado 20167" d="M317.349,199.56a35.19,35.19,0,0,1,7.469-11.957l.249.084a39.892,39.892,0,0,0-7.322,11.871Z" fill="#1a2c6d"/>
            <path id="Trazado_20168" data-name="Trazado 20168" d="M313.622,199.572a35.727,35.727,0,0,1,8.161-13.075l.247.093a39.625,39.625,0,0,0-8.024,12.988Z" fill="#1a2c6d"/>
            <path id="Trazado_20169" data-name="Trazado 20169" d="M309.924,199.588a35.388,35.388,0,0,1,8.859-14.171l.22.079a39.812,39.812,0,0,0-8.712,14.085Z" fill="#1a2c6d"/>
            <path id="Trazado_20170" data-name="Trazado 20170" d="M306.228,199.6a35.527,35.527,0,0,1,9.548-15.27l.2.076a39.894,39.894,0,0,0-9.4,15.193Z" fill="#1a2c6d"/>
            <path id="Trazado_20171" data-name="Trazado 20171" d="M305.6,193.182l.216-1.241a35.85,35.85,0,0,1,6.982-8.692l.182.062A39.411,39.411,0,0,0,305.6,193.182Z" fill="#1a2c6d"/>
            <path id="Trazado_20172" data-name="Trazado 20172" d="M306.953,185.389l.088-.5a34.82,34.82,0,0,1,2.786-2.713l.144.045A41.124,41.124,0,0,0,306.953,185.389Z" fill="#1a2c6d"/>
          </g>
        </g>
      </g>
    </g>
  </g>
</svg>
