<svg xmlns="http://www.w3.org/2000/svg" xmlns:xlink="http://www.w3.org/1999/xlink" width="485.38" height="298.277" viewBox="0 0 485.38 298.277">
  <defs>
    <filter id="Trazado_20018" x="117.186" y="75.941" width="31.944" height="23.732" filterUnits="userSpaceOnUse">
      <feOffset dx="2" dy="2" input="SourceAlpha"/>
      <feGaussianBlur result="blur"/>
      <feFlood flood-color="#f3f4f6"/>
      <feComposite operator="in" in2="blur"/>
      <feComposite in="SourceGraphic"/>
    </filter>
    <filter id="Trazado_20023" x="117.186" y="123.359" width="31.944" height="23.732" filterUnits="userSpaceOnUse">
      <feOffset dx="2" dy="2" input="SourceAlpha"/>
      <feGaussianBlur result="blur-2"/>
      <feFlood flood-color="#f3f4f6"/>
      <feComposite operator="in" in2="blur-2"/>
      <feComposite in="SourceGraphic"/>
    </filter>
    <filter id="Trazado_20028" x="117.186" y="170.778" width="31.944" height="23.732" filterUnits="userSpaceOnUse">
      <feOffset dx="2" dy="2" input="SourceAlpha"/>
      <feGaussianBlur result="blur-3"/>
      <feFlood flood-color="#f3f4f6"/>
      <feComposite operator="in" in2="blur-3"/>
      <feComposite in="SourceGraphic"/>
    </filter>
    <filter id="Trazado_20032" x="117.186" y="218.196" width="31.944" height="23.733" filterUnits="userSpaceOnUse">
      <feOffset dx="2" dy="2" input="SourceAlpha"/>
      <feGaussianBlur result="blur-4"/>
      <feFlood flood-color="#f3f4f6"/>
      <feComposite operator="in" in2="blur-4"/>
      <feComposite in="SourceGraphic"/>
    </filter>
  </defs>
  <g id="Grupo_13615" data-name="Grupo 13615" transform="translate(-693.485 -263.799)">
    <g id="Grupo_13599" data-name="Grupo 13599">
      <path id="Trazado_19995" data-name="Trazado 19995" d="M1145.637,514.427c-3.667-9.42-6.4-19.416-9.4-29.976-2.016-7.115-5.266-15.078-12.313-17.321-6.855-2.182-14.237,2.34-18.453,8.169s-6.341,12.895-9.948,19.12c-6.536,11.281-18.114,16.008-27.682,6.091-13.668-14.168-19.82-33.478-28.487-50.758-6.293-12.545-11.558-27.232-19.486-38.793-12.089-17.631-28.665-32.664-50.708-32.664-13.973,2.116-26.284,14.493-34.617,29.959s-13.192,33.859-17.334,52.209c-7.533,33.37-13.052,67.514-18.563,101.613l278.116-3.243c-1.1.013-7.925-9.1-9.231-10.365C1156.855,538.136,1150.447,526.778,1145.637,514.427Z" fill="#dce6ef"/>
      <g id="Grupo_13597" data-name="Grupo 13597">
        <path id="Trazado_19996" data-name="Trazado 19996" d="M1092.847,530.327c-.545,10.812-12.309,29.712-23.12,29.167s-16.576-20.329-16.031-31.14,12.058-64.913,22.87-64.368S1093.392,519.516,1092.847,530.327Z" fill="#6aa5fe"/>
        <line id="Línea_223" data-name="Línea 223" x1="5.451" y2="87.613" transform="translate(1070.594 471.014)" fill="none" stroke="#1a55b5" stroke-linecap="round" stroke-linejoin="round" stroke-width="0.867"/>
        <path id="Trazado_19997" data-name="Trazado 19997" d="M1068.1,528.076a75.127,75.127,0,0,0-5.47,16.995c-.575,3-.936,6.246.42,8.98,1.482,2.986,4.77,4.727,8.06,5.267,8.036,1.32,16.074-3.6,20.784-10.245s6.75-14.763,8.623-22.689c1.473-6.239,2.922-12.572,5.7-18.387,1.191-2.494,8.166-12.116,4.867-14.613-4.513-3.545-17.576.312-25.947,9.45A97.556,97.556,0,0,0,1068.1,528.076Z" fill="#ffc957"/>
        <path id="Trazado_19998" data-name="Trazado 19998" d="M1071.113,559.318s9.7-37.771,33.125-59.434" fill="none" stroke="#6aa5fe" stroke-linecap="round" stroke-linejoin="round" stroke-width="0.867"/>
      </g>
      <g id="Grupo_13598" data-name="Grupo 13598">
        <path id="Trazado_19999" data-name="Trazado 19999" d="M1124.931,519.167a9.507,9.507,0,0,1-3.8,3.3c-1.742.981-3.6,1.843-5.391,2.678a62.1,62.1,0,0,0-6.883,3.56,23.218,23.218,0,0,0-4.221,3.362,53.421,53.421,0,0,1,6.691-11.379c3.421-4.4,6.932-6.633,10.44-6.633.081,0,.163,0,.244,0a3.941,3.941,0,0,1,2.51.8C1125.713,515.881,1125.666,517.852,1124.931,519.167Z" fill="#1a55b5"/>
        <path id="Trazado_20000" data-name="Trazado 20000" d="M1128.85,543.589a9.493,9.493,0,0,1-4.847,1.355c-1.994.142-4.04.128-6.018.115a62.119,62.119,0,0,0-7.744.272,23.215,23.215,0,0,0-5.254,1.233,53.474,53.474,0,0,1,10.916-7.422c4.976-2.516,9.1-3.03,12.275-1.528.074.035.146.07.218.107a3.946,3.946,0,0,1,1.928,1.8C1130.962,540.953,1130.076,542.715,1128.85,543.589Z" fill="#1a55b5"/>
        <path id="Trazado_20001" data-name="Trazado 20001" d="M1119.6,555.607a6.5,6.5,0,0,1-3.046-1.6c-1.058-.865-2.069-1.831-3.047-2.764a42.314,42.314,0,0,0-3.978-3.494,15.855,15.855,0,0,0-3.191-1.85,36.521,36.521,0,0,1,8.907,1.426c3.654,1.08,5.948,2.759,6.821,4.993.02.051.04.1.058.155a2.691,2.691,0,0,1,.117,1.8A2.445,2.445,0,0,1,1119.6,555.607Z" fill="#1a55b5"/>
        <path id="Trazado_20002" data-name="Trazado 20002" d="M1093.3,559.533s.111-23.112,28.334-42.734" fill="none" stroke="#2a294f" stroke-linecap="round" stroke-linejoin="round" stroke-width="0.78"/>
        <path id="Trazado_20003" data-name="Trazado 20003" d="M1093.3,559.533s8.667-18.567,32.158-18.567" fill="none" stroke="#2a294f" stroke-linecap="round" stroke-linejoin="round" stroke-width="0.78"/>
        <path id="Trazado_20004" data-name="Trazado 20004" d="M1106.082,546.132s4.549-.333,14.049,6.834" fill="none" stroke="#2a294f" stroke-linecap="round" stroke-linejoin="round" stroke-width="0.78"/>
      </g>
    </g>
    <g id="Grupo_13601" data-name="Grupo 13601">
      <path id="Trazado_20005" data-name="Trazado 20005" d="M850.784,559.734c-6.525-24.66-13.085-49.33-20.755-73.212-4.325-13.467-9.1-26.881-15.725-37.655s-15.411-18.721-24.227-18.666c-13.585,2.628-22.348,16.042-28.1,30.9-3.768,9.741-5.6,21.543-8.261,31.837-3.673,14.181-5.6,29.606-12.654,42.015-4.939,8.686-12.531,6.469-17.648-1.334-2.824-4.306-4.816-9.429-7.977-13.361s-8.148-6.492-12.162-4.014c-4.126,2.546-5.36,8.992-5.915,14.646-.824,8.391-1.546,16.322-2.9,23.926q-.441,2.484-.982,4.92Z" fill="#dce6ef"/>
      <path id="Trazado_20006" data-name="Trazado 20006" d="M792.451,525.694c-4.076-4.7-9.235-8.758-10.862-14.69-1.189-4.335-.251-8.922.213-13.393s.3-9.413-2.591-12.854c-2.383-2.835-6.147-4.067-9.768-4.845s-7.4-1.27-10.612-3.112c-5.218-2.992-4.178-8.081-6.979-12.544-3.143-5.009-10.456-11.4-16.724-8.071-6.638,3.523-5.586,14.217-1.171,18.939,2.929,3.132,6.679,6.137,7.11,10.4.649,6.423-6.711,12.207-4.686,18.337,1.495,4.529,7.2,6.085,10.021,9.932,2.789,3.8,2.227,9.138.585,13.56s-4.228,8.512-5.249,13.118c-2.09,9.425,5.305,15.937,13.73,18.038,7.743,1.931,24.442,1.02,24.442,1.02a31.947,31.947,0,0,0,15.842-13.039,16.584,16.584,0,0,0,.9-14.4A24.011,24.011,0,0,0,792.451,525.694Z" fill="#ffc957"/>
      <path id="Trazado_20007" data-name="Trazado 20007" d="M742.548,466.351s28.511,44.04,31.613,92.939" fill="none" stroke="#6aa5fe" stroke-linecap="round" stroke-linejoin="round" stroke-width="1"/>
      <g id="Grupo_13600" data-name="Grupo 13600">
        <path id="Trazado_20008" data-name="Trazado 20008" d="M717.154,525.751a2.986,2.986,0,0,1,1.9-.6l.184,0c2.653,0,5.308,1.687,7.895,5.017a40.387,40.387,0,0,1,5.059,8.6A17.565,17.565,0,0,0,729,536.222a46.907,46.907,0,0,0-5.2-2.691c-1.356-.632-2.759-1.284-4.076-2.026a7.184,7.184,0,0,1-2.874-2.494A2.706,2.706,0,0,1,717.154,525.751Z" fill="#6aa5fe"/>
        <path id="Trazado_20009" data-name="Trazado 20009" d="M712.766,544.4a2.981,2.981,0,0,1,1.458-1.358c.054-.029.109-.056.165-.082,2.4-1.135,5.519-.747,9.281,1.156a40.44,40.44,0,0,1,8.255,5.611,17.512,17.512,0,0,0-3.973-.931,46.791,46.791,0,0,0-5.856-.206c-1.495.009-3.042.02-4.55-.087a7.18,7.18,0,0,1-3.665-1.025A2.706,2.706,0,0,1,712.766,544.4Z" fill="#6aa5fe"/>
        <path id="Trazado_20010" data-name="Trazado 20010" d="M718.877,555.556a2.04,2.04,0,0,1,.089-1.359c.014-.039.028-.078.044-.118.66-1.688,2.394-2.958,5.157-3.775a27.647,27.647,0,0,1,6.736-1.078,12,12,0,0,0-2.413,1.4,32.017,32.017,0,0,0-3.009,2.642c-.739.7-1.5,1.436-2.3,2.09a4.915,4.915,0,0,1-2.3,1.208A1.85,1.85,0,0,1,718.877,555.556Z" fill="#6aa5fe"/>
        <path id="Trazado_20011" data-name="Trazado 20011" d="M740.764,559.533s-.084-17.476-21.424-32.313" fill="none" stroke="#2a294f" stroke-linecap="round" stroke-linejoin="round" stroke-width="0.78"/>
        <path id="Trazado_20012" data-name="Trazado 20012" d="M740.764,559.533s-6.554-14.039-24.316-14.039" fill="none" stroke="#2a294f" stroke-linecap="round" stroke-linejoin="round" stroke-width="0.78"/>
        <path id="Trazado_20013" data-name="Trazado 20013" d="M731.1,549.4s-3.44-.252-10.623,5.167" fill="none" stroke="#2a294f" stroke-linecap="round" stroke-linejoin="round" stroke-width="0.78"/>
      </g>
    </g>
    <g id="Grupo_13603" data-name="Grupo 13603">
      <rect id="Rectángulo_3219" data-name="Rectángulo 3219" width="207.058" height="274.048" rx="9.449" transform="translate(772.111 285.485)" fill="#6aa5fe"/>
      <path id="Trazado_20014" data-name="Trazado 20014" d="M772.111,352.248V550.084a9.449,9.449,0,0,0,9.449,9.449H969.72a9.45,9.45,0,0,0,9.449-9.449V511.039Z" fill="#527ee9"/>
      <rect id="Rectángulo_3220" data-name="Rectángulo 3220" width="182.997" height="248.759" rx="3.862" transform="translate(784.141 298.129)" fill="#f3f4f6"/>
      <g id="Grupo_13602" data-name="Grupo 13602">
        <path id="Trazado_20015" data-name="Trazado 20015" d="M891.336,280.31c.013-.259.039-.514.039-.775a15.736,15.736,0,1,0-31.471,0c0,.261.027.516.039.775H836.81V304.3h77.659V280.31Z" fill="#1a55b5"/>
        <path id="Trazado_20016" data-name="Trazado 20016" d="M836.81,280.31V304.3h77.659Z" fill="#2c6bc6"/>
        <circle id="Elipse_536" data-name="Elipse 536" cx="8.836" cy="8.836" r="8.836" transform="translate(866.803 270.698)" fill="#527ee9"/>
        <path id="Trazado_20017" data-name="Trazado 20017" d="M869.392,273.287a8.836,8.836,0,0,0,12.5,12.5Z" fill="#6aa5fe"/>
        <rect id="Rectángulo_3221" data-name="Rectángulo 3221" width="77.659" height="1.652" transform="translate(836.81 304.297)" fill="#cde1f9" style="mix-blend-mode: multiply;isolation: isolate"/>
      </g>
    </g>
    <g id="Grupo_13612" data-name="Grupo 13612">
      <g id="Grupo_13605" data-name="Grupo 13605">
        <rect id="Rectángulo_3222" data-name="Rectángulo 3222" width="29.455" height="29.455" transform="translate(805.287 337.519)" fill="none" stroke="#1a55b5" stroke-miterlimit="10" stroke-width="1"/>
        <g transform="matrix(1, 0, 0, 1, 693.48, 263.8)" filter="url(#Trazado_20018)">
          <path id="Trazado_20018-2" data-name="Trazado 20018" d="M811.906,351.753l9.007,7.072,18.314-17.644" transform="translate(-693.48 -263.8)" fill="none" stroke="#ff746f" stroke-miterlimit="10" stroke-width="4"/>
        </g>
        <g id="Grupo_13604" data-name="Grupo 13604">
          <path id="Trazado_20019" data-name="Trazado 20019" d="M944.858,345.879H848.88a1.133,1.133,0,0,1-1.133-1.133h0a1.134,1.134,0,0,1,1.133-1.134h95.978a1.134,1.134,0,0,1,1.134,1.134h0A1.133,1.133,0,0,1,944.858,345.879Z" fill="#6aa5fe"/>
          <path id="Trazado_20020" data-name="Trazado 20020" d="M944.858,350.88H848.88a1.134,1.134,0,0,1-1.133-1.134h0a1.134,1.134,0,0,1,1.133-1.134h95.978a1.134,1.134,0,0,1,1.134,1.134h0A1.134,1.134,0,0,1,944.858,350.88Z" fill="#6aa5fe"/>
          <path id="Trazado_20021" data-name="Trazado 20021" d="M944.858,355.88H848.88a1.134,1.134,0,0,1-1.133-1.134h0a1.133,1.133,0,0,1,1.133-1.133h95.978a1.133,1.133,0,0,1,1.134,1.133h0A1.134,1.134,0,0,1,944.858,355.88Z" fill="#6aa5fe"/>
          <path id="Trazado_20022" data-name="Trazado 20022" d="M944.858,360.88H848.88a1.134,1.134,0,0,1-1.133-1.134h0a1.133,1.133,0,0,1,1.133-1.133h95.978a1.133,1.133,0,0,1,1.134,1.133h0A1.134,1.134,0,0,1,944.858,360.88Z" fill="#6aa5fe"/>
        </g>
      </g>
      <g id="Grupo_13607" data-name="Grupo 13607">
        <rect id="Rectángulo_3223" data-name="Rectángulo 3223" width="29.455" height="29.455" transform="translate(805.287 384.937)" fill="none" stroke="#1a55b5" stroke-miterlimit="10" stroke-width="1"/>
        <g transform="matrix(1, 0, 0, 1, 693.48, 263.8)" filter="url(#Trazado_20023)">
          <path id="Trazado_20023-2" data-name="Trazado 20023" d="M811.906,399.171l9.007,7.072L839.228,388.6" transform="translate(-693.48 -263.8)" fill="none" stroke="#ff746f" stroke-miterlimit="10" stroke-width="4"/>
        </g>
        <g id="Grupo_13606" data-name="Grupo 13606">
          <path id="Trazado_20024" data-name="Trazado 20024" d="M944.858,393.3H848.88a1.134,1.134,0,0,1-1.133-1.134h0a1.133,1.133,0,0,1,1.133-1.133h95.978a1.133,1.133,0,0,1,1.134,1.133h0A1.134,1.134,0,0,1,944.858,393.3Z" fill="#6aa5fe"/>
          <path id="Trazado_20025" data-name="Trazado 20025" d="M944.858,398.3H848.88a1.133,1.133,0,0,1-1.133-1.134h0a1.133,1.133,0,0,1,1.133-1.133h95.978a1.133,1.133,0,0,1,1.134,1.133h0A1.133,1.133,0,0,1,944.858,398.3Z" fill="#6aa5fe"/>
          <path id="Trazado_20026" data-name="Trazado 20026" d="M944.858,403.3H848.88a1.133,1.133,0,0,1-1.133-1.133h0a1.134,1.134,0,0,1,1.133-1.134h95.978a1.134,1.134,0,0,1,1.134,1.134h0A1.133,1.133,0,0,1,944.858,403.3Z" fill="#6aa5fe"/>
          <path id="Trazado_20027" data-name="Trazado 20027" d="M944.858,408.3H848.88a1.134,1.134,0,0,1-1.133-1.134h0a1.134,1.134,0,0,1,1.133-1.134h95.978a1.134,1.134,0,0,1,1.134,1.134h0A1.134,1.134,0,0,1,944.858,408.3Z" fill="#6aa5fe"/>
        </g>
      </g>
      <g id="Grupo_13609" data-name="Grupo 13609">
        <rect id="Rectángulo_3224" data-name="Rectángulo 3224" width="29.455" height="29.455" transform="translate(805.287 432.356)" fill="none" stroke="#1a55b5" stroke-miterlimit="10" stroke-width="1"/>
        <g transform="matrix(1, 0, 0, 1, 693.48, 263.8)" filter="url(#Trazado_20028)">
          <path id="Trazado_20028-2" data-name="Trazado 20028" d="M811.906,446.59l9.007,7.072,18.314-17.644" transform="translate(-693.48 -263.8)" fill="none" stroke="#ff746f" stroke-miterlimit="10" stroke-width="4"/>
        </g>
        <g id="Grupo_13608" data-name="Grupo 13608">
          <path id="Trazado_20029" data-name="Trazado 20029" d="M944.858,440.716H848.88a1.133,1.133,0,0,1-1.133-1.133h0a1.134,1.134,0,0,1,1.133-1.134h95.978a1.134,1.134,0,0,1,1.134,1.134h0A1.133,1.133,0,0,1,944.858,440.716Z" fill="#6aa5fe"/>
          <path id="Trazado_20030" data-name="Trazado 20030" d="M944.858,445.717H848.88a1.134,1.134,0,0,1-1.133-1.134h0a1.134,1.134,0,0,1,1.133-1.134h95.978a1.134,1.134,0,0,1,1.134,1.134h0A1.134,1.134,0,0,1,944.858,445.717Z" fill="#6aa5fe"/>
          <path id="Trazado_20031" data-name="Trazado 20031" d="M944.858,450.717H848.88a1.134,1.134,0,0,1-1.133-1.134h0a1.133,1.133,0,0,1,1.133-1.133h95.978a1.133,1.133,0,0,1,1.134,1.133h0A1.134,1.134,0,0,1,944.858,450.717Z" fill="#6aa5fe"/>
          <rect id="Rectángulo_3225" data-name="Rectángulo 3225" width="98.245" height="2.267" rx="1.134" transform="translate(847.747 453.45)" fill="#6aa5fe"/>
        </g>
      </g>
      <g id="Grupo_13611" data-name="Grupo 13611">
        <rect id="Rectángulo_3226" data-name="Rectángulo 3226" width="29.455" height="29.455" transform="translate(805.287 479.774)" fill="none" stroke="#1a55b5" stroke-miterlimit="10" stroke-width="1"/>
        <g transform="matrix(1, 0, 0, 1, 693.48, 263.8)" filter="url(#Trazado_20032)">
          <path id="Trazado_20032-2" data-name="Trazado 20032" d="M811.906,494.008l9.007,7.072,18.314-17.644" transform="translate(-693.48 -263.8)" fill="none" stroke="#ff746f" stroke-miterlimit="10" stroke-width="4"/>
        </g>
        <g id="Grupo_13610" data-name="Grupo 13610">
          <path id="Trazado_20033" data-name="Trazado 20033" d="M944.858,488.135H848.88A1.134,1.134,0,0,1,847.747,487h0a1.133,1.133,0,0,1,1.133-1.133h95.978A1.133,1.133,0,0,1,945.992,487h0A1.134,1.134,0,0,1,944.858,488.135Z" fill="#6aa5fe"/>
          <path id="Trazado_20034" data-name="Trazado 20034" d="M944.858,493.135H848.88A1.133,1.133,0,0,1,847.747,492h0a1.133,1.133,0,0,1,1.133-1.133h95.978A1.133,1.133,0,0,1,945.992,492h0A1.133,1.133,0,0,1,944.858,493.135Z" fill="#6aa5fe"/>
          <path id="Trazado_20035" data-name="Trazado 20035" d="M944.858,498.135H848.88A1.133,1.133,0,0,1,847.747,497h0a1.134,1.134,0,0,1,1.133-1.134h95.978A1.134,1.134,0,0,1,945.992,497h0A1.133,1.133,0,0,1,944.858,498.135Z" fill="#6aa5fe"/>
          <path id="Trazado_20036" data-name="Trazado 20036" d="M944.858,503.136H848.88A1.134,1.134,0,0,1,847.747,502h0a1.134,1.134,0,0,1,1.133-1.134h95.978A1.134,1.134,0,0,1,945.992,502h0A1.134,1.134,0,0,1,944.858,503.136Z" fill="#6aa5fe"/>
        </g>
      </g>
    </g>
    <line id="Línea_224" data-name="Línea 224" x2="484.119" transform="translate(694.356 559.53)" fill="none" stroke="#2a294f" stroke-linecap="round" stroke-linejoin="round" stroke-width="0.78"/>
    <g id="Grupo_13614" data-name="Grupo 13614">
      <rect id="Rectángulo_3227" data-name="Rectángulo 3227" width="4.562" height="5.621" transform="translate(999.446 550.596)" fill="#ff746f"/>
      <path id="Trazado_20037" data-name="Trazado 20037" d="M999.48,554.944l2.387.736,2.217-.736,1.989,4.562H987.629l6.934-2.281Z" fill="#2a294f"/>
      <path id="Trazado_20038" data-name="Trazado 20038" d="M1047.288,556.217h4.562l-1.7-5.621h-4.562Z" fill="#ff746f"/>
      <path id="Trazado_20039" data-name="Trazado 20039" d="M1051.445,554.944l-2.387.736-2.217-.736-1.989,4.562H1063.3l-6.934-2.281Z" fill="#2a294f"/>
      <path id="Trazado_20040" data-name="Trazado 20040" d="M989.2,360.534c-.618.473-6.232,3.789-6.232,3.789l-3.984-5.1,1.186-5.816,8.574.535,1.5,4.341C990.6,359.312,989.97,359.95,989.2,360.534Z" fill="#fe9280"/>
      <path id="Trazado_20041" data-name="Trazado 20041" d="M988.748,353.94l1.294,3.8-3.955,1.592a3.628,3.628,0,0,1-5.047-3.768l.256-2.091Z" fill="#e86767"/>
      <path id="Trazado_20042" data-name="Trazado 20042" d="M986.806,359.025l3.43.5,1.878-3.217a1.245,1.245,0,0,0-.389-1.716h0a1.244,1.244,0,0,0-1.715.388Z" fill="#ff746f"/>
      <path id="Trazado_20043" data-name="Trazado 20043" d="M980.637,372.9l-7.069,1.787-2.528,20.469,8.276.338Z" fill="#fff"/>
      <g id="Grupo_13613" data-name="Grupo 13613">
        <path id="Trazado_20044" data-name="Trazado 20044" d="M1077.151,389.4l-12.357-1.556,2.828-22.465,12.357,1.555a11.321,11.321,0,0,1,9.818,12.647h0A11.321,11.321,0,0,1,1077.151,389.4Z" fill="#fe9280"/>
        <path id="Trazado_20045" data-name="Trazado 20045" d="M1077.8,384.279l-12.357-1.555-.644,5.117,12.357,1.556a11.319,11.319,0,0,0,12.672-12.415A11.323,11.323,0,0,1,1077.8,384.279Z" fill="#777470" opacity="0.2" style="mix-blend-mode: multiply;isolation: isolate"/>
        <path id="Trazado_20046" data-name="Trazado 20046" d="M1063.288,387.651l-131.1-16.911,2.828-22.465,131.1,16.911Z" fill="#ffc957"/>
        <path id="Trazado_20047" data-name="Trazado 20047" d="M908.834,356.389l23.356,14.351,2.828-22.465Z" fill="#fff4dd"/>
        <path id="Trazado_20048" data-name="Trazado 20048" d="M908.834,356.389l23.356,14.351.692-5.495Z" fill="#777470" opacity="0.2" style="mix-blend-mode: multiply;isolation: isolate"/>
        <path id="Trazado_20049" data-name="Trazado 20049" d="M916.632,353.973l-7.8,2.417,6.956,4.274Z" fill="#2a294f"/>
        <rect id="Rectángulo_3228" data-name="Rectángulo 3228" width="10.937" height="22.643" transform="translate(1066.116 365.186) rotate(7.175)" fill="#d3eaf5"/>
        <rect id="Rectángulo_3229" data-name="Rectángulo 3229" width="3.739" height="24.581" transform="translate(1073.379 365.123) rotate(7.176)" fill="#d3eaf5"/>
        <path id="Trazado_20050" data-name="Trazado 20050" d="M1070.43,388.55l-138.24-17.81.692-5.495,138.24,17.81Z" fill="#777470" opacity="0.2" style="mix-blend-mode: multiply;isolation: isolate"/>
        <path id="Trazado_20051" data-name="Trazado 20051" d="M1072.566,371.58l-138.24-17.81.692-5.495,138.24,17.81Z" fill="#777470" opacity="0.05" style="mix-blend-mode: multiply;isolation: isolate"/>
        <rect id="Rectángulo_3230" data-name="Rectángulo 3230" width="3.739" height="7.514" transform="translate(1071.247 382.057) rotate(7.176)" fill="#777470" opacity="0.15" style="mix-blend-mode: multiply;isolation: isolate"/>
      </g>
      <path id="Trazado_20052" data-name="Trazado 20052" d="M1028.279,443.378l1.845-4.794,6.24-.509a1.958,1.958,0,0,1,2.276,1.548h0a1.959,1.959,0,0,1-1.88,2.012Z" fill="#e86767"/>
      <path id="Trazado_20053" data-name="Trazado 20053" d="M1025.047,438.626l3.232,4.752,6.117-1.258-6.856-10.183-1.319.876A4.193,4.193,0,0,0,1025.047,438.626Z" fill="#ff746f"/>
      <path id="Trazado_20054" data-name="Trazado 20054" d="M1030.106,437.018l20.8-21.79-10.959-2.549-12.4,19.258Z" fill="#fff"/>
      <path id="Trazado_20055" data-name="Trazado 20055" d="M1042.871,414.29a4.752,4.752,0,1,0,2.3-6.314A4.751,4.751,0,0,0,1042.871,414.29Z" fill="#fff"/>
      <path id="Trazado_20056" data-name="Trazado 20056" d="M1044.477,416.188l6.426-6.849-22.434-26.6a5.327,5.327,0,0,0-8.024-.644h0c-2.314,2.272-2.087,10.31.49,12.278Z" fill="#fff"/>
      <rect id="Rectángulo_3231" data-name="Rectángulo 3231" width="9.234" height="14.637" transform="translate(1016.955 385.495) rotate(-175.159)" fill="#ff746f"/>
      <path id="Trazado_20057" data-name="Trazado 20057" d="M974.736,392.057a4.141,4.141,0,1,0,4.408,3.855A4.141,4.141,0,0,0,974.736,392.057Z" fill="#fff"/>
      <path id="Trazado_20058" data-name="Trazado 20058" d="M972.128,392.665l4.194,7.453,25.639-5.76c3.142-.8,4.846-8.442,3.609-11.439h0a5.329,5.329,0,0,0-7.635-2.553Z" fill="#fff"/>
      <path id="Trazado_20059" data-name="Trazado 20059" d="M1025.119,434.882l2.791-48.813a4.506,4.506,0,0,0-3.764-5.563l-22.87-.828a4.505,4.505,0,0,0-5.109,4.36l-4.679,59.331Z" fill="#fff"/>
      <path id="Trazado_20060" data-name="Trazado 20060" d="M1003.245,434.882l5.272,16.421-2.344,101.84h-9.4l-5.287-109.773.721-8.487Z" fill="#1a55b5"/>
      <path id="Trazado_20061" data-name="Trazado 20061" d="M1003.245,434.882l5.144,20.165h3.7l33.139,98.1h7.7L1029.6,448.192l-4.481-13.31Z" fill="#527ee9"/>
      <path id="Rectángulo_3232" data-name="Rectángulo 3232" d="M3.6,0h.953a0,0,0,0,1,0,0V8.765a0,0,0,0,1,0,0H3.6A3.6,3.6,0,0,1,0,5.16V3.6A3.6,3.6,0,0,1,3.6,0Z" transform="matrix(0.159, -0.987, 0.987, 0.159, 979.371, 357.046)" fill="#ff746f"/>
      <path id="Trazado_20062" data-name="Trazado 20062" d="M1006.958,379.882l6.7.249-2.727,4.07v32.413L1007,424.888l-3.617-9.972,5.035-30.981Z" fill="#1a55b5"/>
      <path id="Trazado_20063" data-name="Trazado 20063" d="M1025.229,358.95a11.28,11.28,0,0,0-2.438-6.049,10.808,10.808,0,0,0-4.958-3.349,6.6,6.6,0,0,0-2.8-.373,6.8,6.8,0,0,1-3.562-.25c-1.607-.71-2.76-2.1-4.211-3a5.3,5.3,0,0,0-1.093-.507l0,0a5.373,5.373,0,0,0-4.982.575,5.311,5.311,0,0,0-1.688,1.954,6.669,6.669,0,0,0-.749,2.484,8.262,8.262,0,0,0,1.244,5,9.671,9.671,0,0,0,3.4,3.271,10.036,10.036,0,0,0-.12,1.093,11.019,11.019,0,0,0,20.781,5.619A11.573,11.573,0,0,0,1025.229,358.95Zm-23.038-2.081a14.876,14.876,0,0,1-1.437-1.926,7.754,7.754,0,0,1-1.359-4.471,5.715,5.715,0,0,1,2.028-4.157,4.309,4.309,0,0,1,1.622-.8,3.575,3.575,0,0,0-.837.518,5.724,5.724,0,0,0-1.77,4.065,9.723,9.723,0,0,0,3.094,7.865c-.008.039-.013.079-.021.118A11.819,11.819,0,0,1,1002.191,356.869Z" fill="#1a55b5"/>
      <circle id="Elipse_537" data-name="Elipse 537" cx="2.101" cy="2.101" r="2.101" transform="matrix(0.992, -0.128, 0.128, 0.992, 1019.78, 364.172)" fill="#ff746f"/>
      <path id="Trazado_20064" data-name="Trazado 20064" d="M1011.095,353.919a7.46,7.46,0,0,0-6.768,4.028l-.271,1.444-.216,1.28c0,.059,0,.117,0,.178l-.025-.041-.6,3.573a9.261,9.261,0,0,0,7.218,10.724,9.048,9.048,0,0,0,10.57-7.39l.739-4.377v-.01S1023.132,354.75,1011.095,353.919Z" fill="#ff746f"/>
      <path id="Trazado_20065" data-name="Trazado 20065" d="M1012.055,365.522c-.536-.338-4.1-1-4.531-.763a1.259,1.259,0,0,0-.529,1.382,2.18,2.18,0,0,0,.941,1.236,3.555,3.555,0,0,0,3.44.278,1.9,1.9,0,0,0,.984-.91A1.007,1.007,0,0,0,1012.055,365.522Z" fill="#fff"/>
      <path id="Trazado_20066" data-name="Trazado 20066" d="M1013.047,354.137a16.742,16.742,0,0,1,3.56.965,7.948,7.948,0,0,1,2.369,1.362c2.258,1.973.248,6.206-.53,8.413-.19.539-.412,1.181-.073,1.642a1.187,1.187,0,0,0,1.656.011,5.579,5.579,0,0,0,1.042-1.524,1.965,1.965,0,0,1,1.411-1.091s-.359-10.01-.36-10.019c0-.073-6.292-.211-6.773-.227A7.424,7.424,0,0,0,1013.047,354.137Z" fill="#1a55b5"/>
    </g>
  </g>
</svg>
