<svg xmlns="http://www.w3.org/2000/svg" width="740" height="304.095" viewBox="0 0 740 304.095">
  <g id="Grupo_13617" data-name="Grupo 13617" transform="translate(453 4007)">
    <g id="Grupo_13616" data-name="Grupo 13616" transform="translate(-2534.655 -4038.885)">
      <g id="Grupo_13556" data-name="Grupo 13556" transform="translate(2081.655 31.885)">
        <g id="Grupo_13554" data-name="Grupo 13554" transform="translate(82.158 0)">
          <g id="Grupo_13553" data-name="Grupo 13553">
            <path id="Trazado_19909" data-name="Trazado 19909" d="M2364.677,36.938h-.242a2.527,2.527,0,1,1,0-5.053h.242a2.527,2.527,0,0,1,0,5.053Zm-26.9,0h-.243a2.527,2.527,0,0,1,0-5.053h.243a2.527,2.527,0,0,1,0,5.053Zm-26.9,0h-.242a2.527,2.527,0,0,1,0-5.053h.242a2.527,2.527,0,1,1,0,5.053Zm-26.9,0h-.242a2.527,2.527,0,1,1,0-5.053h.242a2.527,2.527,0,0,1,0,5.053Zm-26.9,0h-.242a2.527,2.527,0,1,1,0-5.053h.242a2.527,2.527,0,0,1,0,5.053Zm-26.9,0h-.243a2.527,2.527,0,0,1,0-5.053h.243a2.527,2.527,0,0,1,0,5.053Z" transform="translate(-2227.426 -31.885)" fill="#8cc0ec"/>
          </g>
        </g>
        <path id="Trazado_19910" data-name="Trazado 19910" d="M2593.4,90.523h-18.989V90.26a58.517,58.517,0,0,0-17.033-41.487A57.527,57.527,0,0,0,2516.6,31.885a2.588,2.588,0,0,0-2.62,2.365,2.527,2.527,0,0,0,2.521,2.688,52.915,52.915,0,0,1,52.854,52.854v.73h-12.468V110.25h12.468v27.074a2.527,2.527,0,0,0,2.527,2.527h0a2.527,2.527,0,0,0,2.527-2.527V105.2h-12.468V95.575h26.4v62.081H2569.36v11.029a2.585,2.585,0,0,0,2.357,2.608,2.528,2.528,0,0,0,2.7-2.521V162.71H2593.4Z" transform="translate(-2270.316 -31.885)" fill="#8cc0ec"/>
        <g id="Grupo_13555" data-name="Grupo 13555" transform="translate(17.765 18.285)">
          <rect id="Rect치ngulo_3213" data-name="Rect치ngulo 3213" width="268.563" height="268.563" rx="50" fill="#ebebeb"/>
        </g>
        <path id="Trazado_19911" data-name="Trazado 19911" d="M2098.894,319.3a58.477,58.477,0,0,0,41.112,16.684h188.231c20.61,0,35.873-11.133,43.291-21.571L2499.58,134.675a2.536,2.536,0,1,0-4.131-2.943L2367.395,311.468c-6.687,9.408-20.476,19.439-39.166,19.439h-4.944c-.067,0-.13.015-.2.02H2139.559a52.852,52.852,0,0,1-52.851-52.852V89.79a52.911,52.911,0,0,1,52.851-52.852,2.527,2.527,0,0,0,2.522-2.688,2.588,2.588,0,0,0-2.62-2.365,57.521,57.521,0,0,0-40.764,16.88,58.518,58.518,0,0,0-17.042,41.5V278.075A57.53,57.53,0,0,0,2098.894,319.3Z" transform="translate(-2081.655 -31.885)" fill="#8cc0ec"/>
      </g>
      <g id="Grupo_13559" data-name="Grupo 13559" transform="translate(2403.259 31.885)">
        <path id="Trazado_19912" data-name="Trazado 19912" d="M3053.424,48.569a58.476,58.476,0,0,0-41.112-16.684H2824.081c-20.61,0-35.873,11.133-43.291,21.571L2652.739,233.189a2.536,2.536,0,1,0,4.131,2.943L2784.923,56.4c6.687-9.408,20.476-19.439,39.166-19.439h4.945c.067,0,.13-.015.2-.02h183.529A52.851,52.851,0,0,1,3065.61,89.79V278.075a52.911,52.911,0,0,1-52.852,52.852,2.528,2.528,0,0,0-2.522,2.688,2.589,2.589,0,0,0,2.62,2.366,57.524,57.524,0,0,0,40.765-16.88,58.52,58.52,0,0,0,17.042-41.5V89.79A57.531,57.531,0,0,0,3053.424,48.569Z" transform="translate(-2652.267 -31.885)" fill="#f0c65b"/>
        <g id="Grupo_13558" data-name="Grupo 13558" transform="translate(57.591 164.68)">
          <g id="Grupo_13557" data-name="Grupo 13557">
            <path id="Trazado_19913" data-name="Trazado 19913" d="M3051.33,562.466h-.242a2.526,2.526,0,1,0,0,5.053h.242a2.526,2.526,0,1,0,0-5.053Z" transform="translate(-2882.796 -428.104)" fill="#f0c65b"/>
            <path id="Trazado_19914" data-name="Trazado 19914" d="M3003.609,562.466h-.242a2.526,2.526,0,0,0,0,5.053h.242a2.526,2.526,0,1,0,0-5.053Z" transform="translate(-2861.972 -428.104)" fill="#f0c65b"/>
            <path id="Trazado_19915" data-name="Trazado 19915" d="M3099.052,562.466h-.242a2.526,2.526,0,0,0,0,5.053h.242a2.526,2.526,0,1,0,0-5.053Z" transform="translate(-2903.622 -428.104)" fill="#f0c65b"/>
            <path id="Trazado_19916" data-name="Trazado 19916" d="M3146.773,562.466h-.242a2.526,2.526,0,1,0,0,5.053h.242a2.526,2.526,0,0,0,0-5.053Z" transform="translate(-2924.446 -428.104)" fill="#f0c65b"/>
            <path id="Trazado_19917" data-name="Trazado 19917" d="M3242.216,562.466h-.242a2.526,2.526,0,0,0,0,5.053h.242a2.526,2.526,0,1,0,0-5.053Z" transform="translate(-2966.097 -428.104)" fill="#f0c65b"/>
            <path id="Trazado_19918" data-name="Trazado 19918" d="M3194.494,562.466h-.242a2.526,2.526,0,1,0,0,5.053h.242a2.526,2.526,0,1,0,0-5.053Z" transform="translate(-2945.271 -428.104)" fill="#f0c65b"/>
            <path id="Trazado_19919" data-name="Trazado 19919" d="M2869.064,458.433a52.915,52.915,0,0,1-52.854-52.854V392.547h-52.268v-8.269l24.338-22.759a26.059,26.059,0,0,0,5.4-6.587,13.326,13.326,0,0,0,1.523-6.084,8.793,8.793,0,0,0-3.125-7.034c-1.93-1.592-4.634-2.4-8.034-2.4a16.8,16.8,0,0,0-8.055,1.978,16.007,16.007,0,0,0-4.644,3.78l-9.753-5.439a25.584,25.584,0,0,1,8.573-7.162,33.19,33.19,0,0,1,15.606-3.449,32.285,32.285,0,0,1,12.584,2.294,18.662,18.662,0,0,1,8.133,6.281,15.544,15.544,0,0,1,2.843,9.326,20.9,20.9,0,0,1-2.1,9.207c-1.42,2.928-4.278,6.367-8.5,10.23l-17.4,16.084h34.878V326.6a2.526,2.526,0,1,0-5.052,0v8.982c-.174-.273-.356-.543-.546-.808a23.623,23.623,0,0,0-10.283-8.007,37.269,37.269,0,0,0-14.553-2.694,38.17,38.17,0,0,0-17.963,4.033A30.176,30.176,0,0,0,2755.8,339.3l-1.349,2.239,18.461,10.3,1.281-2.011a11.193,11.193,0,0,1,4.2-3.977,11.664,11.664,0,0,1,5.66-1.374,7.561,7.561,0,0,1,4.816,1.243,3.67,3.67,0,0,1,1.291,3.135,8.2,8.2,0,0,1-.973,3.79,21.054,21.054,0,0,1-4.366,5.2l-25.927,24.244V397.6h52.269v7.979a57.907,57.907,0,0,0,57.907,57.908,2.527,2.527,0,1,0,0-5.053Zm-57.907-98.8v17.86h-16.912l7.907-7.309A45.015,45.015,0,0,0,2811.157,359.632Z" transform="translate(-2754.45 -324.071)" fill="#f0c65b"/>
          </g>
        </g>
        <rect id="Rect치ngulo_3214" data-name="Rect치ngulo 3214" width="268.563" height="268.563" rx="50" transform="translate(132.067 17.766)" fill="#ebebeb"/>
      </g>
    </g>
    <path id="Trazado_20068" data-name="Trazado 20068" d="M4.954,17V4.625h3.99a5.917,5.917,0,0,1,3.151.8A4.879,4.879,0,0,1,14.028,7.6a7.642,7.642,0,0,1,.628,3.2,8.1,8.1,0,0,1-.365,2.5,5.664,5.664,0,0,1-1.068,1.956,4.685,4.685,0,0,1-1.8,1.283A6.391,6.391,0,0,1,8.944,17Zm1.573-1.433H8.891A3.769,3.769,0,0,0,11.98,14.3a5.35,5.35,0,0,0,1.042-3.5,5.305,5.305,0,0,0-1.046-3.48A3.771,3.771,0,0,0,8.891,6.058H6.527Zm18.352-3.059-.018.413h-6.75a3.053,3.053,0,0,0,.826,2.21,2.713,2.713,0,0,0,1.969.769,2.59,2.59,0,0,0,1.433-.413,2.68,2.68,0,0,0,.984-1.143l1.371.29a3.9,3.9,0,0,1-1.477,1.854,4.028,4.028,0,0,1-2.294.677,4.174,4.174,0,0,1-3.111-1.2,4.479,4.479,0,0,1-1.187-3.287A4.458,4.458,0,0,1,17.816,9.4a4.122,4.122,0,0,1,3.063-1.2,3.9,3.9,0,0,1,2.9,1.107A4.376,4.376,0,0,1,24.878,12.509Zm-4-3.146a2.694,2.694,0,0,0-1.8.611,2.8,2.8,0,0,0-.91,1.78h5.177a2.567,2.567,0,0,0-.756-1.78A2.441,2.441,0,0,0,20.879,9.362Zm9.114,7.8a4.1,4.1,0,0,1-2.329-.624,2.581,2.581,0,0,1-1.134-1.775l1.327-.378a1.851,1.851,0,0,0,.708,1.2,2.3,2.3,0,0,0,1.419.426,2.832,2.832,0,0,0,.831-.114,1.331,1.331,0,0,0,.637-.426,1.189,1.189,0,0,0,.185-1.143,1.526,1.526,0,0,0-.141-.286.87.87,0,0,0-.246-.237,3.245,3.245,0,0,0-.3-.185,3.067,3.067,0,0,0-.391-.163q-.259-.092-.417-.141t-.483-.141q-.325-.092-.5-.145a9.372,9.372,0,0,1-.9-.316,3.932,3.932,0,0,1-.729-.417,1.679,1.679,0,0,1-.567-.681,2.3,2.3,0,0,1-.189-.967,2.234,2.234,0,0,1,.422-1.38,2.374,2.374,0,0,1,1.094-.813,4.374,4.374,0,0,1,1.534-.25,3.754,3.754,0,0,1,2.1.563,2.4,2.4,0,0,1,1.05,1.688l-1.248.316a1.655,1.655,0,0,0-.659-1.094,2.1,2.1,0,0,0-1.239-.365,2.139,2.139,0,0,0-1.16.3,1.019,1.019,0,0,0-.483.927.923.923,0,0,0,.127.479,1.521,1.521,0,0,0,.259.338,1.594,1.594,0,0,0,.475.259q.343.136.51.185t.633.163q.088.026.132.035.51.132.831.233a5.105,5.105,0,0,1,.747.316,2.484,2.484,0,0,1,.672.47A2.178,2.178,0,0,1,33,13.7a2.358,2.358,0,0,1,.176.932,2.516,2.516,0,0,1-.259,1.165,2.028,2.028,0,0,1-.708.8,3.422,3.422,0,0,1-1.006.435A4.8,4.8,0,0,1,29.994,17.167ZM41.947,3.5h1.521V17H42l-.035-1.679a3.179,3.179,0,0,1-1.23,1.362,3.429,3.429,0,0,1-1.828.5,3.926,3.926,0,0,1-2.852-1.217,4.16,4.16,0,0,1-.87-1.428,5.225,5.225,0,0,1-.321-1.854,4.543,4.543,0,0,1,1.173-3.243,3.788,3.788,0,0,1,2.87-1.248,3.443,3.443,0,0,1,1.806.488A3.2,3.2,0,0,1,41.947,10ZM39.222,15.866a2.587,2.587,0,0,0,2.008-.91,3.283,3.283,0,0,0,.813-2.272,3.277,3.277,0,0,0-.817-2.268,2.586,2.586,0,0,0-2-.914,2.644,2.644,0,0,0-2.021.883,3.25,3.25,0,0,0-.817,2.3,3.25,3.25,0,0,0,.817,2.3A2.644,2.644,0,0,0,39.222,15.866Zm14.9-3.357-.018.413h-6.75a3.053,3.053,0,0,0,.826,2.21,2.713,2.713,0,0,0,1.969.769,2.59,2.59,0,0,0,1.433-.413,2.68,2.68,0,0,0,.984-1.143l1.371.29a3.9,3.9,0,0,1-1.477,1.854,4.028,4.028,0,0,1-2.294.677,4.174,4.174,0,0,1-3.111-1.2,4.479,4.479,0,0,1-1.187-3.287A4.458,4.458,0,0,1,47.058,9.4a4.122,4.122,0,0,1,3.063-1.2,3.9,3.9,0,0,1,2.9,1.107A4.376,4.376,0,0,1,54.12,12.509Zm-4-3.146a2.694,2.694,0,0,0-1.8.611,2.8,2.8,0,0,0-.91,1.78H52.59a2.567,2.567,0,0,0-.756-1.78A2.441,2.441,0,0,0,50.121,9.362Zm13.79,7.8a4.1,4.1,0,0,1-2.329-.624,2.581,2.581,0,0,1-1.134-1.775l1.327-.378a1.851,1.851,0,0,0,.708,1.2,2.3,2.3,0,0,0,1.419.426,2.832,2.832,0,0,0,.831-.114,1.331,1.331,0,0,0,.637-.426,1.189,1.189,0,0,0,.185-1.143,1.526,1.526,0,0,0-.141-.286.87.87,0,0,0-.246-.237,3.245,3.245,0,0,0-.3-.185,3.067,3.067,0,0,0-.391-.163q-.259-.092-.417-.141t-.483-.141q-.325-.092-.5-.145a9.372,9.372,0,0,1-.9-.316,3.932,3.932,0,0,1-.729-.417,1.679,1.679,0,0,1-.567-.681,2.3,2.3,0,0,1-.189-.967,2.234,2.234,0,0,1,.422-1.38,2.374,2.374,0,0,1,1.094-.813,4.374,4.374,0,0,1,1.534-.25,3.754,3.754,0,0,1,2.1.563,2.4,2.4,0,0,1,1.05,1.688l-1.248.316a1.655,1.655,0,0,0-.659-1.094,2.1,2.1,0,0,0-1.239-.365,2.139,2.139,0,0,0-1.16.3,1.019,1.019,0,0,0-.483.927.923.923,0,0,0,.127.479,1.521,1.521,0,0,0,.259.338,1.594,1.594,0,0,0,.475.259q.343.136.51.185t.633.163q.088.026.132.035.51.132.831.233a5.105,5.105,0,0,1,.747.316,2.484,2.484,0,0,1,.672.47,2.178,2.178,0,0,1,.422.668,2.358,2.358,0,0,1,.176.932,2.516,2.516,0,0,1-.259,1.165,2.028,2.028,0,0,1-.708.8,3.422,3.422,0,0,1-1.006.435A4.8,4.8,0,0,1,63.911,17.167ZM74.862,8.36h1.521V17H74.923l-.035-1.143a2.7,2.7,0,0,1-1.072.971,3.3,3.3,0,0,1-1.512.338,3.005,3.005,0,0,1-2.175-.782,2.918,2.918,0,0,1-.813-2.206V8.36h1.521v5.476a2.05,2.05,0,0,0,.532,1.547,1.882,1.882,0,0,0,1.358.51,2.067,2.067,0,0,0,1.534-.6,2.434,2.434,0,0,0,.6-1.767ZM88.116,4.774h-.33q-.1,0-.316.018a2.028,2.028,0,0,0-.316.044q-.1.026-.272.088a.7.7,0,0,0-.259.149q-.088.088-.2.224a.918.918,0,0,0-.171.316,3.025,3.025,0,0,0-.1.422,3.364,3.364,0,0,0-.04.541V8.36h2V9.573h-2V17H84.6V9.573H82.93V8.36H84.6V6.55a4.969,4.969,0,0,1,.092-1.006,3.264,3.264,0,0,1,.246-.76,1.806,1.806,0,0,1,.409-.549,2.4,2.4,0,0,1,.532-.374,2.639,2.639,0,0,1,.655-.22,6.146,6.146,0,0,1,.743-.11q.365-.031.839-.031Zm3.647,12.393a2.94,2.94,0,0,1-1.894-.593,2.13,2.13,0,0,1-.743-1.771,2.517,2.517,0,0,1,.237-1.129,1.991,1.991,0,0,1,.7-.787,4.218,4.218,0,0,1,1.015-.488,9.384,9.384,0,0,1,1.314-.312l1.4-.229q.765-.141.765-.8a1.51,1.51,0,0,0-.541-1.288,2.2,2.2,0,0,0-1.367-.409,2.243,2.243,0,0,0-1.354.4,1.655,1.655,0,0,0-.642,1.213l-1.371-.29a2.639,2.639,0,0,1,1.081-1.85,4.039,4.039,0,0,1,2.355-.62,4.777,4.777,0,0,1,1.252.154,3.4,3.4,0,0,1,1.046.483,2.168,2.168,0,0,1,.747.932,3.466,3.466,0,0,1,.268,1.419v3.568a1.46,1.46,0,0,0,.2.9.854.854,0,0,0,.681.233h.141V17H96.3a1.442,1.442,0,0,1-1.635-1.169h-.07A3.3,3.3,0,0,1,91.763,17.167Zm.352-1.23a2.305,2.305,0,0,0,1.854-.835,3.438,3.438,0,0,0,.7-2.285l-2.285.439a3.076,3.076,0,0,0-1.34.479,1.114,1.114,0,0,0-.435.945,1.1,1.1,0,0,0,.417.949A1.785,1.785,0,0,0,92.115,15.937Zm11.663-7.743a3.764,3.764,0,0,1,2.856,1.248,4.553,4.553,0,0,1,1.169,3.243,4.586,4.586,0,0,1-1.16,3.252,3.756,3.756,0,0,1-2.865,1.248,3.467,3.467,0,0,1-1.841-.5,3.171,3.171,0,0,1-1.235-1.362L100.667,17H99.2V3.5h1.512l.009,6.513a3.184,3.184,0,0,1,1.235-1.332A3.476,3.476,0,0,1,103.778,8.193Zm-.334,7.673a2.644,2.644,0,0,0,2.021-.883,3.25,3.25,0,0,0,.817-2.3,3.25,3.25,0,0,0-.817-2.3,2.644,2.644,0,0,0-2.021-.883,2.586,2.586,0,0,0-2,.914,3.277,3.277,0,0,0-.817,2.268,3.283,3.283,0,0,0,.813,2.272A2.587,2.587,0,0,0,103.444,15.866Zm8.235-5.985a2.612,2.612,0,0,1,1.072-1.16,3.229,3.229,0,0,1,1.661-.457V9.7a2.846,2.846,0,0,0-2.008.642,2.68,2.68,0,0,0-.69,2.048V17h-1.521V8.36h1.485ZM116.97,6.33A1.035,1.035,0,0,1,115.942,5.3a.975.975,0,0,1,.3-.721,1,1,0,0,1,.725-.3.987.987,0,0,1,.716.3.975.975,0,0,1,.3.721.989.989,0,0,1-.3.725A.979.979,0,0,1,116.97,6.33ZM116.2,17V8.36h1.529V17Zm8.209.158a4.161,4.161,0,0,1-3.094-1.239,4.421,4.421,0,0,1-1.222-3.243,4.43,4.43,0,0,1,1.217-3.243,4.5,4.5,0,0,1,5.6-.483,3.815,3.815,0,0,1,1.455,2.1l-1.424.229a2.63,2.63,0,0,0-.976-1.345,2.656,2.656,0,0,0-1.564-.475,2.554,2.554,0,0,0-2,.888,3.382,3.382,0,0,0-.787,2.329A3.365,3.365,0,0,0,122.4,15a2.56,2.56,0,0,0,2,.883,2.656,2.656,0,0,0,1.564-.475,2.63,2.63,0,0,0,.976-1.345l1.424.237a3.819,3.819,0,0,1-1.463,2.1A4.185,4.185,0,0,1,124.406,17.158Zm8.191.009a2.94,2.94,0,0,1-1.894-.593,2.13,2.13,0,0,1-.743-1.771,2.517,2.517,0,0,1,.237-1.129,1.991,1.991,0,0,1,.7-.787,4.218,4.218,0,0,1,1.015-.488,9.384,9.384,0,0,1,1.314-.312l1.4-.229q.765-.141.765-.8a1.51,1.51,0,0,0-.541-1.288,2.2,2.2,0,0,0-1.367-.409,2.243,2.243,0,0,0-1.354.4,1.655,1.655,0,0,0-.642,1.213l-1.371-.29a2.639,2.639,0,0,1,1.081-1.85,4.039,4.039,0,0,1,2.355-.62,4.777,4.777,0,0,1,1.252.154,3.4,3.4,0,0,1,1.046.483,2.168,2.168,0,0,1,.747.932,3.466,3.466,0,0,1,.268,1.419v3.568a1.46,1.46,0,0,0,.2.9.854.854,0,0,0,.681.233h.141V17h-.756a1.442,1.442,0,0,1-1.635-1.169h-.07A3.3,3.3,0,0,1,132.6,17.167Zm.352-1.23A2.305,2.305,0,0,0,134.8,15.1a3.438,3.438,0,0,0,.7-2.285l-2.285.439a3.076,3.076,0,0,0-1.34.479,1.114,1.114,0,0,0-.435.945,1.1,1.1,0,0,0,.417.949A1.785,1.785,0,0,0,132.949,15.937Zm10.494,1.222a4.161,4.161,0,0,1-3.094-1.239,4.421,4.421,0,0,1-1.222-3.243,4.43,4.43,0,0,1,1.217-3.243,4.5,4.5,0,0,1,5.6-.483,3.815,3.815,0,0,1,1.455,2.1l-1.424.229A2.63,2.63,0,0,0,145,9.934a2.656,2.656,0,0,0-1.564-.475,2.554,2.554,0,0,0-2,.888,3.382,3.382,0,0,0-.787,2.329A3.365,3.365,0,0,0,141.435,15a2.56,2.56,0,0,0,2,.883A2.656,2.656,0,0,0,145,15.409a2.63,2.63,0,0,0,.976-1.345l1.424.237a3.819,3.819,0,0,1-1.463,2.1A4.185,4.185,0,0,1,143.443,17.158Zm6.97-10.828A1.035,1.035,0,0,1,149.384,5.3a.975.975,0,0,1,.3-.721,1,1,0,0,1,.725-.3.987.987,0,0,1,.716.3.975.975,0,0,1,.3.721.989.989,0,0,1-.3.725A.979.979,0,0,1,150.413,6.33ZM149.639,17V8.36h1.529V17Zm7.682-10.125,2.206-2.865.809.589-1.969,2.276Zm.58,10.292a4.554,4.554,0,0,1-2.215-.536,3.9,3.9,0,0,1-1.56-1.569,4.819,4.819,0,0,1-.576-2.386,4.4,4.4,0,0,1,1.226-3.256,4.6,4.6,0,0,1,6.253,0,4.41,4.41,0,0,1,1.222,3.256,4.413,4.413,0,0,1-1.226,3.265A4.232,4.232,0,0,1,157.9,17.167Zm-.009-1.266a2.654,2.654,0,0,0,2.043-.888,3.326,3.326,0,0,0,.813-2.338,3.314,3.314,0,0,0-.813-2.329,2.654,2.654,0,0,0-2.043-.888,2.617,2.617,0,0,0-2.026.888,3.336,3.336,0,0,0-.8,2.329,3.348,3.348,0,0,0,.8,2.338A2.617,2.617,0,0,0,157.892,15.9Zm10.819-7.708a3.005,3.005,0,0,1,2.175.782,2.918,2.918,0,0,1,.813,2.206V17h-1.521V11.524a2.043,2.043,0,0,0-.527-1.547,1.885,1.885,0,0,0-1.354-.5,2.09,2.09,0,0,0-1.538.593,2.407,2.407,0,0,0-.606,1.762V17h-1.521V8.36h1.521V9.468A2.885,2.885,0,0,1,168.711,8.193Zm14.73,0a2.886,2.886,0,0,1,2.136.8,3.1,3.1,0,0,1,.8,2.294V17h-1.521V11.577a2.125,2.125,0,0,0-.527-1.591,1.878,1.878,0,0,0-1.362-.51,2.091,2.091,0,0,0-1.525.589,2.394,2.394,0,0,0-.611,1.767V17h-1.521V3.5h1.521v6a2.81,2.81,0,0,1,1.085-.967A3.31,3.31,0,0,1,183.442,8.193Zm7.857,8.974a2.94,2.94,0,0,1-1.894-.593,2.13,2.13,0,0,1-.743-1.771,2.517,2.517,0,0,1,.237-1.129,1.991,1.991,0,0,1,.7-.787,4.218,4.218,0,0,1,1.015-.488,9.384,9.384,0,0,1,1.314-.312l1.4-.229q.765-.141.765-.8a1.51,1.51,0,0,0-.541-1.288,2.2,2.2,0,0,0-1.367-.409,2.243,2.243,0,0,0-1.354.4,1.655,1.655,0,0,0-.642,1.213l-1.371-.29a2.639,2.639,0,0,1,1.081-1.85,4.039,4.039,0,0,1,2.355-.62,4.777,4.777,0,0,1,1.252.154,3.4,3.4,0,0,1,1.046.483,2.168,2.168,0,0,1,.747.932,3.466,3.466,0,0,1,.268,1.419v3.568a1.46,1.46,0,0,0,.2.9.854.854,0,0,0,.681.233h.141V17h-.756a1.442,1.442,0,0,1-1.635-1.169h-.07A3.3,3.3,0,0,1,191.3,17.167Zm.352-1.23a2.305,2.305,0,0,0,1.854-.835,3.438,3.438,0,0,0,.7-2.285l-2.285.439a3.076,3.076,0,0,0-1.34.479,1.114,1.114,0,0,0-.435.945,1.1,1.1,0,0,0,.417.949A1.785,1.785,0,0,0,191.651,15.937Zm9.817,1.23a4.1,4.1,0,0,1-2.329-.624,2.581,2.581,0,0,1-1.134-1.775l1.327-.378a1.851,1.851,0,0,0,.708,1.2,2.3,2.3,0,0,0,1.419.426,2.832,2.832,0,0,0,.831-.114,1.331,1.331,0,0,0,.637-.426,1.189,1.189,0,0,0,.185-1.143,1.526,1.526,0,0,0-.141-.286.87.87,0,0,0-.246-.237,3.245,3.245,0,0,0-.3-.185,3.067,3.067,0,0,0-.391-.163q-.259-.092-.417-.141t-.483-.141q-.325-.092-.5-.145a9.372,9.372,0,0,1-.9-.316,3.932,3.932,0,0,1-.729-.417,1.679,1.679,0,0,1-.567-.681,2.3,2.3,0,0,1-.189-.967,2.234,2.234,0,0,1,.422-1.38,2.374,2.374,0,0,1,1.094-.813,4.374,4.374,0,0,1,1.534-.25,3.754,3.754,0,0,1,2.1.563,2.4,2.4,0,0,1,1.05,1.688l-1.248.316a1.655,1.655,0,0,0-.659-1.094,2.1,2.1,0,0,0-1.239-.365,2.139,2.139,0,0,0-1.16.3,1.019,1.019,0,0,0-.483.927.923.923,0,0,0,.127.479,1.521,1.521,0,0,0,.259.338,1.594,1.594,0,0,0,.475.259q.343.136.51.185t.633.163q.088.026.132.035.51.132.831.233a5.105,5.105,0,0,1,.747.316,2.484,2.484,0,0,1,.672.47,2.178,2.178,0,0,1,.422.668,2.358,2.358,0,0,1,.176.932,2.516,2.516,0,0,1-.259,1.165,2.028,2.028,0,0,1-.708.8,3.422,3.422,0,0,1-1.006.435A4.8,4.8,0,0,1,201.468,17.167ZM209.8,17a2.271,2.271,0,0,1-1.687-.62,2.344,2.344,0,0,1-.615-1.727V9.573h-1.767V8.36h.65a1.249,1.249,0,0,0,.954-.3,1.492,1.492,0,0,0,.277-1.015V5.478h1.415V8.36h1.986V9.573h-1.986V14.5a1.31,1.31,0,0,0,.33.954,1.154,1.154,0,0,0,.866.338h.791V17Zm5.3.167a2.94,2.94,0,0,1-1.894-.593,2.13,2.13,0,0,1-.743-1.771,2.517,2.517,0,0,1,.237-1.129,1.991,1.991,0,0,1,.7-.787,4.218,4.218,0,0,1,1.015-.488,9.384,9.384,0,0,1,1.314-.312l1.4-.229q.765-.141.765-.8a1.51,1.51,0,0,0-.541-1.288,2.2,2.2,0,0,0-1.367-.409,2.243,2.243,0,0,0-1.354.4,1.655,1.655,0,0,0-.642,1.213l-1.371-.29a2.639,2.639,0,0,1,1.081-1.85,4.039,4.039,0,0,1,2.355-.62,4.777,4.777,0,0,1,1.252.154,3.4,3.4,0,0,1,1.046.483,2.168,2.168,0,0,1,.747.932,3.466,3.466,0,0,1,.268,1.419v3.568a1.46,1.46,0,0,0,.2.9.854.854,0,0,0,.681.233h.141V17h-.756A1.442,1.442,0,0,1,218,15.831h-.07A3.3,3.3,0,0,1,215.1,17.167Zm.352-1.23a2.305,2.305,0,0,0,1.854-.835,3.438,3.438,0,0,0,.7-2.285l-2.285.439a3.076,3.076,0,0,0-1.34.479,1.114,1.114,0,0,0-.435.945,1.1,1.1,0,0,0,.417.949A1.785,1.785,0,0,0,215.452,15.937ZM26.337,32.36h1.468v12.99H26.285V39.392a3.157,3.157,0,0,1-1.23,1.305,3.434,3.434,0,0,1-1.793.488,3.792,3.792,0,0,1-2.878-1.239,4.568,4.568,0,0,1-1.165-3.261,5.25,5.25,0,0,1,.321-1.863,4.112,4.112,0,0,1,.87-1.424,3.937,3.937,0,0,1,2.852-1.2,3.443,3.443,0,0,1,1.811.492,3.159,3.159,0,0,1,1.23,1.327Zm-2.786,7.506a2.619,2.619,0,0,0,2.03-.91,3.547,3.547,0,0,0,0-4.535,2.721,2.721,0,0,0-4.025-.04,3.68,3.68,0,0,0,0,4.614A2.629,2.629,0,0,0,23.551,39.866ZM36.287,32.36h1.521V41H36.348l-.035-1.143a2.7,2.7,0,0,1-1.072.971,3.3,3.3,0,0,1-1.512.338,3.005,3.005,0,0,1-2.175-.782,2.918,2.918,0,0,1-.813-2.206V32.36h1.521v5.476a2.05,2.05,0,0,0,.532,1.547,1.882,1.882,0,0,0,1.358.51,2.067,2.067,0,0,0,1.534-.6,2.434,2.434,0,0,0,.6-1.767Zm12.173,4.148-.018.413h-6.75a3.053,3.053,0,0,0,.826,2.21,2.713,2.713,0,0,0,1.969.769,2.59,2.59,0,0,0,1.433-.413,2.68,2.68,0,0,0,.984-1.143l1.371.29A3.9,3.9,0,0,1,46.8,40.49a4.028,4.028,0,0,1-2.294.677,4.174,4.174,0,0,1-3.111-1.2,4.479,4.479,0,0,1-1.187-3.287A4.458,4.458,0,0,1,41.4,33.4a4.122,4.122,0,0,1,3.063-1.2,3.9,3.9,0,0,1,2.9,1.107A4.376,4.376,0,0,1,48.459,36.509Zm-4-3.146a2.694,2.694,0,0,0-1.8.611,2.8,2.8,0,0,0-.91,1.78H46.93a2.567,2.567,0,0,0-.756-1.78A2.441,2.441,0,0,0,44.46,33.362ZM55.517,41V27.5h1.538V41Zm4.632,0V27.5h1.538V41Zm12.19-4.491-.018.413h-6.75a3.053,3.053,0,0,0,.826,2.21,2.713,2.713,0,0,0,1.969.769,2.59,2.59,0,0,0,1.433-.413,2.68,2.68,0,0,0,.984-1.143l1.371.29a3.9,3.9,0,0,1-1.477,1.854,4.028,4.028,0,0,1-2.294.677,4.174,4.174,0,0,1-3.111-1.2,4.479,4.479,0,0,1-1.187-3.287A4.458,4.458,0,0,1,65.277,33.4a4.122,4.122,0,0,1,3.063-1.2,3.9,3.9,0,0,1,2.9,1.107A4.376,4.376,0,0,1,72.339,36.509Zm-4-3.146a2.694,2.694,0,0,0-1.8.611,2.8,2.8,0,0,0-.91,1.78H70.81a2.567,2.567,0,0,0-.756-1.78A2.441,2.441,0,0,0,68.34,33.362Zm12.639-1h1.477v8.2a4.706,4.706,0,0,1-1.116,3.366,4.648,4.648,0,0,1-7.286-1.468l1.257-.615a2.856,2.856,0,0,0,2.892,2A2.48,2.48,0,0,0,80.228,43a3.591,3.591,0,0,0,.7-2.355v-1.6a3.045,3.045,0,0,1-1.23,1.244,3.58,3.58,0,0,1-1.8.47A3.7,3.7,0,0,1,75.1,39.537a4.655,4.655,0,0,1,0-6.135,3.74,3.74,0,0,1,2.808-1.208,3.49,3.49,0,0,1,1.811.483,3.112,3.112,0,0,1,1.222,1.274Zm-2.742,7.1a2.614,2.614,0,0,0,1.991-.888,3.136,3.136,0,0,0,0-4.228,2.708,2.708,0,0,0-3.986-.026,3.2,3.2,0,0,0,.009,4.276A2.634,2.634,0,0,0,78.237,39.462Zm12.691-7.1h1.521V41H90.99l-.035-1.143a2.7,2.7,0,0,1-1.072.971,3.3,3.3,0,0,1-1.512.338,3.005,3.005,0,0,1-2.175-.782,2.918,2.918,0,0,1-.813-2.206V32.36H86.9v5.476a2.05,2.05,0,0,0,.532,1.547,1.882,1.882,0,0,0,1.358.51,2.067,2.067,0,0,0,1.534-.6,2.434,2.434,0,0,0,.6-1.767ZM103.1,36.509l-.018.413h-6.75a3.053,3.053,0,0,0,.826,2.21,2.713,2.713,0,0,0,1.969.769,2.59,2.59,0,0,0,1.433-.413,2.68,2.68,0,0,0,.984-1.143l1.371.29a3.9,3.9,0,0,1-1.477,1.854,4.028,4.028,0,0,1-2.294.677,4.174,4.174,0,0,1-3.111-1.2,4.479,4.479,0,0,1-1.187-3.287A4.458,4.458,0,0,1,96.039,33.4a4.122,4.122,0,0,1,3.063-1.2,3.9,3.9,0,0,1,2.9,1.107A4.376,4.376,0,0,1,103.1,36.509Zm-4-3.146a2.694,2.694,0,0,0-1.8.611,2.8,2.8,0,0,0-.91,1.78h5.177a2.567,2.567,0,0,0-.756-1.78A2.441,2.441,0,0,0,99.1,33.362Zm13.052,7.8a2.94,2.94,0,0,1-1.894-.593,2.13,2.13,0,0,1-.743-1.771,2.517,2.517,0,0,1,.237-1.129,1.991,1.991,0,0,1,.7-.787,4.218,4.218,0,0,1,1.015-.488,9.384,9.384,0,0,1,1.314-.312l1.4-.229q.765-.141.765-.8a1.51,1.51,0,0,0-.541-1.288,2.2,2.2,0,0,0-1.367-.409,2.243,2.243,0,0,0-1.354.4,1.655,1.655,0,0,0-.642,1.213l-1.371-.29a2.639,2.639,0,0,1,1.081-1.85,4.039,4.039,0,0,1,2.355-.62,4.777,4.777,0,0,1,1.252.154,3.4,3.4,0,0,1,1.046.483,2.168,2.168,0,0,1,.747.932,3.466,3.466,0,0,1,.268,1.419v3.568a1.46,1.46,0,0,0,.2.9.854.854,0,0,0,.681.233h.141V41h-.756a1.442,1.442,0,0,1-1.635-1.169h-.07A3.3,3.3,0,0,1,112.154,41.167Zm.352-1.23a2.305,2.305,0,0,0,1.854-.835,3.438,3.438,0,0,0,.7-2.285l-2.285.439a3.076,3.076,0,0,0-1.34.479,1.114,1.114,0,0,0-.435.945,1.1,1.1,0,0,0,.417.949A1.785,1.785,0,0,0,112.505,39.937ZM133.1,32.193a2.785,2.785,0,0,1,2.013.734,2.722,2.722,0,0,1,.765,2.061V41h-1.521V35.384a1.952,1.952,0,0,0-.475-1.424,1.616,1.616,0,0,0-1.2-.483,1.706,1.706,0,0,0-1.318.545,2.343,2.343,0,0,0-.5,1.635V41H129.31V35.445a2.042,2.042,0,0,0-.479-1.472,1.629,1.629,0,0,0-1.226-.5,1.69,1.69,0,0,0-1.314.558,2.424,2.424,0,0,0-.505,1.674V41h-1.521V32.36h1.521v1.116a2.625,2.625,0,0,1,.989-.949,2.82,2.82,0,0,1,1.375-.334,2.935,2.935,0,0,1,1.477.365,2.271,2.271,0,0,1,.958,1.05,2.689,2.689,0,0,1,1.037-1.05A2.966,2.966,0,0,1,133.1,32.193Zm7.717,8.974a2.94,2.94,0,0,1-1.894-.593,2.13,2.13,0,0,1-.743-1.771,2.517,2.517,0,0,1,.237-1.129,1.991,1.991,0,0,1,.7-.787,4.218,4.218,0,0,1,1.015-.488,9.384,9.384,0,0,1,1.314-.312l1.4-.229q.765-.141.765-.8a1.51,1.51,0,0,0-.541-1.288,2.2,2.2,0,0,0-1.367-.409,2.243,2.243,0,0,0-1.354.4,1.655,1.655,0,0,0-.642,1.213l-1.371-.29a2.639,2.639,0,0,1,1.081-1.85,4.039,4.039,0,0,1,2.355-.62,4.777,4.777,0,0,1,1.252.154,3.4,3.4,0,0,1,1.046.483,2.168,2.168,0,0,1,.747.932,3.466,3.466,0,0,1,.268,1.419v3.568a1.46,1.46,0,0,0,.2.9.854.854,0,0,0,.681.233h.141V41h-.756a1.442,1.442,0,0,1-1.635-1.169h-.07A3.3,3.3,0,0,1,140.815,41.167Zm.352-1.23a2.305,2.305,0,0,0,1.854-.835,3.438,3.438,0,0,0,.7-2.285l-2.285.439a3.076,3.076,0,0,0-1.34.479,1.114,1.114,0,0,0-.435.945,1.1,1.1,0,0,0,.417.949A1.785,1.785,0,0,0,141.167,39.937Zm11.162-7.743a3.005,3.005,0,0,1,2.175.782,2.918,2.918,0,0,1,.813,2.206V41H153.8V35.524a2.043,2.043,0,0,0-.527-1.547,1.885,1.885,0,0,0-1.354-.5,2.09,2.09,0,0,0-1.538.593,2.407,2.407,0,0,0-.606,1.762V41H148.25V32.36h1.521v1.107A2.885,2.885,0,0,1,152.329,32.193Zm9.563,8.974a4.554,4.554,0,0,1-2.215-.536,3.9,3.9,0,0,1-1.56-1.569,4.819,4.819,0,0,1-.576-2.386,4.4,4.4,0,0,1,1.226-3.256,4.6,4.6,0,0,1,6.253,0,4.41,4.41,0,0,1,1.222,3.256,4.413,4.413,0,0,1-1.226,3.265A4.232,4.232,0,0,1,161.891,41.167Zm-.009-1.266a2.654,2.654,0,0,0,2.043-.888,3.755,3.755,0,0,0,0-4.667,2.654,2.654,0,0,0-2.043-.888,2.617,2.617,0,0,0-2.026.888,3.788,3.788,0,0,0,0,4.667A2.617,2.617,0,0,0,161.882,39.9Zm9.475,1.266a4.1,4.1,0,0,1-2.329-.624,2.581,2.581,0,0,1-1.134-1.775l1.327-.378a1.851,1.851,0,0,0,.708,1.2,2.3,2.3,0,0,0,1.419.426,2.832,2.832,0,0,0,.831-.114,1.331,1.331,0,0,0,.637-.426A1.189,1.189,0,0,0,173,38.333a1.526,1.526,0,0,0-.141-.286.87.87,0,0,0-.246-.237,3.245,3.245,0,0,0-.3-.185,3.067,3.067,0,0,0-.391-.163q-.259-.092-.417-.141t-.483-.141q-.325-.092-.5-.145a9.372,9.372,0,0,1-.9-.316,3.932,3.932,0,0,1-.729-.417,1.679,1.679,0,0,1-.567-.681,2.3,2.3,0,0,1-.189-.967,2.234,2.234,0,0,1,.422-1.38,2.374,2.374,0,0,1,1.094-.813,4.374,4.374,0,0,1,1.534-.25,3.754,3.754,0,0,1,2.1.563,2.4,2.4,0,0,1,1.05,1.688l-1.248.316a1.655,1.655,0,0,0-.659-1.094,2.1,2.1,0,0,0-1.239-.365,2.139,2.139,0,0,0-1.16.3,1.019,1.019,0,0,0-.483.927.923.923,0,0,0,.127.479,1.521,1.521,0,0,0,.259.338,1.594,1.594,0,0,0,.475.259q.343.136.51.185t.633.163q.088.026.132.035.51.132.831.233a5.105,5.105,0,0,1,.747.316,2.484,2.484,0,0,1,.672.47,2.178,2.178,0,0,1,.422.668,2.358,2.358,0,0,1,.176.932,2.516,2.516,0,0,1-.259,1.165,2.028,2.028,0,0,1-.708.8,3.422,3.422,0,0,1-1.006.435A4.8,4.8,0,0,1,171.357,41.167ZM187.986,27.5h1.521V41h-1.468L188,39.321a3.179,3.179,0,0,1-1.23,1.362,3.429,3.429,0,0,1-1.828.5,3.926,3.926,0,0,1-2.852-1.217,4.16,4.16,0,0,1-.87-1.428,5.225,5.225,0,0,1-.321-1.854,4.543,4.543,0,0,1,1.173-3.243,3.788,3.788,0,0,1,2.87-1.248,3.443,3.443,0,0,1,1.806.488A3.2,3.2,0,0,1,187.986,34Zm-2.725,12.366a2.587,2.587,0,0,0,2.008-.91,3.568,3.568,0,0,0,0-4.54,2.586,2.586,0,0,0-2-.914,2.644,2.644,0,0,0-2.021.883,3.64,3.64,0,0,0,0,4.6A2.644,2.644,0,0,0,185.261,39.866Zm14.9-3.357-.018.413h-6.75a3.053,3.053,0,0,0,.826,2.21,2.713,2.713,0,0,0,1.969.769,2.59,2.59,0,0,0,1.433-.413,2.68,2.68,0,0,0,.984-1.143l1.371.29A3.9,3.9,0,0,1,198.5,40.49a4.028,4.028,0,0,1-2.294.677,4.174,4.174,0,0,1-3.111-1.2,4.479,4.479,0,0,1-1.187-3.287A4.458,4.458,0,0,1,193.1,33.4a4.122,4.122,0,0,1,3.063-1.2,3.9,3.9,0,0,1,2.9,1.107A4.376,4.376,0,0,1,200.159,36.509Zm-4-3.146a2.694,2.694,0,0,0-1.8.611,2.8,2.8,0,0,0-.91,1.78h5.177a2.567,2.567,0,0,0-.756-1.78A2.441,2.441,0,0,0,196.16,33.362ZM202.541,41V27.5h1.538V41ZM86.859,56.36h1.521V65H86.92l-.035-1.143a2.7,2.7,0,0,1-1.072.971,3.3,3.3,0,0,1-1.512.338,3.005,3.005,0,0,1-2.175-.782,2.918,2.918,0,0,1-.813-2.206V56.36h1.521v5.476a2.05,2.05,0,0,0,.532,1.547,1.882,1.882,0,0,0,1.358.51,2.067,2.067,0,0,0,1.534-.6,2.434,2.434,0,0,0,.6-1.767Zm7.348,8.807a4.1,4.1,0,0,1-2.329-.624,2.581,2.581,0,0,1-1.134-1.775l1.327-.378a1.851,1.851,0,0,0,.708,1.2,2.3,2.3,0,0,0,1.419.426,2.832,2.832,0,0,0,.831-.114,1.331,1.331,0,0,0,.637-.426,1.189,1.189,0,0,0,.185-1.143,1.526,1.526,0,0,0-.141-.286.87.87,0,0,0-.246-.237,3.245,3.245,0,0,0-.3-.185,3.067,3.067,0,0,0-.391-.163q-.259-.092-.417-.141t-.483-.141q-.325-.092-.5-.145a9.372,9.372,0,0,1-.9-.316,3.932,3.932,0,0,1-.729-.417,1.679,1.679,0,0,1-.567-.681,2.3,2.3,0,0,1-.189-.967,2.234,2.234,0,0,1,.422-1.38,2.374,2.374,0,0,1,1.094-.813,4.374,4.374,0,0,1,1.534-.25,3.754,3.754,0,0,1,2.1.563,2.4,2.4,0,0,1,1.05,1.688l-1.248.316a1.655,1.655,0,0,0-.659-1.094,2.1,2.1,0,0,0-1.239-.365,2.139,2.139,0,0,0-1.16.3,1.019,1.019,0,0,0-.483.927.923.923,0,0,0,.127.479,1.521,1.521,0,0,0,.259.338,1.594,1.594,0,0,0,.475.259q.343.136.51.185t.633.163q.088.026.132.035.51.132.831.233a5.105,5.105,0,0,1,.747.316,2.484,2.484,0,0,1,.672.47,2.178,2.178,0,0,1,.422.668,2.358,2.358,0,0,1,.176.932,2.516,2.516,0,0,1-.259,1.165,2.028,2.028,0,0,1-.708.8,3.422,3.422,0,0,1-1.006.435A4.8,4.8,0,0,1,94.207,65.167Zm10.951-8.807h1.521V65h-1.459l-.035-1.143a2.7,2.7,0,0,1-1.072.971,3.3,3.3,0,0,1-1.512.338,3.005,3.005,0,0,1-2.175-.782,2.918,2.918,0,0,1-.813-2.206V56.36h1.521v5.476a2.05,2.05,0,0,0,.532,1.547,1.882,1.882,0,0,0,1.358.51,2.067,2.067,0,0,0,1.534-.6,2.434,2.434,0,0,0,.6-1.767Zm6.609,8.807a2.94,2.94,0,0,1-1.894-.593,2.13,2.13,0,0,1-.743-1.771,2.517,2.517,0,0,1,.237-1.129,1.991,1.991,0,0,1,.7-.787,4.218,4.218,0,0,1,1.015-.488,9.384,9.384,0,0,1,1.314-.312l1.4-.229q.765-.141.765-.8a1.51,1.51,0,0,0-.541-1.288,2.2,2.2,0,0,0-1.367-.409,2.243,2.243,0,0,0-1.354.4,1.655,1.655,0,0,0-.642,1.213l-1.371-.29a2.639,2.639,0,0,1,1.081-1.85,4.039,4.039,0,0,1,2.355-.62,4.777,4.777,0,0,1,1.252.154,3.4,3.4,0,0,1,1.046.483,2.168,2.168,0,0,1,.747.932,3.466,3.466,0,0,1,.268,1.419v3.568a1.46,1.46,0,0,0,.2.9.854.854,0,0,0,.681.233h.141V65H116.3a1.442,1.442,0,0,1-1.635-1.169h-.07A3.3,3.3,0,0,1,111.767,65.167Zm.352-1.23a2.305,2.305,0,0,0,1.854-.835,3.438,3.438,0,0,0,.7-2.285l-2.285.439a3.076,3.076,0,0,0-1.34.479,1.114,1.114,0,0,0-.435.945,1.1,1.1,0,0,0,.417.949A1.785,1.785,0,0,0,112.119,63.937Zm8.569-6.056a2.612,2.612,0,0,1,1.072-1.16,3.229,3.229,0,0,1,1.661-.457V57.7a2.846,2.846,0,0,0-2.008.642,2.68,2.68,0,0,0-.69,2.048V65H119.2V56.36h1.485Zm5.291-3.551a1.035,1.035,0,0,1-1.028-1.028.975.975,0,0,1,.3-.721,1,1,0,0,1,.725-.3.987.987,0,0,1,.716.3.975.975,0,0,1,.3.721.989.989,0,0,1-.3.725A.979.979,0,0,1,125.979,54.33ZM125.206,65V56.36h1.529V65Zm8.262.167a4.554,4.554,0,0,1-2.215-.536,3.9,3.9,0,0,1-1.56-1.569,4.819,4.819,0,0,1-.576-2.386,4.4,4.4,0,0,1,1.226-3.256,4.6,4.6,0,0,1,6.253,0,4.956,4.956,0,0,1,0,6.521A4.232,4.232,0,0,1,133.467,65.167Zm-.009-1.266a2.654,2.654,0,0,0,2.043-.888,3.755,3.755,0,0,0,0-4.667,2.654,2.654,0,0,0-2.043-.888,2.617,2.617,0,0,0-2.026.888,3.788,3.788,0,0,0,0,4.667A2.617,2.617,0,0,0,133.458,63.9Zm7.7,1.274a.987.987,0,0,1-.716-.3,1.022,1.022,0,0,1,.716-1.74.994.994,0,0,1,.721.3,1,1,0,0,1,0,1.437A1,1,0,0,1,141.158,65.176Z" transform="translate(-412 -3873)" fill="#00223d"/>
    <path id="Trazado_20067" data-name="Trazado 20067" d="M67.029,4.889A4.247,4.247,0,0,1,70.281,6.2a4.569,4.569,0,0,1,1.23,3.247,4.456,4.456,0,0,1-1.221,3.228,4.324,4.324,0,0,1-3.262,1.265H64.09V19H61.16V4.889Zm-.488,6.6a2.153,2.153,0,0,0,1.611-.552,2.1,2.1,0,0,0,.537-1.528A2.081,2.081,0,0,0,68.147,7.9a2.134,2.134,0,0,0-1.606-.562H64.09v4.15Zm9.756-.937a3.259,3.259,0,0,1,1.318-1.206,4.023,4.023,0,0,1,1.963-.5v2.51a3.8,3.8,0,0,0-2.4.605,2.643,2.643,0,0,0-.742,2.148V19H73.6V8.961h2.7ZM85.848,19.2a6.313,6.313,0,0,1-2.842-.615,4.6,4.6,0,0,1-1.948-1.807,5.384,5.384,0,0,1-.708-2.8,4.911,4.911,0,0,1,1.523-3.809,6.368,6.368,0,0,1,7.959,0,4.911,4.911,0,0,1,1.523,3.809,4.938,4.938,0,0,1-1.523,3.823A5.654,5.654,0,0,1,85.848,19.2Zm-.029-2.236a2.577,2.577,0,0,0,1.987-.82,3.071,3.071,0,0,0,.757-2.168,3.071,3.071,0,0,0-.757-2.168,2.577,2.577,0,0,0-1.987-.82,2.483,2.483,0,0,0-1.929.825,3.1,3.1,0,0,0-.747,2.163,3.1,3.1,0,0,0,.747,2.163A2.483,2.483,0,0,0,85.818,16.959ZM97.186,19a3.032,3.032,0,0,1-2.266-.815,3.172,3.172,0,0,1-.8-2.319V11.119H92.146V8.961h.635a1.656,1.656,0,0,0,1.25-.42,2.162,2.162,0,0,0,.4-1.494V5.719h2.539V8.961h2.07v2.158h-2.07v4.443q0,1.3,1.162,1.3h.908V19Zm13.438-5.166-.029.674h-7.441a2.6,2.6,0,0,0,.8,1.836,2.561,2.561,0,0,0,1.768.635,2.468,2.468,0,0,0,1.323-.347,2.131,2.131,0,0,0,.845-1.011l2.578.381a4.383,4.383,0,0,1-1.758,2.354,5.226,5.226,0,0,1-2.969.84,5.435,5.435,0,0,1-3.911-1.382,5.042,5.042,0,0,1-1.45-3.833,5.072,5.072,0,0,1,1.455-3.833,5.273,5.273,0,0,1,3.818-1.4,5.04,5.04,0,0,1,3.6,1.279A5.019,5.019,0,0,1,110.623,13.834Zm-4.951-3.1a2.222,2.222,0,0,0-2.441,1.934h4.609a2.114,2.114,0,0,0-.693-1.436A2.2,2.2,0,0,0,105.672,10.738ZM117.3,19.186a5.364,5.364,0,0,1-3.877-1.445,4.992,4.992,0,0,1-1.5-3.77,4.981,4.981,0,0,1,1.5-3.77,5.96,5.96,0,0,1,7.134-.469,4.316,4.316,0,0,1,1.68,2.725l-2.6.283a2.226,2.226,0,0,0-.84-1.318,2.554,2.554,0,0,0-1.523-.439,2.3,2.3,0,0,0-1.836.82,3.216,3.216,0,0,0-.7,2.168,3.22,3.22,0,0,0,.7,2.163,2.3,2.3,0,0,0,1.836.825,2.532,2.532,0,0,0,1.519-.439,2.277,2.277,0,0,0,.845-1.318l2.6.283a4.328,4.328,0,0,1-1.694,2.725A5.327,5.327,0,0,1,117.3,19.186Zm11.475,0A5.364,5.364,0,0,1,124.9,17.74a4.992,4.992,0,0,1-1.5-3.77,4.981,4.981,0,0,1,1.5-3.77,5.96,5.96,0,0,1,7.134-.469,4.316,4.316,0,0,1,1.68,2.725l-2.6.283a2.225,2.225,0,0,0-.84-1.318,2.554,2.554,0,0,0-1.523-.439,2.3,2.3,0,0,0-1.836.82,3.216,3.216,0,0,0-.7,2.168,3.22,3.22,0,0,0,.7,2.163,2.3,2.3,0,0,0,1.836.825,2.532,2.532,0,0,0,1.519-.439,2.277,2.277,0,0,0,.845-1.318l2.6.283a4.328,4.328,0,0,1-1.694,2.725A5.327,5.327,0,0,1,128.777,19.186Zm8.369-11.729a1.579,1.579,0,0,1-1.152-.474,1.555,1.555,0,0,1-.479-1.147A1.536,1.536,0,0,1,136,4.7a1.584,1.584,0,0,1,1.147-.474,1.626,1.626,0,0,1,1.611,1.611,1.626,1.626,0,0,1-1.611,1.621ZM135.711,19V8.961h2.832V19Zm9.551-11.406L147.82,4l1.387.977L146.99,7.594Zm.869,11.6a6.313,6.313,0,0,1-2.842-.615,4.6,4.6,0,0,1-1.948-1.807,5.384,5.384,0,0,1-.708-2.8,4.911,4.911,0,0,1,1.523-3.809,6.368,6.368,0,0,1,7.959,0,4.911,4.911,0,0,1,1.523,3.809,4.938,4.938,0,0,1-1.523,3.823A5.654,5.654,0,0,1,146.131,19.2Zm-.029-2.236a2.577,2.577,0,0,0,1.987-.82,3.071,3.071,0,0,0,.757-2.168,3.071,3.071,0,0,0-.757-2.168,2.577,2.577,0,0,0-1.987-.82,2.483,2.483,0,0,0-1.929.825,3.1,3.1,0,0,0-.747,2.163,3.1,3.1,0,0,0,.747,2.163A2.483,2.483,0,0,0,146.1,16.959Zm13.555-8.193a3.914,3.914,0,0,1,2.773.9,3.349,3.349,0,0,1,.967,2.573V19h-2.822V12.848a1.749,1.749,0,0,0-.5-1.387,1.9,1.9,0,0,0-1.294-.439,2.643,2.643,0,0,0-.84.127,2.158,2.158,0,0,0-.7.4,1.748,1.748,0,0,0-.5.757,3.5,3.5,0,0,0-.19,1.162V19h-2.812V8.961h2.813v1.113A3.868,3.868,0,0,1,159.656,8.766Z" transform="translate(-412 -3924)" fill="#002b45"/>
    <path id="Trazado_20070" data-name="Trazado 20070" d="M35.647,17V4.625h3.99a5.917,5.917,0,0,1,3.151.8A4.879,4.879,0,0,1,44.722,7.6a7.642,7.642,0,0,1,.628,3.2,8.1,8.1,0,0,1-.365,2.5,5.664,5.664,0,0,1-1.068,1.956,4.685,4.685,0,0,1-1.8,1.283A6.391,6.391,0,0,1,39.637,17Zm1.573-1.433h2.364A3.769,3.769,0,0,0,42.674,14.3a5.35,5.35,0,0,0,1.042-3.5,5.305,5.305,0,0,0-1.046-3.48,3.771,3.771,0,0,0-3.085-1.266H37.22Zm18.352-3.059-.018.413H48.8a3.053,3.053,0,0,0,.826,2.21A2.713,2.713,0,0,0,51.6,15.9a2.59,2.59,0,0,0,1.433-.413,2.68,2.68,0,0,0,.984-1.143l1.371.29a3.9,3.9,0,0,1-1.477,1.854,4.028,4.028,0,0,1-2.294.677,4.174,4.174,0,0,1-3.111-1.2,4.479,4.479,0,0,1-1.187-3.287A4.458,4.458,0,0,1,48.51,9.4a4.122,4.122,0,0,1,3.063-1.2,3.9,3.9,0,0,1,2.9,1.107A4.376,4.376,0,0,1,55.572,12.509Zm-4-3.146a2.694,2.694,0,0,0-1.8.611,2.8,2.8,0,0,0-.91,1.78h5.177a2.567,2.567,0,0,0-.756-1.78A2.441,2.441,0,0,0,51.573,9.362Zm10.96-1.169a3.764,3.764,0,0,1,2.856,1.248,4.553,4.553,0,0,1,1.169,3.243,4.586,4.586,0,0,1-1.16,3.252,3.756,3.756,0,0,1-2.865,1.248,3.467,3.467,0,0,1-1.841-.5,3.171,3.171,0,0,1-1.235-1.362L59.421,17H57.954V3.5h1.512l.009,6.513a3.184,3.184,0,0,1,1.235-1.332A3.476,3.476,0,0,1,62.533,8.193ZM62.2,15.866a2.644,2.644,0,0,0,2.021-.883,3.25,3.25,0,0,0,.817-2.3,3.25,3.25,0,0,0-.817-2.3A2.644,2.644,0,0,0,62.2,9.5a2.586,2.586,0,0,0-2,.914,3.277,3.277,0,0,0-.817,2.268,3.283,3.283,0,0,0,.813,2.272A2.587,2.587,0,0,0,62.2,15.866Zm14.309-3.357-.018.413H69.74a3.053,3.053,0,0,0,.826,2.21,2.713,2.713,0,0,0,1.969.769,2.59,2.59,0,0,0,1.433-.413,2.68,2.68,0,0,0,.984-1.143l1.371.29a3.9,3.9,0,0,1-1.477,1.854,4.028,4.028,0,0,1-2.294.677,4.174,4.174,0,0,1-3.111-1.2,4.479,4.479,0,0,1-1.187-3.287A4.458,4.458,0,0,1,69.445,9.4a4.122,4.122,0,0,1,3.063-1.2,3.9,3.9,0,0,1,2.9,1.107A4.376,4.376,0,0,1,76.507,12.509Zm-4-3.146a2.694,2.694,0,0,0-1.8.611,2.8,2.8,0,0,0-.91,1.78h5.177a2.567,2.567,0,0,0-.756-1.78A2.441,2.441,0,0,0,72.508,9.362ZM87.529,4.774H87.2q-.1,0-.316.018a2.028,2.028,0,0,0-.316.044q-.1.026-.272.088a.7.7,0,0,0-.259.149q-.088.088-.2.224a.918.918,0,0,0-.171.316,3.025,3.025,0,0,0-.1.422,3.364,3.364,0,0,0-.04.541V8.36h2V9.573h-2V17H84.013V9.573h-1.67V8.36h1.67V6.55a4.969,4.969,0,0,1,.092-1.006,3.264,3.264,0,0,1,.246-.76,1.806,1.806,0,0,1,.409-.549,2.4,2.4,0,0,1,.532-.374,2.639,2.639,0,0,1,.655-.22,6.146,6.146,0,0,1,.743-.11q.365-.031.839-.031Zm3.647,12.393a2.94,2.94,0,0,1-1.894-.593A2.13,2.13,0,0,1,88.54,14.8a2.517,2.517,0,0,1,.237-1.129,1.991,1.991,0,0,1,.7-.787A4.218,4.218,0,0,1,90.5,12.4a9.384,9.384,0,0,1,1.314-.312l1.4-.229q.765-.141.765-.8a1.51,1.51,0,0,0-.541-1.288,2.2,2.2,0,0,0-1.367-.409,2.243,2.243,0,0,0-1.354.4,1.655,1.655,0,0,0-.642,1.213l-1.371-.29a2.639,2.639,0,0,1,1.081-1.85,4.039,4.039,0,0,1,2.355-.62,4.777,4.777,0,0,1,1.252.154,3.4,3.4,0,0,1,1.046.483,2.168,2.168,0,0,1,.747.932,3.466,3.466,0,0,1,.268,1.419v3.568a1.46,1.46,0,0,0,.2.9.854.854,0,0,0,.681.233h.141V17h-.756a1.442,1.442,0,0,1-1.635-1.169h-.07A3.3,3.3,0,0,1,91.176,17.167Zm.352-1.23a2.305,2.305,0,0,0,1.854-.835,3.438,3.438,0,0,0,.7-2.285l-2.285.439a3.076,3.076,0,0,0-1.34.479,1.114,1.114,0,0,0-.435.945,1.1,1.1,0,0,0,.417.949A1.785,1.785,0,0,0,91.528,15.937Zm10.494,1.222a4.161,4.161,0,0,1-3.094-1.239,4.421,4.421,0,0,1-1.222-3.243,4.43,4.43,0,0,1,1.217-3.243,4.5,4.5,0,0,1,5.6-.483,3.815,3.815,0,0,1,1.455,2.1l-1.424.229a2.63,2.63,0,0,0-.976-1.345,2.656,2.656,0,0,0-1.564-.475,2.554,2.554,0,0,0-2,.888,3.382,3.382,0,0,0-.787,2.329A3.365,3.365,0,0,0,100.014,15a2.56,2.56,0,0,0,2,.883,2.656,2.656,0,0,0,1.564-.475,2.63,2.63,0,0,0,.976-1.345l1.424.237a3.819,3.819,0,0,1-1.463,2.1A4.185,4.185,0,0,1,102.022,17.158Zm6.97-10.828A1.035,1.035,0,0,1,107.963,5.3a.975.975,0,0,1,.3-.721,1,1,0,0,1,.725-.3.987.987,0,0,1,.716.3.975.975,0,0,1,.3.721.989.989,0,0,1-.3.725A.979.979,0,0,1,108.992,6.33ZM108.218,17V8.36h1.529V17Zm4.623,0V3.5h1.538V17Zm5.405-10.67A1.035,1.035,0,0,1,117.218,5.3a.975.975,0,0,1,.3-.721,1,1,0,0,1,.725-.3.987.987,0,0,1,.716.3.975.975,0,0,1,.3.721.989.989,0,0,1-.3.725A.979.979,0,0,1,118.247,6.33ZM117.473,17V8.36H119V17Zm7.383,0a2.271,2.271,0,0,1-1.687-.62,2.344,2.344,0,0,1-.615-1.727V9.573h-1.767V8.36h.65a1.249,1.249,0,0,0,.954-.3,1.492,1.492,0,0,0,.277-1.015V5.478h1.415V8.36h1.986V9.573h-1.986V14.5a1.31,1.31,0,0,0,.33.954,1.154,1.154,0,0,0,.866.338h.791V17Zm5.3.167a2.94,2.94,0,0,1-1.894-.593,2.13,2.13,0,0,1-.743-1.771,2.517,2.517,0,0,1,.237-1.129,1.991,1.991,0,0,1,.7-.787,4.218,4.218,0,0,1,1.015-.488,9.384,9.384,0,0,1,1.314-.312l1.4-.229q.765-.141.765-.8a1.51,1.51,0,0,0-.541-1.288,2.2,2.2,0,0,0-1.367-.409,2.243,2.243,0,0,0-1.354.4,1.655,1.655,0,0,0-.642,1.213l-1.371-.29a2.639,2.639,0,0,1,1.081-1.85,4.039,4.039,0,0,1,2.355-.62,4.777,4.777,0,0,1,1.252.154,3.4,3.4,0,0,1,1.046.483,2.168,2.168,0,0,1,.747.932,3.466,3.466,0,0,1,.268,1.419v3.568a1.46,1.46,0,0,0,.2.9.854.854,0,0,0,.681.233h.141V17h-.756a1.442,1.442,0,0,1-1.635-1.169h-.07A3.3,3.3,0,0,1,130.156,17.167Zm.352-1.23a2.305,2.305,0,0,0,1.854-.835,3.438,3.438,0,0,0,.7-2.285l-2.285.439a3.076,3.076,0,0,0-1.34.479,1.114,1.114,0,0,0-.435.945,1.1,1.1,0,0,0,.417.949A1.785,1.785,0,0,0,130.507,15.937Zm8.569-6.056a2.612,2.612,0,0,1,1.072-1.16,3.229,3.229,0,0,1,1.661-.457V9.7a2.846,2.846,0,0,0-2.008.642,2.68,2.68,0,0,0-.69,2.048V17h-1.521V8.36h1.485Zm16.752,2.628-.018.413h-6.75a3.053,3.053,0,0,0,.826,2.21,2.713,2.713,0,0,0,1.969.769,2.59,2.59,0,0,0,1.433-.413,2.68,2.68,0,0,0,.984-1.143l1.371.29a3.9,3.9,0,0,1-1.477,1.854,4.028,4.028,0,0,1-2.294.677,4.174,4.174,0,0,1-3.111-1.2,4.479,4.479,0,0,1-1.187-3.287A4.458,4.458,0,0,1,148.767,9.4a4.122,4.122,0,0,1,3.063-1.2,3.9,3.9,0,0,1,2.9,1.107A4.376,4.376,0,0,1,155.829,12.509Zm-4-3.146a2.694,2.694,0,0,0-1.8.611,2.8,2.8,0,0,0-.91,1.78H154.3a2.567,2.567,0,0,0-.756-1.78A2.441,2.441,0,0,0,151.83,9.362ZM158.21,17V3.5h1.538V17ZM35.4,28.774h-.33q-.1,0-.316.018a2.028,2.028,0,0,0-.316.044q-.1.026-.272.088a.7.7,0,0,0-.259.149q-.088.088-.2.224a.918.918,0,0,0-.171.316,3.025,3.025,0,0,0-.1.422,3.364,3.364,0,0,0-.04.541V32.36h2v1.213h-2V41H31.881V33.573h-1.67V32.36h1.67V30.55a4.969,4.969,0,0,1,.092-1.006,3.264,3.264,0,0,1,.246-.76,1.806,1.806,0,0,1,.409-.549,2.4,2.4,0,0,1,.532-.374,2.639,2.639,0,0,1,.655-.22,6.146,6.146,0,0,1,.743-.11q.365-.031.839-.031Zm3.243,5.106a2.612,2.612,0,0,1,1.072-1.16,3.229,3.229,0,0,1,1.661-.457V33.7a2.846,2.846,0,0,0-2.008.642,2.68,2.68,0,0,0-.69,2.048V41H37.154V32.36H38.64Zm6.407,7.286a2.94,2.94,0,0,1-1.894-.593A2.13,2.13,0,0,1,42.41,38.8a2.517,2.517,0,0,1,.237-1.129,1.991,1.991,0,0,1,.7-.787,4.218,4.218,0,0,1,1.015-.488,9.384,9.384,0,0,1,1.314-.312l1.4-.229q.765-.141.765-.8a1.51,1.51,0,0,0-.541-1.288,2.2,2.2,0,0,0-1.367-.409,2.243,2.243,0,0,0-1.354.4,1.655,1.655,0,0,0-.642,1.213l-1.371-.29a2.639,2.639,0,0,1,1.081-1.85A4.039,4.039,0,0,1,46,32.211a4.777,4.777,0,0,1,1.252.154,3.4,3.4,0,0,1,1.046.483,2.168,2.168,0,0,1,.747.932,3.466,3.466,0,0,1,.268,1.419v3.568a1.46,1.46,0,0,0,.2.9.854.854,0,0,0,.681.233h.141V41h-.756a1.442,1.442,0,0,1-1.635-1.169h-.07A3.3,3.3,0,0,1,45.047,41.167Zm.352-1.23a2.305,2.305,0,0,0,1.854-.835,3.438,3.438,0,0,0,.7-2.285l-2.285.439a3.076,3.076,0,0,0-1.34.479,1.114,1.114,0,0,0-.435.945,1.1,1.1,0,0,0,.417.949A1.785,1.785,0,0,0,45.4,39.937Zm10.494,1.222A4.161,4.161,0,0,1,52.8,39.919a4.421,4.421,0,0,1-1.222-3.243,4.43,4.43,0,0,1,1.217-3.243,4.5,4.5,0,0,1,5.6-.483,3.815,3.815,0,0,1,1.455,2.1l-1.424.229a2.63,2.63,0,0,0-.976-1.345,2.656,2.656,0,0,0-1.564-.475,2.554,2.554,0,0,0-2,.888,3.835,3.835,0,0,0,0,4.654,2.56,2.56,0,0,0,2,.883,2.656,2.656,0,0,0,1.564-.475,2.63,2.63,0,0,0,.976-1.345l1.424.237a3.819,3.819,0,0,1-1.463,2.1A4.185,4.185,0,0,1,55.893,41.158Zm9.782,0a4.161,4.161,0,0,1-3.094-1.239,4.421,4.421,0,0,1-1.222-3.243,4.43,4.43,0,0,1,1.217-3.243,4.5,4.5,0,0,1,5.6-.483,3.815,3.815,0,0,1,1.455,2.1l-1.424.229a2.63,2.63,0,0,0-.976-1.345,2.656,2.656,0,0,0-1.564-.475,2.554,2.554,0,0,0-2,.888,3.835,3.835,0,0,0,0,4.654,2.56,2.56,0,0,0,2,.883,2.656,2.656,0,0,0,1.564-.475,2.63,2.63,0,0,0,.976-1.345l1.424.237a3.819,3.819,0,0,1-1.463,2.1A4.185,4.185,0,0,1,65.675,41.158Zm6.97-10.828A1.035,1.035,0,0,1,71.616,29.3a.975.975,0,0,1,.3-.721,1,1,0,0,1,.725-.3.987.987,0,0,1,.716.3.975.975,0,0,1,.3.721.989.989,0,0,1-.3.725A.979.979,0,0,1,72.645,30.33ZM71.871,41V32.36H73.4V41Zm8.262.167a4.554,4.554,0,0,1-2.215-.536,3.9,3.9,0,0,1-1.56-1.569,4.819,4.819,0,0,1-.576-2.386,4.4,4.4,0,0,1,1.226-3.256,4.6,4.6,0,0,1,6.253,0,4.41,4.41,0,0,1,1.222,3.256,4.413,4.413,0,0,1-1.226,3.265A4.232,4.232,0,0,1,80.133,41.167ZM80.124,39.9a2.654,2.654,0,0,0,2.043-.888,3.755,3.755,0,0,0,0-4.667,2.654,2.654,0,0,0-2.043-.888,2.617,2.617,0,0,0-2.026.888,3.788,3.788,0,0,0,0,4.667A2.617,2.617,0,0,0,80.124,39.9Zm10.819-7.708a3.005,3.005,0,0,1,2.175.782,2.918,2.918,0,0,1,.813,2.206V41H92.411V35.524a2.043,2.043,0,0,0-.527-1.547,1.885,1.885,0,0,0-1.354-.5,2.09,2.09,0,0,0-1.538.593,2.407,2.407,0,0,0-.606,1.762V41H86.865V32.36h1.521v1.107A2.885,2.885,0,0,1,90.943,32.193Zm7.919,8.974a2.94,2.94,0,0,1-1.894-.593,2.13,2.13,0,0,1-.743-1.771,2.517,2.517,0,0,1,.237-1.129,1.991,1.991,0,0,1,.7-.787,4.218,4.218,0,0,1,1.015-.488,9.384,9.384,0,0,1,1.314-.312l1.4-.229q.765-.141.765-.8a1.51,1.51,0,0,0-.541-1.288,2.2,2.2,0,0,0-1.367-.409,2.243,2.243,0,0,0-1.354.4,1.655,1.655,0,0,0-.642,1.213l-1.371-.29a2.639,2.639,0,0,1,1.081-1.85,4.039,4.039,0,0,1,2.355-.62,4.777,4.777,0,0,1,1.252.154,3.4,3.4,0,0,1,1.046.483,2.168,2.168,0,0,1,.747.932,3.466,3.466,0,0,1,.268,1.419v3.568a1.46,1.46,0,0,0,.2.9.854.854,0,0,0,.681.233h.141V41H103.4a1.442,1.442,0,0,1-1.635-1.169h-.07A3.3,3.3,0,0,1,98.862,41.167Zm.352-1.23a2.305,2.305,0,0,0,1.854-.835,3.438,3.438,0,0,0,.7-2.285l-2.285.439a3.076,3.076,0,0,0-1.34.479,1.114,1.114,0,0,0-.435.945,1.1,1.1,0,0,0,.417.949A1.785,1.785,0,0,0,99.214,39.937Zm15.917-7.743a2.785,2.785,0,0,1,2.013.734,2.722,2.722,0,0,1,.765,2.061V41h-1.521V35.384a1.952,1.952,0,0,0-.475-1.424,1.616,1.616,0,0,0-1.2-.483,1.706,1.706,0,0,0-1.318.545,2.343,2.343,0,0,0-.5,1.635V41h-1.547V35.445a2.042,2.042,0,0,0-.479-1.472,1.629,1.629,0,0,0-1.226-.5,1.69,1.69,0,0,0-1.314.558,2.424,2.424,0,0,0-.505,1.674V41H106.3V32.36h1.521v1.116a2.625,2.625,0,0,1,.989-.949,2.82,2.82,0,0,1,1.375-.334,2.935,2.935,0,0,1,1.477.365,2.271,2.271,0,0,1,.958,1.05,2.689,2.689,0,0,1,1.037-1.05A2.966,2.966,0,0,1,115.131,32.193Zm6.5-1.863A1.035,1.035,0,0,1,120.6,29.3a.975.975,0,0,1,.3-.721,1,1,0,0,1,.725-.3.987.987,0,0,1,.716.3.975.975,0,0,1,.3.721.989.989,0,0,1-.3.725A.979.979,0,0,1,121.626,30.33ZM120.853,41V32.36h1.529V41Zm12.182-4.491-.018.413h-6.75a3.053,3.053,0,0,0,.826,2.21,2.713,2.713,0,0,0,1.969.769,2.59,2.59,0,0,0,1.433-.413,2.68,2.68,0,0,0,.984-1.143l1.371.29a3.9,3.9,0,0,1-1.477,1.854,4.028,4.028,0,0,1-2.294.677,4.174,4.174,0,0,1-3.111-1.2,4.479,4.479,0,0,1-1.187-3.287,4.458,4.458,0,0,1,1.191-3.278,4.122,4.122,0,0,1,3.063-1.2,3.9,3.9,0,0,1,2.9,1.107A4.376,4.376,0,0,1,133.034,36.509Zm-4-3.146a2.694,2.694,0,0,0-1.8.611,2.8,2.8,0,0,0-.91,1.78H131.5a2.567,2.567,0,0,0-.756-1.78A2.441,2.441,0,0,0,129.035,33.362Zm10.459-1.169a3.005,3.005,0,0,1,2.175.782,2.918,2.918,0,0,1,.813,2.206V41h-1.521V35.524a2.043,2.043,0,0,0-.527-1.547,1.885,1.885,0,0,0-1.354-.5,2.09,2.09,0,0,0-1.538.593,2.407,2.407,0,0,0-.606,1.762V41h-1.521V32.36h1.521v1.107A2.885,2.885,0,0,1,139.494,32.193ZM148.178,41a2.271,2.271,0,0,1-1.687-.62,2.344,2.344,0,0,1-.615-1.727v-5.08h-1.767V32.36h.65a1.249,1.249,0,0,0,.954-.3,1.492,1.492,0,0,0,.277-1.015V29.478H147.4V32.36h1.986v1.213H147.4V38.5a1.31,1.31,0,0,0,.33.954,1.154,1.154,0,0,0,.866.338h.791V41Zm6.943.167a4.554,4.554,0,0,1-2.215-.536,3.9,3.9,0,0,1-1.56-1.569,4.819,4.819,0,0,1-.576-2.386A4.4,4.4,0,0,1,152,33.419a4.6,4.6,0,0,1,6.253,0,4.41,4.41,0,0,1,1.222,3.256,4.413,4.413,0,0,1-1.226,3.265A4.232,4.232,0,0,1,155.121,41.167Zm-.009-1.266a2.654,2.654,0,0,0,2.043-.888,3.755,3.755,0,0,0,0-4.667,2.654,2.654,0,0,0-2.043-.888,2.617,2.617,0,0,0-2.026.888,3.788,3.788,0,0,0,0,4.667A2.617,2.617,0,0,0,155.112,39.9Zm7.031,4.271h-1.107l1.072-5.449H163.7ZM30.69,60.509l-.018.413h-6.75a3.053,3.053,0,0,0,.826,2.21,2.713,2.713,0,0,0,1.969.769,2.59,2.59,0,0,0,1.433-.413,2.68,2.68,0,0,0,.984-1.143l1.371.29a3.9,3.9,0,0,1-1.477,1.854,4.028,4.028,0,0,1-2.294.677,4.174,4.174,0,0,1-3.111-1.2,5.127,5.127,0,0,1,0-6.565,4.122,4.122,0,0,1,3.063-1.2A3.9,3.9,0,0,1,29.6,57.3,4.376,4.376,0,0,1,30.69,60.509Zm-4-3.146a2.694,2.694,0,0,0-1.8.611,2.8,2.8,0,0,0-.91,1.78h5.177a2.567,2.567,0,0,0-.756-1.78A2.441,2.441,0,0,0,26.691,57.362ZM33.072,65V51.5H34.61V65Zm11.3.167a2.94,2.94,0,0,1-1.894-.593,2.13,2.13,0,0,1-.743-1.771,2.517,2.517,0,0,1,.237-1.129,1.991,1.991,0,0,1,.7-.787,4.218,4.218,0,0,1,1.015-.488,9.384,9.384,0,0,1,1.314-.312l1.4-.229q.765-.141.765-.8a1.51,1.51,0,0,0-.541-1.288,2.2,2.2,0,0,0-1.367-.409,2.243,2.243,0,0,0-1.354.4,1.655,1.655,0,0,0-.642,1.213l-1.371-.29a2.639,2.639,0,0,1,1.081-1.85,4.039,4.039,0,0,1,2.355-.62,4.777,4.777,0,0,1,1.252.154,3.4,3.4,0,0,1,1.046.483,2.168,2.168,0,0,1,.747.932,3.466,3.466,0,0,1,.268,1.419v3.568a1.46,1.46,0,0,0,.2.9.854.854,0,0,0,.681.233h.141V65H48.91a1.442,1.442,0,0,1-1.635-1.169H47.2A3.3,3.3,0,0,1,44.375,65.167Zm.352-1.23a2.305,2.305,0,0,0,1.854-.835,3.438,3.438,0,0,0,.7-2.285L45,61.256a3.076,3.076,0,0,0-1.34.479,1.114,1.114,0,0,0-.435.945,1.1,1.1,0,0,0,.417.949A1.785,1.785,0,0,0,44.726,63.937ZM51.81,65V51.5h1.538V65Zm13.465-8.807a2.785,2.785,0,0,1,2.013.734,2.722,2.722,0,0,1,.765,2.061V65H66.532V59.384a1.952,1.952,0,0,0-.475-1.424,1.616,1.616,0,0,0-1.2-.483,1.706,1.706,0,0,0-1.318.545,2.343,2.343,0,0,0-.5,1.635V65H61.487V59.445a2.042,2.042,0,0,0-.479-1.472,1.629,1.629,0,0,0-1.226-.5,1.69,1.69,0,0,0-1.314.558,2.424,2.424,0,0,0-.505,1.674V65H56.442V56.36h1.521v1.116a2.625,2.625,0,0,1,.989-.949,2.82,2.82,0,0,1,1.375-.334,2.935,2.935,0,0,1,1.477.365,2.271,2.271,0,0,1,.958,1.05,2.689,2.689,0,0,1,1.037-1.05A2.966,2.966,0,0,1,65.275,56.193Zm7.717,8.974a2.94,2.94,0,0,1-1.894-.593,2.13,2.13,0,0,1-.743-1.771,2.517,2.517,0,0,1,.237-1.129,1.991,1.991,0,0,1,.7-.787,4.218,4.218,0,0,1,1.015-.488,9.384,9.384,0,0,1,1.314-.312l1.4-.229q.765-.141.765-.8a1.51,1.51,0,0,0-.541-1.288,2.2,2.2,0,0,0-1.367-.409,2.243,2.243,0,0,0-1.354.4,1.655,1.655,0,0,0-.642,1.213l-1.371-.29a2.639,2.639,0,0,1,1.081-1.85,4.039,4.039,0,0,1,2.355-.62,4.777,4.777,0,0,1,1.252.154,3.4,3.4,0,0,1,1.046.483A2.168,2.168,0,0,1,77,57.78a3.466,3.466,0,0,1,.268,1.419v3.568a1.46,1.46,0,0,0,.2.9.854.854,0,0,0,.681.233h.141V65h-.756a1.442,1.442,0,0,1-1.635-1.169h-.07A3.3,3.3,0,0,1,72.992,65.167Zm.352-1.23A2.305,2.305,0,0,0,75.2,63.1a3.438,3.438,0,0,0,.7-2.285l-2.285.439a3.076,3.076,0,0,0-1.34.479,1.114,1.114,0,0,0-.435.945,1.1,1.1,0,0,0,.417.949A1.785,1.785,0,0,0,73.343,63.937Zm10.494,1.222a4.161,4.161,0,0,1-3.094-1.239,4.922,4.922,0,0,1,0-6.486,4.5,4.5,0,0,1,5.6-.483,3.815,3.815,0,0,1,1.455,2.1l-1.424.229a2.63,2.63,0,0,0-.976-1.345,2.656,2.656,0,0,0-1.564-.475,2.554,2.554,0,0,0-2,.888,3.835,3.835,0,0,0,0,4.654,2.56,2.56,0,0,0,2,.883,2.656,2.656,0,0,0,1.564-.475,2.63,2.63,0,0,0,.976-1.345l1.424.237a3.819,3.819,0,0,1-1.463,2.1A4.185,4.185,0,0,1,83.837,65.158Zm13.755-4.649-.018.413h-6.75a3.053,3.053,0,0,0,.826,2.21,2.713,2.713,0,0,0,1.969.769,2.59,2.59,0,0,0,1.433-.413,2.68,2.68,0,0,0,.984-1.143l1.371.29a3.9,3.9,0,0,1-1.477,1.854,4.028,4.028,0,0,1-2.294.677,4.174,4.174,0,0,1-3.111-1.2,5.127,5.127,0,0,1,0-6.565,4.122,4.122,0,0,1,3.063-1.2A3.9,3.9,0,0,1,96.5,57.3,4.376,4.376,0,0,1,97.592,60.509Zm-4-3.146a2.694,2.694,0,0,0-1.8.611,2.8,2.8,0,0,0-.91,1.78h5.177a2.567,2.567,0,0,0-.756-1.78A2.441,2.441,0,0,0,93.593,57.362Zm10.459-1.169a3.005,3.005,0,0,1,2.175.782,2.918,2.918,0,0,1,.813,2.206V65H105.52V59.524a2.043,2.043,0,0,0-.527-1.547,1.885,1.885,0,0,0-1.354-.5,2.09,2.09,0,0,0-1.538.593,2.407,2.407,0,0,0-.606,1.762V65H99.974V56.36h1.521v1.107A2.885,2.885,0,0,1,104.052,56.193Zm7.919,8.974a2.94,2.94,0,0,1-1.894-.593,2.13,2.13,0,0,1-.743-1.771,2.517,2.517,0,0,1,.237-1.129,1.991,1.991,0,0,1,.7-.787,4.218,4.218,0,0,1,1.015-.488,9.384,9.384,0,0,1,1.314-.312l1.4-.229q.765-.141.765-.8a1.51,1.51,0,0,0-.541-1.288,2.2,2.2,0,0,0-1.367-.409,2.243,2.243,0,0,0-1.354.4,1.655,1.655,0,0,0-.642,1.213l-1.371-.29a2.639,2.639,0,0,1,1.081-1.85,4.039,4.039,0,0,1,2.355-.62,4.777,4.777,0,0,1,1.252.154,3.4,3.4,0,0,1,1.046.483,2.168,2.168,0,0,1,.747.932,3.466,3.466,0,0,1,.268,1.419v3.568a1.46,1.46,0,0,0,.2.9.854.854,0,0,0,.681.233h.141V65h-.756a1.442,1.442,0,0,1-1.635-1.169h-.07A3.3,3.3,0,0,1,111.971,65.167Zm.352-1.23a2.305,2.305,0,0,0,1.854-.835,3.438,3.438,0,0,0,.7-2.285l-2.285.439a3.076,3.076,0,0,0-1.34.479,1.114,1.114,0,0,0-.435.945,1.1,1.1,0,0,0,.417.949A1.785,1.785,0,0,0,112.323,63.937Zm15.917-7.743a2.785,2.785,0,0,1,2.013.734,2.722,2.722,0,0,1,.765,2.061V65H129.5V59.384a1.952,1.952,0,0,0-.475-1.424,1.616,1.616,0,0,0-1.2-.483,1.706,1.706,0,0,0-1.318.545,2.343,2.343,0,0,0-.5,1.635V65h-1.547V59.445a2.042,2.042,0,0,0-.479-1.472,1.629,1.629,0,0,0-1.226-.5,1.69,1.69,0,0,0-1.314.558,2.424,2.424,0,0,0-.505,1.674V65h-1.521V56.36h1.521v1.116a2.625,2.625,0,0,1,.989-.949,2.82,2.82,0,0,1,1.375-.334,2.935,2.935,0,0,1,1.477.365,2.271,2.271,0,0,1,.958,1.05,2.689,2.689,0,0,1,1.037-1.05A2.966,2.966,0,0,1,128.24,56.193Zm6.5-1.863a1.035,1.035,0,0,1-1.028-1.028.975.975,0,0,1,.3-.721,1,1,0,0,1,.725-.3.987.987,0,0,1,.716.3.975.975,0,0,1,.3.721.989.989,0,0,1-.3.725A.979.979,0,0,1,134.735,54.33ZM133.961,65V56.36h1.529V65Zm12.182-4.491-.018.413h-6.75a3.053,3.053,0,0,0,.826,2.21,2.713,2.713,0,0,0,1.969.769,2.59,2.59,0,0,0,1.433-.413,2.68,2.68,0,0,0,.984-1.143l1.371.29a3.9,3.9,0,0,1-1.477,1.854,4.028,4.028,0,0,1-2.294.677,4.174,4.174,0,0,1-3.111-1.2,5.127,5.127,0,0,1,0-6.565,4.122,4.122,0,0,1,3.063-1.2,3.9,3.9,0,0,1,2.9,1.107A4.376,4.376,0,0,1,146.143,60.509Zm-4-3.146a2.694,2.694,0,0,0-1.8.611,2.8,2.8,0,0,0-.91,1.78h5.177a2.567,2.567,0,0,0-.756-1.78A2.441,2.441,0,0,0,142.144,57.362ZM152.6,56.193a3.005,3.005,0,0,1,2.175.782,2.918,2.918,0,0,1,.813,2.206V65h-1.521V59.524a2.043,2.043,0,0,0-.527-1.547,1.885,1.885,0,0,0-1.354-.5,2.09,2.09,0,0,0-1.538.593,2.407,2.407,0,0,0-.606,1.762V65h-1.521V56.36h1.521v1.107A2.885,2.885,0,0,1,152.6,56.193ZM161.287,65a2.271,2.271,0,0,1-1.687-.62,2.344,2.344,0,0,1-.615-1.727v-5.08h-1.767V56.36h.65a1.249,1.249,0,0,0,.954-.3,1.492,1.492,0,0,0,.277-1.015V53.478h1.415V56.36H162.5v1.213h-1.986V62.5a1.31,1.31,0,0,0,.33.954,1.154,1.154,0,0,0,.866.338h.791V65Zm6.943.167a4.554,4.554,0,0,1-2.215-.536,3.9,3.9,0,0,1-1.56-1.569,4.819,4.819,0,0,1-.576-2.386,4.4,4.4,0,0,1,1.226-3.256,4.6,4.6,0,0,1,6.253,0,4.956,4.956,0,0,1,0,6.521A4.232,4.232,0,0,1,168.23,65.167Zm-.009-1.266a2.654,2.654,0,0,0,2.043-.888,3.755,3.755,0,0,0,0-4.667,2.654,2.654,0,0,0-2.043-.888,2.617,2.617,0,0,0-2.026.888,3.788,3.788,0,0,0,0,4.667A2.617,2.617,0,0,0,168.221,63.9ZM43.482,80.36h1.608l-5,12.709H38.517l1.731-4.28L36.891,80.36h1.688l2.435,6.724Zm15.671,4.148-.018.413h-6.75a3.053,3.053,0,0,0,.826,2.21,2.713,2.713,0,0,0,1.969.769,2.59,2.59,0,0,0,1.433-.413,2.68,2.68,0,0,0,.984-1.143l1.371.29a3.9,3.9,0,0,1-1.477,1.854,4.028,4.028,0,0,1-2.294.677,4.174,4.174,0,0,1-3.111-1.2,5.127,5.127,0,0,1,0-6.565,4.122,4.122,0,0,1,3.063-1.2,3.9,3.9,0,0,1,2.9,1.107A4.376,4.376,0,0,1,59.153,84.509Zm-4-3.146a2.694,2.694,0,0,0-1.8.611,2.8,2.8,0,0,0-.91,1.78h5.177a2.567,2.567,0,0,0-.756-1.78A2.441,2.441,0,0,0,55.154,81.362ZM61.535,89V75.5h1.538V89ZM73.6,89a2.271,2.271,0,0,1-1.687-.62,2.344,2.344,0,0,1-.615-1.727v-5.08H69.533V80.36h.65a1.249,1.249,0,0,0,.954-.3,1.492,1.492,0,0,0,.277-1.015V77.478h1.415V80.36h1.986v1.213H72.829V86.5a1.31,1.31,0,0,0,.33.954,1.154,1.154,0,0,0,.866.338h.791V89Zm4.9-7.119a2.612,2.612,0,0,1,1.072-1.16,3.229,3.229,0,0,1,1.661-.457V81.7a2.846,2.846,0,0,0-2.008.642,2.68,2.68,0,0,0-.69,2.048V89H77.013V80.36H78.5Zm6.407,7.286a2.94,2.94,0,0,1-1.894-.593,2.13,2.13,0,0,1-.743-1.771,2.517,2.517,0,0,1,.237-1.129,1.991,1.991,0,0,1,.7-.787,4.218,4.218,0,0,1,1.015-.488,9.384,9.384,0,0,1,1.314-.312l1.4-.229q.765-.141.765-.8a1.51,1.51,0,0,0-.541-1.288,2.2,2.2,0,0,0-1.367-.409,2.243,2.243,0,0,0-1.354.4,1.655,1.655,0,0,0-.642,1.213l-1.371-.29a2.639,2.639,0,0,1,1.081-1.85,4.039,4.039,0,0,1,2.355-.62,4.777,4.777,0,0,1,1.252.154,3.4,3.4,0,0,1,1.046.483,2.168,2.168,0,0,1,.747.932,3.466,3.466,0,0,1,.268,1.419v3.568a1.46,1.46,0,0,0,.2.9.854.854,0,0,0,.681.233H90.2V89H89.44a1.442,1.442,0,0,1-1.635-1.169h-.07A3.3,3.3,0,0,1,84.905,89.167Zm.352-1.23a2.305,2.305,0,0,0,1.854-.835,3.438,3.438,0,0,0,.7-2.285l-2.285.439a3.076,3.076,0,0,0-1.34.479,1.114,1.114,0,0,0-.435.945,1.1,1.1,0,0,0,.417.949A1.785,1.785,0,0,0,85.257,87.937Zm11.162-7.743a3.005,3.005,0,0,1,2.175.782,2.918,2.918,0,0,1,.813,2.206V89H97.887V83.524a2.043,2.043,0,0,0-.527-1.547,1.885,1.885,0,0,0-1.354-.5,2.09,2.09,0,0,0-1.538.593,2.407,2.407,0,0,0-.606,1.762V89H92.341V80.36h1.521v1.107A2.885,2.885,0,0,1,96.419,80.193Zm8.657,8.974a4.1,4.1,0,0,1-2.329-.624,2.581,2.581,0,0,1-1.134-1.775l1.327-.378a1.851,1.851,0,0,0,.708,1.2,2.3,2.3,0,0,0,1.419.426,2.832,2.832,0,0,0,.831-.114,1.331,1.331,0,0,0,.637-.426,1.189,1.189,0,0,0,.185-1.143,1.526,1.526,0,0,0-.141-.286.87.87,0,0,0-.246-.237,3.245,3.245,0,0,0-.3-.185,3.067,3.067,0,0,0-.391-.163q-.259-.092-.417-.141t-.483-.141q-.325-.092-.5-.145a9.372,9.372,0,0,1-.9-.316,3.932,3.932,0,0,1-.729-.417,1.679,1.679,0,0,1-.567-.681,2.3,2.3,0,0,1-.189-.967,2.234,2.234,0,0,1,.422-1.38,2.374,2.374,0,0,1,1.094-.813,4.374,4.374,0,0,1,1.534-.25,3.754,3.754,0,0,1,2.1.563,2.4,2.4,0,0,1,1.05,1.688l-1.248.316a1.655,1.655,0,0,0-.659-1.094,2.1,2.1,0,0,0-1.239-.365,2.139,2.139,0,0,0-1.16.3,1.019,1.019,0,0,0-.483.927.923.923,0,0,0,.127.479,1.521,1.521,0,0,0,.259.338,1.594,1.594,0,0,0,.475.259q.343.136.51.185t.633.163q.088.026.132.035.51.132.831.233a5.105,5.105,0,0,1,.747.316,2.484,2.484,0,0,1,.672.47,2.178,2.178,0,0,1,.422.668,2.358,2.358,0,0,1,.176.932A2.516,2.516,0,0,1,108,87.792a2.028,2.028,0,0,1-.708.8,3.422,3.422,0,0,1-1.006.435A4.8,4.8,0,0,1,105.076,89.167Zm10.134-8.974a3.93,3.93,0,0,1,1.564.316,3.848,3.848,0,0,1,1.283.888,4.149,4.149,0,0,1,.866,1.424,5.25,5.25,0,0,1,.321,1.863,4.568,4.568,0,0,1-1.165,3.261,3.782,3.782,0,0,1-2.87,1.239,3.42,3.42,0,0,1-1.806-.492,3.226,3.226,0,0,1-1.235-1.327v5.985h-1.521V80.36h1.468l.035,1.679a3.163,3.163,0,0,1,1.23-1.349A3.452,3.452,0,0,1,115.21,80.193Zm-.3,7.673a2.623,2.623,0,0,0,2-.875,3.674,3.674,0,0,0,0-4.61,2.726,2.726,0,0,0-4.03.04,3.525,3.525,0,0,0,0,4.535A2.636,2.636,0,0,0,114.911,87.866Zm10.371,1.3a4.554,4.554,0,0,1-2.215-.536,3.9,3.9,0,0,1-1.56-1.569,4.819,4.819,0,0,1-.576-2.386,4.4,4.4,0,0,1,1.226-3.256,4.6,4.6,0,0,1,6.253,0,4.956,4.956,0,0,1,0,6.521A4.232,4.232,0,0,1,125.282,89.167Zm-.009-1.266a2.654,2.654,0,0,0,2.043-.888,3.755,3.755,0,0,0,0-4.667,2.654,2.654,0,0,0-2.043-.888,2.617,2.617,0,0,0-2.026.888,3.788,3.788,0,0,0,0,4.667A2.617,2.617,0,0,0,125.273,87.9Zm8.227-6.021a2.612,2.612,0,0,1,1.072-1.16,3.229,3.229,0,0,1,1.661-.457V81.7a2.846,2.846,0,0,0-2.008.642,2.68,2.68,0,0,0-.69,2.048V89h-1.521V80.36H133.5ZM141.278,89a2.271,2.271,0,0,1-1.687-.62,2.344,2.344,0,0,1-.615-1.727v-5.08h-1.767V80.36h.65a1.249,1.249,0,0,0,.954-.3,1.492,1.492,0,0,0,.277-1.015V77.478H140.5V80.36h1.986v1.213H140.5V86.5a1.31,1.31,0,0,0,.33.954,1.154,1.154,0,0,0,.866.338h.791V89Zm10.863-4.491-.018.413h-6.75a3.053,3.053,0,0,0,.826,2.21,2.713,2.713,0,0,0,1.969.769,2.59,2.59,0,0,0,1.433-.413,2.68,2.68,0,0,0,.984-1.143l1.371.29a3.9,3.9,0,0,1-1.477,1.854,4.028,4.028,0,0,1-2.294.677,4.174,4.174,0,0,1-3.111-1.2,5.127,5.127,0,0,1,0-6.565,4.122,4.122,0,0,1,3.063-1.2,3.9,3.9,0,0,1,2.9,1.107A4.376,4.376,0,0,1,152.142,84.509Zm-4-3.146a2.694,2.694,0,0,0-1.8.611,2.8,2.8,0,0,0-.91,1.78h5.177a2.567,2.567,0,0,0-.756-1.78A2.441,2.441,0,0,0,148.143,81.362Zm7.339,7.813a.987.987,0,0,1-.716-.3,1.022,1.022,0,0,1,.716-1.74.994.994,0,0,1,.721.3,1,1,0,0,1,0,1.437A1,1,0,0,1,155.481,89.176Z" transform="translate(37 -3873)" fill="#00223d"/>
    <path id="Trazado_20069" data-name="Trazado 20069" d="M49.053,19.2a7.877,7.877,0,0,1-2.876-.518,6.763,6.763,0,0,1-2.29-1.445,6.515,6.515,0,0,1-1.5-2.295,8,8,0,0,1-.547-3,7.644,7.644,0,0,1,.938-3.833,6.382,6.382,0,0,1,2.573-2.534,7.705,7.705,0,0,1,3.706-.879,7.488,7.488,0,0,1,4.141,1.143A6.255,6.255,0,0,1,55.723,8.98l-2.734,1a3.866,3.866,0,0,0-1.514-1.9,4.323,4.323,0,0,0-2.422-.684,4.145,4.145,0,0,0-3.086,1.23,4.528,4.528,0,0,0-1.211,3.32,4.534,4.534,0,0,0,1.216,3.325A4.14,4.14,0,0,0,49.053,16.5a4.307,4.307,0,0,0,2.417-.688A3.883,3.883,0,0,0,52.988,13.9l2.734,1a6.28,6.28,0,0,1-2.529,3.149A7.464,7.464,0,0,1,49.053,19.2Zm13.379,0a6.313,6.313,0,0,1-2.842-.615,4.6,4.6,0,0,1-1.948-1.807,5.384,5.384,0,0,1-.708-2.8,4.911,4.911,0,0,1,1.523-3.809,6.368,6.368,0,0,1,7.959,0,4.911,4.911,0,0,1,1.523,3.809,4.938,4.938,0,0,1-1.523,3.823A5.654,5.654,0,0,1,62.432,19.2ZM62.4,16.959a2.577,2.577,0,0,0,1.987-.82,3.071,3.071,0,0,0,.757-2.168A3.071,3.071,0,0,0,64.39,11.8a2.577,2.577,0,0,0-1.987-.82,2.483,2.483,0,0,0-1.929.825,3.1,3.1,0,0,0-.747,2.163,3.1,3.1,0,0,0,.747,2.163A2.483,2.483,0,0,0,62.4,16.959ZM81.924,8.766a3.836,3.836,0,0,1,2.588.815,2.918,2.918,0,0,1,.947,2.339V19H82.646V12.721a1.677,1.677,0,0,0-.449-1.27,1.573,1.573,0,0,0-1.133-.43,1.814,1.814,0,0,0-1.367.547,2.484,2.484,0,0,0-.527,1.768V19H76.328V12.75a1.721,1.721,0,0,0-.449-1.294,1.6,1.6,0,0,0-1.162-.435,1.757,1.757,0,0,0-1.357.576,2.751,2.751,0,0,0-.527,1.885V19h-2.8V8.961h2.8v1.182a3.414,3.414,0,0,1,2.91-1.377,4.293,4.293,0,0,1,1.89.386,2.572,2.572,0,0,1,1.187,1.118A3.55,3.55,0,0,1,81.924,8.766ZM92.871,19.2a6.313,6.313,0,0,1-2.842-.615,4.6,4.6,0,0,1-1.948-1.807,5.384,5.384,0,0,1-.708-2.8A4.911,4.911,0,0,1,88.9,10.162a6.368,6.368,0,0,1,7.959,0,4.911,4.911,0,0,1,1.523,3.809,4.938,4.938,0,0,1-1.523,3.823A5.654,5.654,0,0,1,92.871,19.2Zm-.029-2.236a2.577,2.577,0,0,0,1.987-.82,3.071,3.071,0,0,0,.757-2.168,3.071,3.071,0,0,0-.757-2.168,2.577,2.577,0,0,0-1.987-.82,2.483,2.483,0,0,0-1.929.825,3.1,3.1,0,0,0-.747,2.163,3.1,3.1,0,0,0,.747,2.163A2.483,2.483,0,0,0,92.842,16.959ZM107.588,4H110.4V19h-2.666l-.068-1.309a2.867,2.867,0,0,1-1.274,1.138,4.29,4.29,0,0,1-1.88.405,4.883,4.883,0,0,1-1.875-.361,4.516,4.516,0,0,1-2.578-2.676,6.106,6.106,0,0,1-.381-2.2,5.707,5.707,0,0,1,.664-2.8,4.55,4.55,0,0,1,1.753-1.821,4.827,4.827,0,0,1,2.417-.615,4.4,4.4,0,0,1,1.821.366,2.843,2.843,0,0,1,1.255,1.04Zm-2.432,12.9a2.5,2.5,0,0,0,1.9-.8,2.932,2.932,0,0,0,.757-2.1,2.938,2.938,0,0,0-.762-2.1,2.5,2.5,0,0,0-1.895-.806,2.53,2.53,0,0,0-1.909.791A2.937,2.937,0,0,0,102.49,14a2.924,2.924,0,0,0,.757,2.109A2.53,2.53,0,0,0,105.156,16.9Zm9.59-9.443a1.579,1.579,0,0,1-1.152-.474,1.555,1.555,0,0,1-.479-1.147A1.536,1.536,0,0,1,113.6,4.7a1.584,1.584,0,0,1,1.147-.474,1.626,1.626,0,0,1,1.611,1.611,1.626,1.626,0,0,1-1.611,1.621ZM113.311,19V8.961h2.832V19ZM126.172,4h2.813V19h-2.666l-.068-1.309a2.867,2.867,0,0,1-1.274,1.138,4.29,4.29,0,0,1-1.88.405,4.883,4.883,0,0,1-1.875-.361,4.516,4.516,0,0,1-2.578-2.676,6.106,6.106,0,0,1-.381-2.2,5.707,5.707,0,0,1,.664-2.8,4.55,4.55,0,0,1,1.753-1.821,4.827,4.827,0,0,1,2.417-.615,4.4,4.4,0,0,1,1.821.366,2.843,2.843,0,0,1,1.255,1.04ZM123.74,16.9a2.5,2.5,0,0,0,1.9-.8A2.932,2.932,0,0,0,126.4,14a2.938,2.938,0,0,0-.762-2.1,2.5,2.5,0,0,0-1.895-.806,2.53,2.53,0,0,0-1.909.791A2.937,2.937,0,0,0,121.074,14a2.924,2.924,0,0,0,.757,2.109A2.53,2.53,0,0,0,123.74,16.9Zm16.387-.625a9.391,9.391,0,0,0,.244,2.451V19h-2.627l-.225-1.094a3.264,3.264,0,0,1-1.406.967,5.183,5.183,0,0,1-1.816.322,4.776,4.776,0,0,1-.937-.088,3.187,3.187,0,0,1-.845-.3,2.563,2.563,0,0,1-.7-.522,2.291,2.291,0,0,1-.469-.8,3.17,3.17,0,0,1-.176-1.089,3.019,3.019,0,0,1,.186-1.089,2.552,2.552,0,0,1,.488-.815,2.962,2.962,0,0,1,.791-.6,6.052,6.052,0,0,1,1-.43,11.9,11.9,0,0,1,1.191-.312l1.65-.371a1.82,1.82,0,0,0,.747-.317.633.633,0,0,0,.22-.5,1.036,1.036,0,0,0-.493-.967,2.3,2.3,0,0,0-1.2-.293,1.721,1.721,0,0,0-1.963,1.533l-2.49-.449a3.371,3.371,0,0,1,1.455-2.29,5.783,5.783,0,0,1,3.154-.737q4.219,0,4.219,3.623Zm-4.951,1.016a2.262,2.262,0,0,0,1.738-.728,3.066,3.066,0,0,0,.674-2.153l-2.383.674a2.816,2.816,0,0,0-1,.41.842.842,0,0,0-.347.723.935.935,0,0,0,.371.8A1.536,1.536,0,0,0,135.176,17.291ZM149.756,4h2.813V19H149.9l-.068-1.309a2.867,2.867,0,0,1-1.274,1.138,4.29,4.29,0,0,1-1.88.405,4.883,4.883,0,0,1-1.875-.361,4.516,4.516,0,0,1-2.578-2.676,6.106,6.106,0,0,1-.381-2.2,5.708,5.708,0,0,1,.664-2.8,4.55,4.55,0,0,1,1.753-1.821,4.827,4.827,0,0,1,2.417-.615,4.4,4.4,0,0,1,1.821.366,2.843,2.843,0,0,1,1.255,1.04Zm-2.432,12.9a2.5,2.5,0,0,0,1.9-.8,2.932,2.932,0,0,0,.757-2.1,2.938,2.938,0,0,0-.762-2.1,2.5,2.5,0,0,0-1.895-.806,2.53,2.53,0,0,0-1.909.791A2.937,2.937,0,0,0,144.658,14a2.924,2.924,0,0,0,.757,2.109A2.53,2.53,0,0,0,147.324,16.9Z" transform="translate(37 -3924)" fill="#002b45"/>
  </g>
</svg>
