<svg xmlns="http://www.w3.org/2000/svg" xmlns:xlink="http://www.w3.org/1999/xlink" width="544.884" height="383.756" viewBox="0 0 544.884 383.756">
  <defs>
    <clipPath id="clip-path">
      <path id="Trazado_19872" data-name="Trazado 19872" d="M213.226,190.925A38.479,38.479,0,0,0,231.6,190.3s-.552,6.473-8.271,6.853C223.331,197.154,215.51,197.846,213.226,190.925Z" transform="translate(-213.226 -190.301)" fill="none"/>
    </clipPath>
  </defs>
  <g id="Grupo_13402" data-name="Grupo 13402" transform="translate(-65.946 -134.478)">
    <g id="Grupo_13405" data-name="Grupo 13405" transform="translate(108.959 274.215)">
      <g id="Grupo_13402-2" data-name="Grupo 13402" transform="translate(19.836)">
        <path id="Trazado_19818" data-name="Trazado 19818" d="M128.7,285.919s4.557-5.673,2.6-12.836-2.79-10.6,1.581-14.512c0,0-8.836,3.537-6.884,11.907S130.286,277.083,128.7,285.919Z" transform="translate(-121.26 -258.571)" fill="#c1c1c1"/>
        <path id="Trazado_19819" data-name="Trazado 19819" d="M124.739,293.849s4.557-5.673,2.6-12.838-2.789-10.6,1.581-14.508c0,0-8.836,3.535-6.882,11.906S126.321,285.013,124.739,293.849Z" transform="translate(-121.76 -257.571)" fill="#c1c1c1"/>
      </g>
      <g id="Grupo_13404" data-name="Grupo 13404" transform="translate(0 28.414)">
        <g id="Grupo_13403" data-name="Grupo 13403" transform="translate(0 5.994)">
          <path id="Trazado_19820" data-name="Trazado 19820" d="M120.421,312.644h-6.3a9.943,9.943,0,0,1-9.976-9.889v-3.737a9.945,9.945,0,0,1,9.976-9.89h6.3a9.945,9.945,0,0,1,9.976,9.89v3.737A9.943,9.943,0,0,1,120.421,312.644Zm-6.3-18.684a5.106,5.106,0,0,0-5.144,5.057v3.737a5.106,5.106,0,0,0,5.144,5.058h6.3a5.108,5.108,0,0,0,5.145-5.058v-3.737a5.108,5.108,0,0,0-5.145-5.057Z" transform="translate(-104.144 -289.127)" fill="#e5231a"/>
        </g>
        <path id="Trazado_19821" data-name="Trazado 19821" d="M143.755,287.21c0-1.859-6.7-3.406-14.961-3.406s-14.962,1.568-14.962,3.429c0,.125.037.435.1.435h-.1v27.9h0c.828,2.231,7.261,2.992,14.962,2.992s14.347-.761,15.175-2.992h0v-27.9h-.312C143.717,287.668,143.755,287.338,143.755,287.21Z" transform="translate(-102.923 -283.804)" fill="#e5231a"/>
      </g>
    </g>
    <g id="Grupo_13406" data-name="Grupo 13406" transform="translate(396.531 145.563)">
      <rect id="Rectángulo_3174" data-name="Rectángulo 3174" width="190.489" height="351.072" fill="#efa534"/>
    </g>
    <g id="Grupo_13407" data-name="Grupo 13407" transform="translate(390.437 138.918)">
      <rect id="Rectángulo_3175" data-name="Rectángulo 3175" width="199.351" height="12.182" transform="translate(0)" fill="#ba6a22"/>
    </g>
    <g id="Grupo_13408" data-name="Grupo 13408" transform="translate(346.284 446.885)">
      <path id="Trazado_19822" data-name="Trazado 19822" d="M314.9,412.949l1.037,13.5s4.359,3.114,10.383-.417l.414-14.12Z" transform="translate(-314.9 -411.911)" fill="#281e27"/>
    </g>
    <g id="Grupo_13409" data-name="Grupo 13409" transform="translate(339.109 439.377)">
      <path id="Trazado_19823" data-name="Trazado 19823" d="M317.882,405.243l10.52,14.438a14.194,14.194,0,0,1-8.952,6.56l-10.922-13.185Z" transform="translate(-308.528 -405.243)" fill="#564054"/>
    </g>
    <g id="Grupo_13410" data-name="Grupo 13410" transform="translate(65.946 486.669)">
      <path id="Trazado_19824" data-name="Trazado 19824" d="M610.83,463.022c0,8.719-121.976,15.784-272.441,15.784S65.946,471.741,65.946,463.022s121.976-15.781,272.443-15.781S610.83,454.306,610.83,463.022Z" transform="translate(-65.946 -447.241)" fill="#cecece"/>
    </g>
    <g id="Grupo_13413" data-name="Grupo 13413" transform="translate(203.966 494.56)">
      <g id="Grupo_13411" data-name="Grupo 13411" transform="translate(0 2.422)">
        <path id="Trazado_19825" data-name="Trazado 19825" d="M196.129,460.207a3.807,3.807,0,1,1-3.807-3.807A3.809,3.809,0,0,1,196.129,460.207Z" transform="translate(-188.515 -456.4)" fill="#281e27"/>
      </g>
      <g id="Grupo_13412" data-name="Grupo 13412" transform="translate(5.607)">
        <path id="Trazado_19826" data-name="Trazado 19826" d="M195.432,460.892a.971.971,0,0,1-.97.972h0a.971.971,0,0,1-.968-.972v-5.677a.968.968,0,0,1,.968-.966h0a.968.968,0,0,1,.97.966Z" transform="translate(-193.494 -454.249)" fill="#281e27"/>
      </g>
    </g>
    <g id="Grupo_13416" data-name="Grupo 13416" transform="translate(279.207 495.044)">
      <g id="Grupo_13414" data-name="Grupo 13414" transform="translate(0 2.423)">
        <path id="Trazado_19827" data-name="Trazado 19827" d="M255.332,460.638a3.808,3.808,0,1,0,3.807-3.808A3.807,3.807,0,0,0,255.332,460.638Z" transform="translate(-255.332 -456.83)" fill="#281e27"/>
      </g>
      <g id="Grupo_13415" data-name="Grupo 13415" transform="translate(0.069)">
        <path id="Trazado_19828" data-name="Trazado 19828" d="M255.393,461.322a.969.969,0,0,0,.971.971h0a.97.97,0,0,0,.968-.971v-5.673a.97.97,0,0,0-.968-.971h0a.97.97,0,0,0-.971.971Z" transform="translate(-255.393 -454.678)" fill="#281e27"/>
      </g>
    </g>
    <g id="Grupo_13417" data-name="Grupo 13417" transform="translate(240.837 439.597)">
      <rect id="Rectángulo_3176" data-name="Rectángulo 3176" width="11.194" height="34.67" fill="#6c6d66"/>
    </g>
    <g id="Grupo_13418" data-name="Grupo 13418" transform="translate(207.408 471.16)">
      <path id="Trazado_19829" data-name="Trazado 19829" d="M235.8,436.627c1.083,2.418.506,5.032-1.29,5.837l-37.183,16.652c-1.8.805-4.129-.5-5.214-2.919h0c-1.082-2.421-.5-5.031,1.293-5.836l37.18-16.656c1.8-.805,4.132.5,5.214,2.921Z" transform="translate(-191.572 -433.468)" fill="#6c6d66"/>
    </g>
    <g id="Grupo_13419" data-name="Grupo 13419" transform="translate(241.023 471.16)">
      <path id="Trazado_19830" data-name="Trazado 19830" d="M221.969,436.627c-1.083,2.418-.5,5.032,1.292,5.837l37.18,16.652c1.8.805,4.132-.5,5.215-2.919h0c1.083-2.421.506-5.031-1.292-5.836l-37.18-16.656c-1.8-.805-4.132.5-5.215,2.921Z" transform="translate(-221.423 -433.468)" fill="#6c6d66"/>
    </g>
    <g id="Grupo_13420" data-name="Grupo 13420" transform="translate(232.692 398.625)">
      <path id="Rectángulo_3177" data-name="Rectángulo 3177" d="M6.639,0H20.772A6.638,6.638,0,0,1,27.41,6.638V38.629a6.638,6.638,0,0,1-6.638,6.638H6.639A6.639,6.639,0,0,1,0,38.628V6.639A6.639,6.639,0,0,1,6.639,0Z" fill="#9c9e95"/>
    </g>
    <g id="Grupo_13426" data-name="Grupo 13426" transform="translate(160.637 230.424)">
      <g id="Grupo_13423" data-name="Grupo 13423" transform="translate(0 15.367)">
        <g id="Grupo_13421" data-name="Grupo 13421">
          <path id="Trazado_19831" data-name="Trazado 19831" d="M233.651,305.316c0,39.759-18.719,71.987-41.807,71.987s-41.807-32.228-41.807-71.987,18.717-71.986,41.807-71.986S233.651,265.557,233.651,305.316Z" transform="translate(-150.036 -233.33)" fill="#a752af"/>
        </g>
        <g id="Grupo_13422" data-name="Grupo 13422" transform="translate(12.459 75.585)">
          <path id="Trazado_19832" data-name="Trazado 19832" d="M238.485,384.068c-42.74,0-77.385-18.716-77.385-41.808s34.646-41.806,77.385-41.806,77.385,18.719,77.385,41.806S281.224,384.068,238.485,384.068Z" transform="translate(-161.1 -300.453)" fill="#a752af"/>
        </g>
      </g>
      <g id="Grupo_13424" data-name="Grupo 13424" transform="translate(22.011 88.46)">
        <path id="Trazado_19833" data-name="Trazado 19833" d="M310.787,336.863c0,21.331-31.609,38.626-70.6,38.626s-70.6-17.3-70.6-38.626,31.61-38.623,70.6-38.623S310.787,315.533,310.787,336.863Z" transform="translate(-169.583 -298.24)" fill="#6f3777"/>
      </g>
      <g id="Grupo_13425" data-name="Grupo 13425" transform="translate(14.07)">
        <path id="Trazado_19834" data-name="Trazado 19834" d="M279.282,300.46c0,44.612-26.125,80.776-58.35,80.776S161.2,364.071,162.581,300.46c.971-44.6,26.125-80.777,58.351-80.777S279.282,255.849,279.282,300.46Z" transform="translate(-162.531 -219.683)" fill="#6f3777"/>
      </g>
    </g>
    <g id="Grupo_13427" data-name="Grupo 13427" transform="translate(264.879 232.778)">
      <path id="Trazado_19835" data-name="Trazado 19835" d="M309.487,304.785c-6.312-3.583-16.945-9.651-21.61-12.48a38.276,38.276,0,0,1-10.8-9.966l-23.361-49.63a17.565,17.565,0,0,0-11.11-10.936l.416,45.684,17.166,27.411a19.4,19.4,0,0,0,9.691,10.52l24.987,17.48C295.963,318.666,300.059,304.727,309.487,304.785Z" transform="translate(-242.608 -221.773)" fill="#2e4a96"/>
    </g>
    <g id="Grupo_13428" data-name="Grupo 13428" transform="translate(190.123 224.61)">
      <path id="Trazado_19836" data-name="Trazado 19836" d="M176.221,227.394,205.5,214.52l25.542.277,19.934,7.891L265.1,328.106l-74.755-.207Z" transform="translate(-176.221 -214.52)" fill="#2e4a96"/>
    </g>
    <g id="Grupo_13429" data-name="Grupo 13429" transform="translate(452.718 322.867)">
      <path id="Trazado_19837" data-name="Trazado 19837" d="M416.844,301.777a7.424,7.424,0,1,0,0,14.848H500.2l.1-14.848Z" transform="translate(-409.419 -301.777)" fill="#00afff"/>
    </g>
    <g id="Grupo_13430" data-name="Grupo 13430" transform="translate(499.414 324.113)">
      <path id="Trazado_19838" data-name="Trazado 19838" d="M457.17,302.883a6.283,6.283,0,0,0,0,12.567h37.886V302.883Z" transform="translate(-450.887 -302.883)" fill="#d4d6d6"/>
    </g>
    <g id="Grupo_13431" data-name="Grupo 13431" transform="translate(364.033 429.772)">
      <path id="Trazado_19839" data-name="Trazado 19839" d="M330.662,397.128l9.518,60.358s19.658,16.06,48.175.829l8.654-61.6Z" transform="translate(-330.662 -396.714)" fill="#00afff"/>
    </g>
    <g id="Grupo_13432" data-name="Grupo 13432" transform="translate(364.033 424.996)">
      <path id="Trazado_19840" data-name="Trazado 19840" d="M397.11,397.663c0,2.866-14.873,5.191-33.222,5.191s-33.226-2.325-33.226-5.191,14.873-5.191,33.226-5.191S397.11,394.8,397.11,397.663Z" transform="translate(-330.662 -392.472)" fill="#094f68"/>
    </g>
    <g id="Grupo_13433" data-name="Grupo 13433" transform="translate(390.375 341.802)">
      <rect id="Rectángulo_3178" data-name="Rectángulo 3178" width="89.701" height="156.977" fill="#6f8b1c"/>
    </g>
    <g id="Grupo_13434" data-name="Grupo 13434" transform="translate(342.22 482.048)">
      <path id="Trazado_19841" data-name="Trazado 19841" d="M313.342,444.614s9.9,2.013,14.284-1.477c0,0,24.07,14.356,36.686,16.211s6.274,8.058-1.5,10.15-34.077-6.78-34.077-6.78l-.007,2.822-16.2-2.3-.721-4.1A23.61,23.61,0,0,1,313.342,444.614Z" transform="translate(-311.291 -443.137)" fill="#42210a"/>
    </g>
    <g id="Grupo_13435" data-name="Grupo 13435" transform="translate(345.242 469.226)">
      <path id="Trazado_19842" data-name="Trazado 19842" d="M313.975,432.789l1.037,13.5s4.359,3.115,10.381-.413l.416-14.121Z" transform="translate(-313.975 -431.751)" fill="#6c3727"/>
    </g>
    <g id="Grupo_13436" data-name="Grupo 13436" transform="translate(316.584 475.872)">
      <path id="Trazado_19843" data-name="Trazado 19843" d="M288.525,440.559l5.4,17.026a14.2,14.2,0,0,0,10.592-3.323l-4.153-16.609Z" transform="translate(-288.525 -437.653)" fill="#6c3727"/>
    </g>
    <g id="Grupo_13437" data-name="Grupo 13437" transform="translate(249.097 340.481)">
      <path id="Trazado_19844" data-name="Trazado 19844" d="M274.485,350.848s21.8,2.492,30.733,3.324c0,0,6.574,65.687,13.775,97.252,0,0,13.013,1.8,23.808-.276l-5.812-104.66s1.66-14.12-13.705-20.763-56.483-8.307-56.483-8.307l-35.3.83-2.906,14.536Z" transform="translate(-228.593 -317.419)" fill="#07172b"/>
    </g>
    <g id="Grupo_13438" data-name="Grupo 13438" transform="translate(205.074 346.514)">
      <path id="Trazado_19845" data-name="Trazado 19845" d="M189.5,346.646a23.34,23.34,0,0,0,16.2,15.781,284.219,284.219,0,0,0,58.144,3.322s9.967,48.177,29.486,95.107c0,0,14.951,1.662,24.918-4.984,0,0-16.611-85.554-24.088-105.9,0,0-.967-16.612-13.981-18.828s-47.9-8.03-47.9-8.03S199.327,318.126,189.5,346.646Z" transform="translate(-189.499 -322.776)" fill="#0a1f3c"/>
    </g>
    <g id="Grupo_13439" data-name="Grupo 13439" transform="translate(203.74 348.234)">
      <path id="Trazado_19846" data-name="Trazado 19846" d="M225.5,345.068c-1.093,11.155-26.545,7.45-37.189,5.4.207.937.437,1.882.711,2.834,0,0,31.979,6.647,37.793-1.038s4.154-24.915,22.427-26.788l.017-.305c-3.876-.4-6.592-.869-6.592-.869C227.44,328.177,225.5,345.068,225.5,345.068Z" transform="translate(-188.314 -324.304)" fill="#07172b"/>
    </g>
    <g id="Grupo_13440" data-name="Grupo 13440" transform="translate(198.243 342.697)">
      <path id="Trazado_19847" data-name="Trazado 19847" d="M185.418,319.387s-3.6,9.409-1.107,30.73c0,0,40.422,9.69,41.807-4.43,0,0,1.937-16.891,17.166-20.764,0,0,32.118,5.537,33.5-4.984Z" transform="translate(-183.432 -319.387)" fill="#2e4a96"/>
    </g>
    <g id="Grupo_13441" data-name="Grupo 13441" transform="translate(209.92 341.588)">
      <path id="Trazado_19848" data-name="Trazado 19848" d="M209.861,318.4,229.71,483.069h-7.6L193.8,319.509Z" transform="translate(-193.802 -318.402)" fill="#6f8b1c"/>
    </g>
    <g id="Grupo_13442" data-name="Grupo 13442" transform="translate(107.563 341.588)">
      <path id="Trazado_19849" data-name="Trazado 19849" d="M122.753,318.4,102.9,483.069h7.6l28.31-163.561Z" transform="translate(-102.904 -318.402)" fill="#6f8b1c"/>
    </g>
    <g id="Grupo_13443" data-name="Grupo 13443" transform="translate(480.076 341.802)">
      <rect id="Rectángulo_3179" data-name="Rectángulo 3179" width="66.031" height="156.977" transform="translate(0)" fill="#add826"/>
    </g>
    <g id="Grupo_13444" data-name="Grupo 13444" transform="translate(316.931 315.79)">
      <path id="Trazado_19850" data-name="Trazado 19850" d="M308.629,298.308s-2.013-1.135-4.969-2.816c-9.429-.059-13.732,13.431-14.827,17.631l7.752,3.186,17.581-4.571C317.9,301.217,308.629,298.308,308.629,298.308Z" transform="translate(-288.833 -295.492)" fill="#132e4f"/>
    </g>
    <g id="Grupo_13445" data-name="Grupo 13445" transform="translate(324.683 318.88)">
      <path id="Trazado_19851" data-name="Trazado 19851" d="M308.315,302.254l12.182-3.6a8.75,8.75,0,0,1,6.645.553c3.045,1.8,6.505,3.738,6.505,3.738a8.432,8.432,0,0,1,3.047,3.53l3.114,6.09-6.022.208-.485,1.176-1.59-.482-1.662,2.906-8.1.9-1.215-3.721-1.659-1.92s-13.534,12.214-23.362-.937c0,0,2.987-6.312,6.161-8.514A5.49,5.49,0,0,1,308.315,302.254Z" transform="translate(-295.717 -298.236)" fill="#fba284"/>
    </g>
    <g id="Grupo_13446" data-name="Grupo 13446" transform="translate(356.939 332.071)">
      <rect id="Rectángulo_3180" data-name="Rectángulo 3180" width="84.169" height="5.918" transform="translate(0)" fill="#564054"/>
    </g>
    <g id="Grupo_13447" data-name="Grupo 13447" transform="translate(274.845 323.632)">
      <path id="Trazado_19852" data-name="Trazado 19852" d="M251.459,314.044s.831-8.029,5.4-9.412,35.719-7.755,34.611,10.8Z" transform="translate(-251.459 -302.456)" fill="#564054"/>
    </g>
    <g id="Grupo_13448" data-name="Grupo 13448" transform="translate(261.659 316.185)">
      <path id="Trazado_19853" data-name="Trazado 19853" d="M246.394,302.382s1.661,12.255-1.454,15.472l-2.906.208s-1.868-2.078-2.285-12.043l1.385-7.858,1.834-2.319S245.252,296.395,246.394,302.382Z" transform="translate(-239.749 -295.843)" fill="#0a1f3c"/>
    </g>
    <g id="Grupo_13449" data-name="Grupo 13449" transform="translate(261.141 309.036)">
      <path id="Trazado_19854" data-name="Trazado 19854" d="M240.536,298.652a10.168,10.168,0,0,0,6.09-1.524c3.323-1.939,20.455-7.2,20.455-7.2s3.627-1.974,10.9,2.492c3.945,2.423,7.06,4.153,7.06,4.153a6.645,6.645,0,0,1,3.184,2.7l5.537,8.618s-1.489,3.01-4.672.1a33.476,33.476,0,0,1-5.3-6.335l-6.956-2.283,7.718,8.132,5.674,10.662-14.4.413-4.568-6.921-7.337-2.909s-10.8,5.815-15.366.554l-9.275,2.214Z" transform="translate(-239.289 -289.494)" fill="#fba284"/>
    </g>
    <g id="Grupo_13450" data-name="Grupo 13450" transform="translate(217.505 225.44)">
      <path id="Trazado_19855" data-name="Trazado 19855" d="M203.474,215.257l-2.8,1.35s-3.425,32.29,24.607,65.1c0,0,15.989-39.246,5.815-63.126Z" transform="translate(-200.538 -215.257)" fill="#0a1f3c"/>
    </g>
    <g id="Grupo_13451" data-name="Grupo 13451" transform="translate(227.812 227.517)">
      <path id="Trazado_19856" data-name="Trazado 19856" d="M209.691,224.265l7.06,9.656s-3.5,26.3-3.5,31.147L224.608,281.4l6.092-15.571a205.957,205.957,0,0,0-9.829-32.119l2.906-10.8-5.121-5.815-3.184.416-3.045.693Z" transform="translate(-209.691 -217.101)" fill="#f0f2f1"/>
    </g>
    <g id="Grupo_13452" data-name="Grupo 13452" transform="translate(218.442 219.23)">
      <path id="Trazado_19857" data-name="Trazado 19857" d="M216.936,219s-5.122,5.814-6.368,10.659c0,0-7.121-6.014-9.2-14.042,0,0,2.276-5.2,5.875-5.062,0,0,15.523-4.014,22.859,5.814,0,0,1.506,7.2-3.34,11.49C226.764,227.858,222.057,220.66,216.936,219Z" transform="translate(-201.37 -209.742)" fill="#132e4f"/>
    </g>
    <g id="Grupo_13453" data-name="Grupo 13453" transform="translate(222.986 216.615)">
      <path id="Trazado_19858" data-name="Trazado 19858" d="M205.405,207.42l.154,6.229s10.694,9.76,16.716-.416l-.366-3.878A47.813,47.813,0,0,1,205.405,207.42Z" transform="translate(-205.405 -207.42)" fill="#fba284"/>
    </g>
    <g id="Grupo_13454" data-name="Grupo 13454" transform="translate(222.829 210.282)">
      <path id="Trazado_19859" data-name="Trazado 19859" d="M221.927,210.065l-.673-7.127L205.266,201.8l.157,6.333A21.191,21.191,0,0,0,221.927,210.065Z" transform="translate(-205.266 -201.796)" fill="#ee8d72"/>
    </g>
    <g id="Grupo_13455" data-name="Grupo 13455" transform="translate(253.25 152.617)">
      <path id="Trazado_19860" data-name="Trazado 19860" d="M237.107,150.586a23.722,23.722,0,0,0-4.826,1.392l4.672,23.92C243.027,164.287,238.534,153.468,237.107,150.586Z" transform="translate(-232.281 -150.586)" fill="#08192d"/>
    </g>
    <g id="Grupo_13456" data-name="Grupo 13456" transform="translate(199.588 134.478)">
      <path id="Trazado_19861" data-name="Trazado 19861" d="M242.026,143.21c-2.356-11.866-22.218-9.067-36.962-6.368s-15.575,12.46-15.575,12.46a18.662,18.662,0,0,0-4.862,10.474c8.376,1.145,16.7-5.352,16.7-5.352l21.457,7.891,10.136,20.86a57.545,57.545,0,0,0,9.66-4.526c.135-.241.254-.481.381-.721l-4.672-23.92a23.722,23.722,0,0,1,4.826-1.392c-.24-.486-.4-.754-.4-.754C244.311,150.547,242.026,143.21,242.026,143.21Zm-2.352,1.522.055.015C239.645,145.039,239.673,144.732,239.673,144.732Z" transform="translate(-184.627 -134.478)" fill="#0a1f3c"/>
    </g>
    <g id="Grupo_13457" data-name="Grupo 13457" transform="translate(199.343 154.423)">
      <path id="Trazado_19862" data-name="Trazado 19862" d="M201.354,152.19s-8.324,6.5-16.7,5.352c-1.454,10.324,4.032,21.089,4.032,21.089,16.584,9.677,33.864,6.161,44.26,2.311l-10.136-20.86Z" transform="translate(-184.409 -152.19)" fill="#08192d"/>
    </g>
    <g id="Grupo_13458" data-name="Grupo 13458" transform="translate(201.745 152.164)">
      <path id="Trazado_19863" data-name="Trazado 19863" d="M194.717,177.777s-7.891-6.506-8.168,4.291,8.306,10.521,9.968,10.106c0,0,.054,20.337,27.272,21.6,22.46,1.038,20.488-24.088,20.488-24.088s.278-29.626-5.537-38.762c0,0-14.191,3.668-28.725.137s-10.176,4.361-10.383,10.591S198.108,171.271,194.717,177.777Z" transform="translate(-186.542 -150.184)" fill="#fba284"/>
    </g>
    <g id="Grupo_13459" data-name="Grupo 13459" transform="translate(254.63 144.732)">
      <path id="Trazado_19864" data-name="Trazado 19864" d="M233.567,143.6l-.055-.015S233.483,143.891,233.567,143.6Z" transform="translate(-233.507 -143.584)" fill="none"/>
    </g>
    <g id="Grupo_13460" data-name="Grupo 13460" transform="translate(254.63 144.732)">
      <path id="Trazado_19865" data-name="Trazado 19865" d="M233.567,143.6l-.055-.015S233.483,143.891,233.567,143.6Z" transform="translate(-233.507 -143.584)" fill="#3b241f"/>
    </g>
    <g id="Grupo_13461" data-name="Grupo 13461" transform="translate(231.793 197.338)">
      <path id="Trazado_19866" data-name="Trazado 19866" d="M213.226,190.925A38.479,38.479,0,0,0,231.6,190.3s-.552,6.473-8.271,6.853C223.331,197.154,215.51,197.846,213.226,190.925Z" transform="translate(-213.226 -190.301)" fill="#7f3021"/>
    </g>
    <g id="Grupo_13462" data-name="Grupo 13462" transform="translate(218.987 165.81)">
      <path id="Trazado_19867" data-name="Trazado 19867" d="M201.854,165.935l1.038,1.56s3.427-1.663,11.836-2.908a5.188,5.188,0,0,0-.155-2.285S206.786,162.457,201.854,165.935Z" transform="translate(-201.854 -162.302)" fill="#0a1f3c"/>
    </g>
    <g id="Grupo_13463" data-name="Grupo 13463" transform="translate(243.421 165.359)">
      <path id="Trazado_19868" data-name="Trazado 19868" d="M223.553,161.9a15.165,15.165,0,0,1,.017,2.042s6.351,1.419,10.434,2.6c0,0,.347-.483,0-1.591C234,164.948,231.929,163.218,223.553,161.9Z" transform="translate(-223.553 -161.902)" fill="#0a1f3c"/>
    </g>
    <g id="Grupo_13464" data-name="Grupo 13464" transform="translate(228.22 176.973)">
      <path id="Trazado_19869" data-name="Trazado 19869" d="M215.451,176.128c0,2.16-1.208,3.912-2.7,3.912s-2.7-1.752-2.7-3.912,1.208-3.912,2.7-3.912S215.451,173.968,215.451,176.128Z" transform="translate(-210.053 -172.216)" fill="#0a1f3c"/>
    </g>
    <g id="Grupo_13465" data-name="Grupo 13465" transform="translate(249.919 177.235)">
      <path id="Trazado_19870" data-name="Trazado 19870" d="M234.134,175.933c0,1.924-1.077,3.485-2.405,3.485s-2.405-1.561-2.405-3.485,1.077-3.485,2.405-3.485S234.134,174.008,234.134,175.933Z" transform="translate(-229.323 -172.448)" fill="#0a1f3c"/>
    </g>
    <g id="Grupo_13468" data-name="Grupo 13468" transform="translate(231.793 197.338)">
      <g id="Grupo_13467" data-name="Grupo 13467" clip-path="url(#clip-path)">
        <g id="Grupo_13466" data-name="Grupo 13466" transform="translate(0.181 -1.116)">
          <path id="Trazado_19871" data-name="Trazado 19871" d="M213.387,190.245a12.07,12.07,0,0,0,1.592,2.906s9.05,1.739,15.349-.822a5.57,5.57,0,0,0,1.124-3.019Z" transform="translate(-213.387 -189.31)" fill="#fff"/>
        </g>
      </g>
    </g>
    <g id="Grupo_13469" data-name="Grupo 13469" transform="translate(203.642 180.482)">
      <path id="Trazado_19873" data-name="Trazado 19873" d="M188.483,182.636s-1-5.64.968-6.991,4.309,1.92,3.737,4.931a8.038,8.038,0,0,0,1.3,5.607S189.072,186.668,188.483,182.636Z" transform="translate(-188.227 -175.332)" fill="#ee8d72"/>
    </g>
    <g id="Grupo_13470" data-name="Grupo 13470" transform="translate(209.92 152.164)">
      <path id="Trazado_19874" data-name="Trazado 19874" d="M201.415,164.626c1.524-10.383-1.8-12.46,8.584-9.691,9.286,2.476,24.764.744,29.516-.342a18.037,18.037,0,0,0-1.691-3.672s-14.191,3.668-28.725.137-10.176,4.361-10.383,10.591-1.524,9.622-4.914,16.129C193.8,177.777,199.892,175.009,201.415,164.626Z" transform="translate(-193.802 -150.184)" fill="#ee8d72"/>
    </g>
    <g id="Grupo_13471" data-name="Grupo 13471" transform="translate(210.65 224.091)">
      <path id="Trazado_19875" data-name="Trazado 19875" d="M202.684,214.059S200.849,246.9,227.36,281.3l1.384,1.591L227.5,285.8s-14.12-6.646-28.241-25.751l2.7-13.081-7.476-2.906s-.449-17.963,2.147-26.581C196.628,217.484,199.983,214.266,202.684,214.059Z" transform="translate(-194.451 -214.059)" fill="#233d77"/>
    </g>
    <g id="Grupo_13472" data-name="Grupo 13472" transform="translate(235.391 223.641)">
      <path id="Trazado_19876" data-name="Trazado 19876" d="M216.422,295.82s21.8-47,9.9-82.161a14.388,14.388,0,0,1,5.884,2.786s5.814,4.62,8.93,22.479a18.346,18.346,0,0,0-5.5,3.946,113.16,113.16,0,0,1,5.917,11.837S234.28,282.115,216.422,295.82Z" transform="translate(-216.422 -213.659)" fill="#233d77"/>
    </g>
    <g id="Grupo_13473" data-name="Grupo 13473" transform="translate(183.035 236.771)">
      <path id="Trazado_19877" data-name="Trazado 19877" d="M247.271,304.913l-47.621,1.9s-5.607,1.245-6.853-9.136l-4.153-52.536-.207-5.607c-1.558-18.9-11.422-13.5-11.422-13.5s-7.613,4.43-7.059,22.15,3.6,60.081,3.6,60.081,1.108,18.274,11.629,17.719c8.634-.454,47.506-1.607,61.181-2.006C243.932,313.659,245.669,307.805,247.271,304.913Z" transform="translate(-169.926 -225.319)" fill="#2e4a96"/>
    </g>
    <g id="Grupo_13474" data-name="Grupo 13474" transform="translate(258.266 316.185)">
      <path id="Trazado_19878" data-name="Trazado 19878" d="M243.348,295.843l-4.5.179c-1.6,2.893-3.339,8.746-.906,19.064,2.991-.088,4.782-.139,4.782-.139S241.064,303.941,243.348,295.843Z" transform="translate(-236.735 -295.843)" fill="#132e4f"/>
    </g>
    <g id="Grupo_13475" data-name="Grupo 13475" transform="translate(319.231 489.851)">
      <path id="Trazado_19879" data-name="Trazado 19879" d="M291.483,454.362s10.105,0,13.7-4.295c0,0,26.44,9.278,39.178,8.584s7.751,6.646.554,10.245-34.747.138-34.747.138l.552,2.768-16.334.968-1.524-3.875A23.6,23.6,0,0,1,291.483,454.362Z" transform="translate(-290.876 -450.067)" fill="#533630"/>
    </g>
    <g id="Grupo_13476" data-name="Grupo 13476" transform="translate(436 308.039)">
      <path id="Trazado_19880" data-name="Trazado 19880" d="M402,288.609a7.424,7.424,0,1,0,0,14.848h83.355l.1-14.848Z" transform="translate(-394.572 -288.609)" fill="#094f68"/>
    </g>
    <g id="Grupo_13477" data-name="Grupo 13477" transform="translate(482.698 309.285)">
      <path id="Trazado_19881" data-name="Trazado 19881" d="M442.325,289.715a6.282,6.282,0,1,0,0,12.565h37.888V289.715Z" transform="translate(-436.042 -289.715)" fill="#d4d6d6"/>
    </g>
    <g id="Grupo_13478" data-name="Grupo 13478" transform="translate(445.425 293.225)">
      <path id="Trazado_19882" data-name="Trazado 19882" d="M410.365,275.453a7.425,7.425,0,0,0,0,14.849h83.356l.1-14.849Z" transform="translate(-402.942 -275.453)" fill="#e5231a"/>
    </g>
    <g id="Grupo_13479" data-name="Grupo 13479" transform="translate(492.118 294.47)">
      <path id="Trazado_19883" data-name="Trazado 19883" d="M450.694,276.559a6.283,6.283,0,1,0,0,12.567h37.885V276.559Z" transform="translate(-444.408 -276.559)" fill="#d4d6d6"/>
    </g>
    <g id="Grupo_13480" data-name="Grupo 13480" transform="translate(436.018 278.41)">
      <path id="Trazado_19884" data-name="Trazado 19884" d="M402.016,262.3a7.423,7.423,0,1,0,0,14.846h83.352l.1-14.846Z" transform="translate(-394.588 -262.297)" fill="#9c9e95"/>
    </g>
    <g id="Grupo_13481" data-name="Grupo 13481" transform="translate(482.716 279.655)">
      <path id="Trazado_19885" data-name="Trazado 19885" d="M442.341,263.4a6.282,6.282,0,1,0,0,12.565h37.884V263.4Z" transform="translate(-436.058 -263.402)" fill="#d4d6d6"/>
    </g>
    <g id="Grupo_13482" data-name="Grupo 13482" transform="translate(307.564 214.956)">
      <path id="Trazado_19886" data-name="Trazado 19886" d="M287.32,286.2l16.543-67.142c.991-4.049,5.9-3.052,10.108-3.046l121.18-3.945c.837,0,4.237,1.575,4.932,1.816-.052-5.815-6.342-7.751-9.343-7.755l-123.6-.186a10.125,10.125,0,0,0-9.412,7.321L280.8,282.513c-.794,3.245-.325,7.635,6.5,10.335A27.233,27.233,0,0,1,287.32,286.2Z" transform="translate(-280.515 -205.946)" fill="#281e27"/>
    </g>
    <g id="Grupo_13483" data-name="Grupo 13483" transform="translate(311.175 218.693)">
      <path id="Trazado_19887" data-name="Trazado 19887" d="M436.166,209.829a7.024,7.024,0,0,0-2.3-.378l-123.6-.186a10.125,10.125,0,0,0-9.413,7.321l-16.929,69.246a6.5,6.5,0,0,0,0,3.231,5.7,5.7,0,0,0,5.831,4.114l123.6.186a10.123,10.123,0,0,0,9.409-7.322l16.934-69.245A5.591,5.591,0,0,0,436.166,209.829Z" transform="translate(-283.721 -209.265)" fill="#564054"/>
    </g>
    <g id="Grupo_13484" data-name="Grupo 13484" transform="translate(372.028 283.308)">
      <path id="Trazado_19888" data-name="Trazado 19888" d="M381.508,315.5l-29.41.015-14.336-48.848,29.41-.015Z" transform="translate(-337.762 -266.647)" fill="#564054"/>
    </g>
    <g id="Grupo_13485" data-name="Grupo 13485" transform="translate(369.673 278.462)">
      <path id="Trazado_19889" data-name="Trazado 19889" d="M352.362,316.053h-4.094l-12.6-47.067,1.662-6.643Z" transform="translate(-335.671 -262.343)" fill="#281e27"/>
    </g>
    <g id="Grupo_13486" data-name="Grupo 13486" transform="translate(468.517 163.836)">
      <rect id="Rectángulo_3181" data-name="Rectángulo 3181" width="56.204" height="53.16" fill="#e7e7e7"/>
    </g>
    <g id="Grupo_13487" data-name="Grupo 13487" transform="translate(463.535 162.175)">
      <rect id="Rectángulo_3182" data-name="Rectángulo 3182" width="64.786" height="10.66" transform="translate(0)" fill="#e5231a"/>
    </g>
    <g id="Grupo_13492" data-name="Grupo 13492" transform="translate(475.549 180.466)">
      <g id="Grupo_13488" data-name="Grupo 13488">
        <rect id="Rectángulo_3183" data-name="Rectángulo 3183" width="5.436" height="5.433" fill="#a0c4dc"/>
      </g>
      <g id="Grupo_13489" data-name="Grupo 13489" transform="translate(0 7.234)">
        <rect id="Rectángulo_3184" data-name="Rectángulo 3184" width="5.436" height="5.433" fill="#a0c4dc"/>
      </g>
      <g id="Grupo_13490" data-name="Grupo 13490" transform="translate(0 14.467)">
        <rect id="Rectángulo_3185" data-name="Rectángulo 3185" width="5.436" height="5.434" fill="#a0c4dc"/>
      </g>
      <g id="Grupo_13491" data-name="Grupo 13491" transform="translate(0 21.7)">
        <rect id="Rectángulo_3186" data-name="Rectángulo 3186" width="5.436" height="5.433" fill="#a0c4dc"/>
      </g>
    </g>
    <g id="Grupo_13497" data-name="Grupo 13497" transform="translate(482.922 180.466)">
      <g id="Grupo_13493" data-name="Grupo 13493" transform="translate(0)">
        <rect id="Rectángulo_3187" data-name="Rectángulo 3187" width="5.436" height="5.433" fill="#a0c4dc"/>
      </g>
      <g id="Grupo_13494" data-name="Grupo 13494" transform="translate(0 7.234)">
        <rect id="Rectángulo_3188" data-name="Rectángulo 3188" width="5.436" height="5.433" fill="#a0c4dc"/>
      </g>
      <g id="Grupo_13495" data-name="Grupo 13495" transform="translate(0 14.467)">
        <rect id="Rectángulo_3189" data-name="Rectángulo 3189" width="5.436" height="5.434" fill="#a0c4dc"/>
      </g>
      <g id="Grupo_13496" data-name="Grupo 13496" transform="translate(0 21.7)">
        <rect id="Rectángulo_3190" data-name="Rectángulo 3190" width="5.436" height="5.433" fill="#a0c4dc"/>
      </g>
    </g>
    <g id="Grupo_13502" data-name="Grupo 13502" transform="translate(490.295 180.466)">
      <g id="Grupo_13498" data-name="Grupo 13498" transform="translate(0)">
        <rect id="Rectángulo_3191" data-name="Rectángulo 3191" width="5.433" height="5.433" fill="#a0c4dc"/>
      </g>
      <g id="Grupo_13499" data-name="Grupo 13499" transform="translate(0 7.234)">
        <rect id="Rectángulo_3192" data-name="Rectángulo 3192" width="5.433" height="5.433" fill="#a0c4dc"/>
      </g>
      <g id="Grupo_13500" data-name="Grupo 13500" transform="translate(0 14.467)">
        <rect id="Rectángulo_3193" data-name="Rectángulo 3193" width="5.433" height="5.434" fill="#a0c4dc"/>
      </g>
      <g id="Grupo_13501" data-name="Grupo 13501" transform="translate(0 21.7)">
        <rect id="Rectángulo_3194" data-name="Rectángulo 3194" width="5.433" height="5.433" fill="#a0c4dc"/>
      </g>
    </g>
    <g id="Grupo_13507" data-name="Grupo 13507" transform="translate(497.666 180.466)">
      <g id="Grupo_13503" data-name="Grupo 13503" transform="translate(0)">
        <rect id="Rectángulo_3195" data-name="Rectángulo 3195" width="5.432" height="5.433" fill="#a0c4dc"/>
      </g>
      <g id="Grupo_13504" data-name="Grupo 13504" transform="translate(0 7.234)">
        <rect id="Rectángulo_3196" data-name="Rectángulo 3196" width="5.432" height="5.433" fill="#a0c4dc"/>
      </g>
      <g id="Grupo_13505" data-name="Grupo 13505" transform="translate(0 14.467)">
        <rect id="Rectángulo_3197" data-name="Rectángulo 3197" width="5.432" height="5.434" fill="#a0c4dc"/>
      </g>
      <g id="Grupo_13506" data-name="Grupo 13506" transform="translate(0 21.7)">
        <rect id="Rectángulo_3198" data-name="Rectángulo 3198" width="5.432" height="5.433" fill="#a0c4dc"/>
      </g>
    </g>
    <g id="Grupo_13512" data-name="Grupo 13512" transform="translate(505.038 180.466)">
      <g id="Grupo_13508" data-name="Grupo 13508">
        <rect id="Rectángulo_3199" data-name="Rectángulo 3199" width="5.433" height="5.433" fill="#a0c4dc"/>
      </g>
      <g id="Grupo_13509" data-name="Grupo 13509" transform="translate(0 7.234)">
        <rect id="Rectángulo_3200" data-name="Rectángulo 3200" width="5.433" height="5.433" fill="#a0c4dc"/>
      </g>
      <g id="Grupo_13510" data-name="Grupo 13510" transform="translate(0 14.467)">
        <rect id="Rectángulo_3201" data-name="Rectángulo 3201" width="5.433" height="5.434" fill="#a0c4dc"/>
      </g>
      <g id="Grupo_13511" data-name="Grupo 13511" transform="translate(0 21.7)">
        <rect id="Rectángulo_3202" data-name="Rectángulo 3202" width="5.433" height="5.433" fill="#a0c4dc"/>
      </g>
    </g>
    <g id="Grupo_13517" data-name="Grupo 13517" transform="translate(512.409 180.466)">
      <g id="Grupo_13513" data-name="Grupo 13513">
        <rect id="Rectángulo_3203" data-name="Rectángulo 3203" width="5.433" height="5.433" fill="#a0c4dc"/>
      </g>
      <g id="Grupo_13514" data-name="Grupo 13514" transform="translate(0 7.234)">
        <rect id="Rectángulo_3204" data-name="Rectángulo 3204" width="5.433" height="5.433" fill="#a0c4dc"/>
      </g>
      <g id="Grupo_13515" data-name="Grupo 13515" transform="translate(0 14.467)">
        <rect id="Rectángulo_3205" data-name="Rectángulo 3205" width="5.433" height="5.434" fill="#a0c4dc"/>
      </g>
      <g id="Grupo_13516" data-name="Grupo 13516" transform="translate(0 21.7)">
        <rect id="Rectángulo_3206" data-name="Rectángulo 3206" width="5.433" height="5.433" fill="#e5231a"/>
      </g>
    </g>
    <g id="Grupo_13519" data-name="Grupo 13519" transform="translate(479.73 184.602)">
      <g id="Grupo_13518" data-name="Grupo 13518">
        <path id="Trazado_19890" data-name="Trazado 19890" d="M439.29,190.757a5.883,5.883,0,1,1,5.884-5.884A5.889,5.889,0,0,1,439.29,190.757Zm0-10.935a5.052,5.052,0,1,0,5.055,5.052A5.057,5.057,0,0,0,439.29,179.822Z" transform="translate(-433.407 -178.991)" fill="#e5231a"/>
      </g>
    </g>
    <g id="Grupo_13520" data-name="Grupo 13520" transform="translate(475.577 209.521)">
      <rect id="Rectángulo_3207" data-name="Rectángulo 3207" width="25.474" height="2.076" fill="#a0c4dc"/>
    </g>
    <g id="Grupo_13521" data-name="Grupo 13521" transform="translate(490.114 176.988)">
      <rect id="Rectángulo_3208" data-name="Rectángulo 3208" width="27.479" height="1.523" fill="#a0c4dc"/>
    </g>
    <g id="Grupo_13524" data-name="Grupo 13524" transform="translate(408.297 162.522)">
      <g id="Grupo_13522" data-name="Grupo 13522" transform="translate(3.806)">
        <path id="Trazado_19891" data-name="Trazado 19891" d="M373.974,159.521l-.623,10.556,16.095,2.18s2.283-6.956.935-12.874Z" transform="translate(-373.351 -159.382)" fill="#002c35"/>
      </g>
      <g id="Grupo_13523" data-name="Grupo 13523">
        <path id="Trazado_19892" data-name="Trazado 19892" d="M374.4,159.382a58.154,58.154,0,0,1-4.429,12.667l16.267.831s5.05-7.06,4.568-13.5Z" transform="translate(-369.971 -159.382)" fill="#f9ef52"/>
      </g>
    </g>
    <g id="Grupo_13527" data-name="Grupo 13527" transform="translate(429.893 162.937)">
      <g id="Grupo_13525" data-name="Grupo 13525" transform="translate(3.806)">
        <path id="Trazado_19893" data-name="Trazado 19893" d="M393.154,159.89l-.625,10.556,16.093,2.18s2.288-6.957.937-12.874Z" transform="translate(-392.529 -159.751)" fill="#002c35"/>
      </g>
      <g id="Grupo_13526" data-name="Grupo 13526" transform="translate(0)">
        <path id="Trazado_19894" data-name="Trazado 19894" d="M393.58,159.751a58.24,58.24,0,0,1-4.431,12.666l16.268.831s5.05-7.059,4.567-13.5Z" transform="translate(-389.149 -159.751)" fill="#f9ef52"/>
      </g>
    </g>
    <g id="Grupo_13530" data-name="Grupo 13530" transform="translate(406.635 178.719)">
      <g id="Grupo_13528" data-name="Grupo 13528" transform="translate(3.806)">
        <path id="Trazado_19895" data-name="Trazado 19895" d="M372.5,173.9l-.624,10.556,16.1,2.18s2.283-6.957.932-12.874Z" transform="translate(-371.875 -173.766)" fill="#002c35"/>
      </g>
      <g id="Grupo_13529" data-name="Grupo 13529" transform="translate(0)">
        <path id="Trazado_19896" data-name="Trazado 19896" d="M372.925,173.766a58.2,58.2,0,0,1-4.43,12.667l16.267.83s5.052-7.06,4.568-13.5Z" transform="translate(-368.495 -173.766)" fill="#f9ef52"/>
      </g>
    </g>
    <g id="Grupo_13533" data-name="Grupo 13533" transform="translate(429.27 179.133)">
      <g id="Grupo_13531" data-name="Grupo 13531" transform="translate(3.807)">
        <path id="Trazado_19897" data-name="Trazado 19897" d="M392.6,174.273l-.622,10.556,16.094,2.181s2.285-6.957.935-12.875Z" transform="translate(-391.977 -174.134)" fill="#002c35"/>
      </g>
      <g id="Grupo_13532" data-name="Grupo 13532" transform="translate(0)">
        <path id="Trazado_19898" data-name="Trazado 19898" d="M393.025,174.134A58.173,58.173,0,0,1,388.6,186.8l16.267.83s5.053-7.06,4.568-13.5Z" transform="translate(-388.596 -174.134)" fill="#f9ef52"/>
      </g>
    </g>
    <g id="Grupo_13536" data-name="Grupo 13536" transform="translate(405.808 196.162)">
      <g id="Grupo_13534" data-name="Grupo 13534" transform="translate(3.806)">
        <path id="Trazado_19899" data-name="Trazado 19899" d="M371.763,189.395l-.623,10.555,16.093,2.182s2.283-6.957.934-12.875Z" transform="translate(-371.14 -189.256)" fill="#002c35"/>
      </g>
      <g id="Grupo_13535" data-name="Grupo 13535">
        <path id="Trazado_19900" data-name="Trazado 19900" d="M372.189,189.256a58.321,58.321,0,0,1-4.429,12.667l16.264.83s5.054-7.06,4.568-13.5Z" transform="translate(-367.76 -189.256)" fill="#f9ef52"/>
      </g>
    </g>
    <g id="Grupo_13539" data-name="Grupo 13539" transform="translate(428.855 195.746)">
      <g id="Grupo_13537" data-name="Grupo 13537" transform="translate(3.807)">
        <path id="Trazado_19901" data-name="Trazado 19901" d="M392.232,189.026l-.624,10.556,16.094,2.18s2.286-6.956.932-12.874Z" transform="translate(-391.608 -188.887)" fill="#002c35"/>
      </g>
      <g id="Grupo_13538" data-name="Grupo 13538" transform="translate(0)">
        <path id="Trazado_19902" data-name="Trazado 19902" d="M392.658,188.887a58.237,58.237,0,0,1-4.431,12.667l16.266.83s5.052-7.059,4.567-13.5Z" transform="translate(-388.227 -188.887)" fill="#f9ef52"/>
      </g>
    </g>
    <g id="Grupo_13548" data-name="Grupo 13548" transform="translate(218.865 171.327)">
      <g id="Grupo_13541" data-name="Grupo 13541" transform="translate(0 0.645)">
        <g id="Grupo_13540" data-name="Grupo 13540">
          <path id="Trazado_19903" data-name="Trazado 19903" d="M213.4,186.881h-2.1a9.553,9.553,0,0,1,0-19.106h2.1a9.553,9.553,0,0,1,0,19.106Zm-2.1-17.267a7.714,7.714,0,1,0,0,15.427h2.1a7.714,7.714,0,0,0,0-15.427Z" transform="translate(-201.746 -167.775)" fill="#6c3727"/>
        </g>
      </g>
      <g id="Grupo_13543" data-name="Grupo 13543" transform="translate(23.022)">
        <g id="Grupo_13542" data-name="Grupo 13542">
          <path id="Trazado_19904" data-name="Trazado 19904" d="M233.842,167.2h-2.1a9.548,9.548,0,0,0-8.381,14.132,1.26,1.26,0,0,1,.688.1,5.785,5.785,0,0,1,2.637,3.269.884.884,0,0,1,.017.151,9.48,9.48,0,0,0,5.039,1.451h2.1a9.552,9.552,0,0,0,0-19.1Zm0,17.266h-2.1a7.714,7.714,0,1,1,0-15.427h2.1a7.714,7.714,0,0,1,0,15.427Z" transform="translate(-222.191 -167.202)" fill="#6c3727"/>
        </g>
      </g>
      <g id="Grupo_13545" data-name="Grupo 13545" transform="translate(18.991 7.453)">
        <g id="Grupo_13544" data-name="Grupo 13544">
          <path id="Trazado_19905" data-name="Trazado 19905" d="M224.744,174.589a.912.912,0,0,1-1.008.766H219.62a.914.914,0,0,1-1.009-.766h0a.915.915,0,0,1,1.009-.768h4.116a.914.914,0,0,1,1.008.768Z" transform="translate(-218.611 -173.821)" fill="#6c3727"/>
        </g>
      </g>
      <g id="Grupo_13547" data-name="Grupo 13547" transform="translate(11.489 0.999)">
        <g id="Grupo_13546" data-name="Grupo 13546">
          <path id="Trazado_19906" data-name="Trazado 19906" d="M230.668,168.615a.523.523,0,0,1-.526.524H212.474a.522.522,0,0,1-.525-.524h0a.524.524,0,0,1,.525-.526h17.668a.525.525,0,0,1,.526.526Z" transform="translate(-211.949 -168.089)" fill="#6c3727"/>
        </g>
      </g>
    </g>
    <g id="Grupo_13549" data-name="Grupo 13549" transform="translate(199.398 263.233)">
      <path id="Trazado_19907" data-name="Trazado 19907" d="M184.458,248.819,194.7,294.607s1.453,6.022,4.257,5.919,43.918,2.284,43.918,2.284l-41.807,3.877s-10.521,4.428-13.012-9.69Z" transform="translate(-184.458 -248.819)" fill="#233d77"/>
    </g>
    <g id="Grupo_13550" data-name="Grupo 13550" transform="translate(239.921 181.193)">
      <path id="Trazado_19908" data-name="Trazado 19908" d="M227.834,181.876a4.482,4.482,0,0,0-1.4-1.635,11.107,11.107,0,0,0-1.667-1l-1.569-.677a6.07,6.07,0,0,1-1.234-.7,4.923,4.923,0,0,1-.884-.914,4.226,4.226,0,0,1-.523-.981l0,.011a7.882,7.882,0,0,1-.118,1.793,5.005,5.005,0,0,0,.676.991,5.611,5.611,0,0,0,1.42,1.1c.515.292,1,.557,1.533.827a13.424,13.424,0,0,1,1.352.87,3.394,3.394,0,0,1,.947.991,2.291,2.291,0,0,1,.153,1.221,4.791,4.791,0,0,1-1.009,2.439,4.247,4.247,0,0,1-.812.745,5.272,5.272,0,0,1-1.363.606l-.211.065.217.025a2.888,2.888,0,0,0,.628.037,3.772,3.772,0,0,0,.994-.157,3.815,3.815,0,0,0,1.2-.625,4.43,4.43,0,0,0,1.095-1.2,5.047,5.047,0,0,0,.7-1.677A3.549,3.549,0,0,0,227.834,181.876Z" transform="translate(-220.444 -175.963)" fill="#ee8d72"/>
    </g>
    <g id="Grupo_13551" data-name="Grupo 13551" transform="translate(101.248 335.083)">
      <rect id="Rectángulo_3209" data-name="Rectángulo 3209" width="146.268" height="10.797" fill="#89ad1f"/>
    </g>
    <g id="Grupo_13552" data-name="Grupo 13552" transform="translate(247.516 335.083)">
      <rect id="Rectángulo_3210" data-name="Rectángulo 3210" width="313.891" height="10.797" fill="#c6e545"/>
    </g>
  </g>
</svg>
